<svg width="802" height="802" viewBox="0 0 802 802" fill="none" xmlns="http://www.w3.org/2000/svg">
<g id="circle_label-metal">
<mask id="mask0_2393_21015" style="mask-type:alpha" maskUnits="userSpaceOnUse" x="0" y="0" width="802" height="802">
<rect id="mask-metal" x="801.859" y="400.93" width="567" height="567" transform="rotate(135 801.859 400.93)" fill="#D9D9D9"/>
</mask>
<g mask="url(#mask0_2393_21015)">
<g id="label_group-metal">
<g id="label-metal">
<g id="base-metal" filter="url(#filter0_d_2393_21015)">
<rect id="rect" x="203.074" y="500.992" width="274" height="103" rx="11.0163" fill="#FF6249"/>
<g id="Group 387">
<path id="Vector" d="M500.475 479.054C506.801 481.109 510.264 487.904 508.208 494.23L489.567 551.603L499.575 546.503C506.125 543.166 514.142 545.77 517.48 552.321C520.817 558.872 518.213 566.889 511.662 570.227L471.261 590.81C464.729 595.379 456.207 596.936 448.042 594.283L413.752 583.141C399.936 578.652 392.375 563.813 396.864 549.997L421.557 473.997C423.613 467.671 430.407 464.21 436.733 466.265C443.059 468.32 446.521 475.114 444.466 481.44L432.61 517.927C433.324 518.094 434.038 518.292 434.748 518.522L469.038 529.664C469.748 529.894 470.44 530.154 471.116 530.438L485.299 486.787C487.355 480.461 494.149 476.998 500.475 479.054Z" fill="#5756D6" stroke="#1B1B1B" stroke-width="2.5624"/>
<rect id="Rectangle 245" x="436.521" y="497.599" width="24.0873" height="49.648" rx="12.0436" transform="rotate(17.9998 436.521 497.599)" fill="#5756D6" stroke="#1B1B1B" stroke-width="2.5624"/>
<rect id="Rectangle 246" x="456.994" y="504.25" width="24.0873" height="49.648" rx="12.0436" transform="rotate(17.9998 456.994 504.25)" fill="#5756D6" stroke="#1B1B1B" stroke-width="2.5624"/>
</g>
</g>
<g id="content-metal">
<path id="It&#226;&#128;&#153;s giving" d="M225.586 547.159H220.58C221.532 543.634 222.59 539.545 223.964 533.94C225.374 528.299 226.432 524.21 227.172 520.72H232.178C231.226 524.175 230.204 528.264 228.794 533.904C227.384 539.509 226.362 543.599 225.586 547.159ZM234.077 520.72H247.966C247.79 521.249 247.578 522.095 247.402 522.87C247.226 523.576 247.014 524.492 246.873 525.091C245.287 525.056 243.736 525.056 242.326 525.056C240.175 533.552 237.355 545.115 236.932 547.194C236.262 547.124 235.17 547.124 234.429 547.124C233.689 547.124 232.667 547.124 231.962 547.194C232.561 545.15 235.452 533.552 237.602 525.056C236.192 525.056 234.606 525.056 232.984 525.091C233.16 524.492 233.407 523.576 233.583 522.87C233.76 522.095 233.971 521.284 234.077 520.72ZM249.228 520.72C249.827 520.755 250.567 520.755 251.378 520.755C252.012 520.755 252.894 520.755 253.599 520.72C252.365 523.435 249.298 530.027 248.487 531.754C247.641 531.613 246.231 531.366 245.35 531.296C246.372 528.934 248.522 523.082 249.228 520.72ZM267.075 529.463H264.924C264.078 529.463 263.197 529.463 262.633 529.498C262.809 528.828 263.021 528.158 263.162 527.489C263.62 525.479 263.162 524.457 260.729 524.457C258.685 524.457 257.698 525.303 257.275 526.96C256.781 528.793 256.922 530.379 259.989 531.825C263.973 533.693 265.488 536.654 264.396 540.955C263.373 545.15 261.293 547.582 256.006 547.582C249.907 547.582 248.003 544.339 249.026 540.25C249.272 539.333 249.413 538.769 249.59 538.17C250.118 538.276 250.929 538.311 251.811 538.311C252.798 538.311 253.644 538.311 254.384 538.24C254.243 538.699 254.137 539.157 253.996 539.545C253.326 542.365 253.785 543.422 256.358 543.422C258.544 543.422 259.46 542.647 259.919 540.849C260.447 538.699 260.06 536.901 257.239 535.702C252.586 533.658 251.564 530.591 252.621 526.466C253.573 522.553 256.358 520.297 261.223 520.297C267.11 520.297 268.696 523.258 267.639 527.312C267.462 527.982 267.286 528.687 267.075 529.463ZM285.068 520.332C290.919 520.332 292.435 524.527 291.342 528.722C291.272 529.145 291.131 529.604 290.99 530.097C290.461 530.062 289.58 530.027 288.734 530.027C287.817 530.027 286.901 530.027 286.266 530.097C286.442 529.604 286.548 529.181 286.619 528.793C287.394 525.832 286.619 524.598 284.504 524.598C282.071 524.598 280.379 526.184 278.511 533.693C276.642 541.202 277.136 543.352 280.062 543.352C282.424 543.352 283.517 541.836 284.715 536.584C283.481 536.619 282.036 536.619 280.978 536.654C281.084 536.302 281.26 535.561 281.366 535.173C281.578 534.292 281.754 533.587 281.86 533.023C283.199 533.058 284.539 533.058 285.526 533.058C286.795 533.058 288.452 533.094 290.144 533.023C288.135 542.788 286.09 547.547 279.533 547.547C273.011 547.547 271.425 542.435 273.822 532.741C276.008 523.999 279.463 520.332 285.068 520.332ZM294.86 547.159H289.854C290.806 543.634 291.864 539.545 293.238 533.94C294.648 528.299 295.706 524.21 296.446 520.72H301.452C300.5 524.175 299.478 528.264 298.068 533.904C296.658 539.509 295.636 543.599 294.86 547.159ZM315.054 520.72H320.448C317.416 527.242 310.542 543.246 308.815 547.159C307.898 547.124 306.594 547.089 305.184 547.089C303.21 547.089 302.117 547.124 301.447 547.159C301.694 543.246 302.998 526.396 303.034 520.72H308.462C308.039 523.576 307.088 531.966 306.488 538.17C306.312 540.179 306.171 541.907 306.03 543.246H306.241C306.77 541.871 307.44 540.144 308.251 538.205C310.754 531.966 314.173 523.293 315.054 520.72ZM320.373 547.159H315.367C316.319 543.634 317.376 539.545 318.751 533.94C320.161 528.299 321.219 524.21 321.959 520.72H326.965C326.013 524.175 324.991 528.264 323.581 533.904C322.17 539.509 321.148 543.599 320.373 547.159ZM342.365 520.72H346.701C346.102 523.152 344.727 528.299 343.352 533.904C341.871 539.791 340.884 543.74 340.074 547.159H334.962C334.751 544.515 333.975 538.452 333.305 533.164C333.094 530.767 332.988 528.264 333.058 525.796C332.494 528.793 331.966 531.472 331.402 533.763C329.709 540.708 328.581 545.291 328.158 547.159H323.717C324.598 543.704 325.691 539.58 327.066 533.94C328.476 528.335 329.568 523.963 330.309 520.72H336.09C336.196 522.694 336.971 529.004 337.535 534.574C337.712 536.407 337.958 538.558 337.958 540.673C338.417 538.135 338.84 535.702 339.474 533.235C340.532 529.075 341.836 523.293 342.365 520.72ZM357.456 520.332C363.307 520.332 364.823 524.527 363.73 528.722C363.66 529.145 363.519 529.604 363.378 530.097C362.849 530.062 361.968 530.027 361.122 530.027C360.205 530.027 359.289 530.027 358.654 530.097C358.83 529.604 358.936 529.181 359.007 528.793C359.782 525.832 359.007 524.598 356.892 524.598C354.459 524.598 352.767 526.184 350.899 533.693C349.03 541.202 349.524 543.352 352.45 543.352C354.812 543.352 355.905 541.836 357.103 536.584C355.869 536.619 354.424 536.619 353.366 536.654C353.472 536.302 353.648 535.561 353.754 535.173C353.966 534.292 354.142 533.587 354.248 533.023C355.587 533.058 356.927 533.058 357.914 533.058C359.183 533.058 360.84 533.094 362.532 533.023C360.523 542.788 358.478 547.547 351.921 547.547C345.399 547.547 343.813 542.435 346.21 532.741C348.396 523.999 351.851 520.332 357.456 520.332Z" fill="#1B1B1B"/>
<path id="metal" d="M265.386 587.368H252.131C252.272 584.372 252.378 581.975 252.448 578.696C252.448 577.145 252.554 575.382 252.66 573.585L252.448 573.549C251.849 575.488 251.25 577.357 250.721 578.661L247.055 587.368H239.898L236.056 578.273C235.562 577.004 234.928 575.136 234.364 573.267L234.188 573.338C234.293 575.065 234.399 576.722 234.434 578.52C234.47 581.904 234.54 584.513 234.646 587.368H223.118C223.295 583.561 223.33 579.718 223.33 574.113C223.33 568.332 223.295 564.384 223.154 560.929H241.238C241.872 563.291 242.754 566.041 243.847 569.39C244.164 570.623 244.587 572.245 245.01 573.831H245.08C245.503 572.21 245.926 570.623 246.244 569.39C247.301 566.182 248.253 563.22 248.852 560.929H265.315C265.245 564.384 265.174 568.332 265.174 574.113C265.174 579.718 265.174 583.561 265.386 587.368ZM268.266 560.929H297.596C297.561 561.81 297.49 563.291 297.49 564.49C297.49 565.794 297.525 567.31 297.596 568.156C292.731 568.121 287.091 568.085 282.896 568.085V570.764C287.69 570.764 293.26 570.729 297.243 570.588C297.208 572.069 297.173 575.171 297.208 576.793C293.33 576.687 287.655 576.616 282.896 576.616V579.366C287.197 579.366 293.26 579.331 297.596 579.295C297.525 580.318 297.525 581.975 297.525 583.42C297.525 584.76 297.525 586.311 297.596 587.368H268.266C268.407 583.631 268.442 579.789 268.442 574.149C268.442 568.544 268.407 564.595 268.266 560.929ZM298.824 560.929H328.224C328.118 562.233 328.118 564.243 328.118 566.076C328.118 567.874 328.118 569.989 328.224 571.434C325.897 571.399 323.535 571.364 321.314 571.364C321.35 578.837 321.42 585.711 321.491 587.403C319.411 587.298 315.991 587.298 313.524 587.298C311.056 587.298 307.707 587.298 305.557 587.403C305.663 585.711 305.733 578.837 305.768 571.364C303.547 571.364 301.186 571.399 298.824 571.434C298.894 569.989 298.894 567.874 298.894 566.076C298.894 564.243 298.894 562.233 298.824 560.929ZM344.858 576.511H347.361C346.974 574.254 346.48 571.963 345.951 569.848C345.493 568.297 345.105 566.569 344.823 565.195H344.753C344.471 566.569 344.083 568.262 343.66 569.883C343.166 571.998 342.708 574.254 342.285 576.511H344.858ZM365.093 587.368H348.736C348.701 586.275 348.56 584.618 348.313 582.68H344.858H341.263C340.981 584.618 340.805 586.275 340.769 587.368H325.858C328.149 580.67 332.238 564.525 332.943 560.929H357.655C358.501 564.595 362.696 580.67 365.093 587.368ZM380.972 574.395V577.075C383.581 577.075 386.789 577.039 389.785 576.969C389.75 578.696 389.715 580.423 389.715 582.151C389.715 583.913 389.75 585.641 389.785 587.368H365.884C365.92 585.218 366.061 579.789 366.061 574.149C366.061 568.367 366.025 563.467 365.884 560.929H381.184C381.078 562.868 381.008 568.72 380.972 574.395Z" fill="#1B1B1B"/>
</g>
<mask id="mask1_2393_21015" style="mask-type:alpha" maskUnits="userSpaceOnUse" x="203" y="464" width="318" height="140">
<g id="highlight_mask-metal">
<rect id="rect_2" x="203.074" y="500.992" width="274" height="103" rx="11.0163" fill="#FF6249"/>
<g id="Group 387_2">
<path id="Vector_2" d="M500.475 479.054C506.801 481.109 510.264 487.904 508.208 494.23L489.567 551.603L499.575 546.503C506.125 543.166 514.142 545.77 517.48 552.321C520.817 558.872 518.213 566.889 511.662 570.227L471.261 590.81C464.729 595.379 456.207 596.936 448.042 594.283L413.752 583.141C399.936 578.652 392.375 563.813 396.864 549.997L421.557 473.997C423.613 467.671 430.407 464.21 436.733 466.265C443.059 468.32 446.521 475.114 444.466 481.44L432.61 517.927C433.324 518.094 434.038 518.292 434.748 518.522L469.038 529.664C469.748 529.894 470.44 530.154 471.116 530.438L485.299 486.787C487.355 480.461 494.149 476.998 500.475 479.054Z" fill="#5756D6" stroke="#1B1B1B" stroke-width="2.5624"/>
<rect id="Rectangle 245_2" x="436.521" y="497.599" width="24.0873" height="49.648" rx="12.0436" transform="rotate(17.9998 436.521 497.599)" fill="#5756D6" stroke="#1B1B1B" stroke-width="2.5624"/>
<rect id="Rectangle 246_2" x="456.994" y="504.25" width="24.0873" height="49.648" rx="12.0436" transform="rotate(17.9998 456.994 504.25)" fill="#5756D6" stroke="#1B1B1B" stroke-width="2.5624"/>
</g>
</g>
</mask>
<g mask="url(#mask1_2393_21015)">
<rect id="highlight-metal" opacity="0.4" width="117.993" height="656.477" transform="matrix(0.992561 -0.121747 0.122685 0.992446 326.074 228.364)" fill="url(#paint0_radial_2393_21015)"/>
</g>
</g>
<g id="flap_group-metal" filter="url(#filter1_d_2393_21015)">
<mask id="mask2_2393_21015" style="mask-type:alpha" maskUnits="userSpaceOnUse" x="-71" y="603" width="275" height="104">
<rect id="flap_mask-metal" x="-70.9258" y="603.992" width="274" height="103" rx="11.0163" fill="#F7FCFD"/>
</mask>
<g mask="url(#mask2_2393_21015)">
<rect id="flap-metal" x="-70.9258" y="603.992" width="274" height="103" rx="11.0163" fill="#F7FCFD"/>
<rect id="shadow-metal" opacity="0.5" width="117.29" height="1348.64" transform="matrix(-0.707107 0.707107 -0.702972 -0.711218 736.988 1115.17)" fill="url(#paint1_radial_2393_21015)"/>
</g>
</g>
</g>
</g>
</g>
<defs>
<filter id="filter0_d_2393_21015" x="199.074" y="460.391" width="333.141" height="155.602" filterUnits="userSpaceOnUse" color-interpolation-filters="sRGB">
<feFlood flood-opacity="0" result="BackgroundImageFix"/>
<feColorMatrix in="SourceAlpha" type="matrix" values="0 0 0 0 0 0 0 0 0 0 0 0 0 0 0 0 0 0 127 0" result="hardAlpha"/>
<feOffset dx="4" dy="4"/>
<feGaussianBlur stdDeviation="4"/>
<feComposite in2="hardAlpha" operator="out"/>
<feColorMatrix type="matrix" values="0 0 0 0 0 0 0 0 0 0 0 0 0 0 0 0 0 0 0.3 0"/>
<feBlend mode="normal" in2="BackgroundImageFix" result="effect1_dropShadow_2393_21015"/>
<feBlend mode="normal" in="SourceGraphic" in2="effect1_dropShadow_2393_21015" result="shape"/>
</filter>
<filter id="filter1_d_2393_21015" x="-74.9258" y="599.992" width="290" height="119" filterUnits="userSpaceOnUse" color-interpolation-filters="sRGB">
<feFlood flood-opacity="0" result="BackgroundImageFix"/>
<feColorMatrix in="SourceAlpha" type="matrix" values="0 0 0 0 0 0 0 0 0 0 0 0 0 0 0 0 0 0 127 0" result="hardAlpha"/>
<feOffset dx="4" dy="4"/>
<feGaussianBlur stdDeviation="4"/>
<feComposite in2="hardAlpha" operator="out"/>
<feColorMatrix type="matrix" values="0 0 0 0 0 0 0 0 0 0 0 0 0 0 0 0 0 0 0.2 0"/>
<feBlend mode="normal" in2="BackgroundImageFix" result="effect1_dropShadow_2393_21015"/>
<feBlend mode="normal" in="SourceGraphic" in2="effect1_dropShadow_2393_21015" result="shape"/>
</filter>
<radialGradient id="paint0_radial_2393_21015" cx="0" cy="0" r="1" gradientUnits="userSpaceOnUse" gradientTransform="translate(58.9966 328.239) rotate(90) scale(328.239 58.9966)">
<stop stop-color="white"/>
<stop offset="1" stop-color="#999999" stop-opacity="0"/>
</radialGradient>
<radialGradient id="paint1_radial_2393_21015" cx="0" cy="0" r="1" gradientUnits="userSpaceOnUse" gradientTransform="translate(58.645 674.321) rotate(90) scale(674.321 58.645)">
<stop offset="0.216346" stop-color="#1C1925"/>
<stop offset="1" stop-color="#999999" stop-opacity="0"/>
</radialGradient>
</defs>
</svg>
