<svg width="802" height="802" viewBox="0 0 802 802" fill="none" xmlns="http://www.w3.org/2000/svg">
<g id="circle_label-zero">
<mask id="mask0_2393_20931" style="mask-type:alpha" maskUnits="userSpaceOnUse" x="0" y="0" width="802" height="802">
<rect id="mask-zero" x="801.859" y="400.93" width="567" height="567" transform="rotate(135 801.859 400.93)" fill="#D9D9D9"/>
</mask>
<g mask="url(#mask0_2393_20931)">
<g id="label_group-zero">
<g id="label-zero">
<g id="base-zero" filter="url(#filter0_d_2393_20931)">
<circle cx="484.012" cy="488.981" r="115" fill="#D4F75F"/>
</g>
<g id="content-zero">
<path id="SENSE" d="M440.639 528.533V530.21C440.639 532.991 441.293 533.891 443.42 533.891C445.465 533.891 446.119 533.032 446.119 531.232C446.119 528.942 445.342 527.306 442.07 526.12C436.181 523.953 434.545 521.049 434.545 515.978C434.545 510.661 437.408 507.88 443.543 507.88C450.291 507.88 452.499 510.416 452.499 515.855C452.499 516.714 452.458 517.614 452.417 518.636C451.599 518.595 450.332 518.554 449.187 518.554C448.164 518.554 447.223 518.554 446.61 518.595C446.651 517.818 446.651 517.123 446.651 516.387C446.651 514.383 445.997 513.401 443.87 513.401C441.989 513.401 441.293 514.301 441.293 515.937C441.252 517.941 441.784 519.495 445.342 520.886C450.454 522.89 452.704 525.671 452.704 531.028C452.704 536.508 450.168 539.453 443.747 539.453C436.754 539.453 434.464 536.59 434.464 531.355C434.464 530.251 434.504 529.392 434.586 528.452C435.445 528.533 436.672 528.615 437.981 528.615C439.003 528.615 439.944 528.615 440.639 528.533ZM454.671 508.33H470.743C470.702 509.066 470.702 510.375 470.702 511.397C470.702 512.502 470.702 513.974 470.743 514.751C467.43 514.71 464.159 514.669 461.541 514.669V520.477C464.69 520.477 467.798 520.477 470.457 520.395C470.457 521.703 470.416 524.73 470.457 526.202C467.839 526.12 464.69 526.079 461.541 526.079V532.173C464.2 532.173 467.594 532.132 470.743 532.091C470.702 532.95 470.702 534.422 470.702 535.649C470.702 536.713 470.702 538.144 470.743 539.003H454.671C454.793 534.913 454.793 530.21 454.793 523.667C454.793 517.164 454.793 512.174 454.671 508.33ZM486.802 508.33H492.773C492.733 510.784 492.651 517.123 492.651 523.626C492.651 530.455 492.651 535.077 492.733 539.003H485.616C484.758 536.222 482.713 530.619 480.832 525.916C480.014 523.298 479.4 520.558 478.868 517.818H478.787C478.991 521.09 479.114 523.994 479.155 526.611C479.196 532.991 479.237 537.285 479.277 539.003H473.225C473.225 534.954 473.266 530.21 473.266 523.667C473.266 517.164 473.266 512.297 473.225 508.33H481.118C481.649 510.416 483.981 516.51 485.739 521.99C486.394 523.953 486.925 526.325 487.375 528.738L487.416 528.697C487.211 525.916 487.089 523.298 487.048 520.845C487.048 516.591 486.925 511.152 486.802 508.33ZM501.091 528.533V530.21C501.091 532.991 501.746 533.891 503.872 533.891C505.917 533.891 506.571 533.032 506.571 531.232C506.571 528.942 505.794 527.306 502.523 526.12C496.633 523.953 494.998 521.049 494.998 515.978C494.998 510.661 497.86 507.88 503.995 507.88C510.743 507.88 512.951 510.416 512.951 515.855C512.951 516.714 512.91 517.614 512.87 518.636C512.052 518.595 510.784 518.554 509.639 518.554C508.616 518.554 507.676 518.554 507.062 518.595C507.103 517.818 507.103 517.123 507.103 516.387C507.103 514.383 506.449 513.401 504.322 513.401C502.441 513.401 501.746 514.301 501.746 515.937C501.705 517.941 502.236 519.495 505.794 520.886C510.906 522.89 513.156 525.671 513.156 531.028C513.156 536.508 510.62 539.453 504.199 539.453C497.206 539.453 494.916 536.59 494.916 531.355C494.916 530.251 494.957 529.392 495.038 528.452C495.897 528.533 497.124 528.615 498.433 528.615C499.455 528.615 500.396 528.615 501.091 528.533ZM515.123 508.33H531.195C531.154 509.066 531.154 510.375 531.154 511.397C531.154 512.502 531.154 513.974 531.195 514.751C527.883 514.71 524.611 514.669 521.993 514.669V520.477C525.142 520.477 528.251 520.477 530.909 520.395C530.909 521.703 530.868 524.73 530.909 526.202C528.292 526.12 525.142 526.079 521.993 526.079V532.173C524.652 532.173 528.046 532.132 531.195 532.091C531.154 532.95 531.154 534.422 531.154 535.649C531.154 536.713 531.154 538.144 531.195 539.003H515.123C515.245 534.913 515.245 530.21 515.245 523.667C515.245 517.164 515.245 512.174 515.123 508.33Z" fill="#1B1B1B"/>
<path id="0%" d="M476.895 464.593C476.895 484.004 472.159 491.275 461.085 491.275C450.012 491.275 445.476 484.004 445.476 464.593C445.476 445.448 450.746 439.911 461.152 439.911C471.425 439.911 476.895 445.448 476.895 464.593ZM461.152 450.584C458.15 450.584 456.483 452.585 456.483 464.793C456.549 477.4 458.084 479.735 461.152 479.735C464.221 479.735 465.755 477.4 465.755 464.793C465.755 452.585 464.154 450.584 461.152 450.584ZM478.666 490.608C482.802 485.339 491.207 475.799 495.343 472.331C496.21 472.931 497.144 473.531 497.945 473.998C496.21 477.734 493.008 486.806 492.141 490.675C489.673 490.542 487.338 490.542 484.937 490.542C482.669 490.542 480.334 490.542 478.666 490.608ZM500.813 457.121C502.547 453.453 505.683 444.38 506.617 440.511C509.085 440.578 511.419 440.645 513.888 440.645C516.156 440.645 518.357 440.645 520.091 440.578C515.889 445.981 507.417 455.387 503.348 458.789C502.547 458.189 501.614 457.588 500.813 457.121ZM491.674 455.387C491.674 448.049 490.54 446.649 488.406 446.649C486.338 446.649 485.204 447.983 485.204 455.387C485.204 462.792 486.271 464.726 488.406 464.726C490.607 464.726 491.674 462.792 491.674 455.387ZM499.145 455.187C499.145 467.328 495.677 471.93 488.406 471.93C481.134 471.93 477.866 467.328 477.866 455.187C477.866 443.113 481.535 439.911 488.406 439.911C495.276 439.911 499.145 443.113 499.145 455.187ZM513.621 474.665C513.621 467.328 512.42 465.927 510.352 465.927C508.284 465.927 507.084 467.328 507.084 474.665C507.084 482.07 508.218 484.071 510.352 484.071C512.487 484.071 513.621 482.07 513.621 474.665ZM521.025 474.465C521.025 486.673 517.556 491.209 510.285 491.209C503.014 491.209 499.746 486.673 499.746 474.465C499.746 462.458 503.415 459.189 510.285 459.189C517.156 459.189 521.025 462.458 521.025 474.465Z" fill="#1B1B1B"/>
<g id="Linked Path Group">
<path id="[Copy] Makes zero sense Makes zero sense Makes zero sense" d="M573.837 474.011L573.137 471.408C575.746 470.8 577.829 470.259 580.647 469.521C581.625 469.258 582.739 469.014 583.779 468.772L583.773 468.68C582.658 468.643 581.477 468.567 580.54 468.425L571.992 467.145L571.682 465.993L578.597 460.5C579.384 459.877 580.316 459.233 581.175 458.665L581.129 458.565C580.038 458.895 578.922 459.27 577.861 459.574C575.014 460.34 573.119 460.886 570.513 461.643L569.888 459.32C571.789 458.865 573.693 458.353 576.47 457.607C579.335 456.837 581.292 456.311 582.994 455.816L583.891 459.152C582.788 460.067 580.109 462.154 577.509 464.258C576.955 464.706 576.158 465.295 575.399 465.817L575.418 465.887C576.302 465.968 577.229 466.075 577.995 466.206C581.25 466.68 584.637 467.156 586.107 467.397L586.933 470.472C585.207 470.879 583.246 471.388 580.381 472.158C577.604 472.904 575.705 473.434 573.837 474.011Z" fill="#1B1B1B"/>
<path id="[Copy] Makes zero sense Makes zero sense Makes zero sense_2" d="M578.964 482.471L579.27 482.438C579.308 481.597 579.247 480.676 579.143 479.705C578.962 477.996 578.376 477.276 577.279 477.393C576.289 477.498 575.833 478.165 575.997 479.712C576.202 481.637 577.4 482.637 578.964 482.471ZM576.652 482.789L576.658 482.679C575.164 482.311 574.301 481.038 574.081 478.97C573.831 476.614 574.554 475.209 576.677 474.983C578.871 474.75 580.001 476.139 580.332 479.251C580.462 480.474 580.507 481.579 580.441 482.332C580.821 482.31 581.181 482.271 581.486 482.239C582.817 482.097 583.592 481.342 583.405 479.579C583.221 477.852 582.417 477.138 580.912 477.352C580.898 477.044 580.858 476.667 580.816 476.271C580.762 475.767 580.71 475.282 580.62 474.946C583.107 474.554 585.098 475.834 585.471 479.341C585.852 482.921 584.288 484.469 581.86 484.728C580.511 484.871 579.496 484.906 578.201 485.044C576.942 485.178 575.477 485.424 574.972 485.642L574.751 483.555C574.699 483.07 574.759 482.954 575.335 482.893C575.713 482.853 576.2 482.819 576.652 482.789Z" fill="#1B1B1B"/>
<path id="[Copy] Makes zero sense Makes zero sense Makes zero sense_3" d="M585.78 494.742L585.724 497.762C584.34 496.325 581.687 493.997 580.233 492.343C578.737 494.016 576.126 496.338 574.798 497.725L574.848 495.012C574.855 494.578 574.932 494.362 575.189 494.168C576.514 492.944 578.501 491.099 579.592 489.834L579.594 489.726C577.93 489.695 576.537 489.67 574.945 489.677L574.992 487.109C577.144 487.184 579.423 487.226 581.954 487.272C584.667 487.322 586.692 487.377 588.99 487.365L588.943 489.951C586.702 489.838 584.766 489.82 581.728 489.765L580.661 489.745L580.659 489.836C581.227 490.443 581.83 491.087 582.364 491.604C583.803 493.005 584.888 494.038 585.78 494.742Z" fill="#1B1B1B"/>
<path id="[Copy] Makes zero sense Makes zero sense Makes zero sense_4" d="M583.234 504.004C583.478 502.23 582.815 501.08 580.585 500.571C580.296 502.266 579.975 504.723 579.816 506.144C579.977 506.166 580.172 506.211 580.387 506.241C582.017 506.466 582.981 505.832 583.234 504.004ZM576.904 508.061C574.677 507.79 573.242 506.679 573.783 502.755C574.248 499.386 576.344 497.557 580.161 498.084C584.049 498.621 585.527 501.016 585.067 504.348C584.585 507.843 582.602 508.847 579.896 508.474C579.179 508.375 578.591 508.275 578.13 508.175C578.269 507.3 578.481 505.759 578.733 503.931C578.914 502.623 579.094 501.315 579.243 500.368C576.935 500.159 575.893 501.092 575.626 503.028C575.357 504.981 576.035 505.622 577.215 505.803C577.135 506.121 577.068 506.477 577.003 506.943C576.939 507.408 576.91 507.751 576.904 508.061Z" fill="#1B1B1B"/>
<path id="[Copy] Makes zero sense Makes zero sense Makes zero sense_5" d="M578.333 517.535L578.666 517.623C579.662 517.886 580.283 517.376 580.773 515.522C581.239 513.756 581.013 512.985 580.226 512.778C579.509 512.588 578.894 512.931 577.935 515.503C576.713 518.641 575.479 519.419 573.555 518.911C571.561 518.384 570.741 516.671 571.647 513.243C572.626 509.536 574.157 508.556 576.238 509.105C576.413 509.151 576.565 509.21 576.758 509.261C576.649 509.532 576.521 509.947 576.396 510.419C576.29 510.821 576.184 511.224 576.145 511.513C576.044 511.467 575.939 511.44 575.852 511.417C574.768 511.13 574.088 511.793 573.566 513.769C573.085 515.588 573.33 516.363 574.204 516.594C575.009 516.806 575.62 516.332 576.544 513.826C577.754 510.591 579.148 509.986 580.88 510.443C582.943 510.988 583.524 512.825 582.67 516.061C581.797 519.366 580.396 520.493 578.315 519.943C578.105 519.888 577.952 519.829 577.729 519.751C577.821 519.476 577.958 519.026 578.074 518.589C578.185 518.169 578.273 517.762 578.333 517.535Z" fill="#1B1B1B"/>
<path id="[Copy] Makes zero sense Makes zero sense Makes zero sense_6" d="M569.561 526.625L569.471 526.605C569.18 527.347 568.842 528.107 568.556 528.752C567.777 530.504 567.257 531.718 566.96 532.477C566.735 532.357 566.24 532.137 566.008 532.034C565.711 531.902 565.397 531.762 564.993 531.602L568.872 522.875C569.146 523.016 569.41 523.134 569.675 523.252L570.518 523.626C570.876 524.914 572.359 527.988 573.189 529.862C573.683 530.933 574.054 531.79 574.247 532.47L574.344 532.473C574.591 531.831 574.874 531.105 575.219 530.328C576.13 528.279 576.481 527.445 576.876 526.512C577.142 526.67 577.654 526.898 577.886 527.001C578.15 527.118 578.497 527.273 578.81 527.372L574.967 536.016L574.206 535.678L573.231 535.245C572.822 534.073 571.626 531.463 570.58 529.276C570.174 528.363 569.774 527.393 569.561 526.625Z" fill="#1B1B1B"/>
<path id="[Copy] Makes zero sense Makes zero sense Makes zero sense_7" d="M569.836 541.723C570.754 540.186 570.593 538.868 568.739 537.529C567.811 538.976 566.556 541.113 565.854 542.358C565.994 542.442 566.156 542.559 566.342 542.671C567.755 543.515 568.89 543.307 569.836 541.723ZM562.425 542.986C560.481 541.867 559.593 540.283 561.624 536.882C563.368 533.963 566.012 533.098 569.32 535.074C572.69 537.086 573.114 539.868 571.389 542.756C569.581 545.785 567.363 545.935 565.018 544.535C564.397 544.164 563.894 543.842 563.509 543.57C563.979 542.818 564.776 541.483 565.722 539.899C566.399 538.765 567.076 537.631 567.583 536.817C565.54 535.723 564.216 536.176 563.215 537.853C562.204 539.546 562.578 540.401 563.593 541.029C563.395 541.29 563.194 541.591 562.953 541.995C562.712 542.399 562.551 542.703 562.425 542.986Z" fill="#1B1B1B"/>
<path id="[Copy] Makes zero sense Makes zero sense Makes zero sense_8" d="M563.995 549.093L563.904 549.183C565.013 550.718 564.914 552.114 563.904 553.459C563.501 553.994 563.042 554.395 562.571 554.72C562.188 554.297 561.349 553.485 560.836 553.054C561.325 552.766 561.759 552.368 562.161 551.833C563.234 550.376 563.163 549.056 561.095 547.502C559.678 546.437 557.859 545.093 556.858 544.408L558.477 542.254C559.67 543.195 560.971 544.173 562.851 545.586C564.702 546.977 565.946 547.912 567.196 548.806L565.86 550.585C565.321 550.157 564.736 549.672 563.995 549.093Z" fill="#1B1B1B"/>
<path id="[Copy] Makes zero sense Makes zero sense Makes zero sense_9" d="M552.013 558.523C553.771 560.166 555.413 559.918 556.71 558.531C557.995 557.156 558.144 555.513 556.373 553.858C554.602 552.203 552.853 552.326 551.556 553.714C550.235 555.128 550.256 556.881 552.013 558.523ZM550.386 560.37C547.717 557.875 547.637 554.755 549.984 552.244C552.318 549.747 555.411 549.642 558.081 552.137C560.764 554.644 560.557 557.62 558.309 560.025C556.061 562.43 553.069 562.877 550.386 560.37Z" fill="#1B1B1B"/>
<path id="[Copy] Makes zero sense Makes zero sense Makes zero sense_10" d="M541.18 569.974L541.387 570.248C542.008 571.071 542.811 571.054 544.342 569.899C545.8 568.799 546.098 568.052 545.607 567.403C545.161 566.811 544.466 566.701 542.122 568.13C539.223 569.843 537.771 569.691 536.573 568.103C535.33 566.458 535.744 564.604 538.574 562.468C541.635 560.158 543.444 560.333 544.741 562.051C544.85 562.196 544.933 562.336 545.053 562.495C544.801 562.641 544.443 562.888 544.053 563.182C543.721 563.433 543.389 563.683 543.18 563.887C543.129 563.789 543.064 563.702 543.009 563.63C542.334 562.735 541.39 562.836 539.758 564.067C538.257 565.2 537.97 565.961 538.515 566.683C539.016 567.347 539.79 567.352 542.065 565.952C545.015 564.156 546.485 564.542 547.564 565.971C548.85 567.675 548.172 569.479 545.501 571.495C542.772 573.554 540.974 573.574 539.677 571.856C539.547 571.683 539.463 571.542 539.336 571.344C539.578 571.184 539.964 570.915 540.325 570.642C540.671 570.381 540.992 570.116 541.18 569.974Z" fill="#1B1B1B"/>
<path id="[Copy] Makes zero sense Makes zero sense Makes zero sense_11" d="M534.105 576.83C535.652 575.927 536.147 574.695 535.17 572.626C533.659 573.446 531.528 574.711 530.312 575.462C530.394 575.603 530.479 575.784 530.588 575.971C531.418 577.393 532.512 577.76 534.105 576.83ZM527.006 574.355C525.844 572.437 525.831 570.622 529.252 568.624C532.189 566.91 534.922 567.43 536.865 570.757C538.844 574.147 537.872 576.788 534.966 578.484C531.92 580.262 529.905 579.323 528.528 576.964C528.164 576.339 527.878 575.815 527.673 575.39C528.447 574.959 529.791 574.175 531.384 573.245C532.524 572.579 533.665 571.913 534.502 571.446C533.241 569.501 531.863 569.258 530.176 570.243C528.473 571.237 528.388 572.166 528.974 573.206C528.675 573.339 528.353 573.506 527.947 573.743C527.541 573.98 527.253 574.169 527.006 574.355Z" fill="#1B1B1B"/>
<path id="[Copy] Makes zero sense Makes zero sense Makes zero sense_12" d="M514.327 575.924L516.741 574.899C517.344 576.412 518.133 578.317 519.207 580.848C519.879 582.43 520.82 582.934 522.451 582.242C524.017 581.578 524.919 580.232 524.107 578.317C522.686 574.97 522.168 573.795 521.72 572.786L524.101 571.776C524.654 573.172 525.182 574.461 526.129 576.692C527.054 578.874 527.764 580.498 528.362 581.816L525.965 582.834C525.713 582.194 525.508 581.711 525.28 581.081L525.173 581.107C525.091 582.674 524.087 583.827 522.289 584.59C519.941 585.587 518.198 584.951 517.088 582.337C516.438 580.805 516.196 580.142 515.793 579.193C515.291 578.01 514.829 576.968 514.327 575.924Z" fill="#1B1B1B"/>
<path id="[Copy] Makes zero sense Makes zero sense Makes zero sense_13" d="M507.745 585.416L507.838 585.747C508.117 586.74 508.872 587.016 510.717 586.497C512.476 586.003 513.025 585.416 512.805 584.632C512.604 583.919 511.997 583.563 509.294 584.041C505.97 584.581 504.673 583.913 504.134 581.997C503.576 580.012 504.636 578.436 508.049 577.477C511.741 576.439 513.362 577.26 513.945 579.333C513.994 579.507 514.021 579.668 514.075 579.86C513.786 579.903 513.363 580.003 512.893 580.136C512.493 580.248 512.092 580.361 511.823 580.474C511.811 580.365 511.782 580.26 511.758 580.173C511.454 579.094 510.538 578.844 508.571 579.397C506.76 579.906 506.215 580.51 506.46 581.381C506.685 582.182 507.405 582.468 510.033 581.992C513.435 581.393 514.663 582.287 515.148 584.011C515.726 586.066 514.438 587.499 511.216 588.405C507.925 589.33 506.243 588.695 505.661 586.623C505.602 586.414 505.575 586.252 505.529 586.021C505.812 585.96 506.27 585.85 506.705 585.728C507.123 585.61 507.519 585.48 507.745 585.416Z" fill="#1B1B1B"/>
<path id="[Copy] Makes zero sense Makes zero sense Makes zero sense_14" d="M498.658 589.201C500.428 588.93 501.343 587.967 501.195 585.684C499.488 585.89 497.041 586.282 495.634 586.533C495.659 586.694 495.671 586.894 495.704 587.108C495.952 588.735 496.834 589.479 498.658 589.201ZM492.967 584.287C492.593 582.076 493.25 580.383 497.165 579.785C500.527 579.272 502.877 580.761 503.459 584.57C504.051 588.45 502.176 590.548 498.85 591.056C495.363 591.588 493.836 589.974 493.423 587.274C493.314 586.558 493.242 585.965 493.207 585.495C494.086 585.379 495.623 585.144 497.447 584.866C498.753 584.667 500.058 584.467 501.008 584.34C500.551 582.068 499.36 581.335 497.429 581.63C495.48 581.928 495.058 582.76 495.22 583.943C494.893 583.957 494.533 583.993 494.068 584.064C493.603 584.135 493.266 584.205 492.967 584.287Z" fill="#1B1B1B"/>
<path id="[Copy] Makes zero sense Makes zero sense Makes zero sense_15" d="M452.534 575.734L455.134 576.441C454.345 579.001 453.762 581.073 452.981 583.878C452.715 584.856 452.364 585.941 452.049 586.962L452.131 587.003C452.725 586.058 453.386 585.076 453.981 584.338L459.393 577.599L460.545 577.912L461.805 586.653C461.947 587.647 462.034 588.777 462.091 589.805L462.201 589.816C462.465 588.707 462.704 587.553 462.976 586.484C463.749 583.639 464.232 581.727 464.891 579.094L467.213 579.725C466.648 581.596 466.131 583.499 465.376 586.274C464.598 589.137 464.066 591.091 463.636 592.811L460.302 591.905C460.068 590.492 459.615 587.126 459.108 583.82C458.999 583.115 458.892 582.13 458.823 581.212L458.753 581.193C458.238 581.915 457.679 582.663 457.18 583.258C455.13 585.831 453.013 588.517 452.063 589.665L448.991 588.83C449.509 587.133 450.058 585.183 450.836 582.321C451.591 579.545 452.091 577.638 452.534 575.734Z" fill="#1B1B1B"/>
<path id="[Copy] Makes zero sense Makes zero sense Makes zero sense_16" d="M442.821 575.979L442.696 576.26C443.405 576.714 444.233 577.121 445.125 577.518C446.696 578.216 447.612 578.069 448.06 577.061C448.464 576.152 448.116 575.423 446.694 574.791C444.925 574.005 443.46 574.541 442.821 575.979ZM443.702 573.817L443.794 573.878C444.861 572.769 446.395 572.659 448.296 573.504C450.461 574.466 451.315 575.796 450.448 577.746C449.551 579.763 447.783 580.046 444.923 578.774C443.799 578.275 442.82 577.76 442.202 577.327C442.031 577.667 441.884 577.997 441.759 578.278C441.215 579.501 441.481 580.55 443.101 581.27C444.688 581.976 445.709 581.638 446.277 580.227C446.55 580.369 446.897 580.523 447.261 580.685C447.724 580.89 448.17 581.089 448.506 581.179C447.601 583.528 445.496 584.611 442.273 583.178C438.983 581.716 438.425 579.587 439.417 577.356C439.968 576.116 440.446 575.22 440.975 574.03C441.489 572.873 442.009 571.481 442.074 570.936L443.991 571.788C444.437 571.986 444.507 572.096 444.272 572.625C444.117 572.973 443.903 573.411 443.702 573.817Z" fill="#1B1B1B"/>
<path id="[Copy] Makes zero sense Makes zero sense Makes zero sense_17" d="M428.812 575.744L426.224 574.186C428.161 573.705 431.503 572.572 433.663 572.141C432.962 570.009 432.257 566.586 431.721 564.743L434.045 566.142C434.417 566.366 434.565 566.54 434.605 566.86C435.003 568.619 435.606 571.263 436.156 572.84L436.249 572.896C437.108 571.47 437.826 570.277 438.616 568.895L440.817 570.22C439.675 572.045 438.5 573.998 437.193 576.167C435.794 578.491 434.733 580.218 433.594 582.214L431.379 580.879C432.598 578.995 433.581 577.328 435.148 574.724L435.699 573.81L435.621 573.763C434.811 573.951 433.952 574.152 433.238 574.355C431.304 574.901 429.867 575.324 428.812 575.744Z" fill="#1B1B1B"/>
<path id="[Copy] Makes zero sense Makes zero sense Makes zero sense_18" d="M422.104 568.941C423.52 570.038 424.847 570.037 426.401 568.357C425.075 567.261 423.105 565.758 421.954 564.911C421.854 565.04 421.718 565.186 421.585 565.358C420.577 566.659 420.645 567.811 422.104 568.941ZM421.744 561.431C423.089 559.636 424.768 558.946 427.899 561.372C430.588 563.455 431.127 566.184 428.768 569.23C426.364 572.333 423.551 572.419 420.891 570.358C418.103 568.198 418.221 565.978 419.894 563.819C420.337 563.247 420.717 562.786 421.034 562.437C421.723 562.994 422.953 563.947 424.411 565.077C425.455 565.885 426.499 566.694 427.246 567.296C428.578 565.399 428.288 564.03 426.744 562.834C425.185 561.626 424.291 561.894 423.546 562.827C423.31 562.599 423.036 562.363 422.664 562.075C422.292 561.787 422.009 561.591 421.744 561.431Z" fill="#1B1B1B"/>
<path id="[Copy] Makes zero sense Makes zero sense Makes zero sense_19" d="M412.833 557.942L412.591 558.186C411.865 558.918 411.996 559.711 413.357 561.061C414.654 562.348 415.435 562.536 416.008 561.959C416.53 561.432 416.54 560.729 414.792 558.612C412.684 555.986 412.627 554.528 414.028 553.116C415.481 551.652 417.374 551.797 419.891 554.294C422.614 556.995 422.698 558.811 421.182 560.339C421.054 560.467 420.927 560.57 420.787 560.711C420.607 560.482 420.311 560.163 419.965 559.819C419.669 559.526 419.374 559.233 419.143 559.055C419.232 558.991 419.309 558.914 419.372 558.85C420.162 558.054 419.928 557.134 418.477 555.694C417.142 554.369 416.348 554.193 415.711 554.836C415.125 555.426 415.23 556.193 416.94 558.246C419.138 560.91 418.965 562.42 417.704 563.691C416.2 565.207 414.318 564.792 411.943 562.435C409.516 560.028 409.24 558.251 410.756 556.723C410.909 556.569 411.036 556.466 411.215 556.312C411.407 556.528 411.729 556.872 412.05 557.191C412.358 557.497 412.666 557.777 412.833 557.942Z" fill="#1B1B1B"/>
<path id="[Copy] Makes zero sense Makes zero sense Makes zero sense_20" d="M409.437 545.913L409.499 545.845C409.003 545.222 408.514 544.549 408.1 543.978C406.974 542.426 406.184 541.368 405.677 540.73C405.892 540.596 406.331 540.277 406.536 540.129C406.8 539.938 407.078 539.736 407.419 539.466L413.027 547.197C412.768 547.363 412.533 547.533 412.299 547.703L411.552 548.244C410.259 547.909 406.855 547.652 404.817 547.432C403.643 547.323 402.715 547.214 402.03 547.04L401.979 547.122C402.411 547.658 402.897 548.266 403.397 548.954C404.714 550.77 405.259 551.491 405.869 552.3C405.599 552.452 405.145 552.781 404.94 552.93C404.706 553.1 404.398 553.323 404.156 553.543L398.601 545.886L399.274 545.397L400.138 544.77C401.357 545.003 404.215 545.277 406.632 545.467C407.626 545.573 408.666 545.713 409.437 545.913Z" fill="#1B1B1B"/>
<path id="[Copy] Makes zero sense Makes zero sense Makes zero sense_21" d="M396.146 538.426C397.013 539.993 398.233 540.517 400.323 539.587C399.539 538.057 398.323 535.898 397.6 534.665C397.457 534.744 397.275 534.824 397.085 534.929C395.644 535.726 395.252 536.811 396.146 538.426ZM398.783 531.385C400.728 530.268 402.543 530.297 404.46 533.763C406.107 536.739 405.524 539.459 402.153 541.325C398.718 543.225 396.1 542.192 394.472 539.249C392.764 536.162 393.75 534.17 396.139 532.848C396.773 532.497 397.304 532.224 397.733 532.028C398.146 532.813 398.899 534.174 399.792 535.788C400.431 536.943 401.071 538.099 401.519 538.946C403.492 537.731 403.767 536.359 402.821 534.65C401.867 532.924 400.939 532.817 399.886 533.38C399.76 533.077 399.601 532.752 399.373 532.34C399.145 531.929 398.963 531.637 398.783 531.385Z" fill="#1B1B1B"/>
<path id="[Copy] Makes zero sense Makes zero sense Makes zero sense_22" d="M392.769 529.808L392.736 529.685C390.852 529.875 389.694 529.09 389.036 527.541C388.775 526.925 388.658 526.326 388.613 525.756C389.171 525.637 390.294 525.318 390.924 525.09C390.929 525.657 391.055 526.233 391.317 526.849C392.04 528.507 393.218 529.107 395.599 528.096C397.231 527.404 399.305 526.504 400.4 525.98L401.453 528.461C400.04 529.022 398.541 529.658 396.377 530.576C394.245 531.481 392.814 532.089 391.412 532.723L390.543 530.675C391.183 530.423 391.896 530.159 392.769 529.808Z" fill="#1B1B1B"/>
<path id="[Copy] Makes zero sense Makes zero sense Makes zero sense_23" d="M390.522 514.409C388.217 515.096 387.6 516.638 388.143 518.458C388.68 520.261 390.022 521.22 392.345 520.528C394.668 519.836 395.446 518.265 394.903 516.444C394.351 514.59 392.828 513.722 390.522 514.409ZM389.751 512.072C393.252 511.029 395.985 512.536 396.966 515.83C397.942 519.106 396.469 521.829 392.968 522.872C389.449 523.92 386.985 522.238 386.045 519.083C385.105 515.928 386.232 513.12 389.751 512.072Z" fill="#1B1B1B"/>
<path id="[Copy] Makes zero sense Makes zero sense Makes zero sense_24" d="M386.055 499.394L385.714 499.435C384.691 499.56 384.303 500.263 384.534 502.167C384.755 503.98 385.251 504.612 386.059 504.514C386.795 504.424 387.239 503.878 387.178 501.134C387.151 497.766 388.01 496.587 389.985 496.346C392.032 496.097 393.428 497.385 393.856 500.905C394.319 504.711 393.26 506.189 391.123 506.449C390.944 506.47 390.78 506.472 390.582 506.496C390.583 506.205 390.549 505.771 390.49 505.287C390.439 504.874 390.389 504.461 390.318 504.178C390.428 504.183 390.536 504.169 390.626 504.158C391.739 504.023 392.125 503.156 391.879 501.127C391.651 499.26 391.137 498.63 390.24 498.739C389.414 498.839 389.021 499.507 389.091 502.177C389.165 505.63 388.093 506.708 386.316 506.924C384.197 507.182 382.977 505.691 382.573 502.369C382.16 498.975 383.044 497.41 385.181 497.15C385.396 497.124 385.56 497.122 385.796 497.111C385.813 497.401 385.852 497.87 385.906 498.319C385.959 498.75 386.027 499.161 386.055 499.394Z" fill="#1B1B1B"/>
<path id="[Copy] Makes zero sense Makes zero sense Makes zero sense_25" d="M383.665 489.925C383.666 491.715 384.48 492.764 386.759 492.962C386.813 491.244 386.794 488.766 386.757 487.337C386.594 487.337 386.395 487.319 386.178 487.319C384.532 487.319 383.664 488.08 383.665 489.925ZM389.379 485.038C391.622 485.001 393.196 485.905 393.197 489.867C393.199 493.267 391.373 495.366 387.52 495.368C383.595 495.369 381.803 493.199 381.802 489.835C381.8 486.308 383.627 485.041 386.358 485.04C387.082 485.039 387.679 485.057 388.149 485.093C388.131 485.98 388.132 487.535 388.133 489.38C388.133 490.701 388.134 492.021 388.116 492.98C390.431 492.87 391.335 491.803 391.334 489.849C391.334 487.878 390.574 487.335 389.38 487.318C389.416 486.992 389.434 486.63 389.434 486.16C389.433 485.69 389.415 485.346 389.379 485.038Z" fill="#1B1B1B"/>
<path id="[Copy] Makes zero sense Makes zero sense Makes zero sense_26" d="M394.349 473.387L394.019 475.989C392.409 475.748 390.365 475.471 387.638 475.126C385.933 474.91 385.023 475.469 384.8 477.228C384.587 478.914 385.295 480.372 387.359 480.633C390.966 481.09 392.242 481.234 393.339 481.354L393.014 483.921C391.529 483.696 390.15 483.503 387.745 483.198C385.394 482.9 383.634 482.695 382.193 482.549L382.521 479.965C383.2 480.07 383.721 480.136 384.38 480.256L384.412 480.15C383.099 479.291 382.607 477.843 382.853 475.905C383.174 473.375 384.6 472.188 387.418 472.545C389.069 472.754 389.764 472.879 390.787 473.009C392.061 473.17 393.194 473.295 394.349 473.387Z" fill="#1B1B1B"/>
<path id="[Copy] Makes zero sense Makes zero sense Makes zero sense_27" d="M389.417 462.982L389.084 462.895C388.086 462.636 387.467 463.148 386.984 465.003C386.524 466.771 386.754 467.541 387.542 467.746C388.259 467.933 388.872 467.588 389.823 465.013C391.033 461.87 392.265 461.088 394.19 461.589C396.186 462.108 397.012 463.818 396.119 467.249C395.153 470.96 393.626 471.946 391.543 471.404C391.368 471.358 391.215 471.3 391.022 471.25C391.13 470.979 391.257 470.563 391.38 470.091C391.485 469.688 391.59 469.285 391.627 468.996C391.728 469.041 391.833 469.068 391.92 469.091C393.006 469.373 393.683 468.709 394.198 466.731C394.672 464.91 394.425 464.135 393.549 463.908C392.744 463.698 392.134 464.175 391.22 466.685C390.022 469.924 388.629 470.534 386.896 470.083C384.831 469.545 384.243 467.71 385.085 464.472C385.946 461.163 387.343 460.031 389.426 460.573C389.637 460.628 389.79 460.687 390.013 460.763C389.922 461.039 389.786 461.489 389.672 461.927C389.563 462.347 389.476 462.754 389.417 462.982Z" fill="#1B1B1B"/>
<path id="[Copy] Makes zero sense Makes zero sense Makes zero sense_28" d="M390.72 453.134C390.064 454.8 390.438 456.074 392.486 457.094C393.165 455.515 394.056 453.202 394.545 451.859C394.393 451.799 394.215 451.709 394.013 451.63C392.481 451.028 391.395 451.417 390.72 453.134ZM397.827 450.681C399.927 451.468 401.061 452.886 399.611 456.572C398.366 459.737 395.898 461.021 392.313 459.611C388.66 458.174 387.788 455.499 389.019 452.368C390.31 449.085 392.474 448.576 395.015 449.575C395.689 449.84 396.238 450.075 396.662 450.281C396.321 451.099 395.751 452.547 395.076 454.264C394.593 455.493 394.11 456.722 393.742 457.607C395.936 458.354 397.169 457.691 397.884 455.873C398.605 454.039 398.097 453.256 396.992 452.802C397.145 452.512 397.294 452.182 397.467 451.744C397.639 451.307 397.748 450.98 397.827 450.681Z" fill="#1B1B1B"/>
<path id="[Copy] Makes zero sense Makes zero sense Makes zero sense_29" d="M422.112 422.847L420.286 424.829C418.378 422.95 416.807 421.478 414.677 419.492C413.932 418.806 413.13 417.994 412.369 417.245L412.295 417.299C412.859 418.262 413.427 419.301 413.809 420.168L417.297 428.076L416.488 428.954L408.15 426.047C407.202 425.715 406.159 425.271 405.22 424.849L405.16 424.941C406.023 425.687 406.937 426.43 407.761 427.164C409.93 429.161 411.404 430.47 413.437 432.268L411.808 434.038C410.407 432.674 408.957 431.339 406.841 429.391C404.659 427.381 403.168 426.009 401.84 424.835L404.18 422.293C405.543 422.737 408.739 423.885 411.907 424.957C412.582 425.186 413.505 425.544 414.352 425.906L414.402 425.853C413.998 425.063 413.592 424.222 413.293 423.505C411.953 420.501 410.545 417.384 409.963 416.013L412.12 413.671C413.387 414.911 414.865 416.297 417.047 418.306C419.163 420.254 420.626 421.577 422.112 422.847Z" fill="#1B1B1B"/>
<path id="[Copy] Makes zero sense Makes zero sense Makes zero sense_30" d="M426.646 413.84L426.456 413.599C425.725 414.016 424.979 414.56 424.213 415.166C422.865 416.232 422.569 417.112 423.254 417.977C423.871 418.758 424.679 418.787 425.899 417.822C427.417 416.622 427.623 415.075 426.646 413.84ZM428.151 415.626L428.055 415.679C428.541 417.139 427.926 418.548 426.295 419.839C424.436 421.309 422.862 421.447 421.538 419.773C420.169 418.043 420.74 416.345 423.194 414.404C424.159 413.64 425.069 413.013 425.74 412.666C425.519 412.357 425.294 412.073 425.104 411.832C424.273 410.782 423.221 410.531 421.831 411.63C420.469 412.708 420.294 413.769 421.279 414.927C421.026 415.104 420.728 415.339 420.416 415.586C420.019 415.9 419.636 416.203 419.4 416.459C417.741 414.566 417.76 412.199 420.526 410.01C423.349 407.777 425.493 408.272 427.008 410.187C427.85 411.251 428.422 412.09 429.23 413.112C430.015 414.105 431.006 415.212 431.459 415.522L429.814 416.824C429.431 417.127 429.301 417.137 428.942 416.684C428.706 416.386 428.417 415.991 428.151 415.626Z" fill="#1B1B1B"/>
<path id="[Copy] Makes zero sense Makes zero sense Makes zero sense_31" d="M433.072 401.682L435.651 400.109C435.181 402.048 434.638 405.536 434.02 407.65C436.234 408.016 439.595 408.975 441.477 409.353L439.161 410.765C438.79 410.991 438.567 411.042 438.265 410.93C436.522 410.468 433.899 409.779 432.246 409.536L432.154 409.593C433.02 411.014 433.745 412.203 434.605 413.543L432.412 414.88C431.322 413.024 430.135 411.078 428.817 408.915C427.405 406.599 426.366 404.86 425.123 402.927L427.332 401.58C428.438 403.533 429.461 405.176 431.043 407.77L431.598 408.682L431.675 408.635C431.884 407.83 432.104 406.975 432.254 406.248C432.665 404.281 432.956 402.812 433.072 401.682Z" fill="#1B1B1B"/>
<path id="[Copy] Makes zero sense Makes zero sense Makes zero sense_32" d="M442.18 398.865C440.551 399.609 439.935 400.785 440.7 402.941C442.286 402.277 444.533 401.231 445.817 400.604C445.75 400.456 445.684 400.268 445.593 400.07C444.91 398.573 443.858 398.099 442.18 398.865ZM448.997 402.036C449.961 404.061 449.792 405.868 446.189 407.514C443.095 408.927 440.428 408.136 438.827 404.632C437.197 401.061 438.428 398.531 441.488 397.133C444.697 395.668 446.607 396.804 447.742 399.288C448.042 399.946 448.274 400.497 448.436 400.94C447.622 401.291 446.207 401.938 444.529 402.704C443.328 403.252 442.127 403.801 441.247 404.183C442.308 406.244 443.654 406.623 445.431 405.812C447.225 404.993 447.403 404.076 446.923 402.983C447.235 402.88 447.571 402.747 447.999 402.551C448.427 402.356 448.732 402.197 448.997 402.036Z" fill="#1B1B1B"/>
<path id="[Copy] Makes zero sense Makes zero sense Makes zero sense_33" d="M456.752 395.53L456.649 395.202C456.339 394.218 455.577 393.965 453.748 394.541C452.005 395.089 451.474 395.693 451.719 396.469C451.941 397.176 452.559 397.513 455.246 396.952C458.552 396.309 459.869 396.938 460.466 398.836C461.085 400.803 460.074 402.411 456.692 403.475C453.035 404.626 451.389 403.855 450.742 401.802C450.688 401.629 450.656 401.468 450.597 401.278C450.884 401.226 451.303 401.113 451.769 400.966C452.166 400.842 452.563 400.717 452.828 400.595C452.843 400.704 452.876 400.808 452.903 400.894C453.24 401.964 454.163 402.185 456.112 401.572C457.907 401.007 458.432 400.386 458.161 399.524C457.911 398.73 457.183 398.466 454.571 399.023C451.189 399.727 449.934 398.87 449.396 397.162C448.755 395.126 449.998 393.654 453.19 392.649C456.451 391.623 458.152 392.207 458.798 394.26C458.864 394.467 458.895 394.628 458.948 394.857C458.667 394.927 458.213 395.051 457.782 395.187C457.368 395.317 456.976 395.459 456.752 395.53Z" fill="#1B1B1B"/>
<path id="[Copy] Makes zero sense Makes zero sense Makes zero sense_34" d="M468.84 398.094L468.871 398.181C469.654 398.031 470.477 397.911 471.175 397.81C473.073 397.535 474.377 397.328 475.177 397.175C475.196 397.428 475.274 397.965 475.31 398.216C475.357 398.538 475.406 398.878 475.486 399.305L466.034 400.675C466.008 400.368 465.967 400.082 465.925 399.796L465.793 398.883C466.691 397.893 468.502 394.999 469.644 393.298C470.287 392.309 470.815 391.538 471.287 391.013L471.238 390.929C470.563 391.063 469.799 391.21 468.957 391.332C466.737 391.654 465.845 391.802 464.845 391.965C464.837 391.655 464.756 391.1 464.72 390.85C464.679 390.563 464.624 390.187 464.542 389.87L473.904 388.514L474.023 389.337L474.176 390.393C473.403 391.364 471.832 393.767 470.539 395.819C469.983 396.649 469.376 397.504 468.84 398.094Z" fill="#1B1B1B"/>
<path id="[Copy] Makes zero sense Makes zero sense Makes zero sense_35" d="M481.763 389.753C479.973 389.794 478.943 390.632 478.796 392.915C480.515 392.93 482.992 392.855 484.42 392.786C484.416 392.623 484.43 392.424 484.425 392.207C484.387 390.562 483.608 389.711 481.763 389.753ZM486.776 395.356C486.864 397.597 485.996 399.191 482.036 399.282C478.636 399.36 476.496 397.581 476.408 393.73C476.318 389.805 478.447 387.966 481.811 387.888C485.337 387.808 486.645 389.605 486.707 392.336C486.724 393.059 486.719 393.656 486.694 394.127C485.808 394.129 484.252 394.165 482.408 394.207C481.088 394.238 479.768 394.268 478.809 394.272C478.97 396.584 480.058 397.464 482.011 397.419C483.982 397.374 484.507 396.602 484.498 395.408C484.824 395.437 485.186 395.446 485.657 395.436C486.127 395.425 486.47 395.399 486.776 395.356Z" fill="#1B1B1B"/>
<path id="[Copy] Makes zero sense Makes zero sense Makes zero sense_36" d="M491.375 390.785L491.5 390.814C492.213 389.059 493.449 388.403 495.125 388.546C495.792 388.603 496.376 388.78 496.901 389.007C496.745 389.556 496.502 390.697 496.409 391.361C495.905 391.1 495.337 390.942 494.671 390.885C492.867 390.749 491.785 391.51 491.565 394.087C491.414 395.853 491.239 398.108 491.19 399.32L488.504 399.09C488.67 397.579 488.809 395.957 489.009 393.614C489.206 391.308 489.339 389.758 489.434 388.223L491.651 388.412C491.574 389.096 491.473 389.849 491.375 390.785Z" fill="#1B1B1B"/>
<path id="[Copy] Makes zero sense Makes zero sense Makes zero sense_37" d="M505.135 395.819C505.595 393.458 504.513 392.197 502.649 391.834C500.803 391.474 499.331 392.22 498.868 394.599C498.404 396.978 499.437 398.395 501.301 398.758C503.201 399.128 504.675 398.181 505.135 395.819ZM507.563 396.218C506.865 399.805 504.263 401.528 500.89 400.871C497.534 400.218 495.804 397.651 496.502 394.065C497.204 390.46 499.836 389.056 503.068 389.685C506.299 390.315 508.265 392.614 507.563 396.218Z" fill="#1B1B1B"/>
<path id="[Copy] Makes zero sense Makes zero sense Makes zero sense_38" d="M520.669 398.818L520.79 398.496C521.153 397.532 520.71 396.862 518.915 396.186C517.206 395.542 516.416 395.689 516.129 396.451C515.868 397.145 516.146 397.791 518.607 399.008C521.604 400.543 522.252 401.85 521.551 403.712C520.825 405.642 519.037 406.283 515.719 405.033C512.13 403.682 511.311 402.059 512.07 400.045C512.134 399.875 512.208 399.729 512.278 399.543C512.536 399.679 512.936 399.849 513.393 400.021C513.782 400.168 514.172 400.314 514.455 400.382C514.4 400.478 514.362 400.579 514.33 400.664C513.935 401.713 514.524 402.457 516.437 403.178C518.198 403.841 518.994 403.677 519.313 402.83C519.606 402.052 519.196 401.395 516.797 400.221C513.702 398.688 513.242 397.239 513.873 395.563C514.626 393.566 516.513 393.175 519.644 394.354C522.843 395.559 523.822 397.067 523.063 399.082C522.986 399.285 522.912 399.431 522.812 399.645C522.548 399.526 522.114 399.343 521.691 399.184C521.285 399.031 520.889 398.901 520.669 398.818Z" fill="#1B1B1B"/>
<path id="[Copy] Makes zero sense Makes zero sense Makes zero sense_39" d="M530.348 401.141C528.76 400.314 527.453 400.551 526.224 402.481C527.723 403.323 529.93 404.451 531.214 405.079C531.289 404.935 531.397 404.767 531.497 404.574C532.257 403.114 531.985 401.993 530.348 401.141ZM532.04 408.466C531.036 410.472 529.507 411.45 525.993 409.621C522.977 408.05 521.96 405.461 523.74 402.044C525.552 398.562 528.305 397.976 531.289 399.53C534.417 401.159 534.697 403.365 533.435 405.787C533.101 406.429 532.809 406.95 532.56 407.35C531.782 406.925 530.402 406.206 528.766 405.354C527.595 404.744 526.424 404.135 525.582 403.676C524.608 405.779 525.137 407.074 526.87 407.977C528.619 408.887 529.451 408.464 530.018 407.414C530.29 407.596 530.603 407.779 531.02 407.996C531.437 408.214 531.75 408.356 532.04 408.466Z" fill="#1B1B1B"/>
<path id="[Copy] Makes zero sense Makes zero sense Makes zero sense_40" d="M540.424 418.488L538.271 416.99C539.23 415.675 540.423 413.992 541.993 411.735C542.974 410.325 542.9 409.259 541.445 408.247C540.049 407.276 538.429 407.229 537.241 408.937C535.165 411.921 534.446 412.986 533.831 413.902L531.708 412.425C532.595 411.213 533.405 410.08 534.789 408.09C536.142 406.145 537.14 404.68 537.936 403.471L540.075 404.958C539.667 405.512 539.368 405.943 538.956 406.472L539.035 406.549C540.404 405.783 541.915 406.018 543.519 407.134C545.613 408.59 546.003 410.405 544.381 412.736C543.431 414.102 542.999 414.66 542.41 415.507C541.677 416.561 541.041 417.507 540.424 418.488Z" fill="#1B1B1B"/>
<path id="[Copy] Makes zero sense Makes zero sense Makes zero sense_41" d="M551.571 418.624L551.801 418.368C552.491 417.602 552.322 416.817 550.897 415.534C549.54 414.312 548.75 414.161 548.206 414.766C547.709 415.317 547.733 416.02 549.582 418.049C551.814 420.571 551.942 422.024 550.61 423.503C549.231 425.035 547.332 424.981 544.697 422.609C541.848 420.043 541.676 418.233 543.116 416.633C543.237 416.499 543.36 416.39 543.493 416.242C543.684 416.463 543.994 416.767 544.357 417.093C544.666 417.372 544.976 417.65 545.215 417.817C545.129 417.886 545.056 417.966 544.996 418.033C544.245 418.867 544.523 419.774 546.042 421.142C547.44 422.401 548.242 422.538 548.847 421.866C549.404 421.248 549.261 420.487 547.455 418.519C545.131 415.964 545.23 414.448 546.429 413.117C547.857 411.531 549.757 411.854 552.243 414.093C554.784 416.381 555.145 418.142 553.705 419.741C553.56 419.903 553.437 420.012 553.266 420.174C553.064 419.967 552.726 419.639 552.39 419.337C552.067 419.046 551.746 418.781 551.571 418.624Z" fill="#1B1B1B"/>
<path id="[Copy] Makes zero sense Makes zero sense Makes zero sense_42" d="M559.544 424.125C558.366 422.777 557.062 422.523 555.216 423.873C556.306 425.202 557.95 427.056 558.918 428.109C559.04 428.001 559.202 427.884 559.365 427.741C560.605 426.658 560.758 425.515 559.544 424.125ZM558.455 431.564C556.79 433.068 555.01 433.422 552.403 430.44C550.165 427.879 550.159 425.097 553.06 422.562C556.016 419.978 558.792 420.434 561.007 422.967C563.328 425.623 562.786 427.779 560.729 429.576C560.184 430.052 559.723 430.432 559.345 430.714C558.775 430.035 557.752 428.863 556.537 427.474C555.668 426.48 554.799 425.486 554.182 424.752C552.51 426.358 552.532 427.756 553.817 429.227C555.115 430.712 556.044 430.62 556.955 429.848C557.142 430.117 557.366 430.401 557.676 430.756C557.985 431.11 558.225 431.356 558.455 431.564Z" fill="#1B1B1B"/>
</g>
</g>
<mask id="mask1_2393_20931" style="mask-type:alpha" maskUnits="userSpaceOnUse" x="369" y="373" width="231" height="231">
<circle id="highlight_mask-zero" cx="484.012" cy="488.981" r="115" fill="#D4F75F"/>
</mask>
<g mask="url(#mask1_2393_20931)">
<rect id="highlight-zero" opacity="0.4" width="117.993" height="656.477" transform="matrix(0.992561 -0.121747 0.122685 0.992446 429.91 207.329)" fill="url(#paint0_radial_2393_20931)"/>
</g>
</g>
<g id="flap_group-zero" filter="url(#filter1_d_2393_20931)">
<mask id="mask2_2393_20931" style="mask-type:alpha" maskUnits="userSpaceOnUse" x="599" y="603" width="231" height="231">
<circle id="flap_mask-zero" cx="714.012" cy="718.981" r="115" fill="#F7FCFD"/>
</mask>
<g mask="url(#mask2_2393_20931)">
<circle id="flap-zero" cx="714.012" cy="718.981" r="115" fill="#F7FCFD"/>
<rect id="shadow-zero" opacity="0.5" width="117.29" height="1348.64" transform="matrix(0.707107 0.707107 -0.711218 0.702972 1107.14 147.979)" fill="url(#paint1_radial_2393_20931)"/>
</g>
</g>
</g>
</g>
</g>
<defs>
<filter id="filter0_d_2393_20931" x="357.012" y="369.981" width="246" height="246" filterUnits="userSpaceOnUse" color-interpolation-filters="sRGB">
<feFlood flood-opacity="0" result="BackgroundImageFix"/>
<feColorMatrix in="SourceAlpha" type="matrix" values="0 0 0 0 0 0 0 0 0 0 0 0 0 0 0 0 0 0 127 0" result="hardAlpha"/>
<feOffset dx="-4" dy="4"/>
<feGaussianBlur stdDeviation="4"/>
<feComposite in2="hardAlpha" operator="out"/>
<feColorMatrix type="matrix" values="0 0 0 0 0 0 0 0 0 0 0 0 0 0 0 0 0 0 0.3 0"/>
<feBlend mode="normal" in2="BackgroundImageFix" result="effect1_dropShadow_2393_20931"/>
<feBlend mode="normal" in="SourceGraphic" in2="effect1_dropShadow_2393_20931" result="shape"/>
</filter>
<filter id="filter1_d_2393_20931" x="587.012" y="599.981" width="246" height="246" filterUnits="userSpaceOnUse" color-interpolation-filters="sRGB">
<feFlood flood-opacity="0" result="BackgroundImageFix"/>
<feColorMatrix in="SourceAlpha" type="matrix" values="0 0 0 0 0 0 0 0 0 0 0 0 0 0 0 0 0 0 127 0" result="hardAlpha"/>
<feOffset dx="-4" dy="4"/>
<feGaussianBlur stdDeviation="4"/>
<feComposite in2="hardAlpha" operator="out"/>
<feColorMatrix type="matrix" values="0 0 0 0 0 0 0 0 0 0 0 0 0 0 0 0 0 0 0.2 0"/>
<feBlend mode="normal" in2="BackgroundImageFix" result="effect1_dropShadow_2393_20931"/>
<feBlend mode="normal" in="SourceGraphic" in2="effect1_dropShadow_2393_20931" result="shape"/>
</filter>
<radialGradient id="paint0_radial_2393_20931" cx="0" cy="0" r="1" gradientUnits="userSpaceOnUse" gradientTransform="translate(58.9966 328.239) rotate(90) scale(328.239 58.9966)">
<stop stop-color="white"/>
<stop offset="1" stop-color="#999999" stop-opacity="0"/>
</radialGradient>
<radialGradient id="paint1_radial_2393_20931" cx="0" cy="0" r="1" gradientUnits="userSpaceOnUse" gradientTransform="translate(58.645 674.321) rotate(90) scale(674.321 58.645)">
<stop offset="0.216346" stop-color="#1C1925"/>
<stop offset="1" stop-color="#999999" stop-opacity="0"/>
</radialGradient>
</defs>
</svg>
