<svg width="802" height="802" viewBox="0 0 802 802" fill="none" xmlns="http://www.w3.org/2000/svg">
<g id="circle_label-idk">
<mask id="mask0_2393_20908" style="mask-type:alpha" maskUnits="userSpaceOnUse" x="-1" y="0" width="803" height="802">
<rect id="mask-idk" x="801.855" y="400.93" width="567" height="567" transform="rotate(135 801.855 400.93)" fill="#D9D9D9"/>
</mask>
<g mask="url(#mask0_2393_20908)">
<g id="label_group-idk">
<g id="label-idk">
<g id="base-idk" filter="url(#filter0_d_2393_20908)">
<path d="M205.973 559.236C205.973 552.938 211.078 547.833 217.375 547.833H447.57C453.868 547.833 458.973 552.938 458.973 559.236V595.603C458.973 601.9 453.868 607.005 447.57 607.005H217.375C211.078 607.005 205.973 601.9 205.973 595.603V559.236Z" fill="#5756D6"/>
<path d="M217.394 415.857C217.394 409.559 222.499 404.454 228.797 404.454H436.718C443.016 404.454 448.121 409.559 448.121 415.857V536.431C448.121 542.728 443.016 547.833 436.718 547.833H228.797C222.499 547.833 217.394 542.728 217.394 536.431V415.857Z" fill="#5756D6"/>
</g>
<g id="content-idk">
<path id="just abstract" d="M231.622 566.467H238.008C237.971 569.422 237.935 571.575 237.935 574.677C237.935 576.501 238.008 580.661 238.008 586.718C238.008 591.06 236.548 594.088 232.024 594.088C230.528 594.088 228.886 593.906 227.536 593.432C227.681 592.41 228.083 588.031 228.119 586.754C228.703 587.083 229.323 587.338 230.272 587.338C231.294 587.338 231.878 586.718 231.878 585.222C231.878 577.486 231.878 569.349 231.622 566.467ZM251.721 566.467H257.887C257.814 568.948 257.778 571.429 257.778 575.078C257.778 577.742 257.814 581.938 257.814 585.368C257.814 591.096 255.625 594.234 249.166 594.234C242.745 594.234 240.519 591.096 240.519 585.368C240.519 581.938 240.555 577.742 240.555 575.078C240.555 571.429 240.482 568.948 240.446 566.467H246.758C246.685 571.21 246.649 579.931 246.649 584.784C246.649 587.229 247.415 588.287 249.312 588.287C251.1 588.287 251.83 587.229 251.83 584.784C251.83 579.931 251.757 571.174 251.721 566.467ZM265.273 584.492V585.988C265.273 588.469 265.857 589.272 267.755 589.272C269.579 589.272 270.163 588.506 270.163 586.9C270.163 584.857 269.47 583.397 266.55 582.339C261.296 580.405 259.837 577.815 259.837 573.29C259.837 568.547 262.391 566.066 267.864 566.066C273.885 566.066 275.855 568.328 275.855 573.181C275.855 573.947 275.818 574.75 275.782 575.662C275.052 575.625 273.921 575.589 272.899 575.589C271.987 575.589 271.148 575.589 270.601 575.625C270.637 574.932 270.637 574.312 270.637 573.655C270.637 571.867 270.053 570.991 268.156 570.991C266.477 570.991 265.857 571.794 265.857 573.254C265.821 575.042 266.295 576.428 269.47 577.669C274.031 579.457 276.037 581.938 276.037 586.718C276.037 591.607 273.775 594.234 268.046 594.234C261.807 594.234 259.764 591.68 259.764 587.01C259.764 586.025 259.8 585.258 259.873 584.419C260.639 584.492 261.734 584.565 262.902 584.565C263.814 584.565 264.653 584.565 265.273 584.492ZM276.661 566.467H290.891V569.605V572.889C289.541 572.852 288.191 572.816 286.951 572.816C286.951 581.391 286.987 591.826 287.06 593.869C286.185 593.797 284.761 593.797 283.776 593.797C282.791 593.797 281.441 593.797 280.529 593.869C280.638 591.863 280.675 581.427 280.675 572.816C279.398 572.816 278.048 572.852 276.661 572.889C276.698 572.013 276.698 570.663 276.698 569.605C276.698 568.474 276.698 567.27 276.661 566.467ZM306.067 583.178H308.146C307.745 580.259 307.344 577.231 306.942 574.604C306.614 572.889 306.358 571.064 306.176 569.714H305.957C305.775 571.064 305.483 572.889 305.154 574.64C304.789 577.267 304.352 580.259 303.95 583.142C304.753 583.178 305.483 583.178 306.067 583.178ZM316.137 593.833H309.35C309.278 592.775 309.059 590.622 308.73 587.922H306.067H303.33C303.002 590.513 302.746 592.665 302.673 593.833H296.47C297.857 587.01 300.703 569.86 301.25 566.467H311.175C311.795 569.933 314.641 586.937 316.137 593.833ZM325.586 589.017C327.52 589.017 328.249 588.323 328.249 585.404C328.249 582.668 327.447 581.755 325.549 581.755C324.819 581.755 323.98 581.792 323.068 581.828C323.068 584.164 323.068 586.791 323.105 588.944C324.053 589.017 324.892 589.017 325.586 589.017ZM328.067 574.275C328.067 571.502 327.337 570.955 325.549 570.955C324.783 570.955 323.98 570.991 323.068 571.028C323.068 572.998 323.068 575.625 323.068 578.034C323.944 578.07 324.746 578.07 325.476 578.07C327.301 578.034 328.067 576.975 328.067 574.275ZM329.818 579.895V580.113C330.512 580.15 331.095 580.259 331.57 580.478C333.54 581.318 334.233 583.361 334.233 586.535C334.233 591.863 332.3 593.833 327.264 593.833H317.011C317.157 590.038 317.157 585.952 317.157 580.15C317.157 574.348 317.157 570.152 317.011 566.467H327.082C331.679 566.467 334.051 568.072 334.051 573.655C334.051 576.975 333.431 578.435 331.789 579.347C331.278 579.639 330.621 579.785 329.818 579.895ZM341.055 584.492V585.988C341.055 588.469 341.638 589.272 343.536 589.272C345.36 589.272 345.944 588.506 345.944 586.9C345.944 584.857 345.251 583.397 342.332 582.339C337.077 580.405 335.618 577.815 335.618 573.29C335.618 568.547 338.172 566.066 343.645 566.066C349.666 566.066 351.636 568.328 351.636 573.181C351.636 573.947 351.6 574.75 351.563 575.662C350.834 575.625 349.702 575.589 348.681 575.589C347.769 575.589 346.929 575.589 346.382 575.625C346.418 574.932 346.418 574.312 346.418 573.655C346.418 571.867 345.835 570.991 343.937 570.991C342.259 570.991 341.638 571.794 341.638 573.254C341.602 575.042 342.076 576.428 345.251 577.669C349.812 579.457 351.819 581.938 351.819 586.718C351.819 591.607 349.556 594.234 343.828 594.234C337.588 594.234 335.545 591.68 335.545 587.01C335.545 586.025 335.581 585.258 335.654 584.419C336.421 584.492 337.515 584.565 338.683 584.565C339.595 584.565 340.434 584.565 341.055 584.492ZM352.442 566.467H366.673V569.605V572.889C365.323 572.852 363.973 572.816 362.732 572.816C362.732 581.391 362.769 591.826 362.842 593.869C361.966 593.797 360.543 593.797 359.558 593.797C358.572 593.797 357.222 593.797 356.31 593.869C356.42 591.863 356.456 581.427 356.456 572.816C355.179 572.816 353.829 572.852 352.442 572.889C352.479 572.013 352.479 570.663 352.479 569.605C352.479 568.474 352.479 567.27 352.442 566.467ZM376.525 580.15C378.24 580.15 379.006 578.873 379.006 575.771C379.006 572.05 378.094 571.393 376.197 571.429C375.759 571.393 374.847 571.429 374.044 571.466C374.044 574.385 374.044 577.34 374.08 580.113C374.664 580.113 375.54 580.113 376.525 580.15ZM380.356 582.777V582.96C383.02 583.361 384.005 584.419 384.698 587.995C385.136 590.038 385.538 592.519 385.83 593.833H380.21C379.335 593.833 379.189 593.432 378.787 591.571C378.058 585.441 377.729 584.602 376.233 584.602C375.467 584.602 375.029 584.602 374.117 584.638C374.153 588.36 374.226 591.571 374.409 593.833H368.096C368.133 589.892 368.206 585.988 368.206 580.15C368.206 574.348 368.169 570.408 368.096 566.467H377.437C382.254 566.467 384.954 568.474 384.954 574.64C384.954 579.895 383.713 582.157 380.356 582.777ZM394.961 583.178H397.041C396.639 580.259 396.238 577.231 395.837 574.604C395.508 572.889 395.253 571.064 395.07 569.714H394.851C394.669 571.064 394.377 572.889 394.049 574.64C393.684 577.267 393.246 580.259 392.844 583.142C393.647 583.178 394.377 583.178 394.961 583.178ZM405.032 593.833H398.245C398.172 592.775 397.953 590.622 397.624 587.922H394.961H392.224C391.896 590.513 391.64 592.665 391.567 593.833H385.364C386.751 587.01 389.597 569.86 390.144 566.467H400.069C400.689 569.933 403.536 586.937 405.032 593.833ZM416.099 577.997C416.136 577.121 416.136 576.392 416.136 575.844C416.136 572.378 415.26 571.539 413.654 571.539C411.83 571.539 410.881 572.597 410.881 579.785C410.881 587.119 411.83 588.323 413.727 588.323C415.406 588.323 416.209 586.937 416.209 583.835C416.209 583.288 416.172 582.668 416.136 582.011C417.157 582.047 418.106 582.047 419.091 582.047C420.076 582.047 421.061 582.047 422.083 582.011C422.083 582.668 422.12 583.324 422.12 584.2C422.12 591.023 419.31 594.198 413.654 594.198C407.561 594.198 404.678 590.768 404.678 579.822C404.678 569.532 407.378 566.102 413.727 566.102C419.821 566.102 422.047 569.021 422.047 575.042C422.047 576.063 422.01 577.012 421.974 577.997C420.989 577.961 419.967 577.961 418.982 577.961C417.996 577.961 417.084 577.961 416.099 577.997ZM422.895 566.467H437.125V569.605V572.889C435.775 572.852 434.425 572.816 433.185 572.816C433.185 581.391 433.221 591.826 433.294 593.869C432.418 593.797 430.995 593.797 430.01 593.797C429.025 593.797 427.675 593.797 426.763 593.869C426.872 591.863 426.909 581.427 426.909 572.816C425.632 572.816 424.282 572.852 422.895 572.889C422.932 572.013 422.932 570.663 422.932 569.605C422.932 568.474 422.932 567.27 422.895 566.467Z" fill="#D4F75F"/>
<path id="IDK" d="M263.895 539.006H236.931C237.24 523.199 237.24 505.533 237.24 480.893C237.24 456.098 237.24 438.432 236.931 422.78H263.895C263.585 438.277 263.585 455.943 263.585 480.738C263.585 505.378 263.585 523.044 263.895 539.006ZM308.01 514.831C319.012 514.831 323.351 511.112 323.351 479.653C323.351 448.66 318.857 445.406 308.32 445.406C305.84 445.406 303.516 445.406 301.191 445.561C300.881 456.098 300.881 469.116 300.881 481.203C300.881 496.39 300.881 506.773 301.036 514.676C303.361 514.831 305.53 514.831 308.01 514.831ZM274.847 422.78H309.714C336.834 422.78 349.231 432.078 349.231 478.259C349.231 526.763 338.228 539.006 309.249 539.006H274.847C275.157 522.889 275.312 505.688 275.312 481.048C275.312 456.408 275.157 437.657 274.847 422.78ZM404.524 422.78H433.348C426.684 438.122 416.457 467.566 406.384 481.513C411.188 485.387 414.597 491.431 417.851 498.869C426.529 517.62 431.178 533.117 433.813 539.006H407.778C404.524 539.006 403.129 538.076 402.045 534.977C397.241 520.41 390.422 501.659 384.688 491.121H383.449C383.449 508.787 383.603 525.679 383.913 539.006H357.104C357.414 523.044 357.569 505.688 357.569 480.893C357.569 456.098 357.414 438.432 357.104 422.78H383.913C383.603 437.192 383.449 457.493 383.449 476.089H384.068C387.013 470.82 389.802 465.241 392.437 459.508C398.325 443.856 402.2 431.149 404.524 422.78Z" fill="#D4F75F"/>
</g>
<mask id="mask1_2393_20908" style="mask-type:alpha" maskUnits="userSpaceOnUse" x="205" y="404" width="254" height="204">
<g id="highlight_mask-idk">
<path d="M205.973 559.236C205.973 552.938 211.078 547.833 217.375 547.833H447.57C453.868 547.833 458.973 552.938 458.973 559.236V595.603C458.973 601.9 453.868 607.005 447.57 607.005H217.375C211.078 607.005 205.973 601.9 205.973 595.603V559.236Z" fill="#5756D6"/>
<path d="M217.394 415.857C217.394 409.559 222.499 404.454 228.797 404.454H436.718C443.016 404.454 448.121 409.559 448.121 415.857V536.431C448.121 542.728 443.016 547.833 436.718 547.833H228.797C222.499 547.833 217.394 542.728 217.394 536.431V415.857Z" fill="#5756D6"/>
</g>
</mask>
<g mask="url(#mask1_2393_20908)">
<rect id="highlight-idk" opacity="0.4" width="117.993" height="656.477" transform="matrix(0.992561 -0.121747 0.122685 0.992446 299.953 208.352)" fill="url(#paint0_radial_2393_20908)"/>
</g>
</g>
<g id="flap_group-idk" filter="url(#filter1_d_2393_20908)">
<mask id="mask2_2393_20908" style="mask-type:alpha" maskUnits="userSpaceOnUse" x="147" y="607" width="59" height="254">
<rect id="flap_mask-idk" x="206" y="607.006" width="253" height="59" rx="11.4025" transform="rotate(90 206 607.006)" fill="#F7FCFD"/>
</mask>
<g mask="url(#mask2_2393_20908)">
<rect id="flap-idk" x="206" y="607.006" width="253" height="59" rx="11.4025" transform="rotate(90 206 607.006)" fill="#F7FCFD"/>
<rect id="shadow-idk" opacity="0.5" width="117.29" height="1348.64" transform="matrix(0.706075 -0.708137 0.704009 0.710191 -339.586 199.027)" fill="url(#paint1_radial_2393_20908)"/>
</g>
</g>
</g>
</g>
</g>
<defs>
<filter id="filter0_d_2393_20908" x="201.973" y="400.454" width="269" height="218.551" filterUnits="userSpaceOnUse" color-interpolation-filters="sRGB">
<feFlood flood-opacity="0" result="BackgroundImageFix"/>
<feColorMatrix in="SourceAlpha" type="matrix" values="0 0 0 0 0 0 0 0 0 0 0 0 0 0 0 0 0 0 127 0" result="hardAlpha"/>
<feOffset dx="4" dy="4"/>
<feGaussianBlur stdDeviation="4"/>
<feComposite in2="hardAlpha" operator="out"/>
<feColorMatrix type="matrix" values="0 0 0 0 0 0 0 0 0 0 0 0 0 0 0 0 0 0 0.3 0"/>
<feBlend mode="normal" in2="BackgroundImageFix" result="effect1_dropShadow_2393_20908"/>
<feBlend mode="normal" in="SourceGraphic" in2="effect1_dropShadow_2393_20908" result="shape"/>
</filter>
<filter id="filter1_d_2393_20908" x="143" y="603.006" width="75" height="269" filterUnits="userSpaceOnUse" color-interpolation-filters="sRGB">
<feFlood flood-opacity="0" result="BackgroundImageFix"/>
<feColorMatrix in="SourceAlpha" type="matrix" values="0 0 0 0 0 0 0 0 0 0 0 0 0 0 0 0 0 0 127 0" result="hardAlpha"/>
<feOffset dx="4" dy="4"/>
<feGaussianBlur stdDeviation="4"/>
<feComposite in2="hardAlpha" operator="out"/>
<feColorMatrix type="matrix" values="0 0 0 0 0 0 0 0 0 0 0 0 0 0 0 0 0 0 0.2 0"/>
<feBlend mode="normal" in2="BackgroundImageFix" result="effect1_dropShadow_2393_20908"/>
<feBlend mode="normal" in="SourceGraphic" in2="effect1_dropShadow_2393_20908" result="shape"/>
</filter>
<radialGradient id="paint0_radial_2393_20908" cx="0" cy="0" r="1" gradientUnits="userSpaceOnUse" gradientTransform="translate(58.9966 328.239) rotate(90) scale(328.239 58.9966)">
<stop stop-color="white"/>
<stop offset="1" stop-color="#999999" stop-opacity="0"/>
</radialGradient>
<radialGradient id="paint1_radial_2393_20908" cx="0" cy="0" r="1" gradientUnits="userSpaceOnUse" gradientTransform="translate(58.645 674.321) rotate(90) scale(674.321 58.645)">
<stop offset="0.216346" stop-color="#1C1925"/>
<stop offset="1" stop-color="#999999" stop-opacity="0"/>
</radialGradient>
</defs>
</svg>
