<svg width="802" height="802" viewBox="0 0 802 802" fill="none" xmlns="http://www.w3.org/2000/svg">
<g id="ikleiddeweg_label-off">
<mask id="mask0_2392_20666" style="mask-type:alpha" maskUnits="userSpaceOnUse" x="0" y="0" width="802" height="802">
<rect id="mask-off" x="400.93" width="567" height="567" transform="rotate(45 400.93 0)" fill="#D9D9D9"/>
</mask>
<g mask="url(#mask0_2392_20666)">
<g id="label_group-off">
<g id="label-off">
<g id="base-off" filter="url(#filter0_d_2392_20666)">
<rect id="Rectangle 412" x="198.996" y="201.998" width="286" height="148" rx="8.95399" fill="#D4F75F"/>
<ellipse id="Ellipse 187" cx="391.796" cy="331.052" rx="41.4754" ry="72.6434" fill="#D4F75F"/>
<ellipse id="Ellipse 188" cx="456.584" cy="324.676" rx="41.4122" ry="79.019" fill="#D4F75F"/>
</g>
<g id="content-off">
<path id="Something feels" d="M223.986 239.293V239.562C223.986 241.362 224.9 242.006 227.989 242.006C230.997 242.006 231.803 241.335 231.803 240.234C231.803 239.052 231.078 238.165 227.049 237.628C220.736 236.741 218.936 234.619 218.936 231.208C218.936 227.85 221.676 225.325 227.64 225.325C234.113 225.325 236.477 227.501 236.477 230.939C236.477 231.288 236.45 231.665 236.424 232.067C235.859 232.041 234.973 232.014 234.06 232.014C233.146 232.014 232.206 232.041 231.642 232.067C231.669 231.879 231.669 231.665 231.669 231.503C231.669 230.348 230.917 229.542 227.479 229.542C224.873 229.542 224.094 230.187 224.094 231.181C224.094 232.094 224.577 233.008 228.875 233.599C234.57 234.404 236.746 236.312 236.746 240.045C236.746 243.699 234.167 246.224 228.016 246.224C221.354 246.224 218.775 244.102 218.775 240.502C218.775 240.072 218.802 239.669 218.856 239.213C219.42 239.32 220.36 239.374 221.3 239.374C222.321 239.374 223.261 239.347 223.986 239.293ZM251.294 237.601C251.294 234.646 249.844 233.437 247.507 233.437C245.197 233.437 243.719 234.566 243.719 237.601C243.719 240.61 245.17 241.98 247.507 241.98C249.898 241.98 251.294 240.556 251.294 237.601ZM256.13 237.44C256.13 242.812 252.906 246.197 247.507 246.197C242.134 246.197 238.992 242.812 238.992 237.44C238.992 232.041 242.376 229.193 247.507 229.193C252.638 229.193 256.13 232.041 256.13 237.44ZM284.169 245.848H279.415C279.495 243.484 279.522 240.099 279.522 236.043C279.522 234.27 278.77 233.437 277.105 233.437C275.359 233.437 273.935 234.378 273.935 236.903C273.935 241.63 273.908 243.887 274.015 245.848H269.288C269.368 243.484 269.395 240.717 269.395 236.043C269.395 234.351 268.724 233.437 267.004 233.437C265.258 233.437 263.835 234.378 263.835 236.903C263.835 241.254 263.835 244.182 263.888 245.848H259.107C259.188 243.538 259.161 241.227 259.161 237.816C259.161 234.297 259.161 231.933 259.107 229.569H263.996C263.969 230.509 263.942 231.235 263.862 232.148L264.023 232.175C264.963 230.214 266.548 229.328 268.885 229.328C271.141 229.328 273.075 230.375 273.613 232.309L273.827 232.336C274.794 230.08 276.755 229.328 279.039 229.328C282.047 229.328 284.142 231.02 284.142 234.27C284.142 236.768 284.089 238.568 284.089 240.61C284.089 242.409 284.116 244.29 284.169 245.848ZM295.245 232.766C293.069 232.766 291.968 233.518 291.699 236.473C293.902 236.553 296.292 236.527 298.28 236.5C298.307 236.285 298.307 236.043 298.307 235.748C298.307 233.625 297.447 232.766 295.245 232.766ZM302.766 240.663C302.847 244.209 301.369 246.197 295.325 246.197C290.141 246.197 287.025 243.457 287.025 237.735C287.025 231.826 290.275 229.22 295.433 229.22C300.913 229.22 302.766 231.933 302.766 236.07C302.766 237.386 302.712 238.326 302.659 239.078C301.208 239.025 298.764 239.025 296.454 239.025C294.654 239.025 292.881 239.052 291.672 239.052C291.887 241.765 293.015 242.624 295.406 242.624C297.662 242.624 298.307 241.926 298.361 240.663C298.979 240.717 299.704 240.744 300.59 240.744C301.504 240.744 302.202 240.717 302.766 240.663ZM304.878 229.569L306.785 229.596C306.812 228.307 306.812 227.098 306.812 226.104C307.564 226.131 308.477 226.158 309.31 226.158C310.116 226.158 310.976 226.158 311.755 226.104C311.728 227.232 311.701 228.387 311.674 229.623C313.528 229.623 315.381 229.596 316.912 229.569C316.858 230.832 316.805 232.551 316.832 233.84C315.596 233.813 313.635 233.76 311.593 233.733C311.567 235.586 311.567 237.547 311.567 239.723C311.567 241.174 312.131 241.684 313.769 241.684C314.924 241.684 315.945 241.469 316.697 241.147C316.832 242.57 317.127 244.263 317.315 245.472C315.838 245.794 314.871 246.036 313.098 246.036C308.236 246.036 306.731 243.618 306.731 240.287C306.731 238.541 306.758 236.124 306.758 233.652H304.905C304.905 232.524 304.905 230.671 304.878 229.569ZM336.404 245.848H331.327C331.381 243.511 331.408 240.422 331.408 236.5C331.408 234.243 330.682 233.411 328.641 233.411C326.599 233.411 325.041 234.539 325.041 237.494C325.041 242.678 325.068 244.236 325.095 245.848H320.045C320.126 243.349 320.126 241.201 320.126 237.118C320.126 232.954 320.099 227.931 320.045 225.056H325.176C325.095 226.856 325.095 228.146 325.095 229.623C325.068 230.563 325.041 231.262 325.014 232.148L325.149 232.175C326.116 230.16 327.996 229.274 330.79 229.274C334.201 229.274 336.377 230.966 336.377 235.049C336.377 237.386 336.323 238.702 336.323 240.314C336.323 242.356 336.323 244.075 336.404 245.848ZM345.566 226.776C345.566 227.582 345.163 228.307 342.638 228.307C340.086 228.307 339.684 227.582 339.684 226.776C339.684 225.916 340.14 225.352 342.638 225.352C345.11 225.352 345.566 225.916 345.566 226.776ZM345.11 245.848H340.14C340.194 243.269 340.194 240.663 340.194 237.413C340.194 234.351 340.167 232.067 340.14 229.569H345.11C345.029 232.094 345.029 234.324 345.029 237.547C345.029 241.227 345.029 243.323 345.11 245.848ZM365.443 245.848H360.366C360.42 243.564 360.447 240.341 360.447 236.5C360.447 234.27 359.722 233.411 357.68 233.411C355.639 233.411 354.081 234.485 354.081 237.252C354.081 242.436 354.107 244.236 354.134 245.848H349.084C349.165 243.564 349.165 241.577 349.165 237.843C349.165 234.324 349.138 231.799 349.084 229.569H354.161C354.134 230.563 354.107 231.262 354.054 232.148L354.215 232.202C355.209 230.187 357.089 229.328 359.775 229.328C363.402 229.328 365.416 231.02 365.416 235.398C365.416 237.708 365.363 238.864 365.363 240.314C365.363 242.356 365.363 244.075 365.443 245.848ZM376.647 246.868C380.032 246.868 381.16 246.439 381.16 245.552C381.16 245.069 380.864 244.8 379.736 244.8C377.883 244.8 375.385 245.069 373.692 245.069C373.424 245.069 373.155 245.069 372.913 245.042C372.698 245.257 372.591 245.418 372.591 245.633C372.591 246.492 373.343 246.868 376.647 246.868ZM376.486 232.981C374.122 232.981 373.101 233.84 373.101 235.022C373.101 236.231 374.122 236.983 376.486 236.983C378.904 236.983 379.897 236.231 379.897 235.022C379.897 233.84 378.904 232.981 376.486 232.981ZM381.643 233.169V233.33C383.47 233.813 384.168 234.512 384.168 236.016C384.168 238.541 382.02 240.234 376.405 240.234C375.465 240.234 374.632 240.18 373.88 240.072C373.692 240.448 373.612 240.851 373.612 241.227C373.612 241.63 373.961 241.899 374.686 241.899C377.131 241.899 379.199 241.657 380.784 241.657C384.195 241.657 385.673 242.839 385.673 245.418C385.673 248.373 383.685 250.038 376.593 250.038C369.126 250.038 368.051 248.883 368.051 247.271C368.051 246.009 369.072 245.284 370.952 244.854V244.746C369.582 244.343 369.099 243.591 369.099 242.678C369.099 241.227 370.388 240.287 372.081 239.723V239.643C369.797 238.837 368.83 237.252 368.83 235.157C368.83 231.503 371.355 229.542 376.405 229.542C376.996 229.542 381.966 229.596 385.592 229.596C385.565 230.133 385.565 232.632 385.565 233.357C384.706 233.357 383.175 233.276 381.643 233.169ZM401.576 230.724V231.826C403.322 231.799 405.068 231.772 406.761 231.745C406.734 232.981 406.734 234.646 406.761 235.962C405.042 235.936 403.322 235.909 401.576 235.909C401.576 240.153 401.603 242.947 401.737 245.848C400.744 245.794 399.965 245.794 399.132 245.794C398.353 245.794 397.52 245.794 396.553 245.848C396.687 242.759 396.741 239.857 396.741 237.144V235.936L394.834 235.962C394.861 234.727 394.861 233.142 394.834 231.853H396.661C396.661 231.235 396.661 230.644 396.661 230.053C396.661 226.937 398.433 224.788 403.054 224.788C404.907 224.788 405.955 224.976 407.244 225.298C407.083 226.319 406.841 228.146 406.707 229.408C406.035 229.14 405.122 228.925 404.021 228.925C402.275 228.925 401.576 229.408 401.576 230.724ZM416.753 232.766C414.578 232.766 413.476 233.518 413.208 236.473C415.41 236.553 417.801 236.527 419.789 236.5C419.816 236.285 419.816 236.043 419.816 235.748C419.816 233.625 418.956 232.766 416.753 232.766ZM424.275 240.663C424.355 244.209 422.878 246.197 416.834 246.197C411.65 246.197 408.534 243.457 408.534 237.735C408.534 231.826 411.784 229.22 416.941 229.22C422.421 229.22 424.275 231.933 424.275 236.07C424.275 237.386 424.221 238.326 424.167 239.078C422.717 239.025 420.272 239.025 417.962 239.025C416.162 239.025 414.389 239.052 413.181 239.052C413.396 241.765 414.524 242.624 416.914 242.624C419.171 242.624 419.816 241.926 419.869 240.663C420.487 240.717 421.212 240.744 422.099 240.744C423.012 240.744 423.711 240.717 424.275 240.663ZM435.09 232.766C432.914 232.766 431.813 233.518 431.544 236.473C433.747 236.553 436.137 236.527 438.125 236.5C438.152 236.285 438.152 236.043 438.152 235.748C438.152 233.625 437.292 232.766 435.09 232.766ZM442.611 240.663C442.692 244.209 441.214 246.197 435.17 246.197C429.986 246.197 426.87 243.457 426.87 237.735C426.87 231.826 430.12 229.22 435.278 229.22C440.758 229.22 442.611 231.933 442.611 236.07C442.611 237.386 442.557 238.326 442.504 239.078C441.053 239.025 438.609 239.025 436.299 239.025C434.499 239.025 432.726 239.052 431.517 239.052C431.732 241.765 432.86 242.624 435.251 242.624C437.507 242.624 438.152 241.926 438.206 240.663C438.824 240.717 439.549 240.744 440.435 240.744C441.349 240.744 442.047 240.717 442.611 240.663ZM451.062 245.848H446.039C446.12 242.812 446.12 239.401 446.12 235.694C446.12 231.718 446.12 228.468 446.039 225.056H451.062C450.982 228.28 450.982 231.342 450.982 235.909C450.982 239.965 450.982 242.678 451.062 245.848ZM458.719 240.448V240.717C458.719 241.765 459.471 242.329 462.023 242.329C464.226 242.329 464.897 241.899 464.897 241.039C464.897 240.234 464.226 239.696 460.841 239.401C455.576 238.837 454.206 236.929 454.206 234.19C454.206 230.886 456.57 229.247 461.889 229.247C467.207 229.247 469.356 230.912 469.356 234.136C469.356 234.378 469.329 234.619 469.302 234.915C468.738 234.861 467.798 234.834 466.912 234.834C466.106 234.834 465.3 234.861 464.817 234.888V234.619C464.817 233.599 464.145 233.088 461.808 233.088C459.578 233.088 458.934 233.518 458.934 234.27C458.934 234.969 459.417 235.56 463.124 235.962C468.067 236.527 469.598 238.085 469.598 241.12C469.598 244.209 467.53 246.197 461.969 246.197C455.952 246.197 454.152 244.236 454.152 241.147C454.152 240.932 454.179 240.663 454.179 240.422C454.743 240.475 455.603 240.529 456.57 240.529C457.349 240.529 458.155 240.502 458.719 240.448Z" fill="#1B1B1B"/>
<path id="OFF" d="M261.482 301.235C255.986 323.381 247.984 331.221 235.456 331.221C220.423 331.221 215.654 321.441 221.554 297.517C226.97 275.613 235.295 268.986 247.419 268.986C261.886 268.986 267.383 277.472 261.482 301.235ZM237.073 318.289C241.114 318.289 244.347 314.49 248.065 299.619C251.622 285.555 250.328 281.11 245.721 281.11C241.761 281.11 238.447 284.585 234.891 299.053C231.092 314.167 232.466 318.289 237.073 318.289ZM275.188 269.794H305.902C305.336 271.734 304.528 274.643 303.962 277.068C303.315 279.655 302.669 282.484 302.184 284.343C296.203 284.262 290.221 284.262 285.21 284.262L282.058 296.951L281.573 298.891C287.393 298.891 293.212 298.81 298.223 298.649C297.334 301.963 295.637 308.59 294.828 311.985C289.898 311.904 284.24 311.904 278.421 311.904C276.966 318.208 275.511 324.594 274.299 330.413H260.074C262.256 322.088 264.6 312.955 267.752 300.104C270.985 287.252 273.248 278.281 275.188 269.794ZM311.417 269.794H342.131C341.565 271.734 340.757 274.643 340.191 277.068C339.545 279.655 338.898 282.484 338.413 284.343C332.432 284.262 326.451 284.262 321.44 284.262L318.287 296.951L317.802 298.891C323.622 298.891 329.441 298.81 334.453 298.649C333.563 301.963 331.866 308.59 331.058 311.985C326.128 311.904 320.47 311.904 314.65 311.904C313.195 318.208 311.741 324.594 310.528 330.413H296.303C298.485 322.088 300.829 312.955 303.981 300.104C307.214 287.252 309.477 278.281 311.417 269.794Z" fill="#1B1B1B"/>
<g id="Group 400">
<path id="Ellipse 182" d="M391.989 265.095C399.927 265.095 407.546 271.281 413.285 282.255C418.98 293.145 422.556 308.312 422.556 325.162C422.556 342.013 418.98 357.181 413.285 368.07C407.546 379.045 399.927 385.23 391.989 385.23C384.052 385.23 376.432 379.045 370.692 368.07C364.997 357.181 361.422 342.013 361.422 325.162C361.422 308.312 364.997 293.145 370.692 282.255C376.432 271.28 384.052 265.095 391.989 265.095Z" fill="#F7FCFD" stroke="#1B1B1B" stroke-width="3.55431"/>
<ellipse id="Ellipse 184" cx="405.139" cy="325.163" rx="16.3498" ry="31.2779" fill="#1B1B1B"/>
</g>
<g id="Group 401">
<path id="Ellipse 185" d="M456.677 265.095C464.614 265.095 472.233 271.281 477.973 282.255C483.668 293.145 487.243 308.312 487.243 325.162C487.243 342.013 483.668 357.181 477.973 368.07C472.233 379.045 464.614 385.23 456.677 385.23C448.739 385.23 441.119 379.045 435.38 368.07C429.685 357.181 426.109 342.013 426.109 325.162C426.109 308.312 429.685 293.145 435.38 282.255C441.119 271.28 448.739 265.095 456.677 265.095Z" fill="#F7FCFD" stroke="#1B1B1B" stroke-width="3.55431"/>
<ellipse id="Ellipse 186" cx="469.83" cy="325.163" rx="16.3498" ry="31.2779" fill="#1B1B1B"/>
</g>
</g>
<mask id="mask1_2392_20666" style="mask-type:alpha" maskUnits="userSpaceOnUse" x="198" y="201" width="300" height="203">
<g id="highlight_mask-off">
<rect id="Rectangle 412_2" x="198.996" y="201.998" width="286" height="148" rx="8.95399" fill="#D4F75F"/>
<ellipse id="Ellipse 187_2" cx="391.796" cy="331.052" rx="41.4754" ry="72.6434" fill="#D4F75F"/>
<ellipse id="Ellipse 188_2" cx="456.584" cy="324.676" rx="41.4122" ry="79.019" fill="#D4F75F"/>
</g>
</mask>
<g mask="url(#mask1_2392_20666)">
<rect id="highlight-copy" opacity="0.5" x="349.996" y="5.55957" width="118" height="659" transform="rotate(-7.08758 349.996 5.55957)" fill="url(#paint0_radial_2392_20666)"/>
</g>
</g>
<g id="flap_group-off" filter="url(#filter1_d_2392_20666)">
<mask id="mask2_2392_20666" style="mask-type:alpha" maskUnits="userSpaceOnUse" x="50" y="-84" width="149" height="286">
<rect id="flap_mask-off" x="50.9961" y="202" width="286" height="148" rx="8.95399" transform="rotate(-90 50.9961 202)" fill="#F7FCFD"/>
</mask>
<g mask="url(#mask2_2392_20666)">
<rect id="flap-off" x="50.9922" y="202" width="286" height="148" rx="8.95399" transform="rotate(-90 50.9922 202)" fill="#F7FCFD"/>
<rect id="shadow-copy" opacity="0.5" x="614.379" y="-362.998" width="118" height="1356.81" transform="rotate(45 614.379 -362.998)" fill="url(#paint1_radial_2392_20666)"/>
</g>
</g>
</g>
</g>
</g>
<defs>
<filter id="filter0_d_2392_20666" x="194.996" y="197.998" width="315" height="217.697" filterUnits="userSpaceOnUse" color-interpolation-filters="sRGB">
<feFlood flood-opacity="0" result="BackgroundImageFix"/>
<feColorMatrix in="SourceAlpha" type="matrix" values="0 0 0 0 0 0 0 0 0 0 0 0 0 0 0 0 0 0 127 0" result="hardAlpha"/>
<feOffset dx="4" dy="4"/>
<feGaussianBlur stdDeviation="4"/>
<feComposite in2="hardAlpha" operator="out"/>
<feColorMatrix type="matrix" values="0 0 0 0 0 0 0 0 0 0 0 0 0 0 0 0 0 0 0.3 0"/>
<feBlend mode="normal" in2="BackgroundImageFix" result="effect1_dropShadow_2392_20666"/>
<feBlend mode="normal" in="SourceGraphic" in2="effect1_dropShadow_2392_20666" result="shape"/>
</filter>
<filter id="filter1_d_2392_20666" x="46.9961" y="-88" width="164" height="302" filterUnits="userSpaceOnUse" color-interpolation-filters="sRGB">
<feFlood flood-opacity="0" result="BackgroundImageFix"/>
<feColorMatrix in="SourceAlpha" type="matrix" values="0 0 0 0 0 0 0 0 0 0 0 0 0 0 0 0 0 0 127 0" result="hardAlpha"/>
<feOffset dx="4" dy="4"/>
<feGaussianBlur stdDeviation="4"/>
<feComposite in2="hardAlpha" operator="out"/>
<feColorMatrix type="matrix" values="0 0 0 0 0 0 0 0 0 0 0 0 0 0 0 0 0 0 0.2 0"/>
<feBlend mode="normal" in2="BackgroundImageFix" result="effect1_dropShadow_2392_20666"/>
<feBlend mode="normal" in="SourceGraphic" in2="effect1_dropShadow_2392_20666" result="shape"/>
</filter>
<radialGradient id="paint0_radial_2392_20666" cx="0" cy="0" r="1" gradientUnits="userSpaceOnUse" gradientTransform="translate(408.996 335.06) rotate(90) scale(329.5 59)">
<stop stop-color="white"/>
<stop offset="1" stop-color="#999999" stop-opacity="0"/>
</radialGradient>
<radialGradient id="paint1_radial_2392_20666" cx="0" cy="0" r="1" gradientUnits="userSpaceOnUse" gradientTransform="translate(673.379 315.408) rotate(90) scale(678.406 59)">
<stop offset="0.216346" stop-color="#1C1925"/>
<stop offset="1" stop-color="#999999" stop-opacity="0"/>
</radialGradient>
</defs>
</svg>
