<svg width="802" height="802" viewBox="0 0 802 802" fill="none" xmlns="http://www.w3.org/2000/svg">
<g id="ikleiddeweg_label-immature">
<mask id="mask0_2392_20724" style="mask-type:alpha" maskUnits="userSpaceOnUse" x="0" y="0" width="802" height="802">
<rect id="mask-immature" x="400.93" width="567" height="567" transform="rotate(45 400.93 0)" fill="#D9D9D9"/>
</mask>
<g mask="url(#mask0_2392_20724)">
<g id="label_group-immature">
<g id="label-immature">
<g id="base-immature" filter="url(#filter0_d_2392_20724)">
<path d="M427.988 371.104C427.988 362.21 435.198 355 444.092 355H584.884C593.778 355 600.988 362.21 600.988 371.104V396.896C600.988 405.79 593.778 413 584.884 413H444.092C435.198 413 427.988 405.79 427.988 396.896V371.104Z" fill="#FF6249"/>
<path d="M427.988 429.104C427.988 420.21 435.198 413 444.092 413H584.884C593.778 413 600.988 420.21 600.988 429.104V585.896C600.988 594.79 593.778 602 584.884 602H444.092C435.198 602 427.988 594.79 427.988 585.896V429.104Z" fill="#FF6249"/>
</g>
<g id="content-immature">
<path id="Immature" d="M447.878 399.487H443C443.927 396.052 444.958 392.067 446.298 386.604C447.672 381.107 448.703 377.122 449.424 373.721H454.302C453.375 377.088 452.379 381.073 451.004 386.57C449.63 392.032 448.634 396.017 447.878 399.487ZM472.094 373.721H477.831C476.938 377.088 475.976 380.936 474.567 386.57C473.193 392.032 472.3 395.777 471.406 399.487H466.769C468.108 394.712 468.933 391.345 470.204 386.364C470.788 383.993 471.681 381.107 472.437 378.428H472.334C471.338 380.867 470.204 383.478 469.345 385.127L462.096 399.487H460.069L459.966 384.921C459.932 383.066 460.104 380.592 460.275 378.359H460.207C459.554 381.142 459.073 383.753 458.455 386.329C457.183 391.379 456.428 394.746 455.328 399.487H451.171C452.168 395.777 453.095 392.032 454.469 386.57C455.878 380.936 456.84 377.088 457.63 373.721H463.539C463.642 376.091 463.574 381.313 463.78 386.192C463.78 387.36 463.677 388.975 463.539 390.555H463.642C464.329 388.975 465.085 387.394 465.669 386.226C468.177 381.348 470.822 376.091 472.094 373.721ZM495.664 373.721H501.401C500.508 377.088 499.546 380.936 498.137 386.57C496.763 392.032 495.87 395.777 494.977 399.487H490.339C491.679 394.712 492.503 391.345 493.774 386.364C494.358 383.993 495.252 381.107 496.007 378.428H495.904C494.908 380.867 493.774 383.478 492.916 385.127L485.667 399.487H483.64L483.537 384.921C483.502 383.066 483.674 380.592 483.846 378.359H483.777C483.124 381.142 482.643 383.753 482.025 386.329C480.754 391.379 479.998 394.746 478.899 399.487H474.742C475.738 395.777 476.666 392.032 478.04 386.57C479.448 380.936 480.41 377.088 481.2 373.721H487.109C487.213 376.091 487.144 381.313 487.35 386.192C487.35 387.36 487.247 388.975 487.109 390.555H487.213C487.9 388.975 488.655 387.394 489.24 386.226C491.747 381.348 494.393 376.091 495.664 373.721ZM511.745 376.332H511.607C511.092 377.569 510.336 379.321 509.374 381.416C508.309 383.924 507.004 386.913 505.801 389.73C506.729 389.765 507.657 389.765 508.344 389.765C509.065 389.765 509.993 389.765 510.92 389.73C511.126 386.879 511.333 383.856 511.47 381.348C511.539 379.321 511.676 377.569 511.745 376.332ZM508.515 373.721H515.936C515.902 376.95 515.112 393.029 515.18 399.487H510.061C510.233 398.491 510.439 396.189 510.645 393.372C509.477 393.372 508.309 393.372 507.45 393.372C506.592 393.372 505.423 393.372 504.255 393.372C503.087 396.086 502.16 398.354 501.713 399.487H496.594C499.721 393.132 507.038 376.916 508.515 373.721ZM520.422 373.721H533.958C533.786 374.236 533.58 375.061 533.408 375.817C533.237 376.504 533.031 377.397 532.893 377.981C531.347 377.947 529.836 377.947 528.461 377.947C526.366 386.226 523.617 397.495 523.205 399.522C522.552 399.453 521.487 399.453 520.766 399.453C520.044 399.453 519.048 399.453 518.361 399.522C518.945 397.529 521.762 386.226 523.858 377.947C522.484 377.947 520.938 377.947 519.357 377.981C519.529 377.397 519.769 376.504 519.941 375.817C520.113 375.061 520.319 374.271 520.422 373.721ZM546.903 373.721H551.747C551.163 375.92 550.544 378.153 549.754 381.416C549.033 384.302 547.968 388.837 547.006 392.651C545.906 397.048 543.295 399.865 538.589 399.865C531.821 399.865 530.412 395.674 531.511 391.173C532.302 387.841 533.367 383.924 534.019 381.416C534.809 378.153 535.325 375.92 535.806 373.721H540.684C539.551 377.844 537.352 386.638 536.184 391.311C535.497 394.059 536.184 395.571 538.726 395.571C540.822 395.571 541.887 394.334 542.642 391.379C543.776 386.707 545.975 377.809 546.903 373.721ZM563.5 382.653C564.497 378.668 563.5 377.706 561.061 377.706C560.58 377.706 559.515 377.74 558.656 377.775C557.9 380.867 557.145 383.924 556.458 386.81C557.11 386.81 558.244 386.845 559.584 386.845C561.439 386.845 562.779 385.505 563.5 382.653ZM555.049 373.721H562.641C567.348 373.721 569.616 376.504 568.241 382.172C567.176 386.467 565.424 388.562 562.161 389.181L562.126 389.387C564.153 389.799 564.737 390.83 564.806 393.99C564.875 396.086 564.875 398.319 564.943 399.487H560.786C560.03 399.487 560.03 399.144 559.824 397.151C560.03 391.379 559.756 390.589 557.832 390.624C556.801 390.624 556.801 390.589 555.53 390.624C554.671 394.265 553.95 397.357 553.572 399.487H548.625C549.587 395.743 550.548 392.101 551.923 386.604C553.297 381.142 554.19 377.431 555.049 373.721ZM573.251 373.721H586.58C586.443 374.168 586.202 375.061 586.065 375.714C585.893 376.401 585.618 377.466 585.515 377.981C582.423 377.947 579.4 377.947 576.927 377.947L575.312 384.44C578.301 384.44 581.152 384.44 583.729 384.371C583.454 385.264 582.904 387.429 582.664 388.391C580.225 388.356 577.304 388.322 574.35 388.322C573.697 390.967 573.113 393.2 572.632 395.159C575.14 395.159 578.266 395.124 581.255 395.09C581.084 395.605 580.843 396.636 580.637 397.392C580.499 398.044 580.259 398.972 580.156 399.487H566.826C567.719 396.155 568.75 392.101 570.124 386.604C571.498 381.142 572.563 376.779 573.251 373.721Z" fill="#1B1B1B"/>
<g id="Group 393">
<circle id="Ellipse 158" cx="514.505" cy="488.078" r="64.4159" fill="#D4F75F" stroke="#1B1B1B" stroke-width="5.368"/>
<path id="Ellipse 159" d="M559.6 488.076C559.6 512.979 539.412 533.167 514.509 533.167C489.606 533.167 469.418 512.979 469.418 488.076" stroke="#1B1B1B" stroke-width="5.368" stroke-linecap="round"/>
<ellipse id="Ellipse 160" cx="501.623" cy="476.268" rx="4.2944" ry="11.8096" fill="#1B1B1B"/>
<ellipse id="Ellipse 161" cx="527.392" cy="476.268" rx="4.2944" ry="11.8096" fill="#1B1B1B"/>
</g>
<g id="Group 328">
<rect id="Rectangle 107" x="436.129" y="541.757" width="156.745" height="52.0696" fill="#1B1B1B"/>
<path id="AS F*CK" d="M463.59 555.314H463.445C463.193 556.576 462.832 558.38 462.219 560.977C461.678 563.755 460.956 567.11 460.307 570.284C461.425 570.32 462.652 570.32 463.518 570.32C464.419 570.32 465.61 570.32 466.764 570.284C466.079 567.073 465.357 563.647 464.78 560.869C464.203 558.38 463.842 556.576 463.59 555.314ZM472.969 580.168H468.64C468.496 579.05 468.027 576.416 467.377 573.278C466.007 573.278 464.6 573.278 463.518 573.278C462.507 573.278 461.028 573.278 459.694 573.278C459.044 576.344 458.539 578.905 458.323 580.168H454.319C455.942 573.891 459.91 556.288 460.632 553.113H466.512C467.305 556.324 471.201 573.603 472.969 580.168ZM482.184 577.318C484.889 577.318 485.935 576.164 485.935 573.891C485.935 571.402 484.925 569.454 481.318 568.011C476.304 565.991 474.609 563.394 474.609 559.246C474.609 555.097 477.061 552.716 481.859 552.716C487.09 552.716 489.254 555.097 489.254 559.823C489.254 560.689 489.218 561.338 489.182 562.24C488.749 562.204 488.136 562.204 487.487 562.204C486.801 562.204 486.152 562.24 485.683 562.24C485.719 561.482 485.755 560.653 485.755 560.003C485.755 557.262 484.673 555.963 481.895 555.963C479.478 555.963 478.324 557.045 478.324 559.246C478.324 561.446 478.973 563.286 482.761 564.837C487.378 566.677 489.507 569.382 489.507 573.675C489.507 577.968 487.162 580.565 482.184 580.565C476.593 580.565 474.356 577.823 474.356 573.35C474.356 572.268 474.392 571.727 474.428 570.897C474.897 570.933 475.51 570.969 476.196 570.969C476.953 570.969 477.639 570.969 478.18 570.933C478.144 571.547 478.144 572.232 478.144 572.701C478.144 576.092 479.298 577.318 482.184 577.318ZM500.233 553.113H513.544C513.508 553.546 513.508 554.195 513.508 554.7C513.508 555.35 513.508 556.035 513.544 556.576C510.117 556.504 506.799 556.504 504.057 556.504C504.057 559.354 504.057 563.105 504.057 565.847V566.713C507.34 566.713 510.55 566.713 513.364 566.641C513.292 567.506 513.292 569.13 513.292 569.959C510.55 569.959 507.34 569.923 504.057 569.923C504.093 573.567 504.129 577.246 504.237 580.168H500.233C500.305 576.669 500.341 572.412 500.341 566.641C500.341 560.905 500.341 556.576 500.233 553.113ZM531.755 560.689V564.079C530.745 564.043 528.22 563.935 525.767 563.899C527.246 567.001 529.555 571.078 530.204 572.376C529.122 572.989 528.256 573.494 527.21 574.144C526.669 572.845 524.829 568.661 523.459 565.558C522.088 568.661 520.212 572.881 519.743 574.144C518.661 573.531 517.795 573.026 516.677 572.448C517.398 571.114 519.743 567.001 521.222 563.899C518.841 563.935 516.316 564.043 515.342 564.079V560.689C516.388 560.725 519.238 560.761 521.835 560.761C521.799 557.731 521.727 553.943 521.655 552.716C523.026 552.753 523.891 552.753 525.298 552.716C525.226 553.979 525.082 557.731 525.082 560.761C527.715 560.761 530.709 560.725 531.755 560.689ZM547.96 564.152H546.156C546.192 563.394 546.192 562.6 546.192 562.095C546.192 557.55 544.749 556.216 542.152 556.216C539.374 556.216 537.643 558.019 537.643 566.424C537.643 574.973 539.41 577.03 542.26 577.03C545.038 577.03 546.264 575.046 546.264 570.897C546.264 570.32 546.264 569.743 546.228 569.13C546.878 569.166 547.455 569.166 548.104 569.166C548.717 569.166 549.331 569.166 549.98 569.13V570.861C549.98 577.03 547.383 580.529 542.296 580.529C536.994 580.529 533.747 576.957 533.747 566.496C533.747 556.576 536.597 552.753 542.332 552.753C547.815 552.753 549.908 556.216 549.908 561.699C549.908 562.528 549.872 563.322 549.836 564.152H547.96ZM565.285 553.113H569.866C567.918 556.36 563.986 563.105 561.749 566.929C562.435 567.831 563.301 568.985 564.166 570.32C567.341 575.046 569.397 578.869 570.263 580.168H566.186C565.537 580.168 565.212 579.952 564.888 579.41C562.976 576.056 559.946 571.042 558.178 568.372H557.818C557.818 572.809 557.818 577.03 557.926 580.168H553.958C554.03 576.633 554.03 572.412 554.03 566.641C554.03 560.869 554.03 556.54 553.958 553.113H557.926C557.818 556.396 557.818 561.338 557.818 566.172H558.07C559.008 564.873 559.946 563.43 560.956 561.807C562.832 558.524 564.311 555.35 565.285 553.113Z" fill="#F7FCFD"/>
</g>
</g>
<mask id="mask1_2392_20724" style="mask-type:alpha" maskUnits="userSpaceOnUse" x="427" y="355" width="174" height="247">
<g id="highlight_mask-immature">
<path d="M427.988 371.104C427.988 362.21 435.198 355 444.092 355H584.884C593.778 355 600.988 362.21 600.988 371.104V396.896C600.988 405.79 593.778 413 584.884 413H444.092C435.198 413 427.988 405.79 427.988 396.896V371.104Z" fill="#FF6249"/>
<path d="M427.988 429.104C427.988 420.21 435.198 413 444.092 413H584.884C593.778 413 600.988 420.21 600.988 429.104V585.896C600.988 594.79 593.778 602 584.884 602H444.092C435.198 602 427.988 594.79 427.988 585.896V429.104Z" fill="#FF6249"/>
</g>
</mask>
<g mask="url(#mask1_2392_20724)">
<rect id="highlight-immature" opacity="0.5" x="475.051" y="152.34" width="118" height="659" transform="rotate(-4.53742 475.051 152.34)" fill="url(#paint0_radial_2392_20724)"/>
</g>
</g>
<g id="flap_group-immature" filter="url(#filter1_d_2392_20724)">
<mask id="mask2_2392_20724" style="mask-type:alpha" maskUnits="userSpaceOnUse" x="600" y="602" width="174" height="247">
<g id="flap_mask-immature">
<path d="M773.992 832.896C773.992 841.79 766.782 849 757.888 849L617.096 849C608.202 849 600.992 841.79 600.992 832.896L600.992 807.104C600.992 798.21 608.202 791 617.096 791L757.888 791C766.782 791 773.992 798.21 773.992 807.104L773.992 832.896Z" fill="#F7FCFD"/>
<path d="M773.992 774.896C773.992 783.79 766.782 791 757.888 791L617.096 791C608.202 791 600.992 783.79 600.992 774.896L600.992 618.104C600.992 609.21 608.202 602 617.096 602L757.888 602C766.782 602 773.992 609.21 773.992 618.104L773.992 774.896Z" fill="#F7FCFD"/>
</g>
</mask>
<g mask="url(#mask2_2392_20724)">
<g id="flap-immature">
<path d="M773.988 832.896C773.988 841.79 766.778 849 757.884 849L617.092 849C608.198 849 600.988 841.79 600.988 832.896L600.988 807.104C600.988 798.21 608.198 791 617.092 791L757.884 791C766.778 791 773.988 798.21 773.988 807.104L773.988 832.896Z" fill="#F7FCFD"/>
<path d="M773.988 774.896C773.988 783.79 766.778 791 757.884 791L617.092 791C608.198 791 600.988 783.79 600.988 774.896L600.988 618.104C600.988 609.21 608.198 602 617.092 602L757.884 602C766.778 602 773.988 609.21 773.988 618.104L773.988 774.896Z" fill="#F7FCFD"/>
</g>
<rect id="shadow-immature" opacity="0.5" x="1050.42" y="136" width="118" height="1356.81" transform="rotate(45 1050.42 136)" fill="url(#paint1_radial_2392_20724)"/>
</g>
</g>
</g>
</g>
</g>
<defs>
<filter id="filter0_d_2392_20724" x="415.988" y="347" width="189" height="263" filterUnits="userSpaceOnUse" color-interpolation-filters="sRGB">
<feFlood flood-opacity="0" result="BackgroundImageFix"/>
<feColorMatrix in="SourceAlpha" type="matrix" values="0 0 0 0 0 0 0 0 0 0 0 0 0 0 0 0 0 0 127 0" result="hardAlpha"/>
<feOffset dx="-4"/>
<feGaussianBlur stdDeviation="4"/>
<feComposite in2="hardAlpha" operator="out"/>
<feColorMatrix type="matrix" values="0 0 0 0 0 0 0 0 0 0 0 0 0 0 0 0 0 0 0.3 0"/>
<feBlend mode="normal" in2="BackgroundImageFix" result="effect1_dropShadow_2392_20724"/>
<feBlend mode="normal" in="SourceGraphic" in2="effect1_dropShadow_2392_20724" result="shape"/>
</filter>
<filter id="filter1_d_2392_20724" x="588.992" y="594" width="189" height="263" filterUnits="userSpaceOnUse" color-interpolation-filters="sRGB">
<feFlood flood-opacity="0" result="BackgroundImageFix"/>
<feColorMatrix in="SourceAlpha" type="matrix" values="0 0 0 0 0 0 0 0 0 0 0 0 0 0 0 0 0 0 127 0" result="hardAlpha"/>
<feOffset dx="-4"/>
<feGaussianBlur stdDeviation="4"/>
<feComposite in2="hardAlpha" operator="out"/>
<feColorMatrix type="matrix" values="0 0 0 0 0 0 0 0 0 0 0 0 0 0 0 0 0 0 0.2 0"/>
<feBlend mode="normal" in2="BackgroundImageFix" result="effect1_dropShadow_2392_20724"/>
<feBlend mode="normal" in="SourceGraphic" in2="effect1_dropShadow_2392_20724" result="shape"/>
</filter>
<radialGradient id="paint0_radial_2392_20724" cx="0" cy="0" r="1" gradientUnits="userSpaceOnUse" gradientTransform="translate(534.051 481.84) rotate(90) scale(329.5 59)">
<stop stop-color="white"/>
<stop offset="1" stop-color="#999999" stop-opacity="0"/>
</radialGradient>
<radialGradient id="paint1_radial_2392_20724" cx="0" cy="0" r="1" gradientUnits="userSpaceOnUse" gradientTransform="translate(1109.42 814.406) rotate(90) scale(678.406 59)">
<stop offset="0.216346" stop-color="#1C1925"/>
<stop offset="1" stop-color="#999999" stop-opacity="0"/>
</radialGradient>
</defs>
</svg>
