<svg width="567" height="567" viewBox="0 0 567 567" fill="none" xmlns="http://www.w3.org/2000/svg">
<g id="ikleiddeweg_label-color">
<mask id="mask0_2392_20787" style="mask-type:alpha" maskUnits="userSpaceOnUse" x="0" y="0" width="567" height="567">
<rect id="mask-color" x="567" width="567" height="567" transform="rotate(90 567 0)" fill="#D9D9D9"/>
</mask>
<g mask="url(#mask0_2392_20787)">
<g id="label_group-color">
<g id="label-color">
<g id="base-color" filter="url(#filter0_d_2392_20787)">
<rect id="Rectangle 309" x="99.9688" y="131.929" width="375.591" height="55.0809" rx="13.0112" fill="#5756D6"/>
<g id="Group 398">
<path id="Ellipse 162" d="M284.073 -4.99023C208.022 -4.99023 146.371 56.6612 146.371 132.712H421.776C421.776 56.6612 360.124 -4.99023 284.073 -4.99023Z" fill="#5756D6"/>
<path id="Ellipse 163" d="M284.265 30.1602C227.52 30.1602 181.52 76.1609 181.52 132.906H387.011C387.011 76.1609 341.01 30.1602 284.265 30.1602Z" fill="#FF6249"/>
<path id="Ellipse 164" d="M284.146 65.3096C246.881 65.3096 216.672 95.5188 216.672 132.784H351.62C351.62 95.5188 321.411 65.3096 284.146 65.3096Z" fill="#D4F75F"/>
</g>
</g>
<g id="content-color">
<path id="coloringbook" d="M143.952 159.403V158.986C143.952 156.544 141.843 155.683 137.401 155.683C132.488 155.767 130.407 157.043 130.407 161.04C130.407 165.037 132.655 166.731 137.651 166.731C142.259 166.731 143.98 165.509 143.98 163.483V162.956C145.035 162.983 146.062 162.983 147.089 162.983C148.143 162.983 149.226 162.983 150.281 162.956V163.816C150.281 168.729 146.867 172.088 137.651 172.088C128.464 172.088 123.911 168.701 123.911 161.179C123.911 153.851 128.908 150.493 137.512 150.493C145.729 150.493 150.197 153.019 150.197 158.098C150.197 158.514 150.17 158.959 150.142 159.403C149.115 159.375 148.06 159.375 147.005 159.375C145.978 159.375 144.979 159.375 143.952 159.403ZM181.076 161.096C181.076 168.091 176.468 172.338 167.28 172.338C158.12 172.338 153.568 168.091 153.568 161.096C153.568 153.99 158.509 150.243 167.28 150.243C176.079 150.243 181.076 153.99 181.076 161.096ZM167.308 167.008C172.499 167.008 174.58 164.871 174.58 161.207C174.58 157.515 172.443 155.572 167.308 155.572C162.173 155.572 160.008 157.46 160.008 161.207C160.008 164.926 162.145 167.008 167.308 167.008ZM185.202 150.881H191.725C191.642 152.463 191.587 156.571 191.587 161.262C191.587 162.983 191.587 164.76 191.587 166.259C194.751 166.259 199.359 166.287 203.106 166.176C203.078 167.064 203.05 168.007 203.05 168.923C203.05 169.867 203.078 170.783 203.106 171.699H185.202C185.202 169.784 185.286 165.731 185.286 161.29C185.286 156.488 185.286 152.88 185.202 150.881ZM232.253 161.096C232.253 168.091 227.645 172.338 218.458 172.338C209.298 172.338 204.746 168.091 204.746 161.096C204.746 153.99 209.686 150.243 218.458 150.243C227.257 150.243 232.253 153.99 232.253 161.096ZM218.485 167.008C223.676 167.008 225.758 164.871 225.758 161.207C225.758 157.515 223.621 155.572 218.485 155.572C213.35 155.572 211.185 157.46 211.185 161.207C211.185 164.926 213.323 167.008 218.485 167.008ZM242.736 160.818C244.124 160.846 246.928 160.874 249.87 160.874C253.062 160.874 254.394 160.013 254.394 158.237C254.394 156.155 253.007 155.628 249.62 155.655C248.288 155.628 244.735 155.655 242.709 155.739C242.709 157.46 242.709 159.153 242.736 160.818ZM254.45 163.344V163.428C258.058 163.816 259.557 164.593 260.473 167.48C261.001 169.257 261.5 170.839 261.833 171.699H255.893C254.866 171.699 254.728 171.422 254.061 168.868C253.284 165.898 252.618 165.371 249.343 165.371C247.205 165.371 246.123 165.371 242.792 165.398C242.847 167.924 242.931 170.145 243.097 171.699H236.491C236.519 168.674 236.574 165.759 236.574 161.29C236.574 156.877 236.547 153.879 236.491 150.881H251.23C257.309 150.881 260.529 152.963 260.529 157.21C260.529 160.846 258.752 162.761 254.45 163.344ZM272.233 171.699H265.766C265.849 168.507 265.849 165.704 265.849 161.29C265.849 156.849 265.849 154.046 265.766 150.881H272.233C272.15 154.018 272.15 156.821 272.15 161.262C272.15 165.648 272.15 168.479 272.233 171.699ZM296.955 150.881H302.895C302.839 153.213 302.812 156.849 302.812 161.262C302.812 165.842 302.812 168.951 302.867 171.699H296.233C294.956 169.756 289.682 164.399 286.157 160.652C285.214 159.653 284.27 158.598 283.52 157.515C283.631 159.153 283.687 160.735 283.742 162.262C283.77 167.064 283.77 170.339 283.853 171.699H277.747C277.775 168.923 277.83 165.731 277.83 161.29C277.83 156.877 277.83 153.601 277.747 150.881H285.297C286.157 152.297 292.042 158.209 295.234 161.734C296.039 162.623 296.816 163.594 297.399 164.649C297.26 163.067 297.177 161.512 297.177 160.124C297.177 156.46 297.094 152.547 296.955 150.881ZM333.247 160.346C333.719 167.702 332.136 172.199 320.895 172.199C311.929 172.199 307.127 168.146 307.127 161.124C307.127 153.879 312.096 150.382 320.728 150.382C329.055 150.382 333.302 153.185 333.302 157.682C333.302 157.959 333.302 158.237 333.274 158.542C332.581 158.487 331.387 158.459 330.221 158.459C328.944 158.459 327.779 158.487 327.029 158.542C327.029 158.376 327.057 158.209 327.057 158.07C327.057 156.183 325.142 155.406 320.728 155.406C315.76 155.406 313.595 156.877 313.595 161.207C313.595 165.287 315.565 167.258 321.006 167.258C325.336 167.258 327.001 166.231 327.251 163.899C324.67 163.899 321.283 163.927 319.007 163.983C319.035 163.622 319.035 162.817 319.035 162.428C319.035 161.596 319.035 160.902 319.007 160.346C321.894 160.402 324.864 160.402 327.057 160.402C328.75 160.402 330.971 160.43 333.247 160.346ZM352.822 167.008C355.098 167.008 356.014 166.509 356.014 164.899C356.014 163.483 355.043 162.983 352.628 162.983C350.241 162.983 347.41 162.983 344.44 163.067C344.44 164.427 344.44 165.759 344.467 166.953C347.826 167.008 350.435 167.008 352.822 167.008ZM355.848 157.043C355.848 155.683 354.932 155.184 352.767 155.184C350.213 155.184 347.521 155.211 344.44 155.239C344.44 156.405 344.44 157.793 344.44 159.208C347.493 159.319 350.185 159.264 352.6 159.264C354.793 159.236 355.848 158.542 355.848 157.043ZM357.208 161.235V161.346C357.985 161.429 358.651 161.512 359.179 161.707C361.51 162.456 362.426 163.761 362.426 166.203C362.426 169.978 360.011 171.699 354.932 171.699H338.083C338.25 168.785 338.25 165.704 338.25 161.29C338.25 156.877 338.25 153.657 338.083 150.881H354.571C359.512 150.881 362.121 152.436 362.121 156.322C362.121 158.653 361.399 159.847 359.595 160.68C358.984 160.957 358.179 161.096 357.208 161.235ZM393.186 161.096C393.186 168.091 388.578 172.338 379.39 172.338C370.23 172.338 365.678 168.091 365.678 161.096C365.678 153.99 370.619 150.243 379.39 150.243C388.189 150.243 393.186 153.99 393.186 161.096ZM379.418 167.008C384.609 167.008 386.691 164.871 386.691 161.207C386.691 157.515 384.553 155.572 379.418 155.572C374.283 155.572 372.118 157.46 372.118 161.207C372.118 164.926 374.255 167.008 379.418 167.008ZM423.627 161.096C423.627 168.091 419.019 172.338 409.831 172.338C400.671 172.338 396.119 168.091 396.119 161.096C396.119 153.99 401.06 150.243 409.831 150.243C418.63 150.243 423.627 153.99 423.627 161.096ZM409.859 167.008C415.05 167.008 417.131 164.871 417.131 161.207C417.131 157.515 414.994 155.572 409.859 155.572C404.724 155.572 402.559 157.46 402.559 161.207C402.559 164.926 404.696 167.008 409.859 167.008ZM444.019 150.881H452.541C449.765 153.518 444.047 158.931 441.022 161.429C442.243 162.234 443.825 163.317 445.435 164.704C450.043 168.729 452.097 170.811 453.096 171.699H445.019C443.881 171.699 443.325 171.449 442.715 170.894C440.328 168.563 437.025 165.093 434.443 163.455H434.277C434.277 166.453 434.304 169.09 434.415 171.699H427.865C427.92 168.452 427.976 165.704 427.976 161.29C427.976 156.849 427.92 154.046 427.865 150.881H434.415C434.277 153.851 434.277 156.96 434.277 160.596H434.304C435.692 159.486 437.136 158.292 438.412 157.071C441.244 154.434 442.77 152.463 444.019 150.881Z" fill="#F7FCFD"/>
<g id="Group 399">
<rect id="Rectangle 107" x="196.25" y="90.8594" width="175.652" height="42.0697" fill="#1B1B1B"/>
<path id="IT&#226;&#128;&#153;S GIVING . . ." d="M216.126 121.92H212.92C212.978 119.122 212.978 115.654 212.978 110.99C212.978 106.327 212.978 102.83 212.92 100.061H216.126C216.038 102.83 216.038 106.298 216.038 110.99C216.038 115.595 216.038 119.093 216.126 121.92ZM218.493 100.061H229.743C229.713 100.411 229.713 100.935 229.713 101.431C229.713 101.868 229.713 102.451 229.743 102.83C228.314 102.801 226.886 102.801 225.633 102.801C225.633 110.291 225.633 120.171 225.721 121.92C225.254 121.891 224.584 121.891 224.118 121.891C223.651 121.891 223.01 121.891 222.544 121.92C222.631 120.171 222.631 110.291 222.631 102.801C221.378 102.801 219.95 102.801 218.493 102.83C218.522 102.451 218.522 101.868 218.522 101.431C218.522 100.935 218.522 100.411 218.493 100.061ZM231.403 100.061H234.23C233.793 102.13 232.744 107.347 232.452 108.834C231.869 108.717 230.907 108.571 230.354 108.513C230.674 106.648 231.286 101.955 231.403 100.061ZM241.541 119.617C243.727 119.617 244.572 118.685 244.572 116.849C244.572 114.838 243.756 113.264 240.841 112.098C236.79 110.466 235.42 108.367 235.42 105.016C235.42 101.664 237.402 99.7404 241.278 99.7404C245.504 99.7404 247.253 101.664 247.253 105.482C247.253 106.182 247.224 106.706 247.195 107.435C246.845 107.406 246.35 107.406 245.825 107.406C245.271 107.406 244.747 107.435 244.368 107.435C244.397 106.823 244.426 106.152 244.426 105.628C244.426 103.413 243.552 102.364 241.308 102.364C239.355 102.364 238.422 103.238 238.422 105.016C238.422 106.794 238.947 108.28 242.007 109.533C245.738 111.02 247.457 113.206 247.457 116.674C247.457 120.142 245.563 122.241 241.541 122.241C237.023 122.241 235.216 120.025 235.216 116.411C235.216 115.537 235.245 115.1 235.274 114.43C235.653 114.459 236.149 114.488 236.703 114.488C237.315 114.488 237.868 114.488 238.306 114.459C238.276 114.954 238.276 115.508 238.276 115.887C238.276 118.627 239.209 119.617 241.541 119.617ZM261.69 111.748V110.378C262.769 110.408 263.818 110.408 264.605 110.408C265.596 110.408 266.995 110.437 268.306 110.378C268.685 118.685 267.607 122.211 262.215 122.211C257.61 122.211 255.337 118.685 255.308 110.757C255.308 102.859 257.668 99.7696 262.361 99.7696C266.791 99.7696 268.423 102.597 268.423 106.356C268.423 106.939 268.394 107.464 268.365 108.047C268.015 108.018 267.461 108.018 266.907 108.018C266.325 108.018 265.771 108.018 265.363 108.047C265.392 107.551 265.421 106.939 265.392 106.59C265.421 103.617 264.372 102.48 262.303 102.48C259.854 102.48 258.397 104.083 258.397 110.786C258.397 117.461 259.738 119.559 262.361 119.559C264.809 119.559 265.567 118.014 265.421 112.681C264.226 112.71 262.711 112.71 261.69 112.739V111.748ZM275.099 121.92H271.893C271.951 119.122 271.951 115.654 271.951 110.99C271.951 106.327 271.951 102.83 271.893 100.061H275.099C275.012 102.83 275.012 106.298 275.012 110.99C275.012 115.595 275.012 119.093 275.099 121.92ZM287.929 100.061H291.281C290.086 105.161 287.23 118.772 286.559 121.92C285.976 121.891 285.16 121.891 284.286 121.891C283.091 121.891 282.392 121.891 281.983 121.92C281.313 118.772 278.457 104.608 277.204 100.061H280.789C281.08 102.422 282.45 109.766 283.412 114.925C283.82 116.79 284.082 118.306 284.286 119.413H284.403C284.607 118.277 284.869 116.79 285.277 114.867C286.21 109.708 287.608 102.247 287.929 100.061ZM296.616 121.92H293.41C293.469 119.122 293.469 115.654 293.469 110.99C293.469 106.327 293.469 102.83 293.41 100.061H296.616C296.529 102.83 296.529 106.298 296.529 110.99C296.529 115.595 296.529 119.093 296.616 121.92ZM310.408 100.061H313.177C313.148 102.276 313.119 106.327 313.119 110.961C313.119 115.799 313.119 119.093 313.148 121.92H309.913C309.126 119.676 306.648 113.643 304.579 108.834C303.88 106.998 303.355 105.103 302.947 103.267H302.918C303.034 105.54 303.122 107.726 303.151 109.883C303.18 115.887 303.18 120.2 303.209 121.92H300.441C300.47 119.122 300.499 115.654 300.499 110.99C300.499 106.356 300.499 102.626 300.441 100.061H304.229C304.783 101.81 307.435 107.843 309.388 112.914C309.913 114.313 310.408 116.062 310.816 117.694H310.845C310.7 115.712 310.583 113.876 310.583 112.04C310.583 107.872 310.496 102.305 310.408 100.061ZM322.542 111.748V110.378C323.621 110.408 324.67 110.408 325.457 110.408C326.448 110.408 327.847 110.437 329.158 110.378C329.537 118.685 328.459 122.211 323.067 122.211C318.462 122.211 316.189 118.685 316.16 110.757C316.16 102.859 318.52 99.7696 323.213 99.7696C327.643 99.7696 329.275 102.597 329.275 106.356C329.275 106.939 329.246 107.464 329.217 108.047C328.867 108.018 328.313 108.018 327.759 108.018C327.176 108.018 326.623 108.018 326.215 108.047C326.244 107.551 326.273 106.939 326.244 106.59C326.273 103.617 325.224 102.48 323.154 102.48C320.706 102.48 319.249 104.083 319.249 110.786C319.249 117.461 320.59 119.559 323.213 119.559C325.661 119.559 326.419 118.014 326.273 112.681C325.078 112.71 323.562 112.71 322.542 112.739V111.748ZM338.585 117.81C339.78 117.81 340.421 118.539 340.421 119.938C340.421 121.308 339.809 122.095 338.585 122.095C337.361 122.095 336.72 121.308 336.72 119.938C336.72 118.539 337.39 117.81 338.585 117.81ZM348.49 117.81C349.685 117.81 350.326 118.539 350.326 119.938C350.326 121.308 349.714 122.095 348.49 122.095C347.266 122.095 346.625 121.308 346.625 119.938C346.625 118.539 347.295 117.81 348.49 117.81ZM358.395 117.81C359.59 117.81 360.231 118.539 360.231 119.938C360.231 121.308 359.619 122.095 358.395 122.095C357.171 122.095 356.53 121.308 356.53 119.938C356.53 118.539 357.2 117.81 358.395 117.81Z" fill="#F7FCFD"/>
</g>
</g>
<mask id="mask1_2392_20787" style="mask-type:alpha" maskUnits="userSpaceOnUse" x="99" y="-5" width="377" height="193">
<g id="highlight_mask-color">
<rect id="Rectangle 309_2" x="99.9688" y="131.928" width="375.591" height="55.0809" rx="13.0112" fill="#5756D6"/>
<g id="Group 398_2">
<path id="Ellipse 162_2" d="M284.073 -4.99121C208.022 -4.99121 146.371 56.6602 146.371 132.711H421.776C421.776 56.6602 360.124 -4.99121 284.073 -4.99121Z" fill="#5756D6"/>
<path id="Ellipse 163_2" d="M284.265 30.1592C227.52 30.1592 181.52 76.1599 181.52 132.905H387.011C387.011 76.1599 341.01 30.1592 284.265 30.1592Z" fill="#FF6249"/>
<path id="Ellipse 164_2" d="M284.146 65.3086C246.881 65.3086 216.672 95.5178 216.672 132.783H351.62C351.62 95.5178 321.411 65.3086 284.146 65.3086Z" fill="#D4F75F"/>
</g>
</g>
</mask>
<g mask="url(#mask1_2392_20787)">
<rect id="highlight-color" opacity="0.5" x="238.863" y="-207.238" width="118" height="659" transform="rotate(-9.93889 238.863 -207.238)" fill="url(#paint0_radial_2392_20787)"/>
</g>
</g>
<g id="flap_group-color">
<mask id="mask2_2392_20787" style="mask-type:alpha" maskUnits="userSpaceOnUse" x="145" y="-133" width="277" height="138">
<path id="flap_mask-color" d="M283.688 4.70314C359.739 4.70313 421.391 -56.9483 421.391 -132.999L145.986 -132.999C145.986 -56.9482 207.638 4.70314 283.688 4.70314Z" fill="#F7FCFD"/>
</mask>
<g mask="url(#mask2_2392_20787)">
<path id="flap-color" d="M283.688 4.70314C359.739 4.70313 421.391 -56.9483 421.391 -132.999L145.986 -132.999C145.986 -56.9482 207.638 4.70314 283.688 4.70314Z" fill="#F7FCFD"/>
<rect id="shadow-color" opacity="0.5" x="971.836" y="-90.999" width="118" height="1356.81" transform="rotate(90 971.836 -90.999)" fill="url(#paint1_radial_2392_20787)"/>
</g>
</g>
</g>
</g>
</g>
<defs>
<filter id="filter0_d_2392_20787" x="91.9688" y="-8.99023" width="391.59" height="208" filterUnits="userSpaceOnUse" color-interpolation-filters="sRGB">
<feFlood flood-opacity="0" result="BackgroundImageFix"/>
<feColorMatrix in="SourceAlpha" type="matrix" values="0 0 0 0 0 0 0 0 0 0 0 0 0 0 0 0 0 0 127 0" result="hardAlpha"/>
<feOffset dy="4"/>
<feGaussianBlur stdDeviation="4"/>
<feComposite in2="hardAlpha" operator="out"/>
<feColorMatrix type="matrix" values="0 0 0 0 0 0 0 0 0 0 0 0 0 0 0 0 0 0 0.3 0"/>
<feBlend mode="normal" in2="BackgroundImageFix" result="effect1_dropShadow_2392_20787"/>
<feBlend mode="normal" in="SourceGraphic" in2="effect1_dropShadow_2392_20787" result="shape"/>
</filter>
<radialGradient id="paint0_radial_2392_20787" cx="0" cy="0" r="1" gradientUnits="userSpaceOnUse" gradientTransform="translate(297.863 122.262) rotate(90) scale(329.5 59)">
<stop stop-color="white"/>
<stop offset="1" stop-color="#999999" stop-opacity="0"/>
</radialGradient>
<radialGradient id="paint1_radial_2392_20787" cx="0" cy="0" r="1" gradientUnits="userSpaceOnUse" gradientTransform="translate(1030.84 587.407) rotate(90) scale(678.406 59)">
<stop offset="0.216346" stop-color="#1C1925"/>
<stop offset="1" stop-color="#999999" stop-opacity="0"/>
</radialGradient>
</defs>
</svg>
