<svg width="567" height="567" viewBox="0 0 567 567" fill="none" xmlns="http://www.w3.org/2000/svg">
<g id="untitled_label-prehistoric">
<mask id="mask0_2349_15154" style="mask-type:alpha" maskUnits="userSpaceOnUse" x="0" y="0" width="567" height="567">
<rect id="mask-prehistoric" x="567" width="567" height="567" transform="rotate(90 567 0)" fill="#D9D9D9"/>
</mask>
<g mask="url(#mask0_2349_15154)">
<g id="label_group-prehistoric">
<g id="label-prehistoric">
<g id="base-prehistoric" filter="url(#filter0_d_2349_15154)">
<path d="M284.004 567.003L316.838 507.213L380.422 531.91L367.142 465.003L431.725 443.05L378.545 400.333L413.908 342.003L345.712 343.463L335.307 276.049L284.004 321.003L232.701 276.049L222.296 343.463L154.1 342.003L189.462 400.333L136.283 443.05L200.865 465.003L187.586 531.91L251.17 507.213L284.004 567.003Z" fill="#5756D6"/>
</g>
<g id="content-prehistoric">
<path id="ENergy" d="M232.485 401.309H246.624C246.478 401.783 246.223 402.73 246.077 403.422C245.895 404.151 245.603 405.281 245.494 405.827C242.215 405.791 239.008 405.791 236.384 405.791L234.672 412.678C237.842 412.678 240.866 412.678 243.599 412.605C243.308 413.553 242.725 415.848 242.47 416.869C239.882 416.832 236.785 416.796 233.651 416.796C232.959 419.602 232.339 421.97 231.829 424.047C234.489 424.047 237.805 424.011 240.976 423.974C240.793 424.521 240.538 425.614 240.32 426.416C240.174 427.108 239.919 428.092 239.81 428.639H225.671C226.618 425.104 227.712 420.804 229.169 414.974C230.627 409.18 231.756 404.552 232.485 401.309ZM262.811 401.309H267.294C266.674 403.823 265.253 409.143 263.832 414.937C262.301 421.023 261.281 425.104 260.443 428.639H255.159C254.941 425.906 254.139 419.638 253.446 414.172C253.228 411.694 253.119 409.107 253.191 406.556C252.608 409.654 252.062 412.423 251.479 414.792C249.73 421.97 248.564 426.707 248.126 428.639H243.535C244.446 425.068 245.576 420.804 246.997 414.974C248.454 409.18 249.584 404.661 250.349 401.309H256.325C256.435 403.35 257.236 409.872 257.819 415.63C258.001 417.525 258.257 419.747 258.257 421.934C258.73 419.31 259.168 416.796 259.823 414.245C260.917 409.945 262.265 403.969 262.811 401.309ZM271.487 401.309H285.626C285.48 401.783 285.225 402.73 285.079 403.422C284.897 404.151 284.605 405.281 284.496 405.827C281.216 405.791 278.01 405.791 275.386 405.791L273.673 412.678C276.844 412.678 279.868 412.678 282.601 412.605C282.31 413.553 281.727 415.848 281.471 416.869C278.884 416.832 275.787 416.796 272.653 416.796C271.961 419.602 271.341 421.97 270.831 424.047C273.491 424.047 276.807 424.011 279.977 423.974C279.795 424.521 279.54 425.614 279.321 426.416C279.176 427.108 278.921 428.092 278.811 428.639H264.673C265.62 425.104 266.713 420.804 268.171 414.974C269.629 409.18 270.758 404.552 271.487 401.309ZM298.352 410.783C299.408 406.556 298.352 405.536 295.764 405.536C295.254 405.536 294.125 405.572 293.214 405.609C292.412 408.888 291.61 412.131 290.881 415.192C291.574 415.192 292.776 415.229 294.197 415.229C296.165 415.229 297.586 413.808 298.352 410.783ZM289.387 401.309H297.441C302.433 401.309 304.838 404.261 303.38 410.273C302.251 414.828 300.392 417.051 296.93 417.707L296.894 417.925C299.044 418.363 299.663 419.456 299.736 422.808C299.809 425.031 299.809 427.4 299.882 428.639H295.473C294.671 428.639 294.671 428.274 294.452 426.161C294.671 420.039 294.38 419.201 292.339 419.237C291.246 419.237 291.246 419.201 289.898 419.237C288.987 423.1 288.221 426.379 287.82 428.639H282.573C283.593 424.667 284.614 420.804 286.071 414.974C287.529 409.18 288.476 405.244 289.387 401.309ZM316.681 400.908C322.73 400.908 324.297 405.244 323.168 409.581C323.095 410.018 322.949 410.492 322.803 411.002C322.257 410.965 321.346 410.929 320.471 410.929C319.524 410.929 318.576 410.929 317.92 411.002C318.102 410.492 318.212 410.054 318.285 409.654C319.086 406.593 318.285 405.317 316.098 405.317C313.584 405.317 311.835 406.957 309.903 414.719C307.972 422.48 308.482 424.703 311.507 424.703C313.948 424.703 315.078 423.136 316.317 417.707C315.041 417.743 313.547 417.743 312.454 417.78C312.564 417.415 312.746 416.65 312.855 416.249C313.074 415.338 313.256 414.609 313.365 414.026C314.75 414.063 316.135 414.063 317.155 414.063C318.467 414.063 320.179 414.099 321.929 414.026C319.852 424.12 317.738 429.04 310.96 429.04C304.219 429.04 302.579 423.756 305.057 413.735C307.316 404.698 310.887 400.908 316.681 400.908ZM338.375 401.309H343.841C341.108 405.645 334.877 416.468 332.8 420.33C331.743 424.521 331.087 427.436 330.796 428.675C330.14 428.602 329.083 428.602 328.282 428.602C327.48 428.602 326.423 428.602 325.731 428.675C326.095 427.436 326.824 424.557 327.881 420.33C327.735 416.322 326.97 405.062 326.277 401.309H331.853C331.816 402.949 331.598 407.832 331.488 411.585C331.488 412.933 331.452 414.354 331.379 415.448H331.67C332.144 414.391 332.764 413.006 333.456 411.694C335.314 407.832 337.719 402.876 338.375 401.309Z" fill="#F7FCFD"/>
<path id="PREHISTORIC" d="M210.51 372.881C211.503 368.944 210.907 367.852 208.889 367.852C208.591 367.852 207.996 367.852 207.433 367.885C206.606 371.194 205.812 374.37 205.117 377.282C205.448 377.315 205.878 377.315 206.408 377.315C208.657 377.315 209.617 376.554 210.51 372.881ZM203.165 363.187H210.312C215.341 363.187 217.591 365.702 215.738 373.212C214.017 380.061 211.668 382.013 206.341 382.013C205.58 382.013 204.82 381.98 203.992 381.947C203.463 384.296 203.033 386.347 202.702 388.001H196.978C197.938 384.428 198.831 380.888 200.121 375.594C201.445 370.334 202.371 366.595 203.165 363.187ZM227.902 371.922C228.763 368.448 228.002 367.654 226.116 367.654C225.785 367.654 225.09 367.687 224.428 367.72C223.767 370.4 223.105 373.047 222.476 375.561C223.006 375.561 223.8 375.561 224.726 375.594C226.215 375.594 227.241 374.536 227.902 371.922ZM220.16 363.187H228.167C232.667 363.187 234.85 365.636 233.428 371.26C232.369 375.627 230.715 377.48 227.571 378.01L227.538 378.175C229.689 378.572 230.318 379.598 230.218 382.708C230.185 384.561 230.053 386.81 230.02 388.001H225.255C224.428 388.001 224.362 387.638 224.296 385.95C224.858 380.392 224.66 379.631 223.105 379.631C222.41 379.631 222.278 379.631 221.484 379.664C220.69 383.039 220.061 385.95 219.697 388.001H213.973C214.9 384.428 215.826 380.888 217.15 375.594C218.473 370.334 219.333 366.761 220.16 363.187ZM238.125 363.187H251.094C250.896 363.783 250.631 364.842 250.433 365.636C250.234 366.562 249.936 367.753 249.771 368.382C247.157 368.349 244.51 368.316 242.36 368.316L241.202 373.047C243.749 373.047 246.264 373.014 248.447 372.948C248.15 374.039 247.521 376.455 247.256 377.646C245.172 377.58 242.624 377.546 240.077 377.546L238.82 382.476C241.003 382.476 243.749 382.443 246.297 382.443C246.098 383.105 245.801 384.296 245.536 385.255C245.337 386.149 245.04 387.307 244.907 388.001H231.938C232.798 384.693 233.791 380.888 235.081 375.594C236.404 370.334 237.397 366.33 238.125 363.187ZM263.954 363.187H269.645C268.751 366.562 267.759 370.334 266.468 375.594C265.145 380.855 264.285 384.428 263.458 388.001H257.767C258.495 385.421 259.52 381.318 260.248 378.34C259.52 378.34 258.726 378.34 257.899 378.34C257.105 378.34 256.278 378.34 255.55 378.34C254.789 381.318 253.797 385.388 253.234 388.001H247.543C248.536 384.428 249.429 380.855 250.72 375.594C252.043 370.334 253.003 366.562 253.73 363.187H259.421C258.726 365.669 257.668 369.904 256.874 372.948C257.635 372.981 258.429 372.981 259.223 372.981C260.05 372.981 260.844 372.981 261.605 372.948C262.366 369.904 263.391 365.669 263.954 363.187ZM272.202 388.001H266.445C267.338 384.627 268.298 380.855 269.588 375.594C270.911 370.301 271.871 366.529 272.632 363.187H278.389C277.495 366.529 276.536 370.268 275.213 375.561C273.889 380.822 272.996 384.594 272.202 388.001ZM282.977 383.866C284.499 383.866 285.193 383.237 285.557 381.781C286.054 379.862 285.723 378.506 283.341 377.513C279.106 375.727 278.345 373.113 279.37 369.01C280.396 364.875 282.944 362.823 287.741 362.823C293.399 362.823 294.821 365.437 293.829 369.275C293.63 369.97 293.465 370.698 293.233 371.525C292.572 371.492 291.546 371.459 290.586 371.459C289.792 371.459 289.031 371.459 288.502 371.492C288.667 370.863 288.866 370.301 288.998 369.705C289.362 368.117 289.031 367.29 287.278 367.29C285.822 367.29 285.094 367.952 284.763 369.275C284.333 370.962 284.433 372.22 287.046 373.444C290.686 375.098 291.943 377.546 290.851 381.881C289.792 386.182 287.84 388.365 282.646 388.365C276.757 388.365 275.202 385.487 276.128 381.748C276.36 380.855 276.558 380.193 276.79 379.465C277.451 379.532 278.477 379.598 279.503 379.598C280.363 379.598 281.124 379.598 281.719 379.532C281.554 380.028 281.455 380.491 281.322 380.888C280.826 383.006 281.124 383.866 282.977 383.866ZM296.71 363.187H309.614C309.415 363.915 309.15 365.007 308.886 366.033C308.654 366.992 308.356 368.216 308.191 369.01C306.967 368.977 305.743 368.944 304.585 368.944C302.666 376.719 300.35 386.182 299.953 388.035C299.159 387.968 297.868 387.968 296.975 387.968C296.082 387.968 294.858 387.968 294.03 388.035C294.56 386.215 296.942 376.752 298.894 368.944C297.769 368.944 296.512 368.977 295.255 369.01C295.486 368.216 295.784 366.992 296.016 366.033C296.28 365.007 296.578 363.915 296.71 363.187ZM324.21 376.058C321.96 385.123 318.685 388.332 313.557 388.332C307.403 388.332 305.451 384.329 307.866 374.536C310.083 365.569 313.491 362.856 318.453 362.856C324.376 362.856 326.626 366.33 324.21 376.058ZM314.218 383.039C315.873 383.039 317.196 381.484 318.718 375.396C320.174 369.639 319.645 367.819 317.759 367.819C316.137 367.819 314.781 369.242 313.325 375.164C311.77 381.351 312.333 383.039 314.218 383.039ZM337.563 371.922C338.423 368.448 337.662 367.654 335.776 367.654C335.445 367.654 334.75 367.687 334.089 367.72C333.427 370.4 332.765 373.047 332.137 375.561C332.666 375.561 333.46 375.561 334.386 375.594C335.875 375.594 336.901 374.536 337.563 371.922ZM329.821 363.187H337.827C342.327 363.187 344.511 365.636 343.088 371.26C342.029 375.627 340.375 377.48 337.232 378.01L337.199 378.175C339.349 378.572 339.978 379.598 339.879 382.708C339.846 384.561 339.713 386.81 339.68 388.001H334.916C334.089 388.001 334.022 387.638 333.956 385.95C334.519 380.392 334.32 379.631 332.765 379.631C332.07 379.631 331.938 379.631 331.144 379.664C330.35 383.039 329.721 385.95 329.357 388.001H323.634C324.56 384.428 325.486 380.888 326.81 375.594C328.133 370.334 328.993 366.761 329.821 363.187ZM347.355 388.001H341.598C342.491 384.627 343.451 380.855 344.741 375.594C346.065 370.301 347.024 366.529 347.785 363.187H353.542C352.649 366.529 351.689 370.268 350.366 375.561C349.042 380.822 348.149 384.594 347.355 388.001ZM363.622 373.642C363.854 372.848 364.019 372.187 364.151 371.69C364.912 368.547 364.317 367.786 362.861 367.786C361.207 367.786 360.115 368.746 358.494 375.264C356.84 381.914 357.7 383.006 359.321 383.006C360.744 383.006 361.703 381.748 362.398 378.936C362.53 378.44 362.63 377.877 362.762 377.282C363.655 377.315 364.515 377.315 365.409 377.315C366.302 377.315 367.228 377.315 368.122 377.282C368.022 377.877 367.89 378.473 367.625 379.399C366.104 385.586 363.655 388.332 358.593 388.332C352.77 388.332 350.487 384.759 353.002 374.734C355.218 365.768 358.196 362.856 363.556 362.856C369.18 362.856 370.868 366.066 369.644 371.194C369.412 372.087 369.18 372.815 368.949 373.642C368.056 373.609 367.129 373.609 366.236 373.609C365.343 373.609 364.515 373.609 363.622 373.642Z" fill="#F7FCFD"/>
<path id="Vector 832" d="M263.376 455.004L219.006 478.109L250.903 471.157L245.996 486.697L284.845 471.566L276.053 493.035L349.662 452.55L300.18 468.908L309.79 446.621L260.309 472.384L263.376 455.004Z" fill="#D4F75F"/>
</g>
<mask id="mask1_2349_15154" style="mask-type:alpha" maskUnits="userSpaceOnUse" x="136" y="276" width="296" height="292">
<path id="highlight_mask-prehistoric" d="M284.004 567.003L316.838 507.213L380.422 531.91L367.142 465.003L431.725 443.05L378.545 400.333L413.908 342.003L345.712 343.463L335.307 276.049L284.004 321.003L232.701 276.049L222.296 343.463L154.1 342.003L189.462 400.333L136.283 443.05L200.865 465.003L187.586 531.91L251.17 507.213L284.004 567.003Z" fill="#5756D6"/>
</mask>
<g mask="url(#mask1_2349_15154)">
<rect id="highlight-prehistoric" opacity="0.4" x="273.004" y="70.0835" width="105.019" height="659" transform="rotate(-3.31885 273.004 70.0835)" fill="url(#paint0_radial_2349_15154)"/>
</g>
</g>
<g id="flap_group-prehistoric" filter="url(#filter1_d_2349_15154)">
<mask id="mask2_2349_15154" style="mask-type:alpha" maskUnits="userSpaceOnUse" x="136" y="566" width="296" height="292">
<path id="flap_mask-prehistoric" d="M284.004 566.998L316.838 626.788L380.422 602.091L367.142 668.998L431.725 690.951L378.545 733.668L413.908 791.998L345.712 790.538L335.307 857.952L284.004 812.998L232.701 857.952L222.296 790.538L154.1 791.998L189.462 733.668L136.283 690.951L200.865 668.998L187.586 602.091L251.17 626.788L284.004 566.998Z" fill="#F7FCFD"/>
</mask>
<g mask="url(#mask2_2349_15154)">
<g id="flap-prehistoric" filter="url(#filter2_d_2349_15154)">
<path d="M284.004 566.998L316.838 626.788L380.422 602.091L367.142 668.998L431.725 690.951L378.545 733.668L413.908 791.998L345.712 790.538L335.307 857.952L284.004 812.998L232.701 857.952L222.296 790.538L154.1 791.998L189.462 733.668L136.283 690.951L200.865 668.998L187.586 602.091L251.17 626.788L284.004 566.998Z" fill="#F7FCFD"/>
</g>
<rect id="shadow-prehistoric" opacity="0.5" width="117.853" height="1355.12" transform="matrix(-4.37114e-08 -1 0.999997 -0.00249379 -395 677.233)" fill="url(#paint1_radial_2349_15154)"/>
</g>
</g>
</g>
</g>
</g>
<defs>
<filter id="filter0_d_2349_15154" x="124.281" y="272.049" width="311.445" height="306.954" filterUnits="userSpaceOnUse" color-interpolation-filters="sRGB">
<feFlood flood-opacity="0" result="BackgroundImageFix"/>
<feColorMatrix in="SourceAlpha" type="matrix" values="0 0 0 0 0 0 0 0 0 0 0 0 0 0 0 0 0 0 127 0" result="hardAlpha"/>
<feOffset dx="-4" dy="4"/>
<feGaussianBlur stdDeviation="4"/>
<feComposite in2="hardAlpha" operator="out"/>
<feColorMatrix type="matrix" values="0 0 0 0 0 0 0 0 0 0 0 0 0 0 0 0 0 0 0.3 0"/>
<feBlend mode="normal" in2="BackgroundImageFix" result="effect1_dropShadow_2349_15154"/>
<feBlend mode="normal" in="SourceGraphic" in2="effect1_dropShadow_2349_15154" result="shape"/>
</filter>
<filter id="filter1_d_2349_15154" x="124.281" y="562.998" width="311.445" height="306.954" filterUnits="userSpaceOnUse" color-interpolation-filters="sRGB">
<feFlood flood-opacity="0" result="BackgroundImageFix"/>
<feColorMatrix in="SourceAlpha" type="matrix" values="0 0 0 0 0 0 0 0 0 0 0 0 0 0 0 0 0 0 127 0" result="hardAlpha"/>
<feOffset dx="-4" dy="4"/>
<feGaussianBlur stdDeviation="4"/>
<feComposite in2="hardAlpha" operator="out"/>
<feColorMatrix type="matrix" values="0 0 0 0 0 0 0 0 0 0 0 0 0 0 0 0 0 0 0.2 0"/>
<feBlend mode="normal" in2="BackgroundImageFix" result="effect1_dropShadow_2349_15154"/>
<feBlend mode="normal" in="SourceGraphic" in2="effect1_dropShadow_2349_15154" result="shape"/>
</filter>
<filter id="filter2_d_2349_15154" x="124.281" y="562.998" width="311.445" height="306.954" filterUnits="userSpaceOnUse" color-interpolation-filters="sRGB">
<feFlood flood-opacity="0" result="BackgroundImageFix"/>
<feColorMatrix in="SourceAlpha" type="matrix" values="0 0 0 0 0 0 0 0 0 0 0 0 0 0 0 0 0 0 127 0" result="hardAlpha"/>
<feOffset dx="-4" dy="4"/>
<feGaussianBlur stdDeviation="4"/>
<feComposite in2="hardAlpha" operator="out"/>
<feColorMatrix type="matrix" values="0 0 0 0 0 0 0 0 0 0 0 0 0 0 0 0 0 0 0.3 0"/>
<feBlend mode="normal" in2="BackgroundImageFix" result="effect1_dropShadow_2349_15154"/>
<feBlend mode="normal" in="SourceGraphic" in2="effect1_dropShadow_2349_15154" result="shape"/>
</filter>
<radialGradient id="paint0_radial_2349_15154" cx="0" cy="0" r="1" gradientUnits="userSpaceOnUse" gradientTransform="translate(325.513 399.584) rotate(90) scale(329.5 52.5094)">
<stop stop-color="white"/>
<stop offset="1" stop-color="#999999" stop-opacity="0"/>
</radialGradient>
<radialGradient id="paint1_radial_2349_15154" cx="0" cy="0" r="1" gradientUnits="userSpaceOnUse" gradientTransform="translate(58.9266 677.562) rotate(90) scale(677.562 58.9266)">
<stop offset="0.216346" stop-color="#1C1925"/>
<stop offset="1" stop-color="#999999" stop-opacity="0"/>
</radialGradient>
</defs>
</svg>
