<svg width="802" height="802" viewBox="0 0 802 802" fill="none" xmlns="http://www.w3.org/2000/svg">
<g id="untitled_label-prehistoric">
<mask id="mask0_2337_9322" style="mask-type:alpha" maskUnits="userSpaceOnUse" x="0" y="0" width="802" height="802">
<rect id="mask-prehistoric" x="400.93" width="567" height="567" transform="rotate(45 400.93 0)" fill="#D9D9D9"/>
</mask>
<g mask="url(#mask0_2337_9322)">
<g id="label_group-prehistoric">
<g id="label-prehistoric">
<g id="base-prehistoric" filter="url(#filter0_d_2337_9322)">
<path d="M430 623.005L462.834 563.215L526.418 587.912L513.138 521.005L577.721 499.052L524.542 456.335L559.904 398.005L491.708 399.465L481.303 332.051L430 377.005L378.697 332.051L368.292 399.465L300.096 398.005L335.458 456.335L282.279 499.052L346.862 521.005L333.582 587.912L397.166 563.215L430 623.005Z" fill="#5756D6"/>
</g>
<g id="content-prehistoric">
<path id="ENergy" d="M378.481 457.311H392.62C392.474 457.785 392.219 458.732 392.073 459.424C391.891 460.153 391.6 461.283 391.49 461.829C388.211 461.793 385.004 461.793 382.38 461.793L380.668 468.68C383.838 468.68 386.862 468.68 389.595 468.607C389.304 469.555 388.721 471.85 388.466 472.871C385.878 472.834 382.781 472.798 379.647 472.798C378.955 475.604 378.335 477.972 377.825 480.049C380.485 480.049 383.801 480.013 386.972 479.976C386.789 480.523 386.534 481.616 386.316 482.418C386.17 483.11 385.915 484.094 385.806 484.641H371.667C372.614 481.106 373.708 476.806 375.165 470.976C376.623 465.182 377.752 460.554 378.481 457.311ZM408.808 457.311H413.29C412.67 459.825 411.249 465.145 409.828 470.939C408.297 477.025 407.277 481.106 406.439 484.641H401.155C400.937 481.908 400.135 475.64 399.443 470.174C399.224 467.696 399.115 465.109 399.188 462.558C398.604 465.656 398.058 468.425 397.475 470.794C395.726 477.972 394.56 482.709 394.122 484.641H389.531C390.442 481.07 391.572 476.806 392.993 470.976C394.45 465.182 395.58 460.663 396.345 457.311H402.321C402.431 459.351 403.232 465.874 403.815 471.632C403.998 473.527 404.253 475.749 404.253 477.936C404.726 475.312 405.164 472.798 405.82 470.247C406.913 465.947 408.261 459.971 408.808 457.311ZM417.483 457.311H431.622C431.476 457.785 431.221 458.732 431.075 459.424C430.893 460.153 430.601 461.283 430.492 461.829C427.212 461.793 424.006 461.793 421.382 461.793L419.669 468.68C422.84 468.68 425.864 468.68 428.597 468.607C428.306 469.555 427.723 471.85 427.468 472.871C424.88 472.834 421.783 472.798 418.649 472.798C417.957 475.604 417.337 477.972 416.827 480.049C419.487 480.049 422.803 480.013 425.974 479.976C425.791 480.523 425.536 481.616 425.318 482.418C425.172 483.11 424.917 484.094 424.807 484.641H410.669C411.616 481.106 412.709 476.806 414.167 470.976C415.625 465.182 416.754 460.554 417.483 457.311ZM444.348 466.785C445.404 462.558 444.348 461.538 441.76 461.538C441.25 461.538 440.121 461.574 439.21 461.611C438.408 464.89 437.606 468.133 436.878 471.194C437.57 471.194 438.772 471.231 440.194 471.231C442.161 471.231 443.582 469.81 444.348 466.785ZM435.383 457.311H443.437C448.429 457.311 450.834 460.262 449.376 466.275C448.247 470.83 446.388 473.053 442.926 473.709L442.89 473.927C445.04 474.365 445.659 475.458 445.732 478.81C445.805 481.033 445.805 483.402 445.878 484.641H441.469C440.667 484.641 440.667 484.276 440.449 482.163C440.667 476.041 440.376 475.203 438.335 475.239C437.242 475.239 437.242 475.203 435.894 475.239C434.983 479.102 434.217 482.381 433.817 484.641H428.569C429.59 480.669 430.61 476.806 432.067 470.976C433.525 465.182 434.472 461.246 435.383 457.311ZM462.677 456.91C468.726 456.91 470.293 461.246 469.164 465.583C469.091 466.02 468.945 466.494 468.799 467.004C468.253 466.967 467.342 466.931 466.467 466.931C465.52 466.931 464.572 466.931 463.916 467.004C464.099 466.494 464.208 466.056 464.281 465.656C465.082 462.595 464.281 461.319 462.094 461.319C459.58 461.319 457.831 462.959 455.9 470.721C453.968 478.482 454.478 480.705 457.503 480.705C459.944 480.705 461.074 479.138 462.313 473.709C461.038 473.745 459.544 473.745 458.45 473.782C458.56 473.417 458.742 472.652 458.851 472.251C459.07 471.34 459.252 470.611 459.361 470.028C460.746 470.065 462.131 470.065 463.151 470.065C464.463 470.065 466.176 470.101 467.925 470.028C465.848 480.122 463.734 485.041 456.956 485.041C450.215 485.041 448.575 479.758 451.053 469.737C453.312 460.7 456.883 456.91 462.677 456.91ZM484.371 457.311H489.837C487.104 461.647 480.873 472.47 478.796 476.332C477.739 480.523 477.084 483.438 476.792 484.677C476.136 484.604 475.079 484.604 474.278 484.604C473.476 484.604 472.419 484.604 471.727 484.677C472.091 483.438 472.82 480.559 473.877 476.332C473.731 472.324 472.966 461.064 472.274 457.311H477.849C477.812 458.951 477.594 463.834 477.484 467.587C477.484 468.935 477.448 470.356 477.375 471.449H477.667C478.14 470.393 478.76 469.008 479.452 467.696C481.311 463.834 483.716 458.878 484.371 457.311Z" fill="#F7FCFD"/>
<path id="PREHISTORIC" d="M356.506 428.883C357.499 424.946 356.903 423.854 354.885 423.854C354.587 423.854 353.992 423.854 353.429 423.887C352.602 427.196 351.808 430.372 351.113 433.284C351.444 433.317 351.874 433.317 352.404 433.317C354.654 433.317 355.613 432.556 356.506 428.883ZM349.161 419.189H356.308C361.337 419.189 363.587 421.704 361.734 429.214C360.013 436.063 357.664 438.015 352.338 438.015C351.577 438.015 350.816 437.982 349.988 437.949C349.459 440.298 349.029 442.349 348.698 444.003H342.974C343.934 440.43 344.827 436.89 346.117 431.596C347.441 426.336 348.367 422.597 349.161 419.189ZM373.898 427.924C374.759 424.45 373.998 423.656 372.112 423.656C371.781 423.656 371.086 423.689 370.424 423.722C369.763 426.402 369.101 429.049 368.472 431.563C369.002 431.563 369.796 431.563 370.722 431.596C372.211 431.596 373.237 430.538 373.898 427.924ZM366.156 419.189H374.163C378.663 419.189 380.846 421.638 379.424 427.262C378.365 431.629 376.711 433.482 373.568 434.012L373.534 434.177C375.685 434.574 376.314 435.6 376.214 438.71C376.181 440.563 376.049 442.812 376.016 444.003H371.252C370.424 444.003 370.358 443.639 370.292 441.952C370.855 436.394 370.656 435.633 369.101 435.633C368.406 435.633 368.274 435.633 367.48 435.666C366.686 439.041 366.057 441.952 365.693 444.003H359.969C360.896 440.43 361.822 436.89 363.146 431.596C364.469 426.336 365.329 422.763 366.156 419.189ZM384.121 419.189H397.09C396.892 419.785 396.627 420.844 396.429 421.638C396.23 422.564 395.932 423.755 395.767 424.384C393.153 424.351 390.506 424.318 388.356 424.318L387.198 429.049C389.745 429.049 392.26 429.016 394.443 428.95C394.146 430.041 393.517 432.457 393.252 433.648C391.168 433.581 388.62 433.548 386.073 433.548L384.816 438.478C386.999 438.478 389.745 438.445 392.293 438.445C392.094 439.107 391.797 440.298 391.532 441.257C391.333 442.151 391.036 443.309 390.903 444.003H377.934C378.794 440.695 379.787 436.89 381.077 431.596C382.4 426.336 383.393 422.332 384.121 419.189ZM409.95 419.189H415.641C414.747 422.564 413.755 426.336 412.464 431.596C411.141 436.857 410.281 440.43 409.454 444.003H403.763C404.491 441.423 405.517 437.32 406.244 434.342C405.517 434.342 404.722 434.342 403.895 434.342C403.101 434.342 402.274 434.342 401.546 434.342C400.785 437.32 399.793 441.39 399.23 444.003H393.54C394.532 440.43 395.425 436.857 396.716 431.596C398.039 426.336 398.999 422.564 399.727 419.189H405.417C404.722 421.671 403.664 425.906 402.87 428.95C403.631 428.983 404.425 428.983 405.219 428.983C406.046 428.983 406.84 428.983 407.601 428.95C408.362 425.906 409.388 421.671 409.95 419.189ZM418.198 444.003H412.441C413.334 440.629 414.294 436.857 415.584 431.596C416.907 426.303 417.867 422.531 418.628 419.189H424.385C423.492 422.531 422.532 426.27 421.209 431.563C419.885 436.824 418.992 440.596 418.198 444.003ZM428.973 439.868C430.495 439.868 431.19 439.239 431.554 437.783C432.05 435.864 431.719 434.508 429.337 433.515C425.102 431.729 424.341 429.115 425.367 425.012C426.392 420.877 428.94 418.825 433.737 418.825C439.395 418.825 440.817 421.439 439.825 425.277C439.626 425.972 439.461 426.7 439.229 427.527C438.568 427.494 437.542 427.461 436.583 427.461C435.788 427.461 435.027 427.461 434.498 427.494C434.664 426.865 434.862 426.303 434.994 425.707C435.358 424.119 435.027 423.292 433.274 423.292C431.818 423.292 431.09 423.954 430.759 425.277C430.329 426.964 430.429 428.222 433.042 429.446C436.682 431.1 437.939 433.548 436.847 437.883C435.788 442.184 433.836 444.367 428.642 444.367C422.753 444.367 421.198 441.489 422.124 437.75C422.356 436.857 422.554 436.195 422.786 435.467C423.448 435.534 424.473 435.6 425.499 435.6C426.359 435.6 427.12 435.6 427.716 435.534C427.55 436.03 427.451 436.493 427.319 436.89C426.822 439.008 427.12 439.868 428.973 439.868ZM442.706 419.189H455.61C455.411 419.917 455.147 421.009 454.882 422.035C454.65 422.994 454.353 424.218 454.187 425.012C452.963 424.979 451.739 424.946 450.581 424.946C448.662 432.721 446.346 442.184 445.949 444.036C445.155 443.97 443.864 443.97 442.971 443.97C442.078 443.97 440.854 443.97 440.026 444.036C440.556 442.217 442.938 432.754 444.89 424.946C443.765 424.946 442.508 424.979 441.251 425.012C441.482 424.218 441.78 422.994 442.012 422.035C442.276 421.009 442.574 419.917 442.706 419.189ZM470.206 432.06C467.957 441.125 464.681 444.334 459.553 444.334C453.399 444.334 451.447 440.331 453.862 430.538C456.079 421.571 459.487 418.858 464.45 418.858C470.372 418.858 472.622 422.332 470.206 432.06ZM460.215 439.041C461.869 439.041 463.192 437.486 464.714 431.398C466.17 425.641 465.641 423.821 463.755 423.821C462.134 423.821 460.777 425.244 459.321 431.166C457.766 437.353 458.329 439.041 460.215 439.041ZM483.559 427.924C484.419 424.45 483.658 423.656 481.772 423.656C481.441 423.656 480.746 423.689 480.085 423.722C479.423 426.402 478.761 429.049 478.133 431.563C478.662 431.563 479.456 431.563 480.383 431.596C481.871 431.596 482.897 430.538 483.559 427.924ZM475.817 419.189H483.823C488.323 419.189 490.507 421.638 489.084 427.262C488.025 431.629 486.371 433.482 483.228 434.012L483.195 434.177C485.345 434.574 485.974 435.6 485.875 438.71C485.842 440.563 485.709 442.812 485.676 444.003H480.912C480.085 444.003 480.019 443.639 479.952 441.952C480.515 436.394 480.316 435.633 478.761 435.633C478.067 435.633 477.934 435.633 477.14 435.666C476.346 439.041 475.717 441.952 475.354 444.003H469.63C470.556 440.43 471.483 436.89 472.806 431.596C474.129 426.336 474.99 422.763 475.817 419.189ZM493.351 444.003H487.594C488.487 440.629 489.447 436.857 490.737 431.596C492.061 426.303 493.02 422.531 493.781 419.189H499.538C498.645 422.531 497.685 426.27 496.362 431.563C495.038 436.824 494.145 440.596 493.351 444.003ZM509.618 429.644C509.85 428.85 510.015 428.189 510.148 427.692C510.909 424.549 510.313 423.788 508.857 423.788C507.203 423.788 506.111 424.748 504.49 431.265C502.836 437.916 503.696 439.008 505.317 439.008C506.74 439.008 507.699 437.75 508.394 434.938C508.526 434.442 508.626 433.879 508.758 433.284C509.651 433.317 510.512 433.317 511.405 433.317C512.298 433.317 513.225 433.317 514.118 433.284C514.019 433.879 513.886 434.475 513.622 435.401C512.1 441.588 509.651 444.334 504.589 444.334C498.766 444.334 496.483 440.761 498.998 430.736C501.214 421.77 504.192 418.858 509.552 418.858C515.177 418.858 516.864 422.068 515.64 427.196C515.408 428.089 515.177 428.817 514.945 429.644C514.052 429.611 513.125 429.611 512.232 429.611C511.339 429.611 510.512 429.611 509.618 429.644Z" fill="#F7FCFD"/>
<path id="Vector 832" d="M409.372 511.006L365.002 534.111L396.899 527.159L391.992 542.699L430.841 527.568L422.049 549.037L495.658 508.552L446.176 524.91L455.787 502.623L406.305 528.386L409.372 511.006Z" fill="#D4F75F"/>
</g>
<mask id="mask1_2337_9322" style="mask-type:alpha" maskUnits="userSpaceOnUse" x="282" y="332" width="296" height="292">
<path id="highlight_mask-prehistoric" d="M430 623.005L462.834 563.215L526.418 587.912L513.138 521.005L577.721 499.052L524.542 456.335L559.904 398.005L491.708 399.465L481.303 332.051L430 377.005L378.697 332.051L368.292 399.465L300.096 398.005L335.458 456.335L282.279 499.052L346.862 521.005L333.582 587.912L397.166 563.215L430 623.005Z" fill="#5756D6"/>
</mask>
<g mask="url(#mask1_2337_9322)">
<rect id="highlight-prehistoric" opacity="0.4" x="419" y="126.085" width="105.019" height="659" transform="rotate(-3.31885 419 126.085)" fill="url(#paint0_radial_2337_9322)"/>
</g>
</g>
<g id="flap_group-prehistoric" filter="url(#filter1_d_2337_9322)">
<mask id="mask2_2337_9322" style="mask-type:alpha" maskUnits="userSpaceOnUse" x="582" y="623" width="296" height="291">
<path id="flap_mask-prehistoric" d="M730.004 623.003L697.17 682.792L633.586 658.096L646.865 725.003L582.283 746.956L635.462 789.673L600.1 848.003L668.296 846.543L678.701 913.957L730.004 869.003L781.307 913.957L791.712 846.543L859.908 848.003L824.545 789.673L877.725 746.956L813.142 725.003L826.422 658.096L762.838 682.792L730.004 623.003Z" fill="#F7FCFD"/>
</mask>
<g mask="url(#mask2_2337_9322)">
<path id="flap-prehistoric" d="M730.004 623.003L697.17 682.792L633.586 658.096L646.865 725.003L582.283 746.956L635.462 789.673L600.1 848.003L668.296 846.543L678.701 913.957L730.004 869.003L781.307 913.957L791.712 846.543L859.908 848.003L824.545 789.673L877.725 746.956L813.142 725.003L826.422 658.096L762.838 682.792L730.004 623.003Z" fill="#F7FCFD"/>
<rect id="shadow-prehistoric" opacity="0.5" width="117.853" height="1355.12" transform="matrix(-0.707107 -0.707107 0.705341 -0.708868 240.324 1246.94)" fill="url(#paint1_radial_2337_9322)"/>
</g>
</g>
</g>
</g>
</g>
<defs>
<filter id="filter0_d_2337_9322" x="270.277" y="328.051" width="311.445" height="306.954" filterUnits="userSpaceOnUse" color-interpolation-filters="sRGB">
<feFlood flood-opacity="0" result="BackgroundImageFix"/>
<feColorMatrix in="SourceAlpha" type="matrix" values="0 0 0 0 0 0 0 0 0 0 0 0 0 0 0 0 0 0 127 0" result="hardAlpha"/>
<feOffset dx="-4" dy="4"/>
<feGaussianBlur stdDeviation="4"/>
<feComposite in2="hardAlpha" operator="out"/>
<feColorMatrix type="matrix" values="0 0 0 0 0 0 0 0 0 0 0 0 0 0 0 0 0 0 0.3 0"/>
<feBlend mode="normal" in2="BackgroundImageFix" result="effect1_dropShadow_2337_9322"/>
<feBlend mode="normal" in="SourceGraphic" in2="effect1_dropShadow_2337_9322" result="shape"/>
</filter>
<filter id="filter1_d_2337_9322" x="570.281" y="619.003" width="311.445" height="306.954" filterUnits="userSpaceOnUse" color-interpolation-filters="sRGB">
<feFlood flood-opacity="0" result="BackgroundImageFix"/>
<feColorMatrix in="SourceAlpha" type="matrix" values="0 0 0 0 0 0 0 0 0 0 0 0 0 0 0 0 0 0 127 0" result="hardAlpha"/>
<feOffset dx="-4" dy="4"/>
<feGaussianBlur stdDeviation="4"/>
<feComposite in2="hardAlpha" operator="out"/>
<feColorMatrix type="matrix" values="0 0 0 0 0 0 0 0 0 0 0 0 0 0 0 0 0 0 0.2 0"/>
<feBlend mode="normal" in2="BackgroundImageFix" result="effect1_dropShadow_2337_9322"/>
<feBlend mode="normal" in="SourceGraphic" in2="effect1_dropShadow_2337_9322" result="shape"/>
</filter>
<radialGradient id="paint0_radial_2337_9322" cx="0" cy="0" r="1" gradientUnits="userSpaceOnUse" gradientTransform="translate(471.509 455.585) rotate(90) scale(329.5 52.5094)">
<stop stop-color="white"/>
<stop offset="1" stop-color="#999999" stop-opacity="0"/>
</radialGradient>
<radialGradient id="paint1_radial_2337_9322" cx="0" cy="0" r="1" gradientUnits="userSpaceOnUse" gradientTransform="translate(58.9266 677.562) rotate(90) scale(677.562 58.9266)">
<stop offset="0.216346" stop-color="#1C1925"/>
<stop offset="1" stop-color="#999999" stop-opacity="0"/>
</radialGradient>
</defs>
</svg>
