<svg width="802" height="802" viewBox="0 0 802 802" fill="none" xmlns="http://www.w3.org/2000/svg">
<g id="untitled_label-rest">
<mask id="mask0_2300_9996" style="mask-type:alpha" maskUnits="userSpaceOnUse" x="0" y="0" width="802" height="802">
<rect id="mask-rest" x="400.93" width="567" height="567" transform="rotate(45 400.93 0)" fill="#D9D9D9"/>
</mask>
<g mask="url(#mask0_2300_9996)">
<g id="label_group-rest">
<g id="label-rest">
<g id="base-rest" filter="url(#filter0_d_2300_9996)">
<path d="M468.496 281.458C388.631 280.194 378.985 337.166 384.145 365.809L413.526 424.571C409.419 442.052 412.875 482.471 461.23 484.597C518.728 487.124 509.882 427.099 515.253 413.198C519.746 401.57 541.159 392.663 550.32 365.809C556.639 332.322 548.361 282.722 468.496 281.458Z" fill="#D4F75F"/>
<path d="M187 244C187 227.431 200.431 214 217 214H463C479.569 214 493 227.431 493 244V411C493 427.569 479.569 441 463 441H217C200.431 441 187 427.569 187 411V244Z" fill="#D4F75F"/>
</g>
<g id="content-rest">
<path id="REST" d="M236.332 401.168C240.556 401.168 242.476 399.184 242.476 394.896C242.476 389.776 240.3 388.624 235.5 388.624C234.156 388.624 231.02 388.688 228.524 388.752C228.524 392.912 228.524 397.072 228.588 401.04C230.38 401.104 233.196 401.104 236.332 401.168ZM246.444 406.544V406.928C253.036 407.76 255.66 409.68 257.26 416.144C258.284 419.792 259.244 423.824 259.884 426H245.612C243.244 426 242.796 425.168 241.708 420.24C240.172 412.176 239.276 410.768 235.372 410.768C233.068 410.768 231.724 410.704 228.652 410.768C228.78 416.912 228.972 422.224 229.356 426H213.164C213.292 419.024 213.42 412.24 213.42 402C213.42 391.824 213.356 384.912 213.164 378H239.34C251.052 378 257.772 382.352 257.772 392.464C257.772 401.232 254.572 405.264 246.444 406.544ZM265.414 378H303.942C303.878 379.344 303.814 381.776 303.814 383.632C303.814 385.616 303.814 388.368 303.942 389.776C296.134 389.712 287.622 389.648 281.222 389.648V396.368C288.838 396.368 297.094 396.368 303.366 396.176C303.302 398.544 303.302 404.112 303.302 406.672C297.094 406.544 288.774 406.48 281.222 406.48V413.456C287.686 413.456 296.646 413.392 303.942 413.328C303.814 414.864 303.814 417.68 303.814 419.92C303.814 421.84 303.814 424.4 303.942 426H265.414C265.606 419.536 265.606 412.24 265.606 402C265.606 391.824 265.606 384.208 265.414 378ZM324.084 410.32V411.216C324.084 414.864 325.748 416.208 331.252 416.208C336.628 416.208 338.1 414.928 338.1 412.56C338.1 409.808 336.628 407.952 328.308 406.8C313.652 404.816 310.068 399.888 310.068 391.568C310.068 382.48 316.596 377.104 331.316 377.104C347.7 377.104 352.756 381.84 352.756 390.416C352.756 391.312 352.692 392.272 352.628 393.296C350.708 393.168 347.572 393.104 344.82 393.104C342.644 393.104 340.532 393.104 339.188 393.168C339.252 392.72 339.252 392.272 339.252 391.888C339.252 389.328 337.844 387.664 331.764 387.664C327.092 387.664 325.62 389.008 325.62 391.056C325.62 393.36 326.644 395.28 335.668 396.624C348.788 398.608 353.396 402.768 353.396 412.112C353.396 421.456 347.508 426.896 332.02 426.896C315.38 426.896 309.94 422.352 309.94 413.456C309.94 412.368 309.94 411.216 310.068 410.064C312.18 410.256 315.38 410.448 318.388 410.448C320.564 410.448 322.612 410.448 324.084 410.32ZM356.529 378H394.929C394.865 379.792 394.865 382.544 394.865 385.04C394.865 387.408 394.865 390.416 394.929 392.336C391.153 392.272 387.377 392.208 383.921 392.208C383.921 407.632 383.985 422.608 384.177 426.064C381.937 425.872 378.289 425.872 375.729 425.872C373.169 425.872 369.649 425.872 367.345 426.064C367.537 422.608 367.601 407.696 367.601 392.208C364.145 392.208 360.369 392.272 356.529 392.336C356.593 390.416 356.593 387.408 356.593 385.04C356.593 382.544 356.593 379.792 356.529 378Z" fill="#1B1B1B"/>
<path id="WHERE" d="M264.428 240H277.612C274.796 251.136 268.908 281.024 267.5 288C265.26 287.936 262.124 287.872 258.54 287.872C253.548 287.872 249.9 287.936 248.364 288C247.724 284.224 246.252 275.008 244.908 266.752C244.396 263.168 243.948 259.008 243.5 255.296H243.18C242.668 259.072 242.156 263.36 241.516 266.88C240.108 274.816 238.444 283.84 237.74 288C235.628 288 231.852 287.872 228.396 287.872C223.724 287.872 220.972 287.936 219.5 288C217.772 280.064 212.332 251.2 209.324 240H226.22C226.476 243.52 228.332 257.216 229.74 266.56C230.188 269.44 230.572 272.32 230.956 274.624H231.34C231.724 272.256 232.172 269.44 232.684 266.432C234.092 257.216 236.204 244.608 236.524 240C238.764 240.064 243.244 240.064 245.804 240.064C248.364 240.064 252.14 240.064 254.252 240C254.7 244.224 256.236 257.152 257.9 266.688C258.476 269.888 258.86 272.64 259.18 274.88H259.564C259.884 272.576 260.204 269.824 260.78 266.688C262.188 257.216 263.98 244.672 264.428 240ZM312.567 240H328.759C328.567 246.592 328.503 253.824 328.503 264C328.503 274.176 328.567 281.088 328.759 288H312.567C312.695 283.392 312.759 276.416 312.823 270.848C310.519 270.784 307.959 270.784 305.399 270.784C302.839 270.784 300.279 270.784 297.975 270.848C297.975 276.416 298.039 283.328 298.231 288H282.039C282.295 281.088 282.295 274.176 282.295 264C282.295 253.824 282.295 246.592 282.039 240H298.231C298.039 244.48 297.975 251.712 297.975 257.472C300.279 257.536 302.839 257.6 305.399 257.6C307.959 257.6 310.519 257.536 312.823 257.472C312.759 251.712 312.695 244.48 312.567 240ZM337.101 240H375.629C375.565 241.344 375.501 243.776 375.501 245.632C375.501 247.616 375.501 250.368 375.629 251.776C367.821 251.712 359.309 251.648 352.909 251.648V258.368C360.525 258.368 368.781 258.368 375.053 258.176C374.989 260.544 374.989 266.112 374.989 268.672C368.781 268.544 360.461 268.48 352.909 268.48V275.456C359.373 275.456 368.333 275.392 375.629 275.328C375.501 276.864 375.501 279.68 375.501 281.92C375.501 283.84 375.501 286.4 375.629 288H337.101C337.293 281.536 337.293 274.24 337.293 264C337.293 253.824 337.293 246.208 337.101 240ZM406.332 263.168C410.556 263.168 412.476 261.184 412.476 256.896C412.476 251.776 410.3 250.624 405.5 250.624C404.156 250.624 401.02 250.688 398.524 250.752C398.524 254.912 398.524 259.072 398.588 263.04C400.38 263.104 403.196 263.104 406.332 263.168ZM416.444 268.544V268.928C423.036 269.76 425.66 271.68 427.26 278.144C428.284 281.792 429.244 285.824 429.884 288H415.612C413.244 288 412.796 287.168 411.708 282.24C410.172 274.176 409.276 272.768 405.372 272.768C403.068 272.768 401.724 272.704 398.652 272.768C398.78 278.912 398.972 284.224 399.356 288H383.164C383.292 281.024 383.42 274.24 383.42 264C383.42 253.824 383.356 246.912 383.164 240H409.34C421.052 240 427.772 244.352 427.772 254.464C427.772 263.232 424.572 267.264 416.444 268.544ZM435.414 240H473.942C473.878 241.344 473.814 243.776 473.814 245.632C473.814 247.616 473.814 250.368 473.942 251.776C466.134 251.712 457.622 251.648 451.222 251.648V258.368C458.838 258.368 467.094 258.368 473.366 258.176C473.302 260.544 473.302 266.112 473.302 268.672C467.094 268.544 458.774 268.48 451.222 268.48V275.456C457.686 275.456 466.646 275.392 473.942 275.328C473.814 276.864 473.814 279.68 473.814 281.92C473.814 283.84 473.814 286.4 473.942 288H435.414C435.606 281.536 435.606 274.24 435.606 264C435.606 253.824 435.606 246.208 435.414 240Z" fill="#1B1B1B"/>
<path id="IS THE" d="M220.668 353H208.476C209.868 347.816 211.212 342.632 213.084 335C215.004 327.32 216.3 322.136 217.452 317H229.644C228.252 322.136 226.956 327.272 225.084 334.952C223.164 342.584 221.868 347.768 220.668 353ZM264.482 326.36L263.858 328.52C262.466 328.376 260.162 328.28 258.05 328.28C256.418 328.28 254.834 328.328 253.826 328.376C253.97 328.04 254.018 327.704 254.114 327.416C254.594 325.544 253.826 324.248 249.266 324.248C245.762 324.248 244.466 325.016 244.082 326.504C243.65 328.328 244.034 329.72 250.562 331.016C259.778 332.888 262.37 336.776 260.69 343.544C258.962 350.456 254.834 353.672 243.65 353.672C231.026 353.672 226.754 349.4 228.29 343.064C228.434 342.44 228.626 341.768 228.866 341.048C230.402 341.192 232.706 341.336 235.01 341.336C236.642 341.336 238.13 341.336 239.282 341.24C239.234 341.48 239.138 341.672 239.09 341.912C238.514 344.36 239.426 345.656 243.89 345.656C247.586 345.656 248.882 345.032 249.314 343.304C249.89 341 249.026 339.608 243.074 338.696C233.09 337.016 231.074 332.216 232.514 326.36C234.146 319.64 238.85 316.328 249.842 316.328C262.418 316.328 265.922 320.6 264.482 326.36ZM282.085 317H310.885C310.501 318.344 309.973 320.408 309.541 322.28C309.061 324.056 308.533 326.312 308.197 327.752C305.365 327.704 302.533 327.656 299.941 327.656C297.109 339.224 294.373 350.456 293.845 353.048C292.165 352.904 289.429 352.904 287.509 352.904C285.589 352.904 282.949 352.904 281.221 353.048C281.989 350.456 284.869 339.272 287.749 327.656C285.109 327.656 282.277 327.704 279.397 327.752C279.829 326.312 280.357 324.056 280.837 322.28C281.269 320.408 281.797 318.344 282.085 317ZM337.659 317H349.851C348.459 321.944 347.067 327.368 345.195 335C343.275 342.632 342.027 347.816 340.875 353H328.683C329.691 349.544 331.035 344.312 332.091 340.136C330.411 340.088 328.443 340.088 326.571 340.088C324.699 340.088 322.731 340.088 321.051 340.136C319.995 344.312 318.747 349.496 317.979 353H305.883C307.323 347.816 308.619 342.632 310.491 335C312.411 327.368 313.803 321.992 314.859 317H326.955C325.995 320.36 324.603 325.784 323.499 330.104C325.275 330.152 327.147 330.2 329.067 330.2C330.939 330.2 332.859 330.152 334.635 330.104C335.643 325.784 336.939 320.36 337.659 317ZM356.108 317H384.956C384.668 318.008 384.188 319.832 383.852 321.176C383.516 322.712 382.988 324.776 382.748 325.832C376.988 325.784 370.604 325.736 365.804 325.736L364.556 330.776C370.22 330.776 376.412 330.776 381.212 330.632C380.684 332.408 379.628 336.584 379.196 338.552C374.54 338.408 368.3 338.36 362.636 338.36L361.34 343.592C366.188 343.592 372.908 343.544 378.38 343.496C377.996 344.6 377.516 346.76 377.084 348.392C376.7 349.88 376.268 351.848 375.98 353H347.132C348.476 348.104 349.868 342.68 351.74 335C353.66 327.368 355.1 321.704 356.108 317Z" fill="#1B1B1B"/>
<path id="?" d="M463.802 425.074C483.834 425.074 494.173 431.751 494.173 446.398C494.173 460.83 483.834 467.939 463.802 467.939C444.2 467.939 433.861 460.83 433.861 446.398C433.861 431.751 444.2 425.074 463.802 425.074ZM400.905 351.191C400.905 320.82 418.137 301.864 468.325 301.864C513.99 301.864 534.453 317.373 534.453 347.745C534.453 369.5 525.622 381.132 504.728 391.471C493.743 397.502 489.865 404.611 489.865 410.426C489.865 412.796 489.865 413.442 490.081 415.165C483.188 414.519 473.064 414.519 464.233 414.519C454.539 414.519 446.139 414.734 438.384 415.381C438.169 413.442 438.169 411.934 438.169 410.211C438.169 391.687 445.277 380.055 463.586 371.87C479.741 364.761 484.265 358.946 484.265 350.545C484.265 343.006 479.741 337.19 466.171 337.19C451.524 337.19 446.57 344.944 446.57 355.93C446.57 358.084 446.57 360.884 447 363.469C442.046 363.254 434.292 363.038 426.537 363.038C417.49 363.038 407.582 363.469 401.335 363.9C401.12 359.376 400.905 355.284 400.905 351.191Z" fill="#1B1B1B"/>
</g>
<mask id="mask1_2300_9996" style="mask-type:alpha" maskUnits="userSpaceOnUse" x="187" y="214" width="365" height="271">
<g id="highlight_mask-rest">
<path d="M468.496 281.458C388.631 280.194 378.985 337.166 384.145 365.809L413.526 424.571C409.419 442.052 412.875 482.471 461.23 484.597C518.728 487.124 509.882 427.099 515.253 413.198C519.746 401.57 541.159 392.663 550.32 365.809C556.639 332.322 548.361 282.722 468.496 281.458Z" fill="#D4F75F"/>
<path d="M187 244C187 227.431 200.431 214 217 214H463C479.569 214 493 227.431 493 244V411C493 427.569 479.569 441 463 441H217C200.431 441 187 427.569 187 411V244Z" fill="#D4F75F"/>
</g>
</mask>
<g mask="url(#mask1_2300_9996)">
<rect id="highlight-rest" opacity="0.5" x="302.141" y="-3.90771" width="118" height="659" transform="rotate(-13.2761 302.141 -3.90771)" fill="url(#paint0_radial_2300_9996)"/>
</g>
</g>
<g id="flap_group-rest" filter="url(#filter1_d_2300_9996)">
<mask id="mask2_2300_9996" style="mask-type:alpha" maskUnits="userSpaceOnUse" x="-83" y="-152" width="270" height="366">
<g id="flap_mask-rest">
<path d="M119.71 -67.499C120.97 12.3662 64.1409 22.0124 35.5686 16.8523L-23.0469 -12.5289C-40.4844 -8.42196 -80.8025 -11.8781 -82.9227 -60.2332C-85.4437 -117.731 -25.568 -108.885 -11.702 -114.256C-0.102777 -118.749 8.78181 -140.162 35.5686 -149.323C68.9727 -155.642 118.449 -147.364 119.71 -67.499Z" fill="#F7FCFD"/>
<path d="M157.075 213.997C173.602 213.997 187 200.566 187 183.997L187 -62.0029C187 -78.5715 173.602 -92.0029 157.075 -92.0029L-9.50933 -92.0029C-26.0366 -92.0029 -39.4346 -78.5715 -39.4346 -62.0029L-39.4346 183.997C-39.4346 200.566 -26.0366 213.997 -9.50933 213.997L157.075 213.997Z" fill="#F7FCFD"/>
</g>
</mask>
<g mask="url(#mask2_2300_9996)">
<g id="flap-rest">
<path d="M119.71 -67.499C120.97 12.3662 64.1409 22.0124 35.5686 16.8523L-23.0469 -12.5289C-40.4844 -8.42196 -80.8025 -11.8781 -82.9227 -60.2332C-85.4437 -117.731 -25.568 -108.885 -11.702 -114.256C-0.102777 -118.749 8.78181 -140.162 35.5686 -149.323C68.9727 -155.642 118.449 -147.364 119.71 -67.499Z" fill="#F7FCFD"/>
<path d="M157.075 213.997C173.602 213.997 187 200.566 187 183.997L187 -62.0029C187 -78.5715 173.602 -92.0029 157.075 -92.0029L-9.50933 -92.0029C-26.0366 -92.0029 -39.4346 -78.5715 -39.4346 -62.0029L-39.4346 183.997C-39.4346 200.566 -26.0366 213.997 -9.50933 213.997L157.075 213.997Z" fill="#F7FCFD"/>
</g>
<rect id="shadow-rest" opacity="0.5" width="117.853" height="1355.12" transform="matrix(0.706225 0.707988 -0.706225 0.707988 551.844 -328)" fill="url(#paint1_radial_2300_9996)"/>
</g>
</g>
</g>
</g>
</g>
<defs>
<filter id="filter0_d_2300_9996" x="183" y="210" width="381" height="286.674" filterUnits="userSpaceOnUse" color-interpolation-filters="sRGB">
<feFlood flood-opacity="0" result="BackgroundImageFix"/>
<feColorMatrix in="SourceAlpha" type="matrix" values="0 0 0 0 0 0 0 0 0 0 0 0 0 0 0 0 0 0 127 0" result="hardAlpha"/>
<feOffset dx="4" dy="4"/>
<feGaussianBlur stdDeviation="4"/>
<feComposite in2="hardAlpha" operator="out"/>
<feColorMatrix type="matrix" values="0 0 0 0 0 0 0 0 0 0 0 0 0 0 0 0 0 0 0.3 0"/>
<feBlend mode="normal" in2="BackgroundImageFix" result="effect1_dropShadow_2300_9996"/>
<feBlend mode="normal" in="SourceGraphic" in2="effect1_dropShadow_2300_9996" result="shape"/>
</filter>
<filter id="filter1_d_2300_9996" x="-87" y="-155.003" width="286" height="381" filterUnits="userSpaceOnUse" color-interpolation-filters="sRGB">
<feFlood flood-opacity="0" result="BackgroundImageFix"/>
<feColorMatrix in="SourceAlpha" type="matrix" values="0 0 0 0 0 0 0 0 0 0 0 0 0 0 0 0 0 0 127 0" result="hardAlpha"/>
<feOffset dx="4" dy="4"/>
<feGaussianBlur stdDeviation="4"/>
<feComposite in2="hardAlpha" operator="out"/>
<feColorMatrix type="matrix" values="0 0 0 0 0 0 0 0 0 0 0 0 0 0 0 0 0 0 0.2 0"/>
<feBlend mode="normal" in2="BackgroundImageFix" result="effect1_dropShadow_2300_9996"/>
<feBlend mode="normal" in="SourceGraphic" in2="effect1_dropShadow_2300_9996" result="shape"/>
</filter>
<radialGradient id="paint0_radial_2300_9996" cx="0" cy="0" r="1" gradientUnits="userSpaceOnUse" gradientTransform="translate(361.141 325.592) rotate(90) scale(329.5 59)">
<stop stop-color="white"/>
<stop offset="1" stop-color="#999999" stop-opacity="0"/>
</radialGradient>
<radialGradient id="paint1_radial_2300_9996" cx="0" cy="0" r="1" gradientUnits="userSpaceOnUse" gradientTransform="translate(58.9266 677.562) rotate(90) scale(677.562 58.9266)">
<stop offset="0.216346" stop-color="#1C1925"/>
<stop offset="1" stop-color="#999999" stop-opacity="0"/>
</radialGradient>
</defs>
</svg>
