<svg width="566" height="566" viewBox="0 0 566 566" fill="none" xmlns="http://www.w3.org/2000/svg">
<g id="skribbel_label-cute">
<mask id="mask0_2290_9814" style="mask-type:alpha" maskUnits="userSpaceOnUse" x="0" y="0" width="566" height="566">
<rect id="mask-cute" x="282.844" width="400" height="400" transform="rotate(45 282.844 0)" fill="#D9D9D9"/>
</mask>
<g mask="url(#mask0_2290_9814)">
<g id="label_group-cute">
<g id="label-cute" filter="url(#filter0_d_2290_9814)">
<g id="base-cute">
<path id="Vector" d="M326.731 323.837L405.819 244.549C431.407 218.897 434.445 180.352 412.605 158.457C390.765 136.562 352.318 139.608 326.731 165.26C301.143 139.608 262.696 136.562 240.856 158.457C219.016 180.352 222.055 218.897 247.642 244.549L326.731 323.837Z" fill="#FF6249"/>
<rect id="Rectangle 107" x="226.27" y="238.684" width="203" height="67.1538" fill="#5756D6"/>
</g>
<g id="content-cute">
<g id="Group 327">
<path id="AS F*CK" d="M262.224 256.471H262.037C261.711 258.103 261.244 260.435 260.451 263.793C259.752 267.385 258.819 271.723 257.979 275.827C259.425 275.874 261.011 275.874 262.13 275.874C263.296 275.874 264.836 275.874 266.328 275.827C265.442 271.676 264.509 267.245 263.763 263.653C263.017 260.435 262.55 258.103 262.224 256.471ZM274.351 288.607H268.754C268.567 287.161 267.961 283.756 267.121 279.698C265.349 279.698 263.53 279.698 262.13 279.698C260.824 279.698 258.912 279.698 257.186 279.698C256.347 283.663 255.694 286.974 255.414 288.607H250.237C252.336 280.491 257.466 257.73 258.399 253.625H266.002C267.028 257.777 272.065 280.118 274.351 288.607ZM286.266 284.922C289.764 284.922 291.117 283.43 291.117 280.491C291.117 277.273 289.811 274.754 285.146 272.889C278.663 270.277 276.471 266.918 276.471 261.555C276.471 256.191 279.643 253.112 285.846 253.112C292.609 253.112 295.408 256.191 295.408 262.301C295.408 263.42 295.361 264.26 295.314 265.426C294.755 265.379 293.962 265.379 293.122 265.379C292.236 265.379 291.396 265.426 290.79 265.426C290.837 264.446 290.883 263.374 290.883 262.534C290.883 258.989 289.484 257.31 285.893 257.31C282.768 257.31 281.275 258.709 281.275 261.555C281.275 264.4 282.115 266.778 287.012 268.784C292.982 271.163 295.734 274.661 295.734 280.211C295.734 285.762 292.702 289.12 286.266 289.12C279.036 289.12 276.144 285.575 276.144 279.792C276.144 278.392 276.191 277.693 276.238 276.62C276.844 276.667 277.637 276.713 278.523 276.713C279.503 276.713 280.389 276.713 281.089 276.667C281.042 277.459 281.042 278.346 281.042 278.952C281.042 283.336 282.534 284.922 286.266 284.922ZM309.604 253.625H326.814C326.768 254.185 326.768 255.025 326.768 255.678C326.768 256.517 326.768 257.403 326.814 258.103C322.383 258.01 318.092 258.01 314.548 258.01C314.548 261.694 314.548 266.545 314.548 270.09V271.209C318.792 271.209 322.943 271.209 326.581 271.116C326.488 272.236 326.488 274.334 326.488 275.407C322.943 275.407 318.792 275.361 314.548 275.361C314.594 280.071 314.641 284.829 314.781 288.607H309.604C309.697 284.083 309.744 278.579 309.744 271.116C309.744 263.7 309.744 258.103 309.604 253.625ZM350.361 263.42V267.805C349.055 267.758 345.79 267.618 342.619 267.571C344.531 271.583 347.516 276.853 348.356 278.532C346.957 279.325 345.837 279.978 344.485 280.818C343.785 279.139 341.406 273.728 339.634 269.717C337.861 273.728 335.436 279.185 334.83 280.818C333.43 280.025 332.311 279.372 330.865 278.626C331.798 276.9 334.83 271.583 336.742 267.571C333.664 267.618 330.399 267.758 329.139 267.805V263.42C330.492 263.467 334.177 263.514 337.535 263.514C337.488 259.596 337.395 254.698 337.302 253.112C339.074 253.159 340.193 253.159 342.012 253.112C341.919 254.745 341.733 259.596 341.733 263.514C345.138 263.514 349.009 263.467 350.361 263.42ZM371.314 267.898H368.981C369.028 266.918 369.028 265.892 369.028 265.239C369.028 259.362 367.162 257.637 363.804 257.637C360.213 257.637 357.974 259.969 357.974 270.836C357.974 281.89 360.259 284.549 363.944 284.549C367.536 284.549 369.121 281.984 369.121 276.62C369.121 275.874 369.121 275.127 369.075 274.334C369.914 274.381 370.661 274.381 371.5 274.381C372.293 274.381 373.086 274.381 373.925 274.334V276.573C373.925 284.549 370.567 289.073 363.991 289.073C357.134 289.073 352.937 284.456 352.937 270.93C352.937 258.103 356.621 253.159 364.037 253.159C371.127 253.159 373.832 257.637 373.832 264.726C373.832 265.799 373.786 266.825 373.739 267.898H371.314ZM393.714 253.625H399.638C397.119 257.823 392.035 266.545 389.144 271.489C390.03 272.655 391.149 274.148 392.269 275.874C396.373 281.984 399.032 286.928 400.151 288.607H394.881C394.041 288.607 393.621 288.327 393.201 287.627C390.729 283.29 386.811 276.806 384.526 273.355H384.06C384.06 279.092 384.06 284.549 384.199 288.607H379.069C379.162 284.036 379.162 278.579 379.162 271.116C379.162 263.653 379.162 258.056 379.069 253.625H384.199C384.06 257.87 384.06 264.26 384.06 270.51H384.386C385.599 268.831 386.811 266.965 388.117 264.866C390.543 260.622 392.455 256.517 393.714 253.625Z" fill="#F7FCFD"/>
<path id="Cute" d="M288.613 203.775V202.62C290.39 202.664 292.167 202.664 293.943 202.664C295.72 202.664 297.542 202.664 299.318 202.62C299.363 203.331 299.363 203.997 299.363 204.574C299.363 213.414 294.166 217.723 283.46 217.723C272.177 217.723 266.713 212.57 266.713 200.043C266.713 188.583 272 183.252 283.593 183.252C294.965 183.252 299.274 187.694 299.274 194.935C299.274 195.779 299.23 196.712 299.141 197.689C297.364 197.6 295.543 197.6 293.81 197.6C292.033 197.6 290.301 197.6 288.524 197.689C288.569 197.334 288.569 196.978 288.569 196.712C288.569 192.936 286.836 191.648 283.46 191.648C279.729 191.692 277.952 193.425 277.952 199.999C277.952 206.529 279.773 208.706 283.682 208.706C287.103 208.706 288.613 206.751 288.613 203.775ZM321.956 189.471H332.573C332.484 193.425 332.484 196.978 332.484 203.242C332.484 209.105 332.484 213.281 332.573 217.146H322.001C322.045 215.413 322.045 214.125 322.134 212.57L321.867 212.526C320.268 216.035 317.248 217.59 312.628 217.59C307.164 217.59 303.61 214.969 303.61 208.706C303.61 204.041 303.699 201.643 303.699 198.622C303.699 195.202 303.699 192.359 303.566 189.471H314.227C314.094 193.425 314.094 198.844 314.094 205.507C314.094 208.306 315.071 209.416 317.514 209.416C320.046 209.416 322.045 207.906 322.045 203.997C322.045 195.157 322.001 192.27 321.956 189.471ZM335.888 189.471L338.731 189.516C338.775 187.606 338.775 185.784 338.775 184.23C340.374 184.318 342.151 184.318 343.883 184.318C345.616 184.318 347.437 184.318 349.036 184.23C348.992 185.918 348.903 187.694 348.859 189.56C352.012 189.56 355.122 189.516 357.654 189.471C357.565 192.225 357.432 195.468 357.476 198.267C355.699 198.222 352.323 198.133 348.725 198.089C348.681 200.31 348.681 202.664 348.681 205.196C348.681 207.195 349.569 207.95 352.057 207.95C354.145 207.95 355.922 207.639 357.299 207.106C357.432 209.905 357.92 213.77 358.276 216.479C355.655 217.146 353.478 217.501 350.191 217.501C341.174 217.501 338.553 213.459 338.553 207.328C338.553 204.796 338.597 201.465 338.642 197.956L335.932 197.911C335.932 195.379 335.977 191.826 335.888 189.471ZM374.85 195.29C372.14 195.29 370.719 196.356 370.363 201.11C372.94 201.154 375.827 201.154 378.714 201.11C378.759 200.754 378.759 200.354 378.759 199.91C378.759 196.534 377.693 195.29 374.85 195.29ZM383.112 207.906C384.978 207.906 386.621 207.862 387.998 207.773C388.22 214.214 385.999 217.723 374.716 217.723C365.122 217.723 360.324 213.503 360.324 203.375C360.324 192.714 365.477 188.894 375.027 188.894C385.155 188.894 388.087 192.936 388.087 200.221C388.087 202.487 387.998 204.263 387.865 205.463C385.111 205.374 380.98 205.374 377.293 205.374C374.583 205.374 372.096 205.374 370.319 205.418C370.541 209.772 371.874 211.149 374.983 211.149C377.826 211.149 378.67 210.038 378.714 207.773C379.78 207.862 381.335 207.906 383.112 207.906Z" fill="#1B1B1B"/>
</g>
</g>
<mask id="mask1_2290_9814" style="mask-type:alpha" maskUnits="userSpaceOnUse" x="226" y="143" width="204" height="181">
<g id="highlight_mask-cute">
<path d="M326.731 323.837L405.819 244.549C431.407 218.897 434.445 180.352 412.605 158.457C390.765 136.562 352.318 139.608 326.731 165.26C301.143 139.608 262.696 136.562 240.856 158.457C219.016 180.352 222.055 218.897 247.642 244.549L326.731 323.837Z" fill="#FF6249"/>
<path d="M226.27 238.684H429.27V305.837H226.27V238.684Z" fill="#5756D6"/>
</g>
</mask>
<g mask="url(#mask1_2290_9814)">
<rect id="highlight-cute" opacity="0.4" x="241" y="-108.902" width="118" height="659" transform="rotate(-13.2761 241 -108.902)" fill="url(#paint0_radial_2290_9814)"/>
</g>
</g>
<g id="flap_group-cute" filter="url(#filter1_d_2290_9814)">
<mask id="mask2_2290_9814" style="mask-type:alpha" maskUnits="userSpaceOnUse" x="427" y="-59" width="180" height="203">
<g id="flap_mask-cute">
<path d="M607 43.5389L527.711 -35.5498C502.059 -61.1372 463.515 -64.1753 441.62 -42.3355C419.725 -20.4958 422.77 17.9515 448.423 43.5389C422.77 69.1263 419.725 107.574 441.62 129.413C463.515 151.253 502.059 148.215 527.711 122.628L607 43.5389Z" fill="#F7FCFD"/>
<path d="M521.846 144L521.846 -59L589 -59L589 144L521.846 144Z" fill="#F7FCFD"/>
</g>
</mask>
<g mask="url(#mask2_2290_9814)">
<g id="flap-cute">
<path d="M607 43.5389L527.711 -35.5498C502.059 -61.1372 463.515 -64.1753 441.62 -42.3355C419.725 -20.4958 422.77 17.9515 448.423 43.5389C422.77 69.1263 419.725 107.574 441.62 129.413C463.515 151.253 502.059 148.215 527.711 122.628L607 43.5389Z" fill="#F7FCFD"/>
<path d="M521.846 144L521.846 -59L589 -59L589 144L521.846 144Z" fill="#F7FCFD"/>
</g>
<rect id="shadow-copy" opacity="0.5" x="-58" y="-353.562" width="118" height="1356.81" transform="rotate(-45 -58 -353.562)" fill="url(#paint1_radial_2290_9814)"/>
</g>
</g>
</g>
</g>
</g>
<defs>
<filter id="filter0_d_2290_9814" x="214.27" y="139.837" width="219" height="196" filterUnits="userSpaceOnUse" color-interpolation-filters="sRGB">
<feFlood flood-opacity="0" result="BackgroundImageFix"/>
<feColorMatrix in="SourceAlpha" type="matrix" values="0 0 0 0 0 0 0 0 0 0 0 0 0 0 0 0 0 0 127 0" result="hardAlpha"/>
<feOffset dx="-4" dy="4"/>
<feGaussianBlur stdDeviation="4"/>
<feComposite in2="hardAlpha" operator="out"/>
<feColorMatrix type="matrix" values="0 0 0 0 0 0 0 0 0 0 0 0 0 0 0 0 0 0 0.3 0"/>
<feBlend mode="normal" in2="BackgroundImageFix" result="effect1_dropShadow_2290_9814"/>
<feBlend mode="normal" in="SourceGraphic" in2="effect1_dropShadow_2290_9814" result="shape"/>
</filter>
<filter id="filter1_d_2290_9814" x="415" y="-63" width="196" height="219" filterUnits="userSpaceOnUse" color-interpolation-filters="sRGB">
<feFlood flood-opacity="0" result="BackgroundImageFix"/>
<feColorMatrix in="SourceAlpha" type="matrix" values="0 0 0 0 0 0 0 0 0 0 0 0 0 0 0 0 0 0 127 0" result="hardAlpha"/>
<feOffset dx="-4" dy="4"/>
<feGaussianBlur stdDeviation="4"/>
<feComposite in2="hardAlpha" operator="out"/>
<feColorMatrix type="matrix" values="0 0 0 0 0 0 0 0 0 0 0 0 0 0 0 0 0 0 0.2 0"/>
<feBlend mode="normal" in2="BackgroundImageFix" result="effect1_dropShadow_2290_9814"/>
<feBlend mode="normal" in="SourceGraphic" in2="effect1_dropShadow_2290_9814" result="shape"/>
</filter>
<radialGradient id="paint0_radial_2290_9814" cx="0" cy="0" r="1" gradientUnits="userSpaceOnUse" gradientTransform="translate(300 220.598) rotate(90) scale(329.5 59)">
<stop stop-color="white"/>
<stop offset="1" stop-color="#999999" stop-opacity="0"/>
</radialGradient>
<radialGradient id="paint1_radial_2290_9814" cx="0" cy="0" r="1" gradientUnits="userSpaceOnUse" gradientTransform="translate(1 324.845) rotate(90) scale(678.406 59)">
<stop offset="0.216346" stop-color="#1C1925"/>
<stop offset="1" stop-color="#999999" stop-opacity="0"/>
</radialGradient>
</defs>
</svg>
