<svg width="802" height="802" viewBox="0 0 802 802" fill="none" xmlns="http://www.w3.org/2000/svg">
<g id="skribbel_label-goofy">
<mask id="mask0_2292_9865" style="mask-type:alpha" maskUnits="userSpaceOnUse" x="0" y="0" width="802" height="802">
<rect id="mask-goofy" x="400.93" width="567" height="567" transform="rotate(45 400.93 0)" fill="#D9D9D9"/>
</mask>
<g mask="url(#mask0_2292_9865)">
<g id="label_group-goofy">
<g id="label-goofy">
<g id="base-goofy" filter="url(#filter0_d_2292_9865)">
<path d="M348.168 379.96C331.016 397.111 303.208 397.111 286.056 379.96C268.905 362.808 268.905 334.999 286.056 317.848C303.208 300.696 331.016 300.696 348.168 317.848C365.32 334.999 365.32 362.808 348.168 379.96Z" fill="#5756D6"/>
<path d="M291.578 350.688C274.426 367.84 246.618 367.84 229.466 350.688C212.314 333.537 212.314 305.728 229.466 288.576C246.618 271.425 274.426 271.425 291.578 288.576C308.729 305.728 308.729 333.537 291.578 350.688Z" fill="#5756D6"/>
<path d="M413.541 384.838C396.389 401.99 368.581 401.99 351.429 384.838C334.277 367.686 334.277 339.878 351.429 322.726C368.581 305.574 396.389 305.574 413.541 322.726C430.692 339.878 430.692 367.686 413.541 384.838Z" fill="#5756D6"/>
<path d="M469.641 369.227C452.489 386.378 424.68 386.378 407.529 369.227C390.377 352.075 390.377 324.267 407.529 307.115C424.68 289.963 452.489 289.963 469.641 307.115C486.792 324.267 486.792 352.075 469.641 369.227Z" fill="#5756D6"/>
<path d="M179.871 270.936C179.871 243.32 202.259 220.932 229.876 220.932H393.306C420.923 220.932 443.311 243.32 443.311 270.936C443.311 298.553 420.923 320.941 393.306 320.941H229.876C202.259 320.941 179.871 298.553 179.871 270.936Z" fill="#5756D6"/>
<path d="M234.021 295.329C234.021 273.371 251.823 255.569 273.781 255.569H461.117C483.075 255.569 500.877 273.371 500.877 295.329C500.877 317.288 483.075 335.089 461.117 335.089H273.781C251.823 335.089 234.021 317.288 234.021 295.329Z" fill="#5756D6"/>
</g>
<g id="content-goofy">
<path id="A little" d="M222.525 272.362C223.897 272.362 225.774 272.362 227.507 272.326C226.496 269.366 225.45 266.261 224.547 263.734C223.572 261.207 222.995 259.438 222.561 258.175C222.128 259.474 221.551 261.207 220.576 263.915C219.709 266.406 218.699 269.438 217.688 272.326C219.385 272.362 221.226 272.362 222.525 272.362ZM237.002 282.543H230.793C230.54 281.496 229.818 279.149 228.843 276.261C226.605 276.261 224.294 276.261 222.525 276.261C220.937 276.261 218.518 276.261 216.316 276.261C215.377 279.041 214.619 281.352 214.258 282.543H208.482C211.117 276.225 217.255 259.33 218.59 255.467H226.677C228.157 259.438 234.15 275.864 237.002 282.543ZM249.845 255.467H255.368C255.26 257.597 255.188 262.651 255.188 268.933C255.188 272.074 255.224 275.503 255.224 277.814C258.545 277.814 263.13 277.814 266.885 277.705C266.885 278.5 266.848 279.33 266.848 280.124C266.848 280.955 266.885 281.749 266.885 282.543H249.845C249.845 280.269 249.953 274.781 249.953 269.005C249.953 262.399 249.953 258.03 249.845 255.467ZM275.835 282.543H270.347C270.455 278.644 270.455 274.745 270.455 269.005C270.455 263.229 270.455 259.33 270.347 255.467H275.835C275.726 259.294 275.726 263.193 275.726 268.969C275.726 274.709 275.726 278.608 275.835 282.543ZM279.399 255.467H300.735V257.778V260.16C297.919 260.124 295.103 260.088 292.685 260.088C292.685 270.196 292.685 280.305 292.793 282.579C292.035 282.507 290.88 282.507 290.049 282.507C289.291 282.507 288.172 282.507 287.378 282.579C287.486 280.341 287.486 270.233 287.486 260.088C285.067 260.088 282.251 260.124 279.399 260.16V257.778V255.467ZM301.629 255.467H322.965V257.778V260.16C320.149 260.124 317.333 260.088 314.914 260.088C314.914 270.196 314.914 280.305 315.023 282.579C314.265 282.507 313.109 282.507 312.279 282.507C311.521 282.507 310.402 282.507 309.608 282.579C309.716 280.341 309.716 270.233 309.716 260.088C307.297 260.088 304.481 260.124 301.629 260.16V257.778V255.467ZM326.531 255.467H332.054C331.946 257.597 331.874 262.651 331.874 268.933C331.874 272.074 331.91 275.503 331.91 277.814C335.231 277.814 339.816 277.814 343.57 277.705C343.57 278.5 343.534 279.33 343.534 280.124C343.534 280.955 343.57 281.749 343.57 282.543H326.531C326.531 280.269 326.639 274.781 326.639 269.005C326.639 262.399 326.639 258.03 326.531 255.467ZM346.925 255.467H367.755C367.719 255.936 367.719 256.911 367.719 257.597C367.719 258.355 367.719 259.474 367.755 260.016C362.376 259.98 356.564 259.944 352.268 259.944V266.803C357.466 266.803 363.098 266.803 367.43 266.695C367.394 267.669 367.394 270.016 367.394 270.991C363.134 270.918 357.394 270.918 352.268 270.918V277.886C356.564 277.886 362.556 277.85 367.755 277.814C367.719 278.391 367.719 279.474 367.719 280.305C367.719 280.955 367.719 281.965 367.755 282.543H346.925C347.033 279.113 347.033 274.781 347.033 269.005C347.033 263.265 347.033 258.68 346.925 255.467Z" fill="#F7FCFD"/>
<g id="curve text">
<path id="G" d="M288.808 318.187C291.264 329.483 289.527 335.339 272.96 337.834C259.691 339.833 252.209 336 250.596 325.292C248.972 314.506 255.136 309.331 268.289 307.35C281.635 305.34 287.384 308.204 288.336 314.528C288.407 314.994 288.477 315.459 288.508 315.931C286.789 316.11 284.494 316.416 282.283 316.749C280.032 317.088 277.943 317.443 276.442 317.748C276.401 317.477 276.399 317.199 276.364 316.966C276.007 314.6 273.882 313.928 269.343 314.612C264.066 315.406 262.197 317.751 263.08 323.61C263.904 329.08 266.334 331.254 272.154 330.377C276.383 329.74 278.07 328.296 278.154 325.426C275.244 325.864 272.029 326.388 269.558 326.84C269.509 326.252 269.275 324.7 269.182 324.079C269.012 322.954 268.866 321.984 268.711 321.214C272.602 320.707 276.56 320.111 279.469 319.673C282.069 319.281 285.373 318.823 288.808 318.187Z" fill="white"/>
<path id="O" d="M337.931 332.496C335.562 342.62 328.456 346.639 314.397 343.35C300.376 340.069 296.02 333.368 298.389 323.244C300.776 313.043 308.164 310.057 321.498 313.177C334.831 316.297 340.318 322.296 337.931 332.496ZM316.393 334.992C321.703 336.234 324.35 334.396 325.458 329.658C326.558 324.959 324.91 322.357 319.638 321.124C314.404 319.899 311.744 321.452 310.635 326.19C309.518 330.965 311.121 333.758 316.393 334.992Z" fill="white"/>
<path id="O_2" d="M387.602 336.408C387.888 346.802 382.04 352.497 367.607 352.895C353.212 353.292 347.294 347.921 347.008 337.527C346.719 327.055 353.103 322.287 366.791 321.909C380.48 321.532 387.313 325.936 387.602 336.408ZM367.409 344.305C372.861 344.154 374.952 341.702 374.818 336.839C374.685 332.015 372.429 329.918 367.016 330.067C361.643 330.215 359.466 332.395 359.6 337.259C359.735 342.161 361.996 344.454 367.409 344.305Z" fill="white"/>
<path id="F" d="M406.538 325.624L408.269 329.748L408.588 330.508C414.377 328.079 419.985 325.726 424.881 323.501C425.598 325.413 427.146 329.103 427.966 331.057C423.118 333.091 417.48 335.372 411.763 337.771C412.837 340.128 413.897 342.45 414.952 344.56L402.977 349.585C401.506 345.776 399.842 341.709 397.428 335.956C395.014 330.204 393.299 326.115 391.663 322.419L419.884 310.578C420.303 311.678 420.914 313.337 421.506 314.748C422.098 316.159 422.772 317.663 423.248 318.697C417.263 321.166 411.423 323.574 406.538 325.624Z" fill="white"/>
<path id="Y" d="M446.669 291.146L455.876 282.609C456.652 288.525 459.567 301.767 460.784 306.311C463.72 309.42 466.019 311.784 466.848 312.62C465.385 313.87 463.227 315.871 461.529 317.445C459.889 318.965 457.674 321.019 456.346 322.357C455.605 321.385 453.395 318.886 450.434 315.693C445.917 313.995 432.984 310.203 427.277 309.127L437.548 299.603C439.162 300.247 443.102 301.784 446.241 303.207C448.262 304.117 449.978 304.986 451.339 305.704L451.627 305.437C450.983 304.108 450.24 302.442 449.597 300.363C448.419 297.015 447.305 292.697 446.669 291.146Z" fill="white"/>
</g>
<g id="Group 363">
<ellipse id="Ellipse 7" cx="411.358" cy="280.898" rx="10.5708" ry="4.75017" transform="rotate(39.5398 411.358 280.898)" fill="#D4F75F"/>
<ellipse id="Ellipse 8" cx="409.119" cy="265.429" rx="10.5708" ry="4.75017" transform="rotate(-50.4602 409.119 265.429)" fill="#D4F75F"/>
<ellipse id="Ellipse 9" cx="393.649" cy="267.668" rx="10.5708" ry="4.75017" transform="rotate(-140.46 393.649 267.668)" fill="#D4F75F"/>
<ellipse id="Ellipse 10" cx="395.888" cy="283.137" rx="10.5708" ry="4.75017" transform="rotate(129.54 395.888 283.137)" fill="#D4F75F"/>
</g>
</g>
<mask id="mask1_2292_9865" style="mask-type:alpha" maskUnits="userSpaceOnUse" x="179" y="220" width="322" height="178">
<g id="highligh_mask-goofy">
<path d="M348.168 379.96C331.016 397.111 303.208 397.111 286.056 379.96C268.905 362.808 268.905 334.999 286.056 317.848C303.208 300.696 331.016 300.696 348.168 317.848C365.32 334.999 365.32 362.808 348.168 379.96Z" fill="#5756D6"/>
<path d="M291.578 350.688C274.426 367.84 246.618 367.84 229.466 350.688C212.314 333.537 212.314 305.728 229.466 288.576C246.618 271.425 274.426 271.425 291.578 288.576C308.729 305.728 308.729 333.537 291.578 350.688Z" fill="#5756D6"/>
<path d="M413.541 384.838C396.389 401.99 368.581 401.99 351.429 384.838C334.277 367.686 334.277 339.878 351.429 322.726C368.581 305.574 396.389 305.574 413.541 322.726C430.692 339.878 430.692 367.686 413.541 384.838Z" fill="#5756D6"/>
<path d="M469.641 369.227C452.489 386.378 424.68 386.378 407.529 369.227C390.377 352.075 390.377 324.267 407.529 307.115C424.68 289.963 452.489 289.963 469.641 307.115C486.792 324.267 486.792 352.075 469.641 369.227Z" fill="#5756D6"/>
<path d="M179.871 270.936C179.871 243.32 202.259 220.932 229.876 220.932H393.306C420.923 220.932 443.311 243.32 443.311 270.936C443.311 298.553 420.923 320.941 393.306 320.941H229.876C202.259 320.941 179.871 298.553 179.871 270.936Z" fill="#5756D6"/>
<path d="M234.021 295.329C234.021 273.371 251.823 255.569 273.781 255.569H461.117C483.075 255.569 500.877 273.371 500.877 295.329C500.877 317.288 483.075 335.089 461.117 335.089H273.781C251.823 335.089 234.021 317.288 234.021 295.329Z" fill="#5756D6"/>
</g>
</mask>
<g mask="url(#mask1_2292_9865)">
<rect id="highlight-goofy" opacity="0.4" x="263.312" y="-43.3198" width="118" height="659" transform="rotate(-13.2761 263.312 -43.3198)" fill="url(#paint0_radial_2292_9865)"/>
</g>
</g>
<g id="flap_group-goofy" filter="url(#filter1_d_2292_9865)">
<mask id="mask2_2292_9865" style="mask-type:alpha" maskUnits="userSpaceOnUse" x="2" y="-100" width="178" height="322">
<g id="flap_mask-goofy">
<path d="M20.7377 52.7088C3.58602 69.8605 3.58602 97.6689 20.7377 114.821C37.8894 131.972 65.6978 131.972 82.8495 114.821C100.001 97.6689 100.001 69.8605 82.8495 52.7088C65.6978 35.5571 37.8894 35.5571 20.7377 52.7088Z" fill="#F7FCFD"/>
<path d="M50.009 109.299C32.8573 126.451 32.8573 154.259 50.009 171.411C67.1607 188.563 94.9691 188.563 112.121 171.411C129.272 154.259 129.272 126.451 112.121 109.299C94.9691 92.1475 67.1607 92.1475 50.009 109.299Z" fill="#F7FCFD"/>
<path d="M15.8594 -12.6638C-1.2923 4.48791 -1.2923 32.2963 15.8594 49.448C33.0111 66.5997 60.8195 66.5997 77.9712 49.448C95.1229 32.2963 95.1229 4.48791 77.9712 -12.6638C60.8195 -29.8155 33.0111 -29.8155 15.8594 -12.6638Z" fill="#F7FCFD"/>
<path d="M31.4706 -68.7636C14.3189 -51.6119 14.3189 -23.8035 31.4706 -6.65177C48.6223 10.4999 76.4306 10.4999 93.5823 -6.65176C110.734 -23.8035 110.734 -51.6119 93.5823 -68.7636C76.4306 -85.9152 48.6223 -85.9152 31.4706 -68.7636Z" fill="#F7FCFD"/>
<path d="M129.761 221.006C157.378 221.006 179.766 198.618 179.766 171.001L179.766 7.57057C179.766 -20.0463 157.378 -42.4343 129.761 -42.4343C102.144 -42.4343 79.7559 -20.0464 79.7559 7.57056L79.7559 171.001C79.7559 198.618 102.144 221.006 129.761 221.006Z" fill="#F7FCFD"/>
<path d="M105.368 166.855C127.327 166.855 145.128 149.054 145.128 127.096L145.128 -60.2397C145.128 -82.1985 127.327 -99.9996 105.368 -99.9996C83.4091 -99.9996 65.608 -82.1985 65.608 -60.2397L65.608 127.096C65.608 149.054 83.4091 166.855 105.368 166.855Z" fill="#F7FCFD"/>
</g>
</mask>
<g mask="url(#mask2_2292_9865)">
<g id="flap-goofy" filter="url(#filter2_d_2292_9865)">
<path d="M20.7338 52.7088C3.58212 69.8605 3.58211 97.6689 20.7338 114.821C37.8855 131.972 65.6939 131.972 82.8456 114.821C99.9973 97.6689 99.9973 69.8605 82.8456 52.7088C65.6939 35.5571 37.8855 35.5571 20.7338 52.7088Z" fill="#F7FCFD"/>
<path d="M50.0051 109.299C32.8534 126.451 32.8534 154.259 50.0051 171.411C67.1568 188.563 94.9652 188.563 112.117 171.411C129.269 154.259 129.269 126.451 112.117 109.299C94.9652 92.1475 67.1568 92.1475 50.0051 109.299Z" fill="#F7FCFD"/>
<path d="M15.8555 -12.6638C-1.29621 4.48791 -1.29621 32.2963 15.8555 49.448C33.0072 66.5997 60.8156 66.5997 77.9673 49.448C95.119 32.2963 95.119 4.48791 77.9673 -12.6638C60.8156 -29.8155 33.0072 -29.8155 15.8555 -12.6638Z" fill="#F7FCFD"/>
<path d="M31.4666 -68.7636C14.315 -51.6119 14.315 -23.8035 31.4666 -6.65177C48.6183 10.4999 76.4267 10.4999 93.5784 -6.65176C110.73 -23.8035 110.73 -51.6119 93.5784 -68.7636C76.4267 -85.9152 48.6183 -85.9152 31.4666 -68.7636Z" fill="#F7FCFD"/>
<path d="M129.757 221.006C157.374 221.006 179.762 198.618 179.762 171.001L179.762 7.57057C179.762 -20.0463 157.374 -42.4343 129.757 -42.4343C102.14 -42.4343 79.752 -20.0464 79.752 7.57056L79.752 171.001C79.752 198.618 102.14 221.006 129.757 221.006Z" fill="#F7FCFD"/>
<path d="M105.364 166.855C127.323 166.855 145.124 149.054 145.124 127.096L145.124 -60.2397C145.124 -82.1985 127.323 -99.9996 105.364 -99.9996C83.4052 -99.9996 65.6041 -82.1985 65.6041 -60.2397L65.6041 127.096C65.6041 149.054 83.4052 166.855 105.364 166.855Z" fill="#F7FCFD"/>
</g>
<rect id="shadow-copy" opacity="0.5" width="118.077" height="1357.7" transform="matrix(-0.707566 -0.706647 0.707566 -0.706647 -347.277 724.854)" fill="url(#paint1_radial_2292_9865)"/>
</g>
</g>
</g>
</g>
</g>
<defs>
<filter id="filter0_d_2292_9865" x="175.871" y="216.932" width="337.004" height="192.77" filterUnits="userSpaceOnUse" color-interpolation-filters="sRGB">
<feFlood flood-opacity="0" result="BackgroundImageFix"/>
<feColorMatrix in="SourceAlpha" type="matrix" values="0 0 0 0 0 0 0 0 0 0 0 0 0 0 0 0 0 0 127 0" result="hardAlpha"/>
<feOffset dx="4" dy="4"/>
<feGaussianBlur stdDeviation="4"/>
<feComposite in2="hardAlpha" operator="out"/>
<feColorMatrix type="matrix" values="0 0 0 0 0 0 0 0 0 0 0 0 0 0 0 0 0 0 0.3 0"/>
<feBlend mode="normal" in2="BackgroundImageFix" result="effect1_dropShadow_2292_9865"/>
<feBlend mode="normal" in="SourceGraphic" in2="effect1_dropShadow_2292_9865" result="shape"/>
</filter>
<filter id="filter1_d_2292_9865" x="-1.00391" y="-104" width="192.77" height="337.005" filterUnits="userSpaceOnUse" color-interpolation-filters="sRGB">
<feFlood flood-opacity="0" result="BackgroundImageFix"/>
<feColorMatrix in="SourceAlpha" type="matrix" values="0 0 0 0 0 0 0 0 0 0 0 0 0 0 0 0 0 0 127 0" result="hardAlpha"/>
<feOffset dx="4" dy="4"/>
<feGaussianBlur stdDeviation="4"/>
<feComposite in2="hardAlpha" operator="out"/>
<feColorMatrix type="matrix" values="0 0 0 0 0 0 0 0 0 0 0 0 0 0 0 0 0 0 0.2 0"/>
<feBlend mode="normal" in2="BackgroundImageFix" result="effect1_dropShadow_2292_9865"/>
<feBlend mode="normal" in="SourceGraphic" in2="effect1_dropShadow_2292_9865" result="shape"/>
</filter>
<filter id="filter2_d_2292_9865" x="-1.00781" y="-104" width="192.77" height="337.005" filterUnits="userSpaceOnUse" color-interpolation-filters="sRGB">
<feFlood flood-opacity="0" result="BackgroundImageFix"/>
<feColorMatrix in="SourceAlpha" type="matrix" values="0 0 0 0 0 0 0 0 0 0 0 0 0 0 0 0 0 0 127 0" result="hardAlpha"/>
<feOffset dx="4" dy="4"/>
<feGaussianBlur stdDeviation="4"/>
<feComposite in2="hardAlpha" operator="out"/>
<feColorMatrix type="matrix" values="0 0 0 0 0 0 0 0 0 0 0 0 0 0 0 0 0 0 0.3 0"/>
<feBlend mode="normal" in2="BackgroundImageFix" result="effect1_dropShadow_2292_9865"/>
<feBlend mode="normal" in="SourceGraphic" in2="effect1_dropShadow_2292_9865" result="shape"/>
</filter>
<radialGradient id="paint0_radial_2292_9865" cx="0" cy="0" r="1" gradientUnits="userSpaceOnUse" gradientTransform="translate(322.313 286.18) rotate(90) scale(329.5 59)">
<stop stop-color="white"/>
<stop offset="1" stop-color="#999999" stop-opacity="0"/>
</radialGradient>
<radialGradient id="paint1_radial_2292_9865" cx="0" cy="0" r="1" gradientUnits="userSpaceOnUse" gradientTransform="translate(59.0384 678.848) rotate(90) scale(678.848 59.0384)">
<stop offset="0.216346" stop-color="#1C1925"/>
<stop offset="1" stop-color="#999999" stop-opacity="0"/>
</radialGradient>
</defs>
</svg>
