<svg width="802" height="802" viewBox="0 0 802 802" fill="none" xmlns="http://www.w3.org/2000/svg">
<g id="mirror_label-basic">
<mask id="mask0_2290_9776" style="mask-type:alpha" maskUnits="userSpaceOnUse" x="0" y="0" width="802" height="802">
<rect id="mask-basic" x="400.93" width="567" height="567" transform="rotate(45 400.93 0)" fill="#D9D9D9"/>
</mask>
<g mask="url(#mask0_2290_9776)">
<g id="label_group-basic">
<g id="label-basic">
<g id="base-basic" filter="url(#filter0_d_2290_9776)">
<rect x="342.98" y="212.991" width="271" height="231" fill="#FF6249"/>
</g>
<g id="content-basic">
<g id="Group 362">
<rect id="Rectangle 107" x="364.98" y="324.991" width="228" height="97" fill="#1B1B1B"/>
<path id="BASIC" d="M418.46 389.943C424.374 389.943 426.323 388.465 426.323 381.409C426.323 375.361 424.172 372.942 418.326 372.942C416.377 372.942 413.958 373.009 411.539 373.009C411.539 378.586 411.539 385.038 411.673 389.809C414.294 389.943 416.579 389.943 418.46 389.943ZM425.852 359.3C425.852 352.647 423.836 351.303 418.393 351.303C416.377 351.303 414.092 351.37 411.606 351.438C411.539 355.806 411.539 362.122 411.539 367.834C413.958 367.902 416.377 367.902 418.192 367.902C423.769 367.834 425.852 365.281 425.852 359.3ZM424.24 370.455V370.791C425.852 370.926 427.196 371.127 428.204 371.598C431.699 373.143 433.312 376.503 433.312 382.551C433.312 392.43 429.28 395.991 420.073 395.991H404.348C404.617 389.338 404.617 381.543 404.617 370.791C404.617 360.106 404.617 351.908 404.348 345.591H419.737C428.742 345.591 432.774 348.682 432.774 358.762C432.774 364.542 431.497 367.431 428.54 369.246C427.465 369.85 425.987 370.186 424.24 370.455ZM453.946 349.69H453.677C453.207 352.042 452.535 355.402 451.393 360.241C450.385 365.415 449.041 371.665 447.831 377.578C449.914 377.646 452.199 377.646 453.812 377.646C455.492 377.646 457.709 377.646 459.86 377.578C458.583 371.598 457.239 365.214 456.164 360.039C455.089 355.402 454.417 352.042 453.946 349.69ZM471.418 395.991H463.354C463.085 393.908 462.212 389.002 461.002 383.156C458.449 383.156 455.828 383.156 453.812 383.156C451.93 383.156 449.175 383.156 446.689 383.156C445.479 388.868 444.538 393.639 444.135 395.991H436.676C439.7 384.298 447.092 351.505 448.436 345.591H459.389C460.868 351.572 468.125 383.761 471.418 395.991ZM488.585 390.682C493.625 390.682 495.574 388.532 495.574 384.298C495.574 379.662 493.692 376.033 486.972 373.345C477.632 369.582 474.473 364.743 474.473 357.015C474.473 349.287 479.043 344.852 487.98 344.852C497.724 344.852 501.756 349.287 501.756 358.09C501.756 359.703 501.689 360.913 501.622 362.593C500.816 362.526 499.673 362.526 498.464 362.526C497.187 362.526 495.977 362.593 495.104 362.593C495.171 361.182 495.238 359.636 495.238 358.426C495.238 353.319 493.222 350.9 488.048 350.9C483.545 350.9 481.395 352.916 481.395 357.015C481.395 361.114 482.604 364.542 489.66 367.431C498.262 370.858 502.227 375.898 502.227 383.895C502.227 391.892 497.859 396.73 488.585 396.73C478.169 396.73 474.003 391.623 474.003 383.29C474.003 381.274 474.07 380.266 474.137 378.721C475.011 378.788 476.153 378.855 477.43 378.855C478.841 378.855 480.118 378.855 481.126 378.788C481.059 379.93 481.059 381.207 481.059 382.081C481.059 388.398 483.209 390.682 488.585 390.682ZM516.808 395.991H509.416C509.55 389.54 509.55 381.543 509.55 370.791C509.55 360.039 509.55 351.975 509.416 345.591H516.808C516.606 351.975 516.606 359.972 516.606 370.791C516.606 381.409 516.606 389.473 516.808 395.991ZM550.153 366.154H546.793C546.86 364.743 546.86 363.265 546.86 362.324C546.86 353.857 544.172 351.37 539.334 351.37C534.159 351.37 530.934 354.73 530.934 370.388C530.934 386.314 534.227 390.145 539.535 390.145C544.71 390.145 546.995 386.449 546.995 378.721C546.995 377.646 546.995 376.57 546.927 375.428C548.137 375.495 549.212 375.495 550.422 375.495C551.564 375.495 552.707 375.495 553.916 375.428V378.654C553.916 390.145 549.078 396.663 539.603 396.663C529.724 396.663 523.676 390.01 523.676 370.522C523.676 352.042 528.985 344.919 539.67 344.919C549.884 344.919 553.782 351.37 553.782 361.585C553.782 363.13 553.715 364.609 553.647 366.154H550.153Z" fill="#F7FCFD"/>
</g>
<path id="F*cking" d="M382.676 258.383V268.495V270.031C387.284 270.031 391.892 269.967 395.796 269.839C395.732 272.463 395.732 277.711 395.732 280.399C391.892 280.399 387.284 280.335 382.74 280.335C382.804 285.327 382.932 290.383 383.124 294.991H371.86C371.924 288.399 371.988 281.167 371.988 270.991C371.988 260.815 371.988 253.711 371.86 246.991H396.18C396.116 248.527 396.052 250.831 396.052 252.815C396.052 254.799 396.116 257.039 396.116 258.511C391.38 258.447 386.58 258.383 382.676 258.383ZM431.012 258.639V268.303C429.284 268.175 425.316 267.983 421.156 267.919C423.78 272.911 427.236 278.735 428.324 280.783C425.572 282.447 423.332 283.855 420.644 285.583C419.812 283.599 416.996 277.583 414.628 272.463C412.324 277.519 409.508 283.599 408.676 285.583C405.988 283.855 403.684 282.511 400.932 280.911C402.084 278.863 405.604 272.975 408.292 267.919C404.26 268.047 400.484 268.175 398.82 268.303V258.639C400.74 258.767 405.476 258.831 410.148 258.831C410.084 253.711 409.956 248.079 409.828 246.159C413.476 246.223 415.78 246.223 419.62 246.159C419.492 248.207 419.172 253.711 419.044 258.831C423.972 258.831 429.092 258.767 431.012 258.639ZM453.801 267.215C453.865 265.679 453.865 264.399 453.865 263.439C453.865 257.359 452.329 255.887 449.513 255.887C446.313 255.887 444.649 257.743 444.649 270.351C444.649 283.215 446.313 285.327 449.641 285.327C452.585 285.327 453.993 282.895 453.993 277.455C453.993 276.495 453.929 275.407 453.865 274.255C455.657 274.319 457.321 274.319 459.049 274.319C460.777 274.319 462.505 274.319 464.297 274.255C464.297 275.407 464.361 276.559 464.361 278.095C464.361 290.063 459.433 295.631 449.513 295.631C438.825 295.631 433.769 289.615 433.769 270.415C433.769 252.367 438.505 246.351 449.641 246.351C460.329 246.351 464.233 251.471 464.233 262.031C464.233 263.823 464.169 265.487 464.105 267.215C462.377 267.151 460.585 267.151 458.857 267.151C457.129 267.151 455.529 267.151 453.801 267.215ZM488.569 246.991H500.473C497.721 253.327 493.497 265.487 489.337 271.247C491.321 272.847 492.729 275.343 494.073 278.415C497.657 286.159 499.577 292.559 500.665 294.991H489.913C488.569 294.991 487.993 294.607 487.545 293.327C485.561 287.311 482.745 279.567 480.377 275.215H479.865C479.865 282.511 479.929 289.487 480.057 294.991H468.985C469.113 288.399 469.177 281.231 469.177 270.991C469.177 260.751 469.113 253.455 468.985 246.991H480.057C479.929 252.943 479.865 261.327 479.865 269.007H480.121C481.337 266.831 482.489 264.527 483.577 262.159C486.009 255.695 487.609 250.447 488.569 246.991ZM514.059 294.991H502.923C503.051 288.463 503.051 281.167 503.051 270.991C503.051 260.751 503.051 253.455 502.923 246.991H514.059C513.931 253.391 513.931 260.687 513.931 270.927C513.931 281.103 513.931 288.399 514.059 294.991ZM541.046 246.991H550.39C550.326 250.831 550.198 260.751 550.198 270.927C550.198 281.615 550.198 288.847 550.326 294.991H539.19C537.846 290.639 534.646 281.871 531.702 274.511C530.422 270.415 529.462 266.127 528.63 261.839H528.502C528.822 266.959 529.014 271.503 529.078 275.599C529.142 285.583 529.206 292.303 529.27 294.991H519.798C519.798 288.655 519.862 281.231 519.862 270.991C519.862 260.815 519.862 253.199 519.798 246.991H532.15C532.982 250.255 536.63 259.791 539.382 268.367C540.406 271.439 541.238 275.151 541.942 278.927L542.006 278.863C541.686 274.511 541.494 270.415 541.43 266.575C541.43 259.919 541.238 251.407 541.046 246.991ZM575.63 276.687L570.254 276.751C570.318 275.919 570.318 273.935 570.318 272.911C570.318 271.311 570.318 269.839 570.254 268.815C572.686 268.879 575.182 268.879 577.038 268.879C579.342 268.879 582.414 268.879 585.486 268.751C586.254 287.823 584.014 295.631 570.83 295.631C559.502 295.631 554.83 288.399 554.83 270.415C554.766 252.559 559.694 246.351 571.086 246.351C582.094 246.351 585.742 251.855 585.742 261.007C585.742 262.095 585.742 263.183 585.614 264.399C584.27 264.335 582.35 264.271 580.366 264.271C578.318 264.271 576.462 264.335 575.118 264.399C575.182 263.439 575.182 262.543 575.182 261.839C575.182 256.975 573.71 255.375 571.022 255.375C567.31 255.375 565.582 258.063 565.582 270.479C565.582 282.895 567.054 286.287 571.214 286.287C574.478 286.287 575.566 284.111 575.63 276.687Z" fill="#1B1B1B"/>
</g>
<mask id="mask1_2290_9776" style="mask-type:alpha" maskUnits="userSpaceOnUse" x="342" y="212" width="272" height="232">
<rect id="highlight_mask-basic" x="342.98" y="212.991" width="271" height="231" fill="#FF6249"/>
</mask>
<g mask="url(#mask1_2290_9776)">
<rect id="highlight-untitled" opacity="0.4" x="464.707" y="7.8418" width="118" height="659" transform="rotate(-8.37551 464.707 7.8418)" fill="url(#paint0_radial_2290_9776)"/>
</g>
</g>
<g id="flap_group-basic" filter="url(#filter1_d_2290_9776)">
<mask id="mask2_2290_9776" style="mask-type:alpha" maskUnits="userSpaceOnUse" x="613" y="-59" width="232" height="272">
<rect id="flap_mask-basic" width="271" height="231" transform="matrix(-4.37114e-08 1 1 4.37114e-08 613.98 -58.0083)" fill="#F7FCFD"/>
</mask>
<g mask="url(#mask2_2290_9776)">
<rect id="flap-basic" width="271" height="231" transform="matrix(-4.37114e-08 1 1 4.37114e-08 613.98 -58.0083)" fill="#F7FCFD"/>
<rect id="shadow-rest" opacity="0.5" width="117.853" height="1355.12" transform="matrix(-0.707107 0.707107 -0.708868 -0.705341 1184.94 607.825)" fill="url(#paint1_radial_2290_9776)"/>
</g>
</g>
</g>
</g>
</g>
<defs>
<filter id="filter0_d_2290_9776" x="330.98" y="208.991" width="287" height="247" filterUnits="userSpaceOnUse" color-interpolation-filters="sRGB">
<feFlood flood-opacity="0" result="BackgroundImageFix"/>
<feColorMatrix in="SourceAlpha" type="matrix" values="0 0 0 0 0 0 0 0 0 0 0 0 0 0 0 0 0 0 127 0" result="hardAlpha"/>
<feOffset dx="-4" dy="4"/>
<feGaussianBlur stdDeviation="4"/>
<feComposite in2="hardAlpha" operator="out"/>
<feColorMatrix type="matrix" values="0 0 0 0 0 0 0 0 0 0 0 0 0 0 0 0 0 0 0.3 0"/>
<feBlend mode="normal" in2="BackgroundImageFix" result="effect1_dropShadow_2290_9776"/>
<feBlend mode="normal" in="SourceGraphic" in2="effect1_dropShadow_2290_9776" result="shape"/>
</filter>
<filter id="filter1_d_2290_9776" x="601.98" y="-62.0083" width="247" height="287" filterUnits="userSpaceOnUse" color-interpolation-filters="sRGB">
<feFlood flood-opacity="0" result="BackgroundImageFix"/>
<feColorMatrix in="SourceAlpha" type="matrix" values="0 0 0 0 0 0 0 0 0 0 0 0 0 0 0 0 0 0 127 0" result="hardAlpha"/>
<feOffset dx="-4" dy="4"/>
<feGaussianBlur stdDeviation="4"/>
<feComposite in2="hardAlpha" operator="out"/>
<feColorMatrix type="matrix" values="0 0 0 0 0 0 0 0 0 0 0 0 0 0 0 0 0 0 0.2 0"/>
<feBlend mode="normal" in2="BackgroundImageFix" result="effect1_dropShadow_2290_9776"/>
<feBlend mode="normal" in="SourceGraphic" in2="effect1_dropShadow_2290_9776" result="shape"/>
</filter>
<radialGradient id="paint0_radial_2290_9776" cx="0" cy="0" r="1" gradientUnits="userSpaceOnUse" gradientTransform="translate(523.707 337.342) rotate(90) scale(329.5 59)">
<stop stop-color="white"/>
<stop offset="1" stop-color="#999999" stop-opacity="0"/>
</radialGradient>
<radialGradient id="paint1_radial_2290_9776" cx="0" cy="0" r="1" gradientUnits="userSpaceOnUse" gradientTransform="translate(58.9266 677.562) rotate(90) scale(677.562 58.9266)">
<stop offset="0.216346" stop-color="#1C1925"/>
<stop offset="1" stop-color="#999999" stop-opacity="0"/>
</radialGradient>
</defs>
</svg>
