<svg width="567" height="567" viewBox="0 0 567 567" fill="none" xmlns="http://www.w3.org/2000/svg">
<g id="mirror_label-zen">
<mask id="mask0_2398_21048" style="mask-type:alpha" maskUnits="userSpaceOnUse" x="0" y="0" width="567" height="567">
<rect id="mask-zen" x="567" y="567" width="567" height="567" transform="rotate(-180 567 567)" fill="#D9D9D9"/>
</mask>
<g mask="url(#mask0_2398_21048)">
<g id="label_group-zen">
<g id="label-zen">
<g id="base-zen" filter="url(#filter0_d_2398_21048)">
<path d="M249.802 380.358C249.802 362.718 264.103 348.417 281.743 348.417C299.383 348.417 313.683 362.718 313.683 380.358V540.059C313.683 557.699 299.383 571.999 281.743 571.999C264.103 571.999 249.802 557.699 249.802 540.059V380.358Z" fill="#D4F75F"/>
<path d="M361.595 428.268C379.235 428.268 393.535 442.568 393.535 460.209C393.535 477.849 379.235 492.149 361.595 492.149H201.893C184.253 492.149 169.953 477.849 169.953 460.208C169.953 442.568 184.253 428.268 201.893 428.268L361.595 428.268Z" fill="#D4F75F"/>
<path d="M360.793 494.086C373.267 506.56 373.267 526.783 360.793 539.257C348.32 551.73 328.096 551.73 315.623 539.257L202.697 426.331C190.223 413.857 190.223 393.634 202.697 381.16C215.17 368.687 235.394 368.687 247.867 381.16L360.793 494.086Z" fill="#D4F75F"/>
<path d="M247.865 539.257C235.392 551.731 215.169 551.731 202.695 539.257C190.222 526.784 190.222 506.56 202.695 494.087L315.621 381.161C328.094 368.687 348.318 368.687 360.791 381.161C373.265 393.634 373.265 413.858 360.791 426.331L247.865 539.257Z" fill="#D4F75F"/>
<path d="M203.162 344.208H357.984V389.578H203.162V344.208Z" fill="#5756D6"/>
</g>
<g id="content-zen">
<path id="VIBES" d="M239.803 496.054H248.733C246.595 501.169 242.509 513.075 241.508 516.349C239.857 516.322 237.611 516.295 235.095 516.295C231.901 516.295 229.791 516.322 228.492 516.349C227.491 513.102 223.269 501.087 221.05 496.054H230.603C230.927 497.894 232.713 503.793 234.202 508.258C234.607 509.341 234.905 510.369 235.176 511.262C235.446 510.369 235.771 509.368 236.15 508.258C237.557 503.82 239.397 497.921 239.803 496.054ZM258.972 516.349H250.313C250.394 513.318 250.394 510.504 250.394 506.202C250.394 501.899 250.394 499.058 250.313 496.054H258.972C258.891 499.031 258.891 501.845 258.891 506.175C258.891 510.45 258.918 513.291 258.972 516.349ZM276.715 511.641C278.555 511.641 279.285 511.181 279.285 509.665C279.285 508.285 278.5 507.798 276.579 507.798C274.902 507.798 272.899 507.825 270.788 507.879C270.788 509.205 270.815 510.477 270.843 511.587C273.143 511.641 275.01 511.641 276.715 511.641ZM279.177 502.143C279.177 500.79 278.419 500.33 276.687 500.33C274.874 500.33 272.953 500.357 270.815 500.384C270.788 501.493 270.788 502.792 270.788 504.199C272.953 504.253 274.847 504.226 276.552 504.226C278.338 504.199 279.177 503.604 279.177 502.143ZM282.289 506.093V506.256C283.074 506.31 283.777 506.391 284.318 506.553C286.835 507.23 287.728 508.583 287.728 511.018C287.728 514.834 285.428 516.349 280.097 516.349H262.454C262.589 513.481 262.616 510.504 262.616 506.202C262.616 501.899 262.589 498.841 262.454 496.054H279.745C284.643 496.054 287.457 497.407 287.457 501.385C287.457 503.766 286.7 504.903 284.589 505.66C283.994 505.877 283.209 506.012 282.289 506.093ZM290.482 496.054H312.346C312.319 496.65 312.292 497.678 312.292 498.517C312.292 499.383 312.292 500.492 312.346 501.114C308.179 501.087 302.659 501.06 299.06 501.06V503.793C303.227 503.793 308.72 503.793 312.076 503.712C312.049 504.74 312.049 507.068 312.049 508.177C308.775 508.123 303.2 508.069 299.06 508.069V510.91C302.686 510.91 308.531 510.883 312.346 510.856C312.319 511.532 312.319 512.696 312.319 513.697C312.319 514.563 312.319 515.646 312.346 516.349H290.482C290.59 513.589 290.59 510.531 290.59 506.202C290.59 501.899 290.59 498.76 290.482 496.054ZM322.607 509.665V509.99C322.607 511.397 323.581 511.965 326.963 511.965C330.454 511.965 331.131 511.451 331.131 510.531C331.131 509.476 330.562 508.799 325.448 508.448C317.005 507.798 315.057 505.823 315.057 502.034C315.057 497.732 318.494 495.567 326.99 495.567C336.38 495.567 339.059 497.38 339.059 501.412C339.059 501.818 339.059 502.224 339.032 502.657C337.977 502.576 336.164 502.522 334.621 502.522C333.458 502.522 332.348 502.549 331.672 502.576C331.699 502.413 331.699 502.224 331.699 502.089C331.699 500.925 330.995 500.357 327.288 500.357C324.095 500.357 323.391 500.844 323.391 501.656C323.391 502.603 323.879 503.225 329.426 503.712C337.084 504.389 339.465 506.039 339.465 510.288C339.465 514.644 336.434 516.836 327.369 516.836C317.898 516.836 315.003 515.023 315.003 510.991C315.003 510.531 315.03 510.044 315.084 509.53C316.329 509.638 318.115 509.747 319.82 509.747C320.875 509.747 321.849 509.719 322.607 509.665Z" fill="#1B1B1B"/>
<path id="ZEN" d="M234.604 466.207L234.696 466.299C237.454 466.115 240.212 466.115 242.603 466.115C248.855 466.115 252.532 466.024 255.658 465.84C255.566 468.598 255.566 472.184 255.566 474.298C255.566 476.505 255.566 478.803 255.658 481.653H216.124C216.216 479.079 216.216 476.597 216.216 474.39C216.216 471.356 216.216 468.23 216.124 466.575C218.79 462.99 226.329 448.463 232.306 438.442C234.328 434.856 236.443 431.178 238.282 428.328L238.19 427.869C235.432 428.144 232.489 428.144 229.363 428.144C222.468 428.144 219.434 428.144 216.308 428.236C216.4 425.754 216.492 422.444 216.492 420.329C216.492 418.123 216.492 415.273 216.4 412.698H255.566C255.566 415.273 255.474 417.571 255.474 419.87C255.474 422.26 255.474 425.938 255.566 428.144C252.716 432.098 246.648 445.337 240.672 455.45C238.282 459.588 236.443 463.173 234.604 466.207ZM261.085 412.698H297.217C297.125 414.353 297.125 417.295 297.125 419.594C297.125 422.076 297.125 425.386 297.217 427.133C289.77 427.041 282.415 426.949 276.531 426.949V440.005C283.61 440.005 290.598 440.005 296.574 439.821C296.574 442.763 296.482 449.566 296.574 452.876C290.689 452.692 283.61 452.6 276.531 452.6V466.299C282.507 466.299 290.138 466.207 297.217 466.115C297.125 468.046 297.125 471.356 297.125 474.114C297.125 476.505 297.125 479.723 297.217 481.653H261.085C261.361 472.459 261.361 461.886 261.361 447.176C261.361 432.557 261.361 421.341 261.085 412.698ZM333.32 412.698H346.743C346.651 418.215 346.468 432.466 346.468 447.084C346.468 462.438 346.468 472.827 346.651 481.653H330.654C328.723 475.401 324.126 462.806 319.897 452.233C318.058 446.348 316.679 440.188 315.484 434.028H315.3C315.76 441.384 316.035 447.911 316.127 453.796C316.219 468.138 316.311 477.792 316.403 481.653H302.796C302.796 472.551 302.888 461.886 302.888 447.176C302.888 432.557 302.888 421.617 302.796 412.698H320.54C321.736 417.387 326.976 431.086 330.93 443.406C332.401 447.819 333.596 453.152 334.607 458.576L334.699 458.484C334.24 452.233 333.964 446.348 333.872 440.832C333.872 431.27 333.596 419.042 333.32 412.698Z" fill="#1B1B1B"/>
<path id="ZZZZZZZZ" d="M233.462 380.998H220.512C220.544 380.495 220.544 380.087 220.544 379.678C220.544 379.112 220.544 378.452 220.512 378.106C221.33 376.912 224.881 369.745 227.176 365.376C228.056 363.71 229.093 361.699 229.879 360.378L229.848 360.315C228.905 360.378 227.836 360.378 226.61 360.378C223.153 360.378 221.832 360.41 220.638 360.441C220.638 359.97 220.669 359.278 220.669 358.901C220.669 358.461 220.669 357.895 220.638 357.424H233.431C233.431 357.927 233.4 358.367 233.4 358.807C233.4 359.247 233.4 360.001 233.431 360.347C232.582 361.667 229.565 368.111 227.113 372.7C226.013 374.712 225.227 376.566 224.441 377.981L224.473 378.043C225.384 378.012 226.327 377.981 227.176 378.012C230.036 378.012 232.237 377.949 233.431 377.886C233.4 378.483 233.4 379.238 233.4 379.646C233.4 380.055 233.431 380.495 233.462 380.998ZM249.271 380.998H236.321C236.352 380.495 236.352 380.087 236.352 379.678C236.352 379.112 236.352 378.452 236.321 378.106C237.138 376.912 240.69 369.745 242.984 365.376C243.864 363.71 244.902 361.699 245.687 360.378L245.656 360.315C244.713 360.378 243.644 360.378 242.419 360.378C238.961 360.378 237.641 360.41 236.446 360.441C236.446 359.97 236.478 359.278 236.478 358.901C236.478 358.461 236.478 357.895 236.446 357.424H249.239C249.239 357.927 249.208 358.367 249.208 358.807C249.208 359.247 249.208 360.001 249.239 360.347C248.391 361.667 245.373 368.111 242.921 372.7C241.821 374.712 241.035 376.566 240.25 377.981L240.281 378.043C241.193 378.012 242.136 377.981 242.984 378.012C245.845 378.012 248.045 377.949 249.239 377.886C249.208 378.483 249.208 379.238 249.208 379.646C249.208 380.055 249.239 380.495 249.271 380.998ZM265.079 380.998H252.129C252.16 380.495 252.16 380.087 252.16 379.678C252.16 379.112 252.16 378.452 252.129 378.106C252.946 376.912 256.498 369.745 258.793 365.376C259.673 363.71 260.71 361.699 261.496 360.378L261.464 360.315C260.521 360.378 259.453 360.378 258.227 360.378C254.769 360.378 253.449 360.41 252.255 360.441C252.255 359.97 252.286 359.278 252.286 358.901C252.286 358.461 252.286 357.895 252.255 357.424H265.048C265.048 357.927 265.016 358.367 265.016 358.807C265.016 359.247 265.016 360.001 265.048 360.347C264.199 361.667 261.181 368.111 258.73 372.7C257.63 374.712 256.844 376.566 256.058 377.981L256.089 378.043C257.001 378.012 257.944 377.981 258.793 378.012C261.653 378.012 263.853 377.949 265.048 377.886C265.016 378.483 265.016 379.238 265.016 379.646C265.016 380.055 265.048 380.495 265.079 380.998ZM280.887 380.998H267.937C267.969 380.495 267.969 380.087 267.969 379.678C267.969 379.112 267.969 378.452 267.937 378.106C268.754 376.912 272.306 369.745 274.601 365.376C275.481 363.71 276.518 361.699 277.304 360.378L277.273 360.315C276.33 360.378 275.261 360.378 274.035 360.378C270.578 360.378 269.257 360.41 268.063 360.441C268.063 359.97 268.094 359.278 268.094 358.901C268.094 358.461 268.094 357.895 268.063 357.424H280.856C280.856 357.927 280.825 358.367 280.825 358.807C280.825 359.247 280.825 360.001 280.856 360.347C280.007 361.667 276.99 368.111 274.538 372.7C273.438 374.712 272.652 376.566 271.866 377.981L271.898 378.043C272.809 378.012 273.752 377.981 274.601 378.012C277.461 378.012 279.662 377.949 280.856 377.886C280.825 378.483 280.825 379.238 280.825 379.646C280.825 380.055 280.856 380.495 280.887 380.998ZM296.696 380.998H283.746C283.777 380.495 283.777 380.087 283.777 379.678C283.777 379.112 283.777 378.452 283.746 378.106C284.563 376.912 288.115 369.745 290.409 365.376C291.289 363.71 292.327 361.699 293.112 360.378L293.081 360.315C292.138 360.378 291.069 360.378 289.843 360.378C286.386 360.378 285.066 360.41 283.871 360.441C283.871 359.97 283.903 359.278 283.903 358.901C283.903 358.461 283.903 357.895 283.871 357.424H296.664C296.664 357.927 296.633 358.367 296.633 358.807C296.633 359.247 296.633 360.001 296.664 360.347C295.816 361.667 292.798 368.111 290.346 372.7C289.246 374.712 288.46 376.566 287.675 377.981L287.706 378.043C288.618 378.012 289.561 377.981 290.409 378.012C293.27 378.012 295.47 377.949 296.664 377.886C296.633 378.483 296.633 379.238 296.633 379.646C296.633 380.055 296.664 380.495 296.696 380.998ZM312.504 380.998H299.554C299.585 380.495 299.585 380.087 299.585 379.678C299.585 379.112 299.585 378.452 299.554 378.106C300.371 376.912 303.923 369.745 306.218 365.376C307.098 363.71 308.135 361.699 308.921 360.378L308.889 360.315C307.946 360.378 306.878 360.378 305.652 360.378C302.194 360.378 300.874 360.41 299.68 360.441C299.68 359.97 299.711 359.278 299.711 358.901C299.711 358.461 299.711 357.895 299.68 357.424H312.473C312.473 357.927 312.441 358.367 312.441 358.807C312.441 359.247 312.441 360.001 312.473 360.347C311.624 361.667 308.606 368.111 306.155 372.7C305.055 374.712 304.269 376.566 303.483 377.981L303.514 378.043C304.426 378.012 305.369 377.981 306.218 378.012C309.078 378.012 311.278 377.949 312.473 377.886C312.441 378.483 312.441 379.238 312.441 379.646C312.441 380.055 312.473 380.495 312.504 380.998ZM328.312 380.998H315.362C315.394 380.495 315.394 380.087 315.394 379.678C315.394 379.112 315.394 378.452 315.362 378.106C316.179 376.912 319.731 369.745 322.026 365.376C322.906 363.71 323.943 361.699 324.729 360.378L324.698 360.315C323.755 360.378 322.686 360.378 321.46 360.378C318.003 360.378 316.682 360.41 315.488 360.441C315.488 359.97 315.519 359.278 315.519 358.901C315.519 358.461 315.519 357.895 315.488 357.424H328.281C328.281 357.927 328.249 358.367 328.249 358.807C328.249 359.247 328.249 360.001 328.281 360.347C327.432 361.667 324.415 368.111 321.963 372.7C320.863 374.712 320.077 376.566 319.291 377.981L319.323 378.043C320.234 378.012 321.177 377.981 322.026 378.012C324.886 378.012 327.086 377.949 328.281 377.886C328.249 378.483 328.249 379.238 328.249 379.646C328.249 380.055 328.281 380.495 328.312 380.998ZM344.121 380.998H331.171C331.202 380.495 331.202 380.087 331.202 379.678C331.202 379.112 331.202 378.452 331.171 378.106C331.988 376.912 335.54 369.745 337.834 365.376C338.714 363.71 339.752 361.699 340.537 360.378L340.506 360.315C339.563 360.378 338.494 360.378 337.268 360.378C333.811 360.378 332.491 360.41 331.296 360.441C331.296 359.97 331.328 359.278 331.328 358.901C331.328 358.461 331.328 357.895 331.296 357.424H344.089C344.089 357.927 344.058 358.367 344.058 358.807C344.058 359.247 344.058 360.001 344.089 360.347C343.241 361.667 340.223 368.111 337.771 372.7C336.671 374.712 335.885 376.566 335.1 377.981L335.131 378.043C336.043 378.012 336.986 377.981 337.834 378.012C340.695 378.012 342.895 377.949 344.089 377.886C344.058 378.483 344.058 379.238 344.058 379.646C344.058 380.055 344.089 380.495 344.121 380.998Z" fill="#F7FCFD"/>
</g>
<mask id="mask1_2398_21048" style="mask-type:alpha" maskUnits="userSpaceOnUse" x="169" y="344" width="225" height="228">
<g id="highlight_mask-zen">
<path d="M249.802 380.358C249.802 362.718 264.103 348.417 281.743 348.417C299.383 348.417 313.683 362.718 313.683 380.358V540.059C313.683 557.699 299.383 571.999 281.743 571.999C264.103 571.999 249.802 557.699 249.802 540.059V380.358Z" fill="#D4F75F"/>
<path d="M361.595 428.268C379.235 428.268 393.535 442.568 393.535 460.209C393.535 477.849 379.235 492.149 361.595 492.149H201.893C184.253 492.149 169.953 477.849 169.953 460.208C169.953 442.568 184.253 428.268 201.893 428.268L361.595 428.268Z" fill="#D4F75F"/>
<path d="M360.793 494.086C373.267 506.56 373.267 526.783 360.793 539.257C348.32 551.73 328.096 551.73 315.623 539.257L202.697 426.331C190.223 413.857 190.223 393.634 202.697 381.16C215.17 368.687 235.394 368.687 247.867 381.16L360.793 494.086Z" fill="#D4F75F"/>
<path d="M247.865 539.257C235.392 551.731 215.169 551.731 202.695 539.257C190.222 526.784 190.222 506.56 202.695 494.087L315.621 381.161C328.094 368.687 348.318 368.687 360.791 381.161C373.265 393.634 373.265 413.858 360.791 426.331L247.865 539.257Z" fill="#D4F75F"/>
<path d="M203.162 344.208H357.984V389.578H203.162V344.208Z" fill="#5756D6"/>
</g>
</mask>
<g mask="url(#mask1_2398_21048)">
<rect id="highlight-zen" opacity="0.4" width="117.993" height="656.477" transform="matrix(0.992561 -0.121747 0.122685 0.992446 224.016 115.368)" fill="url(#paint0_radial_2398_21048)"/>
</g>
</g>
<g id="flap_group-zen" filter="url(#filter1_d_2398_21048)">
<mask id="mask2_2398_21048" style="mask-type:alpha" maskUnits="userSpaceOnUse" x="169" y="562" width="225" height="228">
<g id="flap_mask-zen">
<path d="M249.818 753.642C249.818 771.282 264.118 785.582 281.758 785.582C299.399 785.582 313.699 771.282 313.699 753.642L313.699 593.94C313.699 576.3 299.399 562 281.758 562C264.118 562 249.818 576.3 249.818 593.94L249.818 753.642Z" fill="#F7FCFD"/>
<path d="M361.611 705.731C379.251 705.731 393.551 691.431 393.551 673.791C393.551 656.151 379.251 641.851 361.611 641.851L201.909 641.851C184.269 641.851 169.969 656.151 169.969 673.791C169.969 691.431 184.269 705.731 201.909 705.731L361.611 705.731Z" fill="#F7FCFD"/>
<path d="M360.809 639.913C373.282 627.44 373.282 607.216 360.809 594.743C348.335 582.269 328.112 582.269 315.638 594.743L202.712 707.669C190.239 720.142 190.239 740.366 202.712 752.839C215.186 765.313 235.409 765.313 247.883 752.839L360.809 639.913Z" fill="#F7FCFD"/>
<path d="M247.881 594.742C235.408 582.269 215.184 582.269 202.711 594.742C190.237 607.216 190.237 627.439 202.711 639.913L315.637 752.839C328.11 765.312 348.334 765.312 360.807 752.839C373.281 740.365 373.281 720.142 360.807 707.668L247.881 594.742Z" fill="#F7FCFD"/>
<path d="M203.178 789.792L358 789.792L358 744.421L203.178 744.421L203.178 789.792Z" fill="#F7FCFD"/>
</g>
</mask>
<g mask="url(#mask2_2398_21048)">
<g id="flap-zen">
<path d="M249.818 753.642C249.818 771.282 264.118 785.582 281.758 785.582C299.399 785.582 313.699 771.282 313.699 753.642L313.699 593.94C313.699 576.3 299.399 562 281.758 562C264.118 562 249.818 576.3 249.818 593.94L249.818 753.642Z" fill="#F7FCFD"/>
<path d="M361.611 705.731C379.251 705.731 393.551 691.431 393.551 673.791C393.551 656.151 379.251 641.851 361.611 641.851L201.909 641.851C184.269 641.851 169.969 656.151 169.969 673.791C169.969 691.431 184.269 705.731 201.909 705.731L361.611 705.731Z" fill="#F7FCFD"/>
<path d="M360.809 639.913C373.282 627.44 373.282 607.216 360.809 594.743C348.335 582.269 328.112 582.269 315.638 594.743L202.712 707.669C190.239 720.142 190.239 740.366 202.712 752.839C215.186 765.313 235.409 765.313 247.883 752.839L360.809 639.913Z" fill="#F7FCFD"/>
<path d="M247.881 594.742C235.408 582.269 215.184 582.269 202.711 594.742C190.237 607.216 190.237 627.439 202.711 639.913L315.637 752.839C328.11 765.312 348.334 765.312 360.807 752.839C373.281 740.365 373.281 720.142 360.807 707.668L247.881 594.742Z" fill="#F7FCFD"/>
<path d="M203.178 789.792L358 789.792L358 744.421L203.178 744.421L203.178 789.792Z" fill="#F7FCFD"/>
</g>
<rect id="shadow-zen" opacity="0.5" width="117.29" height="1348.64" transform="matrix(-4.37114e-08 1 -0.999983 -0.00583047 956.633 558.863)" fill="url(#paint1_radial_2398_21048)"/>
</g>
</g>
</g>
</g>
</g>
<defs>
<filter id="filter0_d_2398_21048" x="165.953" y="336.208" width="239.582" height="243.792" filterUnits="userSpaceOnUse" color-interpolation-filters="sRGB">
<feFlood flood-opacity="0" result="BackgroundImageFix"/>
<feColorMatrix in="SourceAlpha" type="matrix" values="0 0 0 0 0 0 0 0 0 0 0 0 0 0 0 0 0 0 127 0" result="hardAlpha"/>
<feOffset dx="4"/>
<feGaussianBlur stdDeviation="4"/>
<feComposite in2="hardAlpha" operator="out"/>
<feColorMatrix type="matrix" values="0 0 0 0 0 0 0 0 0 0 0 0 0 0 0 0 0 0 0.3 0"/>
<feBlend mode="normal" in2="BackgroundImageFix" result="effect1_dropShadow_2398_21048"/>
<feBlend mode="normal" in="SourceGraphic" in2="effect1_dropShadow_2398_21048" result="shape"/>
</filter>
<filter id="filter1_d_2398_21048" x="165.969" y="554" width="239.582" height="243.792" filterUnits="userSpaceOnUse" color-interpolation-filters="sRGB">
<feFlood flood-opacity="0" result="BackgroundImageFix"/>
<feColorMatrix in="SourceAlpha" type="matrix" values="0 0 0 0 0 0 0 0 0 0 0 0 0 0 0 0 0 0 127 0" result="hardAlpha"/>
<feOffset dx="4"/>
<feGaussianBlur stdDeviation="4"/>
<feComposite in2="hardAlpha" operator="out"/>
<feColorMatrix type="matrix" values="0 0 0 0 0 0 0 0 0 0 0 0 0 0 0 0 0 0 0.2 0"/>
<feBlend mode="normal" in2="BackgroundImageFix" result="effect1_dropShadow_2398_21048"/>
<feBlend mode="normal" in="SourceGraphic" in2="effect1_dropShadow_2398_21048" result="shape"/>
</filter>
<radialGradient id="paint0_radial_2398_21048" cx="0" cy="0" r="1" gradientUnits="userSpaceOnUse" gradientTransform="translate(58.9966 328.239) rotate(90) scale(328.239 58.9966)">
<stop stop-color="white"/>
<stop offset="1" stop-color="#999999" stop-opacity="0"/>
</radialGradient>
<radialGradient id="paint1_radial_2398_21048" cx="0" cy="0" r="1" gradientUnits="userSpaceOnUse" gradientTransform="translate(58.645 674.321) rotate(90) scale(674.321 58.645)">
<stop offset="0.216346" stop-color="#1C1925"/>
<stop offset="1" stop-color="#999999" stop-opacity="0"/>
</radialGradient>
</defs>
</svg>
