<svg width="802" height="802" viewBox="0 0 802 802" fill="none" xmlns="http://www.w3.org/2000/svg">
<g id="mentie_label-depri">
<mask id="mask0_2393_20875" style="mask-type:alpha" maskUnits="userSpaceOnUse" x="0" y="-1" width="802" height="803">
<rect id="mask-depri" x="801.859" y="400.929" width="567" height="567" transform="rotate(135 801.859 400.929)" fill="#D9D9D9"/>
</mask>
<g mask="url(#mask0_2393_20875)">
<g id="label_group-depri">
<g id="label-depri">
<g id="base-depri" filter="url(#filter0_d_2393_20875)">
<path d="M445.029 415.236C445.029 405.705 452.786 397.978 462.355 397.978H583.639C593.208 397.978 600.965 405.705 600.965 415.236V509.815C600.965 519.347 593.208 527.074 583.639 527.074H462.355C452.786 527.074 445.029 519.347 445.029 509.815V415.236Z" fill="#D4F75F"/>
<path d="M276.965 457.003C276.965 447.471 284.722 439.744 294.291 439.744H583.639C593.208 439.744 600.965 447.471 600.965 457.003V584.719C600.965 594.25 593.208 601.978 583.639 601.978H294.291C284.722 601.978 276.965 594.25 276.965 584.719V457.003Z" fill="#D4F75F"/>
</g>
<g id="content-depri">
<path id="Depressing" d="M321.847 554.496C324.975 541.922 323.285 539.982 319.407 539.982C318.468 539.982 317.467 539.982 316.466 540.045C315.34 544.299 314.027 549.554 312.838 554.434C311.274 560.565 310.273 564.756 309.522 567.947C310.461 568.009 311.337 568.009 312.337 568.009C316.779 568.009 318.906 566.508 321.847 554.496ZM308.209 530.849H321.409C332.231 530.849 336.986 535.979 332.169 555.247C327.727 572.951 322.785 577.769 311.962 577.769H296.51C298.262 571.262 300.013 564.318 302.453 554.371C304.955 544.424 306.832 536.854 308.209 530.849ZM352.864 552.119C354.115 547.052 353.615 545.112 351.112 545.112C348.798 545.112 346.983 546.989 344.606 555.435C346.796 555.497 349.361 555.497 351.988 555.435C352.238 554.559 352.551 553.495 352.864 552.119ZM351.988 537.543C361.81 537.543 363.874 543.361 361.56 552.62C360.809 555.685 359.808 559.126 359.308 560.69C356.43 560.627 352.801 560.627 349.548 560.627C347.171 560.627 344.981 560.627 343.292 560.627C341.416 568.635 342.354 570.512 345.107 570.512C347.421 570.512 348.547 568.948 349.736 564.193C350.799 564.318 352.238 564.318 353.865 564.318C355.679 564.318 357.243 564.318 358.557 564.193C356.305 574.14 353.177 578.394 344.043 578.394C334.033 578.394 330.718 572.826 334.597 557.499C338.35 542.297 343.668 537.543 351.988 537.543ZM375.753 553.308L371.999 568.447C372.875 568.885 373.938 569.198 375.377 569.198C378.255 569.198 380.132 567.321 382.384 558.125C384.761 548.741 383.823 546.489 381.133 546.489C379.068 546.489 377.004 548.24 375.753 553.308ZM378.255 543.486L378.63 543.548C380.882 540.108 383.823 537.668 387.701 537.668C393.582 537.668 396.147 542.673 392.331 557.875C388.515 573.264 384.386 578.269 378.067 578.269C374.001 578.269 371.811 576.267 371.123 573.327L370.81 573.389C370.498 574.891 370.122 576.455 369.684 578.144C369.121 580.709 368.558 582.898 367.995 585.401H357.673C359.487 578.832 361.927 569.01 364.554 558.5C366.681 550.055 368.183 543.799 369.497 538.231H379.756C379.444 539.357 379.131 540.295 378.818 541.484C378.63 542.172 378.443 542.798 378.255 543.486ZM407.211 545.675L407.649 545.738C410.277 539.982 413.28 537.855 416.533 537.855C417.721 537.855 418.597 537.981 419.41 538.231C418.159 541.984 416.783 546.551 415.594 550.93C414.844 550.68 413.905 550.493 413.029 550.493C409.714 550.555 408.15 552.057 406.773 557.624C405.209 563.88 403.27 571.7 402.081 577.769H391.259C392.76 572.201 394.261 566.195 396.451 557.562C398.453 549.366 399.892 543.736 401.143 538.231H409.338C408.588 540.608 407.962 542.923 407.211 545.675ZM434.057 552.119C435.308 547.052 434.808 545.112 432.306 545.112C429.991 545.112 428.177 546.989 425.799 555.435C427.989 555.497 430.554 555.497 433.181 555.435C433.432 554.559 433.744 553.495 434.057 552.119ZM433.181 537.543C443.003 537.543 445.068 543.361 442.753 552.62C442.002 555.685 441.001 559.126 440.501 560.69C437.623 560.627 433.995 560.627 430.742 560.627C428.364 560.627 426.175 560.627 424.486 560.627C422.609 568.635 423.547 570.512 426.3 570.512C428.615 570.512 429.741 568.948 430.929 564.193C431.993 564.318 433.432 564.318 435.058 564.318C436.872 564.318 438.436 564.318 439.75 564.193C437.498 574.14 434.37 578.394 425.236 578.394C415.227 578.394 411.911 572.826 415.79 557.499C419.543 542.297 424.861 537.543 433.181 537.543ZM442.369 567.696L443.308 564.506C444.434 564.568 446.06 564.694 448.187 564.694C449.501 564.694 450.877 564.631 451.878 564.568C451.691 565.382 451.378 566.007 451.253 566.57C450.502 569.323 451.19 570.637 453.88 570.637C456.132 570.637 457.133 569.698 457.759 567.446C458.51 564.756 457.634 562.942 453.818 561.315C447.186 558.688 445.998 554.371 447.875 547.427C449.751 540.295 454.005 537.605 462.138 537.605C471.647 537.668 474.275 541.484 472.586 547.928C472.273 548.929 471.96 549.992 471.585 551.181C470.334 551.056 468.457 550.993 466.643 550.993C465.266 550.993 463.89 551.056 463.014 551.056C463.202 550.493 463.389 549.742 463.64 548.929C464.39 546.426 463.827 545.175 461.325 545.175C459.073 545.175 458.009 546.051 457.509 548.053C456.758 550.68 457.133 552.432 461.2 554.184C467.518 556.999 469.458 560.877 467.456 568.322C465.579 575.329 462.013 578.394 453.442 578.394C443.12 578.394 440.68 573.89 442.369 567.696ZM470.289 567.696L471.227 564.506C472.354 564.568 473.98 564.694 476.107 564.694C477.421 564.694 478.797 564.631 479.798 564.568C479.61 565.382 479.298 566.007 479.173 566.57C478.422 569.323 479.11 570.637 481.8 570.637C484.052 570.637 485.053 569.698 485.679 567.446C486.429 564.756 485.554 562.942 481.737 561.315C475.106 558.688 473.918 554.371 475.794 547.427C477.671 540.295 481.925 537.605 490.058 537.605C499.567 537.668 502.195 541.484 500.505 547.928C500.193 548.929 499.88 549.992 499.504 551.181C498.253 551.056 496.376 550.993 494.562 550.993C493.186 550.993 491.81 551.056 490.934 551.056C491.121 550.493 491.309 549.742 491.559 548.929C492.31 546.426 491.747 545.175 489.245 545.175C486.993 545.175 485.929 546.051 485.429 548.053C484.678 550.68 485.053 552.432 489.12 554.184C495.438 556.999 497.377 560.877 495.376 568.322C493.499 575.329 489.933 578.394 481.362 578.394C471.04 578.394 468.6 573.89 470.289 567.696ZM518.979 532.475C518.541 534.039 517.29 535.666 512.472 535.666C507.405 535.666 506.779 533.914 507.28 532.1C507.718 530.286 509.032 529.097 513.724 529.097C518.728 529.097 519.417 530.411 518.979 532.475ZM506.905 577.769H496.707C498.334 571.888 500.023 565.006 501.9 557.312C503.714 550.055 505.215 543.924 506.592 538.231H516.726C515.162 543.986 513.661 549.992 511.722 557.749C509.47 566.633 508.156 572.076 506.905 577.769ZM530.123 544.487L530.498 544.549C533.251 539.857 536.442 537.793 540.258 537.793C545.45 537.793 548.015 542.047 546.514 548.053C544.574 555.873 543.573 559.313 542.447 564.068C541.134 569.26 540.133 573.452 539.132 577.769H528.934C530.686 571.075 532.876 562.004 535.691 551.243C536.379 548.678 535.816 547.239 533.439 547.239C531.061 547.239 529.122 548.991 527.933 553.871C524.18 568.885 523.116 573.327 522.053 577.769H511.918C513.42 572.076 514.733 566.758 516.923 558C518.987 549.742 520.551 543.486 521.803 538.231H531.875C531.249 540.671 530.749 542.36 530.123 544.487ZM565.265 557.624L568.081 546.614C567.205 545.863 566.079 545.425 564.702 545.425C562.263 545.425 560.761 546.801 558.759 554.809C556.882 562.129 557.758 563.63 560.136 563.63C562.388 563.63 564.202 561.816 565.265 557.624ZM569.957 538.231H579.967C579.029 541.484 577.777 546.676 575.65 555.059C574.149 561.19 572.71 567.259 571.584 571.825C569.082 581.772 565.891 586.026 555.506 586.026C545.246 586.026 542.556 582.273 544.245 575.454C544.433 574.703 544.621 574.14 544.808 573.452C546.122 573.577 547.686 573.64 549.563 573.64C551.315 573.64 552.941 573.577 554.13 573.452C554.067 573.827 553.942 574.203 553.817 574.578C553.191 577.143 553.88 578.206 556.382 578.206C558.884 578.206 560.448 576.893 561.512 573.014C562.137 570.574 562.575 568.823 563.201 566.821L562.826 566.758C561.011 569.386 558.572 571.137 555.318 571.137C548.812 571.137 546.247 566.195 549.313 553.933C552.566 540.921 556.445 537.73 562.137 537.73C566.016 537.73 568.018 539.419 568.831 541.922L569.144 541.859C569.332 540.921 569.457 540.17 569.645 539.419C569.707 539.044 569.832 538.606 569.957 538.231Z" fill="#1B1B1B"/>
<path id="Kinda" d="M337.816 461.124H350.078C345.636 468.131 338.754 479.83 333.312 485.335C334.5 487.024 335.063 489.339 335.564 492.091C337.128 499.661 338.066 505.729 338.567 508.044H329.12C327.681 508.044 327.118 507.669 326.931 506.417C326.18 500.537 324.991 493.155 323.865 488.713H323.115C321.363 495.782 319.611 502.664 318.423 508.044H307.6C309.351 501.6 311.166 494.594 313.605 484.584C316.108 474.574 317.86 467.443 319.298 461.124H330.121C328.495 466.88 326.43 475.075 324.553 482.645H324.679C326.305 480.518 327.869 478.266 329.496 475.951C333.312 469.632 336.127 464.502 337.816 461.124ZM362.733 462.751C362.295 464.315 361.044 465.941 356.227 465.941C351.16 465.941 350.534 464.19 351.035 462.375C351.473 460.561 352.786 459.372 357.478 459.372C362.483 459.372 363.171 460.686 362.733 462.751ZM350.659 508.044H340.462C342.089 502.163 343.778 495.282 345.655 487.587C347.469 480.33 348.97 474.199 350.347 468.506H360.481C358.917 474.262 357.416 480.267 355.476 488.025C353.224 496.908 351.911 502.351 350.659 508.044ZM373.878 474.762L374.253 474.825C377.006 470.133 380.196 468.068 384.013 468.068C389.205 468.068 391.77 472.322 390.268 478.328C388.329 486.148 387.328 489.589 386.202 494.343C384.888 499.536 383.887 503.727 382.886 508.044H372.689C374.441 501.35 376.63 492.279 379.446 481.519C380.134 478.954 379.571 477.515 377.194 477.515C374.816 477.515 372.877 479.266 371.688 484.146C367.935 499.16 366.871 503.602 365.808 508.044H355.673C357.174 502.351 358.488 497.033 360.678 488.275C362.742 480.017 364.306 473.761 365.557 468.506H375.63C375.004 470.946 374.503 472.635 373.878 474.762ZM408.019 492.967L411.898 477.265C411.022 476.764 409.896 476.514 408.582 476.514C405.705 476.514 403.765 478.391 401.325 488.025C398.948 497.659 399.824 499.536 402.264 499.536C404.579 499.536 406.831 497.722 408.019 492.967ZM416.152 459.623H426.412C424.723 465.754 422.533 474.637 419.405 487.024C417.216 496.158 415.714 502.038 414.338 508.044H404.078C404.391 506.918 404.704 505.854 405.016 504.541C405.204 503.665 405.454 502.851 405.705 502.038L405.267 501.976C403.39 505.479 400.45 508.544 396.321 508.544C390.69 508.544 387.687 503.289 391.879 486.774C395.57 471.947 400.137 467.943 405.579 467.943C409.083 467.943 411.585 469.507 412.774 472.447L413.024 472.385C413.462 470.32 413.9 468.756 414.463 466.504C415.151 463.939 415.589 461.875 416.152 459.623ZM439.666 492.967L443.544 477.265C442.669 476.827 441.543 476.514 440.229 476.514C437.351 476.514 435.412 478.453 432.972 488.025C430.595 497.659 431.47 499.536 433.91 499.536C436.225 499.536 438.477 497.784 439.666 492.967ZM445.609 468.506H455.869C454.993 471.509 453.679 476.764 451.177 486.711C448.862 495.97 447.361 502.038 445.984 508.044H435.724C436.037 506.918 436.35 505.854 436.663 504.603C436.851 503.727 437.101 502.914 437.351 502.101L436.913 502.038C435.036 505.479 432.033 508.544 428.092 508.544C422.149 508.544 419.396 503.227 423.525 486.711C427.216 471.884 431.908 468.006 437.226 468.006C440.729 468.006 443.232 469.57 444.358 472.447L444.671 472.385L444.858 471.509C445.171 470.383 445.359 469.445 445.609 468.506Z" fill="#1B1B1B"/>
<g id="Group 407">
<g id="Group 402">
<path id="Ellipse 182" d="M506.008 420.359C511.932 420.36 517.615 424.958 521.896 433.11C526.143 441.201 528.811 452.47 528.811 464.99C528.811 477.51 526.143 488.779 521.896 496.87C517.615 505.023 511.932 509.621 506.008 509.621C500.084 509.621 494.401 505.023 490.12 496.87C485.872 488.779 483.205 477.51 483.205 464.99C483.205 452.47 485.872 441.201 490.12 433.11C494.401 424.958 500.084 420.359 506.008 420.359Z" fill="#F7FCFD" stroke="#1B1B1B" stroke-width="2.6515"/>
<ellipse id="Ellipse 184" cx="515.818" cy="464.991" rx="12.1969" ry="23.2425" fill="#1B1B1B"/>
</g>
<g id="Group 403">
<path id="Ellipse 185" d="M553.414 420.359C559.338 420.36 565.021 424.958 569.302 433.11C573.55 441.201 576.217 452.47 576.217 464.99C576.217 477.51 573.55 488.779 569.302 496.87C565.021 505.023 559.338 509.621 553.414 509.621C547.49 509.621 541.807 505.023 537.526 496.87C533.279 488.779 530.611 477.51 530.611 464.99C530.611 452.47 533.279 441.201 537.526 433.11C541.807 424.958 547.49 420.359 553.414 420.359Z" fill="#F7FCFD" stroke="#1B1B1B" stroke-width="2.6515"/>
<ellipse id="Ellipse 186" cx="563.224" cy="464.991" rx="12.1969" ry="23.2425" fill="#1B1B1B"/>
</g>
<rect id="Rectangle 413" x="462.008" y="419.033" width="115.393" height="41.4213" fill="#1B1B1B"/>
</g>
</g>
<mask id="mask1_2393_20875" style="mask-type:alpha" maskUnits="userSpaceOnUse" x="276" y="397" width="325" height="205">
<g id="highlight_mask-depri">
<path d="M445.029 415.236C445.029 405.705 452.786 397.978 462.355 397.978H583.639C593.208 397.978 600.965 405.705 600.965 415.236V509.815C600.965 519.347 593.208 527.074 583.639 527.074H462.355C452.786 527.074 445.029 519.347 445.029 509.815V415.236Z" fill="#D4F75F"/>
<path d="M276.965 457.003C276.965 447.471 284.722 439.744 294.291 439.744H583.639C593.208 439.744 600.965 447.471 600.965 457.003V584.719C600.965 594.25 593.208 601.978 583.639 601.978H294.291C284.722 601.978 276.965 594.25 276.965 584.719V457.003Z" fill="#D4F75F"/>
</g>
</mask>
<g mask="url(#mask1_2393_20875)">
<rect id="highlight-depri" opacity="0.4" width="117.993" height="656.477" transform="matrix(0.992561 -0.121747 0.122685 0.992446 469.723 204.095)" fill="url(#paint0_radial_2393_20875)"/>
</g>
</g>
<g id="flap_group-depri" filter="url(#filter1_d_2393_20875)">
<mask id="mask2_2393_20875" style="mask-type:alpha" maskUnits="userSpaceOnUse" x="600" y="601" width="325" height="163">
<rect id="flap_mask-depri" x="600.965" y="601.978" width="324" height="162" rx="17.3262" fill="#F7FCFD"/>
</mask>
<g mask="url(#mask2_2393_20875)">
<rect id="flap-depri" x="600.965" y="601.978" width="324" height="162" rx="17.3262" fill="#F7FCFD"/>
<rect id="shadow-depri" opacity="0.5" width="117.461" height="1350.6" transform="matrix(-0.70899 -0.705219 0.707281 -0.706932 203.168 1147.19)" fill="url(#paint1_radial_2393_20875)"/>
</g>
</g>
</g>
</g>
</g>
<defs>
<filter id="filter0_d_2393_20875" x="264.965" y="389.978" width="340" height="220" filterUnits="userSpaceOnUse" color-interpolation-filters="sRGB">
<feFlood flood-opacity="0" result="BackgroundImageFix"/>
<feColorMatrix in="SourceAlpha" type="matrix" values="0 0 0 0 0 0 0 0 0 0 0 0 0 0 0 0 0 0 127 0" result="hardAlpha"/>
<feOffset dx="-4"/>
<feGaussianBlur stdDeviation="4"/>
<feComposite in2="hardAlpha" operator="out"/>
<feColorMatrix type="matrix" values="0 0 0 0 0 0 0 0 0 0 0 0 0 0 0 0 0 0 0.3 0"/>
<feBlend mode="normal" in2="BackgroundImageFix" result="effect1_dropShadow_2393_20875"/>
<feBlend mode="normal" in="SourceGraphic" in2="effect1_dropShadow_2393_20875" result="shape"/>
</filter>
<filter id="filter1_d_2393_20875" x="588.965" y="593.978" width="340" height="178" filterUnits="userSpaceOnUse" color-interpolation-filters="sRGB">
<feFlood flood-opacity="0" result="BackgroundImageFix"/>
<feColorMatrix in="SourceAlpha" type="matrix" values="0 0 0 0 0 0 0 0 0 0 0 0 0 0 0 0 0 0 127 0" result="hardAlpha"/>
<feOffset dx="-4"/>
<feGaussianBlur stdDeviation="4"/>
<feComposite in2="hardAlpha" operator="out"/>
<feColorMatrix type="matrix" values="0 0 0 0 0 0 0 0 0 0 0 0 0 0 0 0 0 0 0.2 0"/>
<feBlend mode="normal" in2="BackgroundImageFix" result="effect1_dropShadow_2393_20875"/>
<feBlend mode="normal" in="SourceGraphic" in2="effect1_dropShadow_2393_20875" result="shape"/>
</filter>
<radialGradient id="paint0_radial_2393_20875" cx="0" cy="0" r="1" gradientUnits="userSpaceOnUse" gradientTransform="translate(58.9966 328.239) rotate(90) scale(328.239 58.9966)">
<stop stop-color="white"/>
<stop offset="1" stop-color="#999999" stop-opacity="0"/>
</radialGradient>
<radialGradient id="paint1_radial_2393_20875" cx="0" cy="0" r="1" gradientUnits="userSpaceOnUse" gradientTransform="translate(58.7304 675.298) rotate(90) scale(675.298 58.7304)">
<stop offset="0.216346" stop-color="#1C1925"/>
<stop offset="1" stop-color="#999999" stop-opacity="0"/>
</radialGradient>
</defs>
</svg>
