<svg width="802" height="802" viewBox="0 0 802 802" fill="none" xmlns="http://www.w3.org/2000/svg">
<g id="mentie_label-boring">
<mask id="mask0_2393_20819" style="mask-type:alpha" maskUnits="userSpaceOnUse" x="0" y="0" width="802" height="802">
<rect id="mask-boring" x="400.93" width="567" height="567" transform="rotate(45 400.93 0)" fill="#D9D9D9"/>
</mask>
<g mask="url(#mask0_2393_20819)">
<g id="label_group-boring">
<g id="label-boring">
<g id="base-boring" filter="url(#filter0_d_2393_20819)">
<path id="Rectangle 234" d="M359 262.022C359 256.093 363.033 250.924 368.784 249.481L577.926 197.031C586.088 194.984 594 201.157 594 209.572V357.071C594 364.212 588.212 370 581.071 370H371.929C364.788 370 359 364.212 359 357.071V262.022Z" fill="#5756D6"/>
<path id="Star 28" d="M476.652 257.397L512.965 294.4L589.884 274.229L571.721 313.93L659.864 318.295L594.163 345.529L659.864 372.764L571.721 377.129L589.884 416.83L512.965 396.659L476.652 433.661L440.34 396.659L363.421 416.83L381.584 377.129L293.44 372.764L359.142 345.529L293.44 318.295L381.584 313.93L363.421 274.229L440.34 294.4L476.652 257.397Z" fill="#5756D6"/>
</g>
<g id="content-boring">
<g id="Group 375">
<path id="s" d="M389.165 277.173V276.235C389.165 275.049 388.834 274.58 387.758 274.58C386.737 274.58 386.351 274.966 386.351 275.904C386.351 277.007 386.737 277.78 388.751 278.524C391.895 279.683 393.136 281.227 393.136 284.316C393.136 287.681 391.537 289.226 387.565 289.226C383.234 289.226 382.021 287.599 382.021 284.51C382.021 283.958 382.048 283.489 382.048 283.103C382.572 283.13 383.262 283.186 384.2 283.186C384.807 283.186 385.413 283.158 385.827 283.13C385.827 283.489 385.8 283.792 385.8 284.041C385.8 285.282 386.186 285.806 387.372 285.806C388.392 285.806 388.778 285.392 388.778 284.344C388.778 283.213 388.172 282.413 386.268 281.751C382.986 280.621 381.993 278.883 381.993 275.932C381.993 272.539 383.786 271.243 387.592 271.243C391.674 271.243 392.998 272.622 392.998 275.794C392.998 276.235 392.971 276.704 392.943 277.228C392.392 277.173 391.537 277.145 390.737 277.145C390.13 277.145 389.523 277.145 389.165 277.173Z" fill="#1B1B1B"/>
<path id="o" d="M408.578 277.005C408.578 272.106 407.784 271.113 406.361 271.113C404.938 271.113 404.143 272.073 404.143 277.005C404.143 281.97 404.905 283.161 406.361 283.161C407.817 283.161 408.578 281.97 408.578 277.005ZM413.841 276.872C413.841 284.915 411.458 288.093 406.328 288.093C401.231 288.093 398.914 284.915 398.914 276.872C398.914 268.863 401.495 266.48 406.328 266.48C411.16 266.48 413.841 268.863 413.841 276.872Z" fill="#1B1B1B"/>
<path id="o_2" d="M430.045 273.94C430.045 268.062 429.092 266.871 427.384 266.871C425.676 266.871 424.723 268.022 424.723 273.94C424.723 279.898 425.636 281.328 427.384 281.328C429.131 281.328 430.045 279.898 430.045 273.94ZM436.36 273.782C436.36 283.433 433.5 287.246 427.344 287.246C421.228 287.246 418.447 283.433 418.447 273.782C418.447 264.17 421.545 261.31 427.344 261.31C433.143 261.31 436.36 264.17 436.36 273.782Z" fill="#1B1B1B"/>
<path id="o_3" d="M454.941 268.292C454.941 261.239 453.797 259.809 451.748 259.809C449.699 259.809 448.555 261.191 448.555 268.292C448.555 275.442 449.651 277.157 451.748 277.157C453.845 277.157 454.941 275.442 454.941 268.292ZM462.519 268.102C462.519 279.683 459.088 284.259 451.7 284.259C444.361 284.259 441.024 279.683 441.024 268.102C441.024 256.568 444.742 253.136 451.7 253.136C458.659 253.136 462.519 256.568 462.519 268.102Z" fill="#1B1B1B"/>
<path id="o_4" d="M483.78 263.973C483.78 255.508 482.408 253.792 479.948 253.792C477.489 253.792 476.117 255.451 476.117 263.973C476.117 272.552 477.432 274.611 479.948 274.611C482.465 274.611 483.78 272.552 483.78 263.973ZM492.874 263.744C492.874 277.642 488.756 283.132 479.891 283.132C471.083 283.132 467.08 277.642 467.08 263.744C467.08 249.903 471.541 245.785 479.891 245.785C488.241 245.785 492.874 249.903 492.874 263.744Z" fill="#1B1B1B"/>
<path id="o_5" d="M517.529 257.017C517.529 246.859 515.882 244.8 512.93 244.8C509.979 244.8 508.332 246.791 508.332 257.017C508.332 267.312 509.911 269.782 512.93 269.782C515.95 269.782 517.529 267.312 517.529 257.017ZM528.441 256.742C528.441 273.42 523.5 280.009 512.862 280.009C502.292 280.009 497.488 273.42 497.488 256.742C497.488 240.133 502.841 235.192 512.862 235.192C522.882 235.192 528.441 240.133 528.441 256.742Z" fill="#1B1B1B"/>
<path id="o_6" d="M557.165 249.869C557.165 237.68 555.188 235.209 551.647 235.209C548.105 235.209 546.129 237.598 546.129 249.869C546.129 262.223 548.023 265.188 551.647 265.188C555.271 265.188 557.165 262.223 557.165 249.869ZM570.26 249.54C570.26 269.553 564.33 277.459 551.565 277.459C538.881 277.459 533.116 269.553 533.116 249.54C533.116 229.609 539.54 223.679 551.565 223.679C563.589 223.679 570.26 229.609 570.26 249.54Z" fill="#1B1B1B"/>
</g>
<rect id="Rectangle 235" x="371.5" y="298.34" width="210.31" height="71.5399" fill="#1B1B1B"/>
<path id="Boring" d="M398.868 349.687C402.184 349.687 403.436 348.498 403.436 343.492C403.436 338.799 402.059 337.235 398.805 337.235C397.554 337.235 396.115 337.297 394.55 337.36C394.55 341.365 394.55 345.87 394.613 349.562C396.24 349.687 397.679 349.687 398.868 349.687ZM403.123 324.408C403.123 319.652 401.871 318.714 398.805 318.714C397.491 318.714 396.115 318.776 394.55 318.839C394.55 322.218 394.55 326.723 394.55 330.853C396.052 330.915 397.429 330.915 398.68 330.915C401.809 330.853 403.123 329.038 403.123 324.408ZM406.126 334.044V334.419C407.315 334.482 408.316 334.669 409.13 335.045C412.509 336.484 413.697 339.988 413.697 345.432C413.697 354.567 410.381 357.946 401.746 357.946H384.163C384.414 351.439 384.414 344.431 384.414 334.482C384.414 324.533 384.414 317.337 384.163 311.017H401.433C409.317 311.017 413.385 313.77 413.385 323.344C413.385 329.038 412.321 331.541 409.505 333.105C408.629 333.606 407.503 333.856 406.126 334.044ZM448.797 333.543C448.797 351.752 443.291 358.635 432.841 358.635C422.392 358.635 417.073 351.752 417.073 333.543C417.073 315.585 422.955 310.329 432.841 310.329C442.728 310.329 448.797 315.585 448.797 333.543ZM432.904 348.56C436.283 348.56 438.035 345.307 438.035 333.731C438.035 322.53 436.22 319.777 432.904 319.777C429.587 319.777 427.71 322.468 427.71 333.731C427.71 345.369 429.525 348.56 432.904 348.56ZM467.73 334.482C470.67 334.482 471.984 332.292 471.984 326.973C471.984 320.591 470.42 319.464 467.166 319.527C466.416 319.464 464.851 319.527 463.475 319.59C463.475 324.595 463.475 329.664 463.537 334.419C464.538 334.419 466.04 334.419 467.73 334.482ZM474.3 338.987V339.3C478.867 339.988 480.557 341.803 481.746 347.935C482.497 351.439 483.185 355.694 483.685 357.946H474.049C472.548 357.946 472.297 357.258 471.609 354.067C470.358 343.555 469.794 342.116 467.229 342.116C465.915 342.116 465.164 342.116 463.6 342.178C463.662 348.56 463.787 354.067 464.1 357.946H453.275C453.338 351.188 453.463 344.493 453.463 334.482C453.463 324.533 453.4 317.775 453.275 311.017H469.294C477.553 311.017 482.184 314.459 482.184 325.033C482.184 334.044 480.056 337.923 474.3 338.987ZM498.138 357.946H487.25C487.375 351.564 487.375 344.431 487.375 334.482C487.375 324.47 487.375 317.337 487.25 311.017H498.138C498.013 317.274 498.013 324.408 498.013 334.419C498.013 344.368 498.013 351.501 498.138 357.946ZM524.523 311.017H533.658C533.596 314.771 533.47 324.47 533.47 334.419C533.47 344.869 533.47 351.939 533.596 357.946H522.708C521.394 353.691 518.265 345.119 515.387 337.923C514.136 333.919 513.197 329.726 512.384 325.534H512.258C512.571 330.54 512.759 334.982 512.822 338.987C512.884 348.748 512.947 355.318 513.009 357.946H503.749C503.749 351.752 503.811 344.493 503.811 334.482C503.811 324.533 503.811 317.087 503.749 311.017H515.825C516.639 314.208 520.205 323.532 522.896 331.916C523.897 334.92 524.71 338.549 525.399 342.241L525.461 342.178C525.148 337.923 524.961 333.919 524.898 330.164C524.898 323.657 524.71 315.335 524.523 311.017ZM558.336 340.051L553.08 340.113C553.142 339.3 553.142 337.36 553.142 336.359C553.142 334.795 553.142 333.355 553.08 332.354C555.457 332.417 557.898 332.417 559.712 332.417C561.965 332.417 564.968 332.417 567.972 332.292C568.723 350.938 566.533 358.572 553.643 358.572C542.567 358.572 538 351.501 538 333.919C537.937 316.461 542.755 310.391 553.893 310.391C564.655 310.391 568.222 315.773 568.222 324.72C568.222 325.784 568.222 326.848 568.097 328.037C566.783 327.974 564.906 327.912 562.966 327.912C560.964 327.912 559.149 327.974 557.835 328.037C557.898 327.098 557.898 326.222 557.898 325.534C557.898 320.778 556.458 319.214 553.83 319.214C550.201 319.214 548.512 321.842 548.512 333.981C548.512 346.12 549.951 349.436 554.018 349.436C557.209 349.436 558.273 347.309 558.336 340.051Z" fill="#F7FCFD"/>
</g>
<mask id="mask1_2393_20819" style="mask-type:alpha" maskUnits="userSpaceOnUse" x="293" y="196" width="367" height="238">
<g id="highlight_mask-boring">
<path id="Rectangle 234_2" d="M358.57 261.608C358.57 255.676 362.607 250.505 368.361 249.065L578.241 196.558C586.401 194.516 594.307 200.688 594.307 209.1V356.735C594.307 363.876 588.519 369.664 581.378 369.664H371.499C364.359 369.664 358.57 363.876 358.57 356.735V261.608Z" fill="#5756D6"/>
<path id="Star 28_2" d="M476.652 257.398L512.965 294.401L589.884 274.23L571.721 313.931L659.864 318.296L594.163 345.53L659.864 372.765L571.721 377.13L589.884 416.831L512.965 396.66L476.652 433.662L440.34 396.66L363.421 416.831L381.584 377.13L293.44 372.765L359.142 345.53L293.44 318.296L381.584 313.931L363.421 274.23L440.34 294.401L476.652 257.398Z" fill="#5756D6"/>
</g>
</mask>
<g mask="url(#mask1_2393_20819)">
<rect id="highlight-boring" opacity="0.4" x="446.258" y="-23.5801" width="118" height="659" transform="rotate(-7.01998 446.258 -23.5801)" fill="url(#paint0_radial_2393_20819)"/>
</g>
</g>
<g id="flap_group-boring" filter="url(#filter1_d_2393_20819)">
<mask id="mask2_2393_20819" style="mask-type:alpha" maskUnits="userSpaceOnUse" x="597" y="-42" width="174" height="235">
<path id="flap_mask-boring" d="M663.022 -42C657.093 -42 651.924 -37.9671 650.481 -32.2161L598.031 176.926C595.984 185.088 602.157 193 610.572 193L758.071 193C765.212 193 771 187.212 771 180.071L771 -29.0711C771 -36.2115 765.212 -42 758.071 -42L663.022 -42Z" fill="#F7FCFD"/>
</mask>
<g mask="url(#mask2_2393_20819)">
<path id="flap-boring" d="M663.022 -42C657.093 -42 651.924 -37.9671 650.481 -32.2161L598.031 176.926C595.984 185.088 602.157 193 610.572 193L758.071 193C765.212 193 771 187.212 771 180.071L771 -29.0711C771 -36.2115 765.212 -42 758.071 -42L663.022 -42Z" fill="#F7FCFD"/>
<rect id="shadow-boring" opacity="0.5" width="117.774" height="1354.21" transform="matrix(0.707962 -0.706251 0.707962 0.706251 98.3516 -296.759)" fill="url(#paint1_radial_2393_20819)"/>
</g>
</g>
</g>
</g>
</g>
<defs>
<filter id="filter0_d_2393_20819" x="281.441" y="192.637" width="382.422" height="253.024" filterUnits="userSpaceOnUse" color-interpolation-filters="sRGB">
<feFlood flood-opacity="0" result="BackgroundImageFix"/>
<feColorMatrix in="SourceAlpha" type="matrix" values="0 0 0 0 0 0 0 0 0 0 0 0 0 0 0 0 0 0 127 0" result="hardAlpha"/>
<feOffset dx="-4" dy="4"/>
<feGaussianBlur stdDeviation="4"/>
<feComposite in2="hardAlpha" operator="out"/>
<feColorMatrix type="matrix" values="0 0 0 0 0 0 0 0 0 0 0 0 0 0 0 0 0 0 0.3 0"/>
<feBlend mode="normal" in2="BackgroundImageFix" result="effect1_dropShadow_2393_20819"/>
<feBlend mode="normal" in="SourceGraphic" in2="effect1_dropShadow_2393_20819" result="shape"/>
</filter>
<filter id="filter1_d_2393_20819" x="585.637" y="-46" width="189.363" height="251" filterUnits="userSpaceOnUse" color-interpolation-filters="sRGB">
<feFlood flood-opacity="0" result="BackgroundImageFix"/>
<feColorMatrix in="SourceAlpha" type="matrix" values="0 0 0 0 0 0 0 0 0 0 0 0 0 0 0 0 0 0 127 0" result="hardAlpha"/>
<feOffset dx="-4" dy="4"/>
<feGaussianBlur stdDeviation="4"/>
<feComposite in2="hardAlpha" operator="out"/>
<feColorMatrix type="matrix" values="0 0 0 0 0 0 0 0 0 0 0 0 0 0 0 0 0 0 0.2 0"/>
<feBlend mode="normal" in2="BackgroundImageFix" result="effect1_dropShadow_2393_20819"/>
<feBlend mode="normal" in="SourceGraphic" in2="effect1_dropShadow_2393_20819" result="shape"/>
</filter>
<radialGradient id="paint0_radial_2393_20819" cx="0" cy="0" r="1" gradientUnits="userSpaceOnUse" gradientTransform="translate(505.258 305.92) rotate(90) scale(329.5 59)">
<stop stop-color="white"/>
<stop offset="1" stop-color="#999999" stop-opacity="0"/>
</radialGradient>
<radialGradient id="paint1_radial_2393_20819" cx="0" cy="0" r="1" gradientUnits="userSpaceOnUse" gradientTransform="translate(58.8868 677.105) rotate(90) scale(677.105 58.8868)">
<stop offset="0.216346" stop-color="#1C1925"/>
<stop offset="1" stop-color="#999999" stop-opacity="0"/>
</radialGradient>
</defs>
</svg>
