<svg width="567" height="567" viewBox="0 0 567 567" fill="none" xmlns="http://www.w3.org/2000/svg">
<g id="tiles_label-different">
<mask id="mask0_2393_20852" style="mask-type:alpha" maskUnits="userSpaceOnUse" x="0" y="0" width="567" height="567">
<rect id="mask-different" x="567" width="567" height="567" transform="rotate(90 567 0)" fill="#D9D9D9"/>
</mask>
<g mask="url(#mask0_2393_20852)">
<g id="label_group-different">
<g id="label-different">
<g id="base-different" filter="url(#filter0_d_2393_20852)">
<path d="M283.523 309.014L318.72 363.299L392.463 330.286L377.939 388.608L466.814 387.348L407.182 431.19L482.972 462.084L397.164 477.526L435.807 530.765L351.066 512.905L340.293 571.586L283.523 526.094L226.754 571.586L215.981 512.905L131.24 530.765L169.883 477.526L84.0744 462.084L159.865 431.19L100.233 387.348L189.108 388.608L174.584 330.286L248.327 363.299L283.523 309.014Z" fill="#D4F75F"/>
</g>
<g id="content-different">
<g id="Group 411">
<rect id="Rectangle 107" x="166.578" y="439.611" width="233.89" height="65.9797" fill="#5756D6"/>
<path id="DIFFERENT" d="M197.579 484.375C202.483 484.375 204.637 482.45 204.637 471.36C204.637 460.453 202.391 458.711 197.763 458.711C196.48 458.711 195.38 458.757 194.28 458.803C194.234 462.286 194.188 467.144 194.188 471.726C194.188 478.051 194.188 481.763 194.234 484.283C195.38 484.375 196.342 484.375 197.579 484.375ZM189.33 454.358H197.763C205.645 454.358 209.449 457.566 209.449 471.268C209.449 484.696 205.966 488.729 197.579 488.729H189.33C189.422 484.237 189.422 478.876 189.422 471.589C189.422 464.302 189.422 458.253 189.33 454.358ZM219.3 488.729H214.259C214.351 484.329 214.351 478.876 214.351 471.543C214.351 464.211 214.351 458.711 214.259 454.358H219.3C219.163 458.711 219.163 464.165 219.163 471.543C219.163 478.784 219.163 484.283 219.3 488.729ZM225.222 454.358H242.132C242.086 454.908 242.086 455.733 242.086 456.374C242.086 457.199 242.086 458.07 242.132 458.757C237.779 458.665 233.562 458.665 230.08 458.665C230.08 462.286 230.08 467.052 230.08 470.535V471.635C234.25 471.635 238.329 471.635 241.903 471.543C241.811 472.643 241.811 474.705 241.811 475.759C238.329 475.759 234.25 475.713 230.08 475.713C230.125 480.342 230.171 485.016 230.309 488.729H225.222C225.313 484.283 225.359 478.876 225.359 471.543C225.359 464.256 225.359 458.757 225.222 454.358ZM246.525 454.358H263.435C263.389 454.908 263.389 455.733 263.389 456.374C263.389 457.199 263.389 458.07 263.435 458.757C259.081 458.665 254.865 458.665 251.382 458.665C251.382 462.286 251.382 467.052 251.382 470.535V471.635C255.553 471.635 259.631 471.635 263.206 471.543C263.114 472.643 263.114 474.705 263.114 475.759C259.631 475.759 255.553 475.713 251.382 475.713C251.428 480.342 251.474 485.016 251.611 488.729H246.525C246.616 484.283 246.662 478.876 246.662 471.543C246.662 464.256 246.662 458.757 246.525 454.358ZM267.827 454.358H284.875C284.829 454.816 284.829 455.733 284.829 456.42C284.829 457.153 284.829 458.207 284.875 458.757C280.43 458.665 276.122 458.665 272.685 458.665V469.343C276.947 469.343 280.98 469.343 284.554 469.206V473.422C281.026 473.33 276.901 473.33 272.685 473.33V484.329C276.168 484.329 280.613 484.283 284.875 484.237C284.829 484.787 284.829 485.796 284.829 486.575C284.829 487.216 284.829 488.179 284.875 488.729H267.827C267.965 484.558 267.919 478.876 267.919 471.543C267.919 464.256 267.965 458.07 267.827 454.358ZM294.928 472.093C295.89 472.139 297.723 472.185 299.969 472.185C302.993 472.185 304.597 469.802 304.597 465.402C304.597 459.674 302.947 458.436 299.327 458.436C298.456 458.436 296.394 458.482 294.973 458.528C294.928 463.157 294.928 467.785 294.928 472.093ZM303.452 474.522V474.705C306.751 475.209 307.805 476.492 308.997 481.35C309.776 484.329 310.372 487.216 310.876 488.729H306.247C305.376 488.729 305.285 488.316 304.781 486.3C303.131 477.363 302.581 476.034 299.74 476.034C298.044 476.034 297.219 476.034 294.973 476.08C295.019 481.304 295.111 485.75 295.294 488.729H290.162C290.207 483.733 290.299 478.876 290.299 471.543C290.299 464.256 290.253 459.307 290.162 454.358H300.198C305.972 454.358 309.272 457.107 309.272 464.669C309.272 470.489 307.576 473.605 303.452 474.522ZM314.729 454.358H331.777C331.731 454.816 331.731 455.733 331.731 456.42C331.731 457.153 331.731 458.207 331.777 458.757C327.332 458.665 323.024 458.665 319.587 458.665V469.343C323.849 469.343 327.882 469.343 331.456 469.206V473.422C327.928 473.33 323.803 473.33 319.587 473.33V484.329C323.07 484.329 327.515 484.283 331.777 484.237C331.731 484.787 331.731 485.796 331.731 486.575C331.731 487.216 331.731 488.179 331.777 488.729H314.729C314.867 484.558 314.821 478.876 314.821 471.543C314.821 464.256 314.867 458.07 314.729 454.358ZM352.737 454.358H357.09C357.044 457.841 356.999 464.211 356.999 471.497C356.999 479.105 356.999 484.283 357.044 488.729H351.957C350.72 485.2 346.825 475.713 343.571 468.152C342.471 465.265 341.646 462.286 341.005 459.399H340.959C341.142 462.973 341.28 466.41 341.325 469.802C341.371 479.242 341.371 486.025 341.417 488.729H337.063C337.109 484.329 337.155 478.876 337.155 471.543C337.155 464.256 337.155 458.391 337.063 454.358H343.021C343.892 457.107 348.062 466.594 351.133 474.568C351.957 476.767 352.737 479.517 353.378 482.083H353.424C353.195 478.967 353.011 476.08 353.011 473.193C353.011 466.64 352.874 457.886 352.737 454.358ZM360.863 454.358H378.553C378.507 454.908 378.507 455.733 378.507 456.512C378.507 457.199 378.507 458.116 378.553 458.711C376.307 458.665 374.062 458.665 372.091 458.665C372.091 470.443 372.091 485.979 372.229 488.729C371.495 488.683 370.441 488.683 369.708 488.683C368.975 488.683 367.967 488.683 367.234 488.729C367.371 485.979 367.371 470.443 367.371 458.665C365.4 458.665 363.155 458.665 360.863 458.711C360.909 458.116 360.909 457.199 360.909 456.512C360.909 455.733 360.909 454.908 360.863 454.358Z" fill="#F7FCFD"/>
</g>
<path id="THIS HITS" d="M189.149 402.941H209.607C209.573 403.657 209.573 404.782 209.573 405.839C209.573 406.76 209.573 407.988 209.607 408.772C207.186 408.738 204.766 408.704 202.617 408.704C202.617 417.671 202.651 426.537 202.754 428.549C201.867 428.446 200.367 428.446 199.378 428.446C198.355 428.446 196.991 428.446 196.002 428.549C196.105 426.571 196.139 417.706 196.139 408.704C193.991 408.704 191.57 408.738 189.149 408.772C189.183 407.988 189.183 406.76 189.183 405.839C189.183 404.782 189.183 403.691 189.149 402.941ZM230.393 402.941H237.315C237.212 406.385 237.178 410.306 237.178 415.728C237.178 421.149 237.212 424.832 237.315 428.515H230.393C230.529 425.957 230.563 421.866 230.563 418.899C228.927 418.831 227.051 418.831 225.244 418.831C223.437 418.831 221.561 418.831 219.959 418.899C219.959 421.866 219.993 425.957 220.095 428.515H213.207C213.378 424.832 213.344 421.149 213.344 415.728C213.344 410.306 213.378 406.385 213.207 402.941H220.095C219.993 405.396 219.959 409.727 219.959 412.83C221.596 412.898 223.403 412.932 225.244 412.932C227.051 412.932 228.927 412.898 230.563 412.83C230.563 409.727 230.529 405.396 230.393 402.941ZM249.828 428.515H243.042C243.145 424.798 243.145 421.149 243.145 415.728C243.145 410.272 243.145 406.624 243.042 402.941H249.828C249.726 406.555 249.726 410.238 249.726 415.694C249.726 421.115 249.726 424.764 249.828 428.515ZM261.154 420.195V420.536C261.154 422.82 262.313 423.639 266.235 423.639C270.054 423.639 271.077 422.786 271.077 421.388C271.077 419.888 270.156 418.763 265.041 418.081C257.028 416.955 254.744 414.262 254.744 409.931C254.744 405.669 258.222 402.464 265.791 402.464C274.009 402.464 277.01 405.226 277.01 409.59C277.01 410.033 276.976 410.511 276.942 411.022C276.225 410.988 275.1 410.954 273.941 410.954C272.782 410.954 271.588 410.988 270.872 411.022C270.906 410.784 270.906 410.511 270.906 410.306C270.906 408.84 269.951 407.817 265.587 407.817C262.279 407.817 261.29 408.635 261.29 409.897C261.29 411.056 261.904 412.216 267.36 412.966C274.589 413.989 277.351 416.41 277.351 421.149C277.351 425.787 274.077 428.992 266.269 428.992C257.812 428.992 254.539 426.298 254.539 421.729C254.539 421.184 254.573 420.672 254.641 420.092C255.357 420.229 256.551 420.297 257.744 420.297C259.04 420.297 260.233 420.263 261.154 420.195ZM308.412 402.941H315.334C315.232 406.385 315.198 410.306 315.198 415.728C315.198 421.149 315.232 424.832 315.334 428.515H308.412C308.549 425.957 308.583 421.866 308.583 418.899C306.946 418.831 305.071 418.831 303.263 418.831C301.456 418.831 299.581 418.831 297.978 418.899C297.978 421.866 298.012 425.957 298.115 428.515H291.227C291.397 424.832 291.363 421.149 291.363 415.728C291.363 410.306 291.397 406.385 291.227 402.941H298.115C298.012 405.396 297.978 409.727 297.978 412.83C299.615 412.898 301.422 412.932 303.263 412.932C305.071 412.932 306.946 412.898 308.583 412.83C308.583 409.727 308.549 405.396 308.412 402.941ZM327.847 428.515H321.062C321.164 424.798 321.164 421.149 321.164 415.728C321.164 410.272 321.164 406.624 321.062 402.941H327.847C327.745 406.555 327.745 410.238 327.745 415.694C327.745 421.115 327.745 424.764 327.847 428.515ZM331.501 402.941H351.96C351.926 403.657 351.926 404.782 351.926 405.839C351.926 406.76 351.926 407.988 351.96 408.772C349.539 408.738 347.118 408.704 344.97 408.704C344.97 417.671 345.004 426.537 345.106 428.549C344.22 428.446 342.72 428.446 341.731 428.446C340.708 428.446 339.344 428.446 338.355 428.549C338.457 426.571 338.491 417.706 338.491 408.704C336.343 408.704 333.922 408.738 331.501 408.772C331.535 407.988 331.535 406.76 331.535 405.839C331.535 404.782 331.535 403.691 331.501 402.941ZM361.084 420.195V420.536C361.084 422.82 362.243 423.639 366.165 423.639C369.984 423.639 371.007 422.786 371.007 421.388C371.007 419.888 370.086 418.763 364.971 418.081C356.958 416.955 354.674 414.262 354.674 409.931C354.674 405.669 358.152 402.464 365.721 402.464C373.939 402.464 376.94 405.226 376.94 409.59C376.94 410.033 376.906 410.511 376.871 411.022C376.155 410.988 375.03 410.954 373.871 410.954C372.711 410.954 371.518 410.988 370.802 411.022C370.836 410.784 370.836 410.511 370.836 410.306C370.836 408.84 369.881 407.817 365.517 407.817C362.209 407.817 361.22 408.635 361.22 409.897C361.22 411.056 361.834 412.216 367.29 412.966C374.519 413.989 377.281 416.41 377.281 421.149C377.281 425.787 374.007 428.992 366.199 428.992C357.742 428.992 354.469 426.298 354.469 421.729C354.469 421.184 354.503 420.672 354.571 420.092C355.287 420.229 356.481 420.297 357.674 420.297C358.97 420.297 360.163 420.263 361.084 420.195Z" fill="#1B1B1B"/>
</g>
<mask id="mask1_2393_20852" style="mask-type:alpha" maskUnits="userSpaceOnUse" x="84" y="309" width="399" height="263">
<path id="highlight_mask-different" d="M283.523 309.015L318.72 363.3L392.463 330.287L377.939 388.609L466.814 387.349L407.182 431.191L482.972 462.085L397.164 477.527L435.807 530.766L351.066 512.906L340.293 571.587L283.523 526.095L226.754 571.587L215.981 512.906L131.24 530.766L169.883 477.527L84.0744 462.085L159.865 431.191L100.233 387.349L189.108 388.609L174.584 330.287L248.327 363.3L283.523 309.015Z" fill="#D4F75F"/>
</mask>
<g mask="url(#mask1_2393_20852)">
<rect id="highlight-different" opacity="0.4" x="244.258" y="113.422" width="118" height="659" transform="rotate(-7.01998 244.258 113.422)" fill="url(#paint0_radial_2393_20852)"/>
</g>
</g>
<g id="flap_group-different" filter="url(#filter1_d_2393_20852)">
<mask id="mask2_2393_20852" style="mask-type:alpha" maskUnits="userSpaceOnUse" x="84" y="562" width="399" height="263">
<path id="flap_mask-different" d="M283.5 825L318.697 770.715L392.439 803.728L377.916 745.406L466.791 746.666L407.158 702.824L482.949 671.93L397.14 656.487L435.784 603.249L351.042 621.109L340.269 562.428L283.5 607.92L226.731 562.428L215.958 621.109L131.216 603.249L169.86 656.487L84.051 671.93L159.842 702.824L100.209 746.666L189.084 745.406L174.561 803.728L248.303 770.715L283.5 825Z" fill="#F7FCFD"/>
</mask>
<g mask="url(#mask2_2393_20852)">
<path id="flap-different" d="M283.5 825L318.697 770.715L392.439 803.728L377.916 745.406L466.791 746.666L407.158 702.824L482.949 671.93L397.14 656.487L435.784 603.249L351.042 621.109L340.269 562.428L283.5 607.92L226.731 562.428L215.958 621.109L131.216 603.249L169.86 656.487L84.051 671.93L159.842 702.824L100.209 746.666L189.084 745.406L174.561 803.728L248.303 770.715L283.5 825Z" fill="#F7FCFD"/>
<rect id="shadow-different" opacity="0.5" width="117.774" height="1354.21" transform="matrix(-4.37114e-08 -1 0.999997 -0.00241986 -374 666.05)" fill="url(#paint1_radial_2393_20852)"/>
</g>
</g>
</g>
</g>
</g>
<defs>
<filter id="filter0_d_2393_20852" x="72.0742" y="301.014" width="414.898" height="278.572" filterUnits="userSpaceOnUse" color-interpolation-filters="sRGB">
<feFlood flood-opacity="0" result="BackgroundImageFix"/>
<feColorMatrix in="SourceAlpha" type="matrix" values="0 0 0 0 0 0 0 0 0 0 0 0 0 0 0 0 0 0 127 0" result="hardAlpha"/>
<feOffset dx="-4"/>
<feGaussianBlur stdDeviation="4"/>
<feComposite in2="hardAlpha" operator="out"/>
<feColorMatrix type="matrix" values="0 0 0 0 0 0 0 0 0 0 0 0 0 0 0 0 0 0 0.3 0"/>
<feBlend mode="normal" in2="BackgroundImageFix" result="effect1_dropShadow_2393_20852"/>
<feBlend mode="normal" in="SourceGraphic" in2="effect1_dropShadow_2393_20852" result="shape"/>
</filter>
<filter id="filter1_d_2393_20852" x="72.0508" y="554.428" width="414.898" height="278.572" filterUnits="userSpaceOnUse" color-interpolation-filters="sRGB">
<feFlood flood-opacity="0" result="BackgroundImageFix"/>
<feColorMatrix in="SourceAlpha" type="matrix" values="0 0 0 0 0 0 0 0 0 0 0 0 0 0 0 0 0 0 127 0" result="hardAlpha"/>
<feOffset dx="-4"/>
<feGaussianBlur stdDeviation="4"/>
<feComposite in2="hardAlpha" operator="out"/>
<feColorMatrix type="matrix" values="0 0 0 0 0 0 0 0 0 0 0 0 0 0 0 0 0 0 0.2 0"/>
<feBlend mode="normal" in2="BackgroundImageFix" result="effect1_dropShadow_2393_20852"/>
<feBlend mode="normal" in="SourceGraphic" in2="effect1_dropShadow_2393_20852" result="shape"/>
</filter>
<radialGradient id="paint0_radial_2393_20852" cx="0" cy="0" r="1" gradientUnits="userSpaceOnUse" gradientTransform="translate(303.258 442.922) rotate(90) scale(329.5 59)">
<stop stop-color="white"/>
<stop offset="1" stop-color="#999999" stop-opacity="0"/>
</radialGradient>
<radialGradient id="paint1_radial_2393_20852" cx="0" cy="0" r="1" gradientUnits="userSpaceOnUse" gradientTransform="translate(58.8868 677.105) rotate(90) scale(677.105 58.8868)">
<stop offset="0.216346" stop-color="#1C1925"/>
<stop offset="1" stop-color="#999999" stop-opacity="0"/>
</radialGradient>
</defs>
</svg>
