<svg width="802" height="802" viewBox="0 0 802 802" fill="none" xmlns="http://www.w3.org/2000/svg">
<g id="tiles_label-nothing">
<mask id="mask0_2398_21106" style="mask-type:alpha" maskUnits="userSpaceOnUse" x="0" y="-1" width="802" height="803">
<rect id="mask-nothing" x="801.859" y="400.929" width="567" height="567" transform="rotate(135 801.859 400.929)" fill="#D9D9D9"/>
</mask>
<g mask="url(#mask0_2398_21106)">
<g id="label_group-nothing">
<g id="label-nothing">
<g id="base-nothing" filter="url(#filter0_d_2398_21106)">
<path d="M213 481C213 469.954 221.954 461 233 461H477C488.046 461 497 469.954 497 481V495C497 506.046 488.046 515 477 515H233C221.954 515 213 506.046 213 495V481Z" fill="#5756D6"/>
<path d="M176 516C176 504.954 184.954 496 196 496H513C524.046 496 533 504.954 533 516V557C533 568.046 524.046 577 513 577H196C184.954 577 176 568.046 176 557V516Z" fill="#5756D6"/>
</g>
<g id="content-nothing">
<path id="[Linked] NOTHING" d="M264.278 529.69H271.018C270.937 532.181 270.91 535.51 270.91 539.814C270.91 544.281 270.91 547.286 270.964 549.993H263.249C261.652 548.179 253.233 542.44 248.577 539.192C247.44 538.38 246.276 537.568 245.329 536.701C245.437 538.326 245.464 539.95 245.518 541.601C245.545 545.797 245.572 548.747 245.654 549.993H238.697C238.697 547.259 238.778 544.173 238.778 539.841C238.778 535.537 238.778 532.451 238.697 529.69H247.521C248.523 530.99 257.808 537.595 261.95 540.437C262.924 541.087 263.899 541.601 264.63 542.305C264.521 540.816 264.467 539.381 264.467 538.271C264.467 534.509 264.386 531.125 264.278 529.69ZM310.935 539.787C310.935 546.419 305.765 550.913 293.15 550.913C280.536 550.913 275.365 546.419 275.365 539.787C275.365 532.884 281.077 528.77 293.15 528.77C305.224 528.77 310.935 532.884 310.935 539.787ZM293.15 545.039C300.757 545.039 303.329 543.09 303.329 539.814C303.329 536.485 300.703 534.644 293.15 534.644C285.598 534.644 282.972 536.485 282.972 539.814C282.972 543.09 285.571 545.039 293.15 545.039ZM312.041 529.69H340.924C340.87 530.475 340.87 531.666 340.87 532.722C340.87 533.751 340.87 535.023 340.924 535.889C337.161 535.781 333.426 535.781 330.177 535.781C330.177 542.576 330.204 548.45 330.286 550.02C329.284 549.939 327.606 549.939 326.469 549.939C325.332 549.939 323.735 549.939 322.652 550.02C322.733 548.45 322.787 542.603 322.787 535.781C319.539 535.781 315.803 535.781 312.041 535.889C312.068 535.023 312.068 533.778 312.068 532.722C312.068 531.666 312.068 530.502 312.041 529.69ZM369.183 529.69H376.898C376.817 532.533 376.763 535.564 376.763 539.841C376.763 544.146 376.817 547.069 376.898 549.993H369.183C369.291 548.152 369.318 545.418 369.345 543.171C366.665 543.036 363.525 543.09 360.412 543.09C357.353 543.09 354.213 543.036 351.506 543.171C351.533 545.418 351.56 548.152 351.642 549.993H343.927C344.089 547.069 344.062 544.146 344.062 539.841C344.062 535.564 344.089 532.533 343.927 529.69H351.642C351.56 531.504 351.533 534.373 351.506 536.728C354.213 536.864 357.353 536.81 360.412 536.81C363.525 536.81 366.665 536.864 369.345 536.728C369.318 534.346 369.291 531.504 369.183 529.69ZM390.46 549.993H382.881C382.962 546.663 382.962 544.146 382.962 539.841C382.962 535.537 382.962 532.993 382.881 529.69H390.46C390.352 532.966 390.379 535.483 390.379 539.814C390.379 544.091 390.379 546.636 390.46 549.993ZM422.011 529.69H428.751C428.67 532.181 428.643 535.51 428.643 539.814C428.643 544.281 428.643 547.286 428.697 549.993H420.982C419.385 548.179 410.966 542.44 406.31 539.192C405.173 538.38 404.009 537.568 403.062 536.701C403.17 538.326 403.197 539.95 403.252 541.601C403.279 545.797 403.306 548.747 403.387 549.993H396.43C396.43 547.259 396.511 544.173 396.511 539.841C396.511 535.537 396.511 532.451 396.43 529.69H405.255C406.256 530.99 415.541 537.595 419.683 540.437C420.658 541.087 421.632 541.601 422.363 542.305C422.255 540.816 422.2 539.381 422.2 538.271C422.2 534.509 422.119 531.125 422.011 529.69ZM467.315 539.029C467.802 546.338 465.962 550.642 451.127 550.642C439.731 550.642 433.099 547.367 433.099 539.706C433.099 531.639 440.002 529.041 450.721 529.041C460.954 529.041 467.288 530.719 467.288 536.783C467.288 536.972 467.288 537.189 467.261 537.378C466.449 537.324 465.014 537.297 463.634 537.297C462.145 537.297 460.737 537.324 459.898 537.378C459.898 537.27 459.925 537.162 459.925 537.053C459.925 535.158 457.353 534.563 450.694 534.563C443.656 534.563 440.732 535.998 440.732 539.841C440.732 543.333 443.466 545.201 451.127 545.201C456.839 545.201 459.357 544.335 460.087 542.494C456.325 542.494 451.263 542.521 447.906 542.603C447.933 542.197 447.933 541.33 447.933 540.924C447.933 540.193 447.933 539.544 447.906 539.029C452.291 539.111 456.785 539.083 460.06 539.083C462.064 539.083 464.635 539.111 467.315 539.029Z" fill="#F7FCFD"/>
<path id="It&#226;&#128;&#153;s giving . . ." d="M258.74 503.993H254.111C254.994 500.704 255.847 497.415 257.034 492.573C258.253 487.7 259.075 484.411 259.806 481.152H264.435C263.521 484.38 262.729 487.669 261.511 492.542C260.293 497.384 259.471 500.673 258.74 503.993ZM274.203 481.761L273.137 485.66C275.573 485.66 278.101 485.629 280.385 485.599C280.08 486.725 279.654 488.187 279.38 489.314C277.461 489.253 274.812 489.223 272.223 489.192C271.584 491.659 270.883 494.308 270.152 497.232C269.635 499.333 270.579 500.49 272.954 500.49C274.294 500.49 275.573 500.186 276.669 499.79C276.487 501.039 276.426 502.5 276.334 503.566C274.873 503.993 273.441 504.236 271.949 504.236C266.559 504.236 265.036 501.191 265.919 497.536L268.051 489.162H265.615C265.858 488.157 266.254 486.634 266.467 485.629L268.965 485.66L269.939 481.761C270.579 481.761 271.371 481.792 272.071 481.792C272.771 481.792 273.533 481.792 274.203 481.761ZM283.895 481.152C284.473 481.183 285.143 481.183 285.905 481.183C286.544 481.183 287.366 481.183 288.006 481.152C286.788 483.619 283.986 489.497 283.133 491.293C282.341 491.172 280.971 490.898 280.149 490.806C281.154 488.614 283.164 483.406 283.895 481.152ZM293.343 501.039C296.297 501.039 297.607 500.521 297.911 499.272C298.338 497.597 297.455 496.867 293.282 496.197C287.649 495.252 286.583 493.029 287.344 489.893C288.136 486.756 290.724 485.233 296.054 485.233C302.358 485.233 304.52 487.395 303.667 490.898C303.576 491.172 303.515 491.415 303.424 491.689C302.936 491.659 302.144 491.628 301.383 491.628C300.652 491.628 299.952 491.659 299.556 491.659C299.556 491.568 299.647 491.354 299.647 491.263C300.135 489.405 299.16 488.553 295.749 488.553C292.856 488.553 291.608 489.162 291.303 490.289C290.968 491.689 291.638 492.451 295.901 493.182C301.383 494.156 302.784 495.953 301.87 499.638C301.109 502.653 298.734 504.389 292.978 504.389C286.065 504.389 284.116 501.952 284.999 498.541C285.06 498.298 285.182 498.054 285.243 497.78C285.73 497.841 286.43 497.871 287.253 497.871C287.953 497.871 288.653 497.871 289.141 497.811C289.11 497.963 289.049 498.085 289.019 498.206C288.593 500.064 289.689 501.039 293.343 501.039ZM328.093 493.76L329.037 490.045C327.94 488.918 326.235 488.279 324.256 488.279C321.362 488.279 319.657 489.619 318.835 492.877C317.86 496.714 319.2 498.328 322.215 498.328C324.926 498.328 327.362 496.653 328.093 493.76ZM330.011 485.629H334.305C333.818 487.213 333.239 489.466 332.539 492.268C331.839 495.131 331.199 497.993 330.529 500.704C329.219 505.881 326.996 508.53 320.236 508.53C313.414 508.53 311.617 506.307 312.44 502.957C312.5 502.714 312.531 502.592 312.622 502.348C313.17 502.409 313.779 502.44 314.693 502.44C315.454 502.44 316.124 502.409 316.703 502.348C316.642 502.47 316.612 502.653 316.581 502.744C316.124 504.51 317.312 505.333 320.449 505.333C323.586 505.333 325.504 504.175 326.265 501.343C326.54 500.308 326.783 499.272 327.179 498.054L327.027 498.024C325.596 499.851 323.372 501.13 320.571 501.13C315.759 501.13 313.384 498.115 314.815 492.329C316.033 487.395 319.018 485.325 323.372 485.325C326.631 485.325 328.458 486.39 329.372 487.822L329.554 487.761C329.646 487.304 329.707 486.908 329.798 486.482C329.889 486.147 329.95 485.903 330.011 485.629ZM344.645 482.371C344.432 483.193 343.823 483.863 341.599 483.863C339.376 483.863 338.98 483.132 339.194 482.249C339.407 481.396 340.046 480.817 342.239 480.817C344.462 480.817 344.858 481.426 344.645 482.371ZM338.676 503.993H334.351C335.174 501.008 335.844 498.237 336.788 494.491C337.671 490.928 338.28 488.461 338.919 485.629H343.274C342.452 488.492 341.843 490.898 340.929 494.613C339.924 498.663 339.315 501.039 338.676 503.993ZM360.126 485.629H364.877C361.801 490.349 355.132 500.978 353.335 503.993C352.635 503.962 351.843 503.962 350.686 503.962C349.407 503.962 348.371 503.962 347.945 503.993C347.549 500.947 346.239 490.471 345.478 485.629H350.137C350.168 487.365 350.777 492.238 350.99 495.862C351.173 497.902 351.264 499.425 351.264 500.612H351.477C352.086 499.425 352.97 497.841 354.188 495.831C356.259 492.085 359.213 487.304 360.126 485.629ZM372.781 482.371C372.568 483.193 371.959 483.863 369.736 483.863C367.513 483.863 367.117 483.132 367.33 482.249C367.543 481.396 368.183 480.817 370.376 480.817C372.599 480.817 372.995 481.426 372.781 482.371ZM366.812 503.993H362.488C363.31 501.008 363.98 498.237 364.924 494.491C365.807 490.928 366.417 488.461 367.056 485.629H371.411C370.589 488.492 369.98 490.898 369.066 494.613C368.061 498.663 367.452 501.039 366.812 503.993ZM379.218 489.619L379.401 489.649C381.289 486.756 383.756 485.325 386.801 485.325C391.004 485.325 393.196 488.309 392.191 492.359C391.521 495.07 391.156 496.227 390.73 497.963C390.181 500.125 389.755 502.044 389.329 503.993H384.913C385.644 501.282 386.557 497.445 387.715 493.151C388.415 490.502 387.501 488.857 384.365 488.857C381.533 488.857 379.096 490.532 378.152 494.43C376.69 500.216 376.203 502.257 375.807 503.993H371.452C372.153 501.465 372.701 499.151 373.767 495.039C374.741 491.141 375.472 488.065 376.02 485.629H380.345C379.979 487.091 379.644 488.157 379.218 489.619ZM409.037 493.76L409.981 490.045C408.884 488.918 407.179 488.279 405.199 488.279C402.306 488.279 400.601 489.619 399.779 492.877C398.804 496.714 400.144 498.328 403.159 498.328C405.869 498.328 408.306 496.653 409.037 493.76ZM410.955 485.629H415.249C414.762 487.213 414.183 489.466 413.483 492.268C412.782 495.131 412.143 497.993 411.473 500.704C410.163 505.881 407.94 508.53 401.179 508.53C394.358 508.53 392.561 506.307 393.383 502.957C393.444 502.714 393.475 502.592 393.566 502.348C394.114 502.409 394.723 502.44 395.637 502.44C396.398 502.44 397.068 502.409 397.647 502.348C397.586 502.47 397.555 502.653 397.525 502.744C397.068 504.51 398.256 505.333 401.393 505.333C404.529 505.333 406.448 504.175 407.209 501.343C407.483 500.308 407.727 499.272 408.123 498.054L407.971 498.024C406.539 499.851 404.316 501.13 401.514 501.13C396.703 501.13 394.327 498.115 395.759 492.329C396.977 487.395 399.961 485.325 404.316 485.325C407.575 485.325 409.402 486.39 410.316 487.822L410.498 487.761C410.59 487.304 410.651 486.908 410.742 486.482C410.833 486.147 410.894 485.903 410.955 485.629ZM425.01 498.511C426.806 498.511 427.629 499.607 427.141 501.678C426.715 503.323 425.649 504.206 424.127 504.206C422.299 504.206 421.538 503.049 422.056 500.917C422.452 499.303 423.548 498.511 425.01 498.511ZM438.722 498.511C440.519 498.511 441.341 499.607 440.854 501.678C440.428 503.323 439.362 504.206 437.839 504.206C436.012 504.206 435.251 503.049 435.768 500.917C436.164 499.303 437.261 498.511 438.722 498.511ZM452.435 498.511C454.232 498.511 455.054 499.607 454.567 501.678C454.141 503.323 453.075 504.206 451.552 504.206C449.725 504.206 448.963 503.049 449.481 500.917C449.877 499.303 450.973 498.511 452.435 498.511Z" fill="#F7FCFD"/>
<path id="Star 31" d="M493.074 530.993L497.666 543.401L510.074 547.993L497.666 552.584L493.074 564.993L488.483 552.584L476.074 547.993L488.483 543.401L493.074 530.993Z" fill="#D4F75F"/>
<path id="Star 32" d="M509.574 514.993L511.87 521.197L518.074 523.493L511.87 525.788L509.574 531.993L507.278 525.788L501.074 523.493L507.278 521.197L509.574 514.993Z" fill="#D4F75F"/>
<path id="Star 33" d="M204.074 519.993L208.666 532.401L221.074 536.993L208.666 541.584L204.074 553.993L199.483 541.584L187.074 536.993L199.483 532.401L204.074 519.993Z" fill="#D4F75F"/>
<path id="Star 34" d="M220.574 546.993L222.87 553.197L229.074 555.493L222.87 557.788L220.574 563.993L218.278 557.788L212.074 555.493L218.278 553.197L220.574 546.993Z" fill="#D4F75F"/>
</g>
<mask id="mask1_2398_21106" style="mask-type:alpha" maskUnits="userSpaceOnUse" x="176" y="460" width="358" height="117">
<g id="highlight_mask-nothing">
<path d="M213.074 480.993C213.074 469.947 222.029 460.993 233.074 460.993H477.074C488.12 460.993 497.074 469.947 497.074 480.993V494.993C497.074 506.038 488.12 514.993 477.074 514.993H233.074C222.029 514.993 213.074 506.038 213.074 494.993V480.993Z" fill="#5756D6"/>
<path d="M176.074 515.993C176.074 504.947 185.029 495.993 196.074 495.993H513.074C524.12 495.993 533.074 504.947 533.074 515.993V556.993C533.074 568.038 524.12 576.993 513.074 576.993H196.074C185.029 576.993 176.074 568.038 176.074 556.993V515.993Z" fill="#5756D6"/>
</g>
</mask>
<g mask="url(#mask1_2398_21106)">
<rect id="highlight-nothing" opacity="0.4" width="117.993" height="656.477" transform="matrix(0.992561 -0.121747 0.122685 0.992446 352.996 228.355)" fill="url(#paint0_radial_2398_21106)"/>
</g>
</g>
<g id="flap_group-nothing" filter="url(#filter1_d_2398_21106)">
<mask id="mask2_2398_21106" style="mask-type:alpha" maskUnits="userSpaceOnUse" x="-181" y="577" width="357" height="81">
<rect id="flap_mask-nothing" x="-181" y="577" width="357" height="81" rx="20" fill="#F7FCFD"/>
</mask>
<g mask="url(#mask2_2398_21106)">
<rect id="flap-nothing" x="-181" y="577" width="357" height="81" rx="20" fill="#F7FCFD"/>
<rect id="shadow-nothing" opacity="0.5" width="117.29" height="1348.64" transform="matrix(-0.707107 0.707107 -0.702972 -0.711218 702.914 1096.18)" fill="url(#paint1_radial_2398_21106)"/>
</g>
</g>
</g>
</g>
</g>
<defs>
<filter id="filter0_d_2398_21106" x="172" y="457" width="373" height="132" filterUnits="userSpaceOnUse" color-interpolation-filters="sRGB">
<feFlood flood-opacity="0" result="BackgroundImageFix"/>
<feColorMatrix in="SourceAlpha" type="matrix" values="0 0 0 0 0 0 0 0 0 0 0 0 0 0 0 0 0 0 127 0" result="hardAlpha"/>
<feOffset dx="4" dy="4"/>
<feGaussianBlur stdDeviation="4"/>
<feComposite in2="hardAlpha" operator="out"/>
<feColorMatrix type="matrix" values="0 0 0 0 0 0 0 0 0 0 0 0 0 0 0 0 0 0 0.3 0"/>
<feBlend mode="normal" in2="BackgroundImageFix" result="effect1_dropShadow_2398_21106"/>
<feBlend mode="normal" in="SourceGraphic" in2="effect1_dropShadow_2398_21106" result="shape"/>
</filter>
<filter id="filter1_d_2398_21106" x="-185" y="573" width="373" height="97" filterUnits="userSpaceOnUse" color-interpolation-filters="sRGB">
<feFlood flood-opacity="0" result="BackgroundImageFix"/>
<feColorMatrix in="SourceAlpha" type="matrix" values="0 0 0 0 0 0 0 0 0 0 0 0 0 0 0 0 0 0 127 0" result="hardAlpha"/>
<feOffset dx="4" dy="4"/>
<feGaussianBlur stdDeviation="4"/>
<feComposite in2="hardAlpha" operator="out"/>
<feColorMatrix type="matrix" values="0 0 0 0 0 0 0 0 0 0 0 0 0 0 0 0 0 0 0.2 0"/>
<feBlend mode="normal" in2="BackgroundImageFix" result="effect1_dropShadow_2398_21106"/>
<feBlend mode="normal" in="SourceGraphic" in2="effect1_dropShadow_2398_21106" result="shape"/>
</filter>
<radialGradient id="paint0_radial_2398_21106" cx="0" cy="0" r="1" gradientUnits="userSpaceOnUse" gradientTransform="translate(58.9966 328.239) rotate(90) scale(328.239 58.9966)">
<stop stop-color="white"/>
<stop offset="1" stop-color="#999999" stop-opacity="0"/>
</radialGradient>
<radialGradient id="paint1_radial_2398_21106" cx="0" cy="0" r="1" gradientUnits="userSpaceOnUse" gradientTransform="translate(58.645 674.321) rotate(90) scale(674.321 58.645)">
<stop offset="0.216346" stop-color="#1C1925"/>
<stop offset="1" stop-color="#999999" stop-opacity="0"/>
</radialGradient>
</defs>
</svg>
