<svg width="802" height="802" viewBox="0 0 802 802" fill="none" xmlns="http://www.w3.org/2000/svg">
<g id="tiles_label-look">
<mask id="mask0_2398_21077" style="mask-type:alpha" maskUnits="userSpaceOnUse" x="0" y="0" width="802" height="802">
<rect id="mask-look" x="400.93" y="801.859" width="567" height="567" transform="rotate(-135 400.93 801.859)" fill="#D9D9D9"/>
</mask>
<g mask="url(#mask0_2398_21077)">
<g id="label_group-look">
<g id="label-look">
<g id="base-look" filter="url(#filter0_d_2398_21077)">
<rect x="314.039" y="442.997" width="296" height="150" rx="68.565" fill="#FF6249"/>
</g>
<g id="content-look">
<path id="L KING AT?" d="M345.954 523.968H356.527C356.43 526.648 356.381 534.249 356.332 542.094C356.332 544.335 356.332 546.917 356.381 549.256C357.989 549.207 359.938 549.159 361.741 549.11C361.692 550.815 361.692 552.764 361.692 554.616C361.692 556.614 361.692 558.709 361.741 560.512H345.954C346.003 557.881 346.1 550.036 346.1 542.24C346.1 534.103 346.1 527.427 345.954 523.968ZM432.088 523.968H442.417C440.615 529.474 439.055 539.755 435.206 542.678C437.886 543.604 438.861 545.748 439.543 548.525C441.053 554.031 441.881 558.611 442.417 560.512H433.16C432.039 560.512 431.6 560.171 431.406 559.099C430.577 554.372 429.408 548.915 428.044 545.943H427.556C427.556 551.351 427.605 556.321 427.702 560.512H417.519C417.616 555.347 417.665 550.036 417.665 542.24C417.665 534.493 417.616 529.035 417.519 523.968H427.702C427.556 528.451 427.556 534.395 427.556 540.096H427.849C428.482 538.488 429.164 536.783 429.603 535.223C430.918 529.864 431.649 526.355 432.088 523.968ZM454.019 560.512H443.69C443.787 555.396 443.787 549.987 443.787 542.24C443.787 534.493 443.787 529.035 443.69 523.968H454.019C453.922 529.035 453.922 534.444 453.922 542.191C453.922 549.938 453.971 555.396 454.019 560.512ZM472.509 523.968H481.035C480.938 526.355 480.889 534.444 480.889 542.191C480.889 550.377 480.889 555.883 480.987 560.512H470.949C470.121 557.588 468.708 553.203 467.295 549.305C466.467 546.381 465.833 543.312 465.297 540.193L465.102 540.242C465.346 543.896 465.443 547.064 465.492 550.036C465.59 555.347 465.59 559.05 465.638 560.512H456.965C457.014 555.59 457.014 550.036 457.014 542.24C457.014 534.493 457.063 528.938 456.965 523.968H467.88C468.318 526.161 470.121 531.764 471.437 536.929C472.021 539.073 472.606 541.753 473.045 544.432H473.142C472.947 541.363 472.801 538.488 472.801 536.198C472.752 531.91 472.655 527.086 472.509 523.968ZM498.369 547.307L495.591 547.356C495.64 546.528 495.64 544.432 495.64 543.507C495.64 542.191 495.64 540.973 495.591 540.096C497.492 540.145 499.441 540.145 500.854 540.145C502.656 540.145 505.044 540.145 507.432 540.047C507.919 555.785 506.213 560.999 495.689 560.999C486.675 560.999 483.166 556.516 483.166 541.753C483.166 527.281 486.821 523.481 495.835 523.481C504.752 523.481 507.529 526.745 507.529 534.687C507.529 535.613 507.48 536.588 507.432 537.611C506.067 537.562 504.362 537.513 502.413 537.513C500.61 537.513 498.953 537.562 497.687 537.611C497.735 536.783 497.784 536.003 497.784 535.418C497.784 532.446 497.151 531.52 495.786 531.52C493.789 531.52 493.058 533.372 493.058 541.85C493.058 550.231 493.74 552.277 495.981 552.277C497.589 552.277 498.271 551.157 498.369 547.307ZM529.226 545.748H531.029C530.736 542.094 530.395 538.293 530.005 534.931C529.713 533.177 529.518 530.838 529.323 528.987H529.031C528.885 530.838 528.641 533.177 528.349 534.931C527.959 538.293 527.618 542.094 527.325 545.748H529.226ZM542.723 560.512H531.857C531.857 559.147 531.759 556.662 531.565 553.544H529.177H526.741C526.546 556.565 526.4 559.05 526.4 560.512H516.508C518.019 551.303 520.845 528.499 521.284 523.968H537.655C538.24 528.597 541.163 551.254 542.723 560.512ZM541.83 523.968H560.686C560.637 525.381 560.637 527.574 560.637 529.571C560.637 531.52 560.637 533.859 560.686 535.418C559.273 535.37 557.86 535.37 556.545 535.321C556.593 546.284 556.642 558.075 556.691 560.56C555.278 560.414 552.939 560.414 551.282 560.414C549.577 560.414 547.335 560.414 545.825 560.56C545.971 558.075 546.02 546.284 546.02 535.321C544.656 535.37 543.243 535.37 541.83 535.418C541.878 533.859 541.878 531.52 541.878 529.571C541.878 527.574 541.878 525.381 541.83 523.968ZM569.762 538.439H566.303C564.695 538.439 562.941 538.488 561.82 538.585C561.723 537.27 561.723 536.003 561.723 534.103C561.723 526.843 564.11 523.481 572.247 523.481C579.654 523.481 582.626 526.258 582.626 533.518C582.626 538.439 581.359 541.119 578.776 543.702C577.266 545.309 576.779 546.674 576.779 548.184C576.779 548.672 576.779 549.061 576.827 549.549C575.317 549.5 573.368 549.451 571.711 549.451C569.86 549.451 568.447 549.5 566.741 549.646C566.693 549.061 566.693 548.525 566.693 547.941C566.693 544.189 567.765 542.337 570.493 540.145C572.735 538.439 573.222 536.636 573.222 534.346C573.222 532.495 572.783 531.618 571.614 531.618C570.25 531.618 569.714 532.885 569.714 535.564C569.714 536.393 569.714 537.416 569.762 538.439ZM571.711 551.059C575.658 551.059 577.753 552.57 577.753 555.98C577.753 559.342 575.707 560.95 571.711 560.95C567.765 560.95 565.816 559.342 565.816 555.98C565.816 552.57 567.862 551.059 571.711 551.059Z" fill="#1B1B1B"/>
<g id="Group 402">
<path id="Ellipse 182" d="M375.962 518.76C379.121 518.76 382.153 521.211 384.436 525.558C386.701 529.872 388.123 535.881 388.123 542.556C388.123 549.232 386.701 555.241 384.436 559.554C382.153 563.901 379.121 566.353 375.962 566.353C372.802 566.353 369.771 563.901 367.488 559.554C365.223 555.241 363.801 549.232 363.801 542.556C363.801 535.881 365.223 529.872 367.488 525.558C369.771 521.211 372.802 518.76 375.962 518.76Z" fill="#F7FCFD" stroke="#1B1B1B" stroke-width="1.41409"/>
<ellipse id="Ellipse 184" cx="381.192" cy="542.556" rx="6.50479" ry="12.3928" fill="#1B1B1B"/>
</g>
<g id="Group 403">
<path id="Ellipse 185" d="M401.7 518.76C404.86 518.76 407.891 521.211 410.174 525.558C412.439 529.872 413.861 535.881 413.861 542.556C413.861 549.232 412.439 555.241 410.174 559.554C407.891 563.901 404.86 566.353 401.7 566.353C398.541 566.353 395.509 563.901 393.227 559.554C390.961 555.241 389.539 549.232 389.539 542.556C389.539 535.881 390.961 529.872 393.227 525.558C395.509 521.211 398.541 518.76 401.7 518.76Z" fill="#F7FCFD" stroke="#1B1B1B" stroke-width="1.41409"/>
<ellipse id="Ellipse 186" cx="406.931" cy="542.556" rx="6.50479" ry="12.3928" fill="#1B1B1B"/>
</g>
<path id="What am i" d="M398.293 468.453H403.019C401.509 475.908 397.611 499.296 396.587 504.997C395.857 504.949 394.833 504.949 393.761 504.949C392.153 504.949 390.935 504.949 390.253 504.997C389.766 501.781 388.304 491.5 387.232 483.704C386.794 480.586 386.404 476.98 386.112 474.154H385.965C385.673 477.029 385.283 480.732 384.796 483.753C383.578 491.695 382.019 501.392 381.434 504.997C380.508 504.949 379.29 504.949 378.218 504.949C376.854 504.949 375.977 504.949 375.392 504.997C374.174 498.955 370.666 475.811 369.009 468.453H374.759C375.002 471.621 376.708 483.704 377.926 492.378C378.364 495.593 378.657 498.322 378.852 500.368H379.095C379.339 498.273 379.729 495.545 380.167 492.378C381.288 484.094 383.091 472.352 383.432 468.453H386.696H389.717C390.107 472.157 391.569 483.802 392.836 492.475C393.323 495.788 393.615 498.468 393.859 500.515H394.102C394.297 498.468 394.638 495.788 395.077 492.524C396.198 484.094 397.903 472.205 398.293 468.453ZM425.186 504.997H420.119C420.216 499.54 420.265 492.913 420.265 483.704C420.265 480.391 419.144 478.832 416.269 478.832C413.346 478.832 411.007 480.683 411.007 485.117C411.007 497.883 411.056 501.392 411.104 504.997H406.086C406.183 500.515 406.183 496.276 406.183 489.21C406.183 480.732 406.135 472.254 406.086 467.284H411.153C411.104 469.915 411.104 472.205 411.104 474.788C411.056 476.201 411.056 477.37 411.007 478.734H411.251C412.518 475.811 414.954 474.495 418.365 474.495C422.652 474.495 425.137 477.029 425.137 482.389C425.137 488.236 425.089 490.867 425.089 494.375C425.089 498.322 425.089 501.635 425.186 504.997ZM437.853 501.489C441.118 501.489 442.872 498.761 442.872 495.057C442.872 493.888 442.872 492.572 442.872 491.306C441.654 491.062 440.241 490.964 438.73 490.964C435.71 490.964 434.248 492.134 434.248 496.129C434.248 500.32 435.271 501.489 437.853 501.489ZM443.067 500.807L442.775 500.758C441.849 503.877 439.51 505.387 436.002 505.387C431.86 505.387 429.473 503.292 429.473 496.86C429.473 490.526 432.347 488.236 438.048 488.236C439.949 488.236 441.703 488.382 442.921 488.723C442.97 486.872 442.97 485.02 442.97 483.363C442.97 480.683 441.8 478.832 439.072 478.832C436.294 478.832 434.832 480.391 434.979 485.507C434.394 485.459 433.663 485.459 432.883 485.459C431.909 485.459 430.983 485.459 430.252 485.556C429.862 478.734 432.494 474.495 439.023 474.495C445.211 474.495 447.842 477.955 447.842 483.217C447.842 488.09 447.696 491.549 447.696 495.74C447.696 499.296 447.842 503.73 448.183 504.997H444.139C443.164 504.997 442.97 504.802 442.97 503.682C442.97 502.853 443.018 501.781 443.067 500.807ZM458.753 469.331L458.656 474.983C460.946 474.983 463.334 474.983 465.672 474.934C465.624 476.298 465.575 478.004 465.575 479.417C463.675 479.368 461.141 479.319 458.607 479.27C458.559 484.63 458.51 490.721 458.51 497.347C458.51 499.784 459.533 500.856 461.969 500.856C463.236 500.856 464.406 500.515 465.429 500.027C465.575 501.489 465.916 503.341 466.111 504.51C464.406 504.997 463.236 505.338 461.238 505.338C455.781 505.338 453.735 502.269 453.735 497.689C453.735 492.767 453.783 486.238 453.832 479.222L451.152 479.173C451.152 477.906 451.152 476.201 451.104 474.934L453.832 474.983V469.331C454.612 469.331 455.44 469.379 456.317 469.379C457.145 469.379 457.974 469.379 458.753 469.331ZM486.578 501.489C489.843 501.489 491.597 498.761 491.597 495.057C491.597 493.888 491.597 492.572 491.597 491.306C490.379 491.062 488.966 490.964 487.456 490.964C484.435 490.964 482.973 492.134 482.973 496.129C482.973 500.32 483.996 501.489 486.578 501.489ZM491.792 500.807L491.5 500.758C490.574 503.877 488.235 505.387 484.727 505.387C480.585 505.387 478.198 503.292 478.198 496.86C478.198 490.526 481.073 488.236 486.773 488.236C488.674 488.236 490.428 488.382 491.646 488.723C491.695 486.872 491.695 485.02 491.695 483.363C491.695 480.683 490.525 478.832 487.797 478.832C485.019 478.832 483.558 480.391 483.704 485.507C483.119 485.459 482.388 485.459 481.609 485.459C480.634 485.459 479.708 485.459 478.977 485.556C478.588 478.734 481.219 474.495 487.748 474.495C493.936 474.495 496.567 477.955 496.567 483.217C496.567 488.09 496.421 491.549 496.421 495.74C496.421 499.296 496.567 503.73 496.908 504.997H492.864C491.89 504.997 491.695 504.802 491.695 503.682C491.695 502.853 491.743 501.781 491.792 500.807ZM519.161 478.978L519.453 479.027C520.672 475.811 523.108 474.544 526.031 474.544C529.881 474.544 532.414 476.785 532.414 481.512C532.414 486.725 532.317 490.77 532.317 494.911C532.317 498.419 532.366 502.074 532.414 504.997H527.591C527.688 500.076 527.737 492.572 527.737 483.315C527.737 480.294 526.714 478.832 524.229 478.832C521.597 478.832 519.6 480.586 519.6 484.776C519.6 496.324 519.551 500.856 519.697 504.997H514.873C514.971 500.027 515.019 494.034 515.019 483.363C515.019 480.342 514.094 478.832 511.511 478.832C508.978 478.832 506.882 480.586 506.882 484.776C506.882 494.814 506.882 501.343 506.98 504.997H502.156C502.254 500.758 502.254 496.519 502.254 490.282C502.254 483.753 502.254 479.173 502.156 474.934H507.029C506.98 476.347 506.98 477.419 506.931 478.734H507.223C508.393 475.86 510.537 474.544 513.363 474.544C516.238 474.544 518.479 476.006 519.161 478.978ZM553.064 470.11C553.064 471.231 552.48 472.254 549.946 472.254C547.315 472.254 546.681 471.231 546.681 470.11C546.681 468.843 547.412 468.015 549.946 468.015C552.431 468.015 553.064 468.843 553.064 470.11ZM552.382 504.997H547.412C547.461 500.417 547.461 495.545 547.461 489.405C547.461 483.607 547.461 479.222 547.412 474.934H552.382C552.285 479.319 552.285 483.656 552.285 489.551C552.285 496.373 552.285 500.515 552.382 504.997Z" fill="white"/>
</g>
<mask id="mask1_2398_21077" style="mask-type:alpha" maskUnits="userSpaceOnUse" x="314" y="442" width="297" height="151">
<rect id="highlight_mask-look" x="314.039" y="442.997" width="296" height="150" rx="68.565" fill="#FF6249"/>
</mask>
<g mask="url(#mask1_2398_21077)">
<rect id="highlight-look" opacity="0.4" width="117.993" height="656.477" transform="matrix(0.992561 -0.121747 0.122685 0.992446 439.008 211.363)" fill="url(#paint0_radial_2398_21077)"/>
</g>
</g>
<g id="flap_group-look" filter="url(#filter1_d_2398_21077)">
<mask id="mask2_2398_21077" style="mask-type:alpha" maskUnits="userSpaceOnUse" x="610" y="592" width="297" height="151">
<rect id="flap_mask-look" x="610.039" y="592.997" width="296" height="150" rx="68.565" fill="#F7FCFD"/>
</mask>
<g mask="url(#mask2_2398_21077)">
<rect id="flap-look" x="610.035" y="592.997" width="296" height="150" rx="68.565" fill="#F7FCFD"/>
<rect id="shadow-look" opacity="0.5" width="117.29" height="1348.64" transform="matrix(0.707107 0.707107 -0.711218 0.702972 1104.19 117.997)" fill="url(#paint1_radial_2398_21077)"/>
</g>
</g>
</g>
</g>
</g>
<defs>
<filter id="filter0_d_2398_21077" x="302.039" y="436.997" width="312" height="166" filterUnits="userSpaceOnUse" color-interpolation-filters="sRGB">
<feFlood flood-opacity="0" result="BackgroundImageFix"/>
<feColorMatrix in="SourceAlpha" type="matrix" values="0 0 0 0 0 0 0 0 0 0 0 0 0 0 0 0 0 0 127 0" result="hardAlpha"/>
<feOffset dx="-4" dy="2"/>
<feGaussianBlur stdDeviation="4"/>
<feComposite in2="hardAlpha" operator="out"/>
<feColorMatrix type="matrix" values="0 0 0 0 0 0 0 0 0 0 0 0 0 0 0 0 0 0 0.3 0"/>
<feBlend mode="normal" in2="BackgroundImageFix" result="effect1_dropShadow_2398_21077"/>
<feBlend mode="normal" in="SourceGraphic" in2="effect1_dropShadow_2398_21077" result="shape"/>
</filter>
<filter id="filter1_d_2398_21077" x="598.039" y="586.997" width="312" height="166" filterUnits="userSpaceOnUse" color-interpolation-filters="sRGB">
<feFlood flood-opacity="0" result="BackgroundImageFix"/>
<feColorMatrix in="SourceAlpha" type="matrix" values="0 0 0 0 0 0 0 0 0 0 0 0 0 0 0 0 0 0 127 0" result="hardAlpha"/>
<feOffset dx="-4" dy="2"/>
<feGaussianBlur stdDeviation="4"/>
<feComposite in2="hardAlpha" operator="out"/>
<feColorMatrix type="matrix" values="0 0 0 0 0 0 0 0 0 0 0 0 0 0 0 0 0 0 0.2 0"/>
<feBlend mode="normal" in2="BackgroundImageFix" result="effect1_dropShadow_2398_21077"/>
<feBlend mode="normal" in="SourceGraphic" in2="effect1_dropShadow_2398_21077" result="shape"/>
</filter>
<radialGradient id="paint0_radial_2398_21077" cx="0" cy="0" r="1" gradientUnits="userSpaceOnUse" gradientTransform="translate(58.9966 328.239) rotate(90) scale(328.239 58.9966)">
<stop stop-color="white"/>
<stop offset="1" stop-color="#999999" stop-opacity="0"/>
</radialGradient>
<radialGradient id="paint1_radial_2398_21077" cx="0" cy="0" r="1" gradientUnits="userSpaceOnUse" gradientTransform="translate(58.645 674.321) rotate(90) scale(674.321 58.645)">
<stop offset="0.216346" stop-color="#1C1925"/>
<stop offset="1" stop-color="#999999" stop-opacity="0"/>
</radialGradient>
</defs>
</svg>
