<svg width="38" height="67" viewBox="0 0 38 67" fill="none" xmlns="http://www.w3.org/2000/svg">
<path d="M18.8887 0.5C29.0456 0.5 37.2773 8.71566 37.2773 18.8477C37.2773 23.979 35.1795 35.739 31.7695 46.2285C30.0658 51.4692 28.0459 56.3572 25.8174 59.9248C24.7029 61.709 23.5493 63.1422 22.375 64.124C21.2019 65.1048 20.0381 65.6113 18.8887 65.6113C17.7395 65.6113 16.5763 65.1046 15.4033 64.124C14.2291 63.1422 13.0754 61.709 11.9609 59.9248C9.73238 56.3571 7.71158 51.4694 6.00781 46.2285C2.59782 35.739 0.500051 23.979 0.5 18.8477C0.5 8.71574 8.73183 0.500117 18.8887 0.5Z" fill="#8A8A8A" stroke="#F7FCFD"/>
<circle cx="18.8923" cy="20.9899" r="10.4938" fill="#F7FCFD"/>
</svg>
