<svg width="962" height="962" viewBox="0 0 962 962" fill="none" xmlns="http://www.w3.org/2000/svg">
<g id="label-distracted">
<mask id="mask0_2277_9261" style="mask-type:alpha" maskUnits="userSpaceOnUse" x="0" y="0" width="962" height="962">
<rect id="label_mask-distracted" x="480.832" width="680" height="680" transform="rotate(45 480.832 0)" fill="#D9D9D9"/>
</mask>
<g mask="url(#mask0_2277_9261)">
<g id="label_group-distracted">
<g id="label-distracted_2">
<g id="base-distracted" filter="url(#filter0_d_2277_9261)">
<rect x="453" y="313.02" width="341" height="77" fill="#5756D6"/>
</g>
<g id="highlight_group-distracted">
<mask id="mask1_2277_9261" style="mask-type:alpha" maskUnits="userSpaceOnUse" x="453" y="313" width="341" height="78">
<rect id="highlight_mask-distracted" x="453" y="313.02" width="341" height="77" fill="#5756D6"/>
</mask>
<g mask="url(#mask1_2277_9261)">
<rect id="highlight-distracted" opacity="0.3" x="658" y="172.059" width="65.357" height="365.002" transform="rotate(-7.96851 658 172.059)" fill="url(#paint0_radial_2277_9261)"/>
</g>
</g>
<g id="content-distracted">
<path id="DISTRACTED" d="M498.173 362.26C503.413 362.26 505.613 360.9 505.613 353.74C505.613 346.9 503.453 345.78 498.293 345.78C496.573 345.78 495.013 345.82 493.533 345.9C493.453 348.54 493.453 351.46 493.453 354.3C493.453 357.82 493.453 360.22 493.493 362.14C495.093 362.26 496.413 362.26 498.173 362.26ZM485.573 339.02H498.253C508.853 339.02 513.373 342.62 513.373 353.58C513.373 364.54 509.253 369.02 498.093 369.02H485.573C485.693 364.86 485.693 360.42 485.693 354.06C485.693 347.7 485.693 342.82 485.573 339.02ZM525.859 369.02H517.899C518.019 364.66 518.019 360.38 518.019 354.02C518.019 347.62 518.019 343.34 517.899 339.02H525.859C525.739 343.26 525.739 347.58 525.739 353.98C525.739 360.34 525.739 364.62 525.859 369.02ZM538.385 359.26V359.66C538.385 362.34 539.745 363.3 544.345 363.3C548.825 363.3 550.025 362.3 550.025 360.66C550.025 358.9 548.945 357.58 542.945 356.78C533.545 355.46 530.865 352.3 530.865 347.22C530.865 342.22 534.945 338.46 543.825 338.46C553.465 338.46 556.985 341.7 556.985 346.82C556.985 347.34 556.945 347.9 556.905 348.5C556.065 348.46 554.745 348.42 553.385 348.42C552.025 348.42 550.625 348.46 549.785 348.5C549.825 348.22 549.825 347.9 549.825 347.66C549.825 345.94 548.705 344.74 543.585 344.74C539.705 344.74 538.545 345.7 538.545 347.18C538.545 348.54 539.265 349.9 545.665 350.78C554.145 351.98 557.385 354.82 557.385 360.38C557.385 365.82 553.545 369.58 544.385 369.58C534.465 369.58 530.625 366.42 530.625 361.06C530.625 360.42 530.665 359.82 530.745 359.14C531.585 359.3 532.985 359.38 534.385 359.38C535.905 359.38 537.305 359.34 538.385 359.26ZM559.29 339.02H583.29C583.25 339.86 583.25 341.18 583.25 342.42C583.25 343.5 583.25 344.94 583.29 345.86C580.45 345.82 577.61 345.78 575.09 345.78C575.09 356.3 575.13 366.7 575.25 369.06C574.21 368.94 572.45 368.94 571.29 368.94C570.09 368.94 568.49 368.94 567.33 369.06C567.45 366.74 567.49 356.34 567.49 345.78C564.97 345.78 562.13 345.82 559.29 345.86C559.33 344.94 559.33 343.5 559.33 342.42C559.33 341.18 559.33 339.9 559.29 339.02ZM594.433 353.62C595.793 353.66 598.273 353.66 601.033 353.7C604.273 353.7 605.873 352.3 605.873 349.5C605.873 346.02 604.073 345.26 600.273 345.26C599.153 345.26 596.353 345.3 594.433 345.38C594.433 348.18 594.433 350.94 594.433 353.62ZM606.433 357.22V357.42C610.313 357.9 611.793 358.98 613.073 362.82C613.913 365.34 614.673 367.74 615.153 369.02H607.593C606.313 369.02 606.193 368.62 605.273 365.1C603.953 360.26 603.273 359.46 600.393 359.46C598.433 359.46 597.393 359.46 594.513 359.5C594.553 363.34 594.673 366.7 594.873 369.02H586.753C586.793 364.66 586.873 360.42 586.873 354.02C586.873 347.66 586.833 343.34 586.753 339.02H601.833C609.153 339.02 613.433 342.18 613.433 348.26C613.433 353.58 611.433 356.38 606.433 357.22ZM629.264 348.62L626.624 357.38C628.224 357.42 629.864 357.42 631.064 357.42C632.304 357.42 633.984 357.42 635.624 357.38C634.744 354.34 633.744 351.14 632.904 348.5C632.064 346.06 631.544 344.18 631.104 342.82C630.664 344.18 630.104 346.02 629.264 348.62ZM647.744 369.02H638.784C638.624 368.02 638.024 365.82 637.264 363.02C635.024 363.02 632.744 363.02 631.024 363.02C629.424 363.02 627.144 363.02 624.944 363.02C624.184 365.66 623.544 367.86 623.264 369.02H614.984C617.864 361.54 623.824 343.34 625.224 339.02H637.264C638.744 343.38 644.664 361.38 647.744 369.02ZM668.614 351.1V350.5C668.614 346.66 666.454 345.38 662.414 345.38C657.894 345.42 655.734 347.38 655.734 353.7C655.734 360.18 658.014 362.54 662.694 362.54C666.854 362.54 668.694 360.54 668.694 357.5V356.82C669.974 356.86 671.214 356.86 672.454 356.86C673.734 356.86 675.054 356.86 676.374 356.82C676.334 357.22 676.374 357.58 676.374 357.98C676.374 364.9 671.654 369.5 662.734 369.5C653.374 369.5 647.734 364.58 647.734 353.9C647.734 344.14 652.774 338.54 662.734 338.54C672.254 338.54 676.254 343.42 676.254 349.22C676.254 349.82 676.214 350.46 676.174 351.1C674.894 351.06 673.574 351.06 672.334 351.06C671.054 351.06 669.894 351.06 668.614 351.1ZM678.476 339.02H702.476C702.436 339.86 702.436 341.18 702.436 342.42C702.436 343.5 702.436 344.94 702.476 345.86C699.636 345.82 696.796 345.78 694.276 345.78C694.276 356.3 694.316 366.7 694.436 369.06C693.396 368.94 691.636 368.94 690.476 368.94C689.276 368.94 687.676 368.94 686.516 369.06C686.636 366.74 686.676 356.34 686.676 345.78C684.156 345.78 681.316 345.82 678.476 345.86C678.516 344.94 678.516 343.5 678.516 342.42C678.516 341.18 678.516 339.9 678.476 339.02ZM705.899 339.02H729.659C729.619 339.7 729.579 341.1 729.579 342.1C729.579 343.18 729.579 344.86 729.659 345.62C724.179 345.58 718.139 345.54 713.699 345.54V350.82C719.019 350.82 724.899 350.82 729.299 350.7C729.259 352.06 729.259 355.42 729.259 356.86C724.939 356.78 718.979 356.74 713.699 356.74V362.18C718.139 362.18 724.419 362.14 729.659 362.1C729.579 362.9 729.579 364.58 729.579 365.78C729.579 366.74 729.579 368.22 729.659 369.02H705.899C706.059 365.1 706.059 360.42 706.059 354.02C706.059 347.66 706.059 342.74 705.899 339.02ZM747.661 362.26C752.901 362.26 755.101 360.9 755.101 353.74C755.101 346.9 752.941 345.78 747.781 345.78C746.061 345.78 744.501 345.82 743.021 345.9C742.941 348.54 742.941 351.46 742.941 354.3C742.941 357.82 742.941 360.22 742.981 362.14C744.581 362.26 745.901 362.26 747.661 362.26ZM735.061 339.02H747.741C758.341 339.02 762.861 342.62 762.861 353.58C762.861 364.54 758.741 369.02 747.581 369.02H735.061C735.181 364.86 735.181 360.42 735.181 354.06C735.181 347.7 735.181 342.82 735.061 339.02Z" fill="#F7FCFD"/>
</g>
</g>
<g id="flap-distracted" filter="url(#filter1_d_2277_9261)">
<rect x="794" y="313" width="341" height="77" transform="rotate(-90 794 313)" fill="#F7FCFD"/>
</g>
</g>
</g>
</g>
<defs>
<filter id="filter0_d_2277_9261" x="443" y="309.02" width="357" height="93" filterUnits="userSpaceOnUse" color-interpolation-filters="sRGB">
<feFlood flood-opacity="0" result="BackgroundImageFix"/>
<feColorMatrix in="SourceAlpha" type="matrix" values="0 0 0 0 0 0 0 0 0 0 0 0 0 0 0 0 0 0 127 0" result="hardAlpha"/>
<feOffset dx="-2" dy="4"/>
<feGaussianBlur stdDeviation="4"/>
<feComposite in2="hardAlpha" operator="out"/>
<feColorMatrix type="matrix" values="0 0 0 0 0 0 0 0 0 0 0 0 0 0 0 0 0 0 0.3 0"/>
<feBlend mode="normal" in2="BackgroundImageFix" result="effect1_dropShadow_2277_9261"/>
<feBlend mode="normal" in="SourceGraphic" in2="effect1_dropShadow_2277_9261" result="shape"/>
</filter>
<filter id="filter1_d_2277_9261" x="786" y="-34" width="93" height="357" filterUnits="userSpaceOnUse" color-interpolation-filters="sRGB">
<feFlood flood-opacity="0" result="BackgroundImageFix"/>
<feColorMatrix in="SourceAlpha" type="matrix" values="0 0 0 0 0 0 0 0 0 0 0 0 0 0 0 0 0 0 127 0" result="hardAlpha"/>
<feOffset dy="2"/>
<feGaussianBlur stdDeviation="4"/>
<feComposite in2="hardAlpha" operator="out"/>
<feColorMatrix type="matrix" values="0 0 0 0 0 0 0 0 0 0 0 0 0 0 0 0 0 0 0.2 0"/>
<feBlend mode="normal" in2="BackgroundImageFix" result="effect1_dropShadow_2277_9261"/>
<feBlend mode="normal" in="SourceGraphic" in2="effect1_dropShadow_2277_9261" result="shape"/>
</filter>
<radialGradient id="paint0_radial_2277_9261" cx="0" cy="0" r="1" gradientUnits="userSpaceOnUse" gradientTransform="translate(690.679 354.56) rotate(90) scale(182.501 32.6785)">
<stop stop-color="white"/>
<stop offset="1" stop-color="#999999" stop-opacity="0"/>
</radialGradient>
</defs>
</svg>
