<svg width="477" height="477" viewBox="0 0 477 477" fill="none" xmlns="http://www.w3.org/2000/svg">
<g id="label-lazy">
<mask id="mask0_2277_9304" style="mask-type:alpha" maskUnits="userSpaceOnUse" x="-1" y="0" width="478" height="477">
<rect id="label_mask-lazy" x="238.293" width="337" height="337" transform="rotate(45 238.293 0)" fill="#D9D9D9"/>
</mask>
<g mask="url(#mask0_2277_9304)">
<g id="label_group-lazy">
<g id="label-lazy_2">
<g id="base-lazy" filter="url(#filter0_d_2277_9304)">
<rect x="215" y="129" width="152" height="77" fill="#5756D6"/>
</g>
<g id="highlight_group-lazy">
<mask id="mask1_2277_9304" style="mask-type:alpha" maskUnits="userSpaceOnUse" x="215" y="129" width="152" height="78">
<rect id="highlight_mask-lazy" x="215" y="129.004" width="152" height="77" fill="#5756D6"/>
</mask>
<g mask="url(#mask1_2277_9304)">
<rect id="highlight-lazy" opacity="0.3" x="252.195" y="-9.56641" width="65.357" height="365.002" transform="rotate(-18.0484 252.195 -9.56641)" fill="url(#paint0_radial_2277_9304)"/>
</g>
</g>
<g id="content-lazy">
<path id="LAZY" d="M237.355 152.922H245.355C245.235 155.202 245.155 161.042 245.155 167.842C245.155 170.682 245.155 173.682 245.195 176.002C248.515 176.002 253.195 176.002 256.995 175.882C256.995 177.042 256.955 178.202 256.955 179.402C256.955 180.602 256.995 181.762 256.995 182.922H237.355C237.355 180.442 237.475 174.322 237.475 167.922C237.475 160.802 237.475 155.762 237.355 152.922ZM271.547 162.522L268.907 171.282C270.507 171.322 272.147 171.322 273.347 171.322C274.587 171.322 276.267 171.322 277.907 171.282C277.027 168.242 276.027 165.042 275.187 162.402C274.347 159.962 273.827 158.082 273.387 156.722C272.947 158.082 272.387 159.922 271.547 162.522ZM290.027 182.922H281.067C280.907 181.922 280.307 179.722 279.547 176.922C277.307 176.922 275.027 176.922 273.307 176.922C271.707 176.922 269.427 176.922 267.227 176.922C266.467 179.562 265.827 181.762 265.547 182.922H257.267C260.147 175.442 266.107 157.242 267.507 152.922H279.547C281.027 157.282 286.947 175.282 290.027 182.922ZM317.874 182.922H291.794C291.874 181.842 291.874 180.962 291.874 180.082C291.874 178.842 291.874 177.162 291.834 176.522C293.954 174.802 299.554 168.802 304.034 163.802C305.634 162.002 307.194 160.762 308.594 159.682L308.514 159.442C306.674 159.562 304.754 159.562 302.554 159.562C296.554 159.562 294.234 159.602 291.954 159.642C291.994 158.642 292.034 157.042 292.034 156.202C292.034 155.202 292.034 154.002 291.994 152.922H317.794C317.754 154.042 317.714 154.962 317.714 155.962C317.714 156.922 317.714 158.682 317.794 159.482C315.794 161.162 311.154 166.562 306.474 171.802C304.594 173.922 303.314 175.042 302.034 176.082L302.074 176.242C303.874 176.202 305.674 176.162 307.354 176.202C312.474 176.202 315.274 176.082 317.834 175.962C317.754 177.282 317.754 179.082 317.754 180.002C317.754 180.922 317.794 181.842 317.874 182.922ZM339.908 152.922H348.468C345.428 158.082 339.508 169.282 337.468 173.922C337.468 178.362 337.548 181.682 337.588 182.962C336.508 182.882 334.908 182.882 333.628 182.882C332.348 182.882 330.748 182.882 329.628 182.962C329.708 181.682 329.788 178.362 329.788 173.882C327.828 169.162 321.828 157.682 318.748 152.922H328.148C328.868 154.642 330.708 159.122 332.068 162.482C332.788 164.202 333.348 165.602 333.788 166.762H334.108C334.508 165.682 335.028 164.362 335.788 162.682C337.268 159.202 339.348 154.602 339.908 152.922Z" fill="#F7FCFD"/>
</g>
</g>
<g id="flap-lazy" filter="url(#filter1_d_2277_9304)">
<rect x="443.992" y="-23" width="152" height="77" transform="rotate(90 443.992 -23)" fill="#F7FCFD"/>
</g>
</g>
</g>
</g>
<defs>
<filter id="filter0_d_2277_9304" x="205" y="125" width="168" height="93" filterUnits="userSpaceOnUse" color-interpolation-filters="sRGB">
<feFlood flood-opacity="0" result="BackgroundImageFix"/>
<feColorMatrix in="SourceAlpha" type="matrix" values="0 0 0 0 0 0 0 0 0 0 0 0 0 0 0 0 0 0 127 0" result="hardAlpha"/>
<feOffset dx="-2" dy="4"/>
<feGaussianBlur stdDeviation="4"/>
<feComposite in2="hardAlpha" operator="out"/>
<feColorMatrix type="matrix" values="0 0 0 0 0 0 0 0 0 0 0 0 0 0 0 0 0 0 0.3 0"/>
<feBlend mode="normal" in2="BackgroundImageFix" result="effect1_dropShadow_2277_9304"/>
<feBlend mode="normal" in="SourceGraphic" in2="effect1_dropShadow_2277_9304" result="shape"/>
</filter>
<filter id="filter1_d_2277_9304" x="358.992" y="-29" width="93" height="168" filterUnits="userSpaceOnUse" color-interpolation-filters="sRGB">
<feFlood flood-opacity="0" result="BackgroundImageFix"/>
<feColorMatrix in="SourceAlpha" type="matrix" values="0 0 0 0 0 0 0 0 0 0 0 0 0 0 0 0 0 0 127 0" result="hardAlpha"/>
<feOffset dy="2"/>
<feGaussianBlur stdDeviation="4"/>
<feComposite in2="hardAlpha" operator="out"/>
<feColorMatrix type="matrix" values="0 0 0 0 0 0 0 0 0 0 0 0 0 0 0 0 0 0 0.2 0"/>
<feBlend mode="normal" in2="BackgroundImageFix" result="effect1_dropShadow_2277_9304"/>
<feBlend mode="normal" in="SourceGraphic" in2="effect1_dropShadow_2277_9304" result="shape"/>
</filter>
<radialGradient id="paint0_radial_2277_9304" cx="0" cy="0" r="1" gradientUnits="userSpaceOnUse" gradientTransform="translate(284.874 172.935) rotate(90) scale(182.501 32.6785)">
<stop stop-color="white"/>
<stop offset="1" stop-color="#999999" stop-opacity="0"/>
</radialGradient>
</defs>
</svg>
