<svg width="962" height="962" viewBox="0 0 962 962" fill="none" xmlns="http://www.w3.org/2000/svg">
<g id="label-online">
<mask id="mask0_2281_9328" style="mask-type:alpha" maskUnits="userSpaceOnUse" x="0" y="0" width="962" height="962">
<rect id="label_mask-online" x="480.832" width="680" height="680" transform="rotate(45 480.832 0)" fill="#D9D9D9"/>
</mask>
<g mask="url(#mask0_2281_9328)">
<g id="label_group-online">
<g id="label-online_2">
<g id="base-online" filter="url(#filter0_d_2281_9328)">
<rect x="367" y="291.996" width="406" height="77" fill="#5756D6"/>
</g>
<g id="highlight_group-online">
<mask id="mask1_2281_9328" style="mask-type:alpha" maskUnits="userSpaceOnUse" x="367" y="291" width="406" height="78">
<rect id="highlight-mask-online" x="367" y="291.996" width="406" height="77" fill="#5756D6"/>
</mask>
<g mask="url(#mask1_2281_9328)">
<rect id="highlight-online" opacity="0.3" x="630.02" y="158.652" width="65.357" height="365.003" transform="rotate(-15.5923 630.02 158.652)" fill="url(#paint0_radial_2281_9328)"/>
</g>
</g>
<g id="content-online">
<path id="ONLINE" d="M520.466 330.857C520.466 340.687 514.821 346.217 505.874 346.217C496.926 346.217 491.397 340.687 491.397 330.857C491.397 320.949 497.31 316.265 505.874 316.265C514.437 316.265 520.466 320.949 520.466 330.857ZM505.912 339.497C510.443 339.497 512.824 336.463 512.824 331.087C512.824 325.673 510.405 322.946 505.912 322.946C501.419 322.946 498.923 325.596 498.923 331.087C498.923 336.54 501.381 339.497 505.912 339.497ZM544.908 316.841H551.628C551.589 319.874 551.513 325.097 551.513 331.202C551.513 337.577 551.513 341.877 551.589 345.641H543.717C542.297 342.837 537.804 336.002 534.117 330.434C532.965 328.553 532.005 326.633 531.237 324.713C531.429 327.209 531.545 329.551 531.583 331.778C531.621 338.844 531.621 343.682 531.737 345.641H524.825C524.863 341.839 524.94 337.385 524.94 331.241C524.94 325.135 524.94 320.527 524.825 316.841H533.772C534.77 318.876 539.724 326.095 543.103 331.663C544.025 333.199 544.908 335.004 545.561 336.77C545.369 334.505 545.215 332.239 545.215 330.127C545.215 325.212 545.061 319.375 544.908 316.841ZM557.395 316.841H565.075C564.96 319.029 564.883 324.636 564.883 331.164C564.883 333.89 564.883 336.77 564.921 338.997C568.109 338.997 572.601 338.997 576.249 338.882C576.249 339.996 576.211 341.109 576.211 342.261C576.211 343.413 576.249 344.527 576.249 345.641H557.395C557.395 343.26 557.51 337.385 557.51 331.241C557.51 324.405 557.51 319.567 557.395 316.841ZM587.032 345.641H579.39C579.506 341.455 579.506 337.346 579.506 331.241C579.506 325.097 579.506 320.988 579.39 316.841H587.032C586.917 320.911 586.917 325.058 586.917 331.202C586.917 337.308 586.917 341.417 587.032 345.641ZM612.882 316.841H619.602C619.563 319.874 619.486 325.097 619.486 331.202C619.486 337.577 619.486 341.877 619.563 345.641H611.691C610.27 342.837 605.778 336.002 602.091 330.434C600.939 328.553 599.979 326.633 599.211 324.713C599.403 327.209 599.518 329.551 599.557 331.778C599.595 338.844 599.595 343.682 599.71 345.641H592.798C592.837 341.839 592.914 337.385 592.914 331.241C592.914 325.135 592.914 320.527 592.798 316.841H601.746C602.744 318.876 607.698 326.095 611.077 331.663C611.998 333.199 612.882 335.004 613.534 336.77C613.342 334.505 613.189 332.239 613.189 330.127C613.189 325.212 613.035 319.375 612.882 316.841ZM625.369 316.841H648.178C648.14 317.493 648.102 318.837 648.102 319.797C648.102 320.834 648.102 322.447 648.178 323.177C642.918 323.138 637.119 323.1 632.857 323.1V328.169C637.964 328.169 643.609 328.169 647.833 328.053C647.794 329.359 647.794 332.585 647.794 333.967C643.647 333.89 637.926 333.852 632.857 333.852V339.074C637.119 339.074 643.148 339.036 648.178 338.997C648.102 339.765 648.102 341.378 648.102 342.53C648.102 343.452 648.102 344.873 648.178 345.641H625.369C625.522 341.877 625.522 337.385 625.522 331.241C625.522 325.135 625.522 320.412 625.369 316.841Z" fill="#F7FCFD"/>
</g>
</g>
<g id="flap-online" filter="url(#filter1_d_2281_9328)">
<rect x="850" y="-114" width="406" height="77" transform="rotate(90 850 -114)" fill="#F7FCFD"/>
</g>
</g>
</g>
</g>
<defs>
<filter id="filter0_d_2281_9328" x="357" y="287.996" width="422" height="93" filterUnits="userSpaceOnUse" color-interpolation-filters="sRGB">
<feFlood flood-opacity="0" result="BackgroundImageFix"/>
<feColorMatrix in="SourceAlpha" type="matrix" values="0 0 0 0 0 0 0 0 0 0 0 0 0 0 0 0 0 0 127 0" result="hardAlpha"/>
<feOffset dx="-2" dy="4"/>
<feGaussianBlur stdDeviation="4"/>
<feComposite in2="hardAlpha" operator="out"/>
<feColorMatrix type="matrix" values="0 0 0 0 0 0 0 0 0 0 0 0 0 0 0 0 0 0 0.3 0"/>
<feBlend mode="normal" in2="BackgroundImageFix" result="effect1_dropShadow_2281_9328"/>
<feBlend mode="normal" in="SourceGraphic" in2="effect1_dropShadow_2281_9328" result="shape"/>
</filter>
<filter id="filter1_d_2281_9328" x="765" y="-120" width="93" height="422" filterUnits="userSpaceOnUse" color-interpolation-filters="sRGB">
<feFlood flood-opacity="0" result="BackgroundImageFix"/>
<feColorMatrix in="SourceAlpha" type="matrix" values="0 0 0 0 0 0 0 0 0 0 0 0 0 0 0 0 0 0 127 0" result="hardAlpha"/>
<feOffset dy="2"/>
<feGaussianBlur stdDeviation="4"/>
<feComposite in2="hardAlpha" operator="out"/>
<feColorMatrix type="matrix" values="0 0 0 0 0 0 0 0 0 0 0 0 0 0 0 0 0 0 0.2 0"/>
<feBlend mode="normal" in2="BackgroundImageFix" result="effect1_dropShadow_2281_9328"/>
<feBlend mode="normal" in="SourceGraphic" in2="effect1_dropShadow_2281_9328" result="shape"/>
</filter>
<radialGradient id="paint0_radial_2281_9328" cx="0" cy="0" r="1" gradientUnits="userSpaceOnUse" gradientTransform="translate(662.698 341.154) rotate(90) scale(182.501 32.6785)">
<stop stop-color="white"/>
<stop offset="1" stop-color="#999999" stop-opacity="0"/>
</radialGradient>
</defs>
</svg>
