<svg width="477" height="477" viewBox="0 0 477 477" fill="none" xmlns="http://www.w3.org/2000/svg">
<g id="label-isnt">
<mask id="mask0_2277_9248" style="mask-type:alpha" maskUnits="userSpaceOnUse" x="-1" y="0" width="478" height="477">
<rect id="label_mask-isnt" x="238.293" width="337" height="337" transform="rotate(45 238.293 0)" fill="#D9D9D9"/>
</mask>
<g mask="url(#mask0_2277_9248)">
<g id="label_group-isnt">
<g id="label-isnt_2">
<g id="base-isnt" filter="url(#filter0_d_2277_9248)">
<rect x="187.996" y="139.012" width="189" height="77" fill="#5756D6"/>
</g>
<g id="highlight_group-isnt">
<mask id="mask1_2277_9248" style="mask-type:alpha" maskUnits="userSpaceOnUse" x="187" y="139" width="190" height="78">
<rect id="highlight_mask-isnt" x="187.996" y="139.008" width="189" height="77" fill="#5756D6"/>
</mask>
<g mask="url(#mask1_2277_9248)">
<rect id="highlight-isnt" opacity="0.3" x="256.863" y="-7.94141" width="65.357" height="365.002" transform="rotate(-7.96851 256.863 -7.94141)" fill="url(#paint0_radial_2277_9248)"/>
</g>
</g>
<g id="content-isnt">
<path id="ISN&#226;&#128;&#153;T" d="M237.797 195.012H229.837C229.957 190.652 229.957 186.372 229.957 180.012C229.957 173.612 229.957 169.332 229.837 165.012H237.797C237.677 169.252 237.677 173.572 237.677 179.972C237.677 186.332 237.677 190.612 237.797 195.012ZM250.324 185.252V185.652C250.324 188.332 251.684 189.292 256.284 189.292C260.764 189.292 261.964 188.292 261.964 186.652C261.964 184.892 260.884 183.572 254.884 182.772C245.484 181.452 242.804 178.292 242.804 173.212C242.804 168.212 246.884 164.452 255.764 164.452C265.404 164.452 268.924 167.692 268.924 172.812C268.924 173.332 268.884 173.892 268.844 174.492C268.004 174.452 266.684 174.412 265.324 174.412C263.964 174.412 262.564 174.452 261.724 174.492C261.764 174.212 261.764 173.892 261.764 173.652C261.764 171.932 260.644 170.732 255.524 170.732C251.644 170.732 250.484 171.692 250.484 173.172C250.484 174.532 251.204 175.892 257.604 176.772C266.084 177.972 269.324 180.812 269.324 186.372C269.324 191.812 265.484 195.572 256.324 195.572C246.404 195.572 242.564 192.412 242.564 187.052C242.564 186.412 242.604 185.812 242.684 185.132C243.524 185.292 244.924 185.372 246.324 185.372C247.844 185.372 249.244 185.332 250.324 185.252ZM294.628 165.012H301.628C301.588 168.172 301.508 173.612 301.508 179.972C301.508 186.612 301.508 191.092 301.588 195.012H293.388C291.908 192.092 287.228 184.972 283.388 179.172C282.188 177.212 281.188 175.212 280.388 173.212C280.588 175.812 280.708 178.252 280.748 180.572C280.788 187.932 280.788 192.972 280.908 195.012H273.708C273.748 191.052 273.828 186.412 273.828 180.012C273.828 173.652 273.828 168.852 273.708 165.012H283.028C284.068 167.132 289.228 174.652 292.748 180.452C293.708 182.052 294.628 183.932 295.308 185.772C295.108 183.412 294.948 181.052 294.948 178.852C294.948 173.732 294.788 167.652 294.628 165.012ZM306.195 165.012C307.115 165.052 308.315 165.052 309.595 165.052C310.635 165.052 312.035 165.052 313.155 165.012C312.275 168.652 310.395 176.772 309.835 179.092C308.395 178.892 305.955 178.452 304.515 178.292C305.195 175.212 305.995 168.132 306.195 165.012ZM313.692 165.012H337.692C337.652 165.852 337.652 167.172 337.652 168.412C337.652 169.492 337.652 170.932 337.692 171.852C334.852 171.812 332.012 171.772 329.492 171.772C329.492 182.292 329.532 192.692 329.652 195.052C328.612 194.932 326.852 194.932 325.692 194.932C324.492 194.932 322.892 194.932 321.732 195.052C321.852 192.732 321.892 182.332 321.892 171.772C319.372 171.772 316.532 171.812 313.692 171.852C313.732 170.932 313.732 169.492 313.732 168.412C313.732 167.172 313.732 165.892 313.692 165.012Z" fill="#F7FCFD"/>
</g>
</g>
<g id="flap-isnt" filter="url(#filter1_d_2277_9248)">
<rect x="376.996" y="139" width="189" height="77" transform="rotate(-90 376.996 139)" fill="#F7FCFD"/>
</g>
</g>
</g>
</g>
<defs>
<filter id="filter0_d_2277_9248" x="177.996" y="135.012" width="205" height="93" filterUnits="userSpaceOnUse" color-interpolation-filters="sRGB">
<feFlood flood-opacity="0" result="BackgroundImageFix"/>
<feColorMatrix in="SourceAlpha" type="matrix" values="0 0 0 0 0 0 0 0 0 0 0 0 0 0 0 0 0 0 127 0" result="hardAlpha"/>
<feOffset dx="-2" dy="4"/>
<feGaussianBlur stdDeviation="4"/>
<feComposite in2="hardAlpha" operator="out"/>
<feColorMatrix type="matrix" values="0 0 0 0 0 0 0 0 0 0 0 0 0 0 0 0 0 0 0.3 0"/>
<feBlend mode="normal" in2="BackgroundImageFix" result="effect1_dropShadow_2277_9248"/>
<feBlend mode="normal" in="SourceGraphic" in2="effect1_dropShadow_2277_9248" result="shape"/>
</filter>
<filter id="filter1_d_2277_9248" x="368.996" y="-56" width="93" height="205" filterUnits="userSpaceOnUse" color-interpolation-filters="sRGB">
<feFlood flood-opacity="0" result="BackgroundImageFix"/>
<feColorMatrix in="SourceAlpha" type="matrix" values="0 0 0 0 0 0 0 0 0 0 0 0 0 0 0 0 0 0 127 0" result="hardAlpha"/>
<feOffset dy="2"/>
<feGaussianBlur stdDeviation="4"/>
<feComposite in2="hardAlpha" operator="out"/>
<feColorMatrix type="matrix" values="0 0 0 0 0 0 0 0 0 0 0 0 0 0 0 0 0 0 0.2 0"/>
<feBlend mode="normal" in2="BackgroundImageFix" result="effect1_dropShadow_2277_9248"/>
<feBlend mode="normal" in="SourceGraphic" in2="effect1_dropShadow_2277_9248" result="shape"/>
</filter>
<radialGradient id="paint0_radial_2277_9248" cx="0" cy="0" r="1" gradientUnits="userSpaceOnUse" gradientTransform="translate(289.542 174.56) rotate(90) scale(182.501 32.6785)">
<stop stop-color="white"/>
<stop offset="1" stop-color="#999999" stop-opacity="0"/>
</radialGradient>
</defs>
</svg>
